<?xml version="1.0" standalone="no"?>
<!DOCTYPE svg PUBLIC "-//W3C//DTD SVG 20010904//EN"
 "http://www.w3.org/TR/2001/REC-SVG-20010904/DTD/svg10.dtd">
<svg version="1.0" xmlns="http://www.w3.org/2000/svg"
 width="658.000000pt" height="223.000000pt" viewBox="0 0 658.000000 223.000000"
 preserveAspectRatio="xMidYMid meet">

<g transform="translate(0.000000,223.000000) scale(0.100000,-0.100000)"
fill="#000000" stroke="none">
<path d="M1137 2213 c-3 -5 -6 -71 -6 -148 -1 -76 -8 -218 -16 -315 -8 -96
-14 -231 -13 -300 1 -123 1 -123 8 50 6 155 11 207 27 325 2 17 6 86 9 155 2
69 6 151 7 183 3 51 -4 71 -16 50z"/>
<path d="M860 2136 c0 -63 -2 -68 -20 -63 -19 5 -19 4 -3 -26 9 -18 12 -32 6
-34 -36 -12 -45 -30 -38 -71 4 -23 11 -40 15 -37 15 9 20 -10 30 -110 9 -83 8
-99 -5 -109 -15 -11 -23 -40 -24 -88 -1 -28 -1 -28 -21 -8 -18 18 -33 20 -127
20 -58 0 -134 5 -168 11 -34 6 -77 9 -96 7 -47 -4 136 -29 276 -37 l109 -6 19
-50 c10 -27 23 -54 29 -60 11 -10 10 -5 -8 61 -4 14 -1 21 10 21 12 0 16 -11
16 -41 0 -51 -7 -62 -45 -70 -111 -24 -210 -35 -335 -37 l-124 -2 -9 34 c-4
19 -15 49 -23 67 -9 18 -14 38 -12 44 3 7 -4 20 -14 30 -13 13 -18 30 -16 50
2 20 -2 33 -11 36 -11 4 -13 -5 -8 -47 6 -48 5 -51 -16 -51 -12 1 -33 7 -47
15 -14 8 -39 14 -56 15 -40 0 -43 4 -34 43 9 43 -4 77 -29 77 -30 0 -39 -27
-43 -129 -3 -81 -1 -95 15 -105 14 -9 21 -8 30 5 8 11 36 18 87 23 48 4 79 12
86 21 6 8 15 15 20 15 13 0 66 -144 59 -161 -3 -8 4 -20 15 -27 16 -10 20 -10
20 1 0 11 32 15 143 20 78 3 174 13 212 21 39 9 92 17 117 20 55 5 55 5 65
-136 l6 -97 -110 6 c-106 6 -206 -7 -218 -27 -3 -5 9 -4 27 1 18 6 99 9 180 7
l148 -3 9 -30 c11 -34 32 -147 28 -151 -1 -1 -28 -5 -59 -9 l-58 -7 0 28 c0
53 -19 104 -39 104 -27 0 -31 -21 -17 -84 8 -31 10 -58 7 -61 -4 -2 -29 -5
-55 -6 -56 -3 -61 2 -75 85 -17 97 -32 133 -24 61 3 -33 13 -82 22 -109 19
-59 28 -61 145 -45 44 6 105 13 134 16 30 3 49 9 44 12 -6 4 -13 24 -16 46 -8
65 -26 139 -40 160 -7 11 -16 61 -20 110 -4 50 -9 101 -11 115 -2 14 -4 28 -4
31 -1 4 -11 9 -22 12 -15 4 -20 11 -15 22 3 9 5 64 4 123 -2 139 -1 286 1 342
7 144 3 242 -9 254 -7 7 -10 -12 -10 -58z"/>
<path d="M6550 2123 c-12 -26 -32 -75 -45 -108 -13 -33 -47 -112 -75 -175 -28
-63 -56 -127 -62 -142 -5 -16 -14 -28 -19 -28 -5 0 -9 -10 -9 -23 0 -13 -4
-27 -9 -33 -5 -5 -27 -63 -49 -129 -46 -138 -52 -144 -162 -155 -36 -4 -56 -8
-45 -9 l20 -2 -20 -9 c-11 -5 -48 -9 -83 -9 -94 -1 -155 35 -176 105 -6 20 1
25 64 49 72 27 129 64 100 65 -16 0 -145 -43 -254 -85 -38 -14 -89 -27 -113
-28 -47 -2 -47 -3 -68 -103 -4 -24 -11 -31 -23 -27 -10 2 -51 -3 -92 -12 -41
-9 -89 -18 -105 -21 l-31 -6 7 64 c4 34 10 80 14 100 10 48 -5 55 -76 33 -65
-20 -136 -30 -329 -49 -116 -11 -168 -21 -250 -49 -124 -42 -229 -69 -240 -62
-5 3 -12 19 -15 36 -4 17 -20 63 -36 101 l-28 69 24 11 c25 11 56 91 54 140 0
12 -9 -6 -18 -42 -14 -52 -22 -68 -44 -78 -33 -16 -34 -32 -3 -113 13 -35 26
-83 30 -107 8 -57 10 -60 59 -67 57 -9 159 9 236 41 64 25 114 34 331 54 125
12 160 22 160 44 0 15 10 19 69 31 33 7 34 7 26 -21 -4 -16 -9 -50 -10 -76 -1
-27 -4 -51 -8 -54 -3 -4 -2 -15 4 -25 12 -23 62 -25 139 -5 30 8 76 17 103 21
39 6 47 5 47 -9 0 -20 16 -21 23 -2 3 8 9 46 13 85 l7 71 73 -2 c62 -3 73 -6
68 -18 -4 -8 -15 -40 -24 -70 -10 -30 -35 -98 -55 -150 -42 -108 -56 -151 -79
-232 -16 -56 -22 -137 -9 -124 4 3 30 -63 59 -148 44 -131 79 -216 136 -333
16 -32 5 -47 -47 -72 -26 -12 -45 -25 -42 -28 12 -11 66 9 90 35 l25 27 -23
60 c-13 33 -47 125 -75 205 -28 80 -65 180 -80 222 l-29 77 24 78 c13 43 57
176 97 296 64 192 75 217 93 214 11 -1 19 -8 17 -15 -1 -8 7 -30 19 -51 42
-75 141 -98 272 -65 34 9 82 21 106 27 45 11 91 45 91 67 0 10 -3 10 -15 0
-22 -19 -19 -4 23 95 22 50 42 98 45 107 5 15 11 16 37 7 37 -13 113 3 150 31
30 24 16 26 -25 4 -37 -19 -115 -28 -134 -16 -12 8 -10 17 7 53 23 49 126 301
161 394 13 33 27 71 32 84 18 45 1 32 -21 -16z m-800 -717 c0 -3 -4 -8 -10
-11 -5 -3 -10 -1 -10 4 0 6 5 11 10 11 6 0 10 -2 10 -4z"/>
<path d="M1978 1960 c3 -96 6 -177 8 -179 2 -3 24 5 48 18 57 28 92 21 101
-20 7 -32 24 -49 21 -22 0 10 4 18 9 18 6 0 15 3 21 7 18 12 168 11 198 -1 16
-7 66 -14 110 -17 45 -3 91 -10 103 -16 33 -16 38 -4 24 52 -7 27 -10 54 -6
60 4 7 28 21 54 32 41 19 69 21 271 24 124 1 250 5 281 9 l56 6 7 -32 c3 -17
6 -34 6 -38 0 -4 -46 -5 -102 -3 -57 2 -137 -1 -178 -7 -64 -8 -237 -36 -272
-44 -7 -1 -15 15 -18 36 -14 76 -37 59 -42 -30 -3 -62 9 -92 31 -78 6 3 9 10
6 15 -12 19 27 28 145 33 210 10 361 26 393 42 17 8 31 14 33 13 1 -2 4 -23 6
-47 l4 -45 47 1 c46 1 77 15 77 35 0 5 -4 6 -10 3 -5 -3 -10 2 -10 13 0 18 12
20 253 24 251 6 276 9 326 45 l24 18 -7 -90 c-4 -50 -9 -106 -12 -125 -3 -19
-8 -97 -11 -172 l-6 -138 -27 0 c-15 0 -38 -9 -52 -19 -23 -18 -29 -35 -58
-168 -8 -33 -24 -66 -47 -93 -29 -33 -34 -46 -29 -70 4 -21 2 -30 -8 -30 -9 0
-17 24 -24 73 l-10 72 2 -70 c1 -70 1 -70 -31 -86 -18 -9 -30 -12 -27 -7 3 5
3 31 -1 58 l-7 50 -91 0 c-116 0 -231 -11 -220 -20 4 -4 55 -4 113 1 58 4 125
8 149 8 l43 1 -5 -75 c-4 -75 -5 -76 -55 -125 -40 -40 -56 -50 -84 -50 -18 0
-60 -7 -91 -15 -61 -16 -97 -19 -97 -9 0 10 44 43 58 44 6 0 12 5 12 11 0 7
-11 8 -30 4 -23 -5 -30 -3 -30 9 0 20 -65 33 -85 16 -19 -16 -19 -44 0 -60 13
-11 8 -16 -35 -36 l-50 -23 -67 30 c-57 25 -75 29 -117 24 l-51 -6 -55 55
c-68 70 -94 76 -180 43 -96 -36 -249 -115 -276 -142 -48 -48 -22 -104 67 -151
40 -20 37 -44 -15 -107 -54 -67 -78 -111 -70 -131 7 -19 26 -22 22 -3 -1 6 4
28 12 47 l15 35 6 -35 6 -35 2 41 c0 24 8 47 17 54 27 23 65 97 58 114 -4 9
-31 33 -61 52 -103 66 -89 92 99 184 187 92 207 93 290 14 58 -55 59 -56 106
-50 48 6 89 -4 149 -37 41 -22 50 -21 98 4 32 17 49 20 93 15 29 -4 71 -2 93
4 21 6 64 12 95 13 54 3 58 6 108 58 28 30 60 67 71 82 14 19 32 29 60 33 51
7 58 15 46 46 -8 21 -4 31 25 68 34 43 56 103 69 187 4 24 15 53 25 65 16 20
27 23 99 23 45 0 81 3 81 8 0 4 -8 7 -17 7 -15 0 -16 2 -3 10 22 14 56 12 70
-5 7 -8 13 -40 15 -70 1 -46 7 -61 30 -85 16 -16 36 -32 46 -35 14 -5 57 9
101 33 3 2 4 -6 1 -17 -7 -27 10 -47 45 -54 15 -3 46 -24 69 -46 27 -27 51
-41 67 -41 27 0 34 -21 16 -50 -12 -19 6 -40 36 -40 13 0 24 -3 24 -6 0 -3
-16 -26 -35 -51 -38 -50 -36 -68 9 -93 21 -11 26 -21 26 -53 0 -39 1 -39 31
-33 l31 6 -31 -29 c-42 -39 -42 -82 -1 -111 29 -21 30 -24 24 -73 -3 -29 -14
-70 -25 -92 -44 -96 -58 -160 -43 -199 3 -9 30 -29 59 -46 61 -35 87 -61 68
-67 -7 -3 -13 -10 -13 -16 0 -7 -10 -17 -22 -22 -12 -6 -31 -25 -41 -42 -18
-32 -18 -33 0 -33 10 0 25 12 33 26 8 15 30 32 50 38 42 14 60 53 41 89 -9 18
-12 63 -9 160 1 75 0 133 -4 129 -4 -4 -9 -65 -10 -135 l-3 -127 -55 33 c-68
41 -72 62 -36 179 36 119 42 171 21 191 -9 10 -25 22 -36 27 -32 18 -22 46 36
95 30 26 55 51 55 56 0 13 -21 11 -54 -6 -42 -22 -54 -19 -48 11 4 22 -2 33
-33 59 l-38 31 38 42 c42 48 41 69 -5 79 -24 4 -29 10 -24 22 17 39 10 55 -30
69 -22 7 -55 28 -73 47 -19 19 -40 35 -48 35 -8 0 -16 8 -16 18 -2 23 -2 24 6
45 5 13 2 17 -14 17 -12 0 -21 6 -21 15 0 9 -12 20 -26 25 -33 13 -54 13 -34
0 12 -8 11 -10 -7 -10 -22 0 -22 2 -22 164 l0 163 28 21 c26 19 29 29 41 129
15 128 15 151 5 220 -4 28 -4 68 0 90 l8 38 14 -34 c8 -18 30 -92 49 -164 19
-72 44 -145 55 -162 12 -16 18 -22 16 -13 -6 18 12 25 98 33 53 5 214 34 445
80 77 16 96 20 240 55 136 33 191 40 257 31 35 -4 68 -4 75 0 7 5 36 8 64 8
66 -1 114 9 133 29 15 14 16 13 19 -14 5 -48 13 -62 22 -39 5 11 8 31 8 45 l0
25 -8 -25 c-5 -15 -7 11 -5 65 2 50 1 80 -2 67 -3 -16 -8 -20 -16 -13 -9 7
-11 -4 -9 -43 l4 -53 -61 -12 c-33 -6 -95 -11 -138 -10 -175 4 -201 2 -282
-25 -45 -15 -114 -31 -154 -36 -110 -13 -485 -88 -625 -124 -34 -9 -66 -15
-71 -12 -4 3 -13 31 -20 63 -21 96 -61 226 -82 262 -11 19 -18 41 -14 50 3 11
0 10 -10 -3 -18 -23 -19 -34 -19 -191 -1 -80 -5 -128 -14 -143 -7 -13 -15 -50
-17 -83 -3 -51 -8 -63 -33 -84 -36 -30 -47 -86 -31 -150 7 -29 9 -76 4 -131
-7 -85 -7 -85 -33 -82 -25 3 -27 8 -32 54 -7 72 -23 88 -79 80 l-44 -6 9 167
c4 93 8 221 7 286 l-2 117 27 0 27 0 -8 -112 c-10 -153 -14 -303 -9 -340 l5
-31 13 39 c9 25 16 109 20 234 4 135 10 205 20 227 23 51 12 143 -16 143 -6 0
-8 -4 -5 -10 3 -5 3 -32 -1 -60 l-7 -51 -88 3 c-49 2 -90 0 -92 -4 -1 -3 -55
-12 -120 -18 -123 -12 -209 -7 -264 16 -49 21 -165 17 -293 -10 -137 -29 -312
-42 -395 -28 -80 13 -174 -1 -226 -33 -22 -14 -44 -23 -49 -20 -6 4 -10 1 -10
-5 0 -20 -65 -39 -218 -65 -138 -23 -155 -24 -175 -10 -22 14 -23 18 -14 86
15 120 -10 235 -45 201 -11 -11 -10 -12 5 -7 16 7 17 -3 17 -121 l0 -129 -47
-1 c-27 0 -57 -4 -68 -8 -19 -7 -20 -2 -23 66 -1 40 -8 109 -15 153 -13 78
-13 76 -9 -95z m1832 -25 c129 0 135 -1 138 -21 3 -19 -3 -22 -59 -28 -34 -3
-112 -6 -173 -6 -61 0 -154 -7 -206 -15 -52 -8 -98 -15 -102 -15 -4 0 -6 19
-5 41 1 25 -3 44 -10 46 -13 5 -23 -36 -26 -109 -2 -41 -5 -48 -23 -48 -18 0
-22 8 -27 58 -4 31 -10 67 -13 79 -8 31 7 33 201 25 94 -3 231 -7 305 -7z
m196 -1 c-3 -9 -6 -22 -6 -30 0 -8 -7 -14 -15 -14 -10 0 -15 10 -15 30 0 24 4
30 21 30 15 0 19 -4 15 -16z m-1429 -141 c-2 -2 -35 1 -73 5 -73 9 -71 14 11
28 44 8 51 7 58 -10 4 -10 6 -21 4 -23z m1663 -507 c0 -3 -4 -8 -10 -11 -5 -3
-10 -1 -10 4 0 6 5 11 10 11 6 0 10 -2 10 -4z m55 -66 c-9 -10 -30 -23 -46
-29 -27 -9 -34 -7 -65 22 l-35 32 53 -3 c29 -2 64 1 78 6 31 12 38 -2 15 -28z"/>
<path d="M5823 2030 c0 -36 2 -50 4 -32 2 17 2 47 0 65 -2 17 -4 3 -4 -33z"/>
<path d="M5685 1839 c-92 -14 -101 -17 -55 -17 89 -1 189 17 169 31 -2 1 -53
-5 -114 -14z"/>
<path d="M5548 1813 c7 -3 16 -2 19 1 4 3 -2 6 -13 5 -11 0 -14 -3 -6 -6z"/>
<path d="M5506 1778 c-40 -61 -52 -124 -20 -97 7 6 50 13 96 16 50 4 74 9 62
13 -10 4 -42 4 -69 -1 -84 -13 -85 -13 -70 19 17 36 28 72 21 72 -3 0 -12 -10
-20 -22z"/>
<path d="M2053 1733 c-4 -9 -1 -71 5 -137 7 -67 12 -165 12 -219 0 -54 4 -106
9 -115 11 -21 17 -281 7 -304 -12 -26 -30 -28 -119 -16 -61 8 -89 17 -110 34
-16 13 -41 24 -56 24 -31 0 -131 -28 -147 -41 -6 -5 -13 -6 -17 -3 -3 3 -15 1
-26 -5 -15 -9 -26 -8 -40 1 -16 10 -26 9 -54 -4 -19 -9 -56 -20 -83 -24 -27
-3 -61 -15 -76 -25 -14 -11 -31 -19 -37 -19 -8 0 -88 -34 -133 -58 -5 -2 -8
17 -8 42 0 24 -5 48 -12 52 -7 4 -8 3 -4 -4 4 -6 1 -50 -6 -97 -10 -73 -10
-88 2 -95 8 -5 19 -6 24 -3 6 4 5 8 -2 11 -7 2 -12 16 -12 31 0 20 8 31 34 45
19 10 41 16 49 13 8 -3 49 14 91 39 41 24 77 44 79 44 3 0 7 -18 11 -41 4 -23
13 -54 21 -69 l15 -29 -58 -11 c-31 -6 -78 -17 -104 -24 l-46 -13 -36 36 c-20
19 -36 31 -36 24 0 -6 13 -22 30 -36 l29 -25 -30 -12 c-57 -24 -21 -21 57 5
146 48 378 57 457 19 29 -14 40 -15 49 -6 9 9 7 12 -11 12 -12 0 -32 5 -44 12
-12 7 -60 15 -107 18 l-85 5 21 20 c33 31 46 64 40 99 -5 25 -2 34 14 44 17
10 23 10 35 -2 8 -8 12 -21 9 -29 -11 -30 14 -57 54 -57 30 0 45 7 70 33 18
18 32 41 32 51 0 16 1 16 16 2 26 -27 46 -33 129 -41 97 -10 123 -8 153 12
l24 15 -6 176 c-3 97 -3 168 0 157 15 -58 27 -85 36 -85 6 0 7 7 3 18 -11 26
-24 85 -27 121 -3 36 -15 41 -21 9 -3 -13 -3 18 0 67 4 75 -6 230 -21 310 -2
11 0 27 5 37 6 11 4 18 -7 22 -25 10 -34 7 -41 -11z m-548 -823 c-3 -5 -10
-10 -16 -10 -5 0 -9 5 -9 10 0 6 7 10 16 10 8 0 12 -4 9 -10z"/>
<path d="M5860 1729 c0 -8 -12 -38 -26 -67 -23 -46 -30 -53 -72 -64 -36 -10
-47 -18 -47 -33 0 -46 109 -1 137 56 24 48 33 98 19 112 -8 8 -11 7 -11 -4z"/>
<path d="M4621 1673 c-18 -16 -20 -25 -14 -81 5 -51 9 -62 22 -58 9 3 35 10
59 16 40 10 55 31 32 45 -5 3 -10 26 -10 51 0 43 0 44 -34 44 -19 0 -43 -8
-55 -17z"/>
<path d="M5720 1686 c-3 -2 -59 -16 -125 -31 -66 -15 -124 -31 -130 -37 -11
-11 -1 -10 145 17 133 24 151 29 153 40 2 10 -35 20 -43 11z"/>
<path d="M308 1633 c6 -2 18 -2 25 0 6 3 1 5 -13 5 -14 0 -19 -2 -12 -5z"/>
<path d="M3716 1550 c18 -7 21 -15 19 -56 -2 -25 -8 -49 -13 -53 -6 -4 -5 -11
3 -18 18 -17 25 4 25 72 0 39 -4 54 -16 59 -24 9 -42 6 -18 -4z"/>
<path d="M5615 1549 c-55 -12 -144 -38 -180 -53 -43 -18 -103 -47 -85 -43 8 3
87 24 175 47 154 41 207 61 155 59 -14 -1 -43 -5 -65 -10z"/>
<path d="M6350 1554 c0 -9 84 -42 128 -49 66 -11 50 1 -28 20 -39 9 -73 21
-76 26 -6 10 -24 12 -24 3z"/>
<path d="M3519 1523 c-3 -74 -5 -84 -19 -93 -11 -7 -4 -10 25 -9 22 0 34 3 28
6 -8 3 -13 23 -13 49 0 40 2 43 18 33 25 -16 96 -3 88 16 -3 9 3 15 17 18 12
2 -15 5 -60 6 l-83 1 -1 -27z m64 10 c-7 -2 -21 -2 -30 0 -10 3 -4 5 12 5 17
0 24 -2 18 -5z"/>
<path d="M3062 1529 c-27 -10 -26 -41 1 -45 10 -1 34 7 53 18 l34 20 0 -25 c0
-24 -4 -26 -52 -30 l-53 -3 58 -2 c56 -2 57 -2 57 26 0 48 -39 65 -98 41z"/>
<path d="M2413 1493 c9 -2 25 -2 35 0 9 3 1 5 -18 5 -19 0 -27 -2 -17 -5z"/>
<path d="M2526 1474 c-8 -21 3 -84 18 -100 6 -6 19 -9 29 -6 16 4 18 11 12 51
-4 25 -12 52 -17 59 -15 17 -35 15 -42 -4z"/>
<path d="M2612 1483 c10 -2 19 -17 22 -36 3 -18 10 -57 15 -87 9 -53 9 -52 6
25 -5 106 -4 105 -34 104 -17 -1 -20 -3 -9 -6z"/>
<path d="M2497 1428 c3 -24 10 -47 15 -53 7 -7 8 -3 4 10 -3 11 -7 35 -8 53
-1 17 -5 32 -9 32 -4 0 -5 -19 -2 -42z"/>
<path d="M2391 1439 c1 -13 5 -35 10 -49 6 -19 7 -14 4 19 -5 47 -16 70 -14
30z"/>
<path d="M3627 1454 c-3 -4 5 -16 19 -27 19 -14 28 -17 37 -8 8 8 7 11 -6 11
-10 0 -20 7 -23 15 -6 16 -17 19 -27 9z"/>
<path d="M2924 1331 l4 -109 -35 -5 c-19 -3 -45 -1 -59 5 -18 9 -27 9 -36 0
-7 -7 -44 -13 -82 -13 l-71 -2 75 -8 c41 -4 78 -5 82 -3 5 3 81 5 169 5 89 0
169 4 178 8 9 4 31 15 49 24 17 9 32 12 32 7 0 -6 7 -10 15 -10 9 0 48 -16 87
-36 59 -30 78 -35 107 -29 20 4 45 7 56 7 41 -1 231 20 268 29 88 23 11 45
-122 36 -47 -4 -96 -9 -108 -13 -43 -12 -24 20 22 40 25 10 54 31 66 47 23 33
17 59 -9 36 -10 -9 -35 -20 -58 -26 -22 -6 -49 -20 -59 -31 -17 -18 -17 -20
-2 -14 9 3 17 10 17 14 0 4 20 13 45 20 25 7 48 17 51 21 3 5 10 9 16 9 16 0
-32 -49 -64 -66 -15 -8 -36 -14 -48 -14 -12 0 -35 -8 -53 -17 -39 -20 -89 -18
-136 8 -40 21 -67 24 -77 8 -4 -7 0 -9 13 -5 12 4 40 -3 69 -18 63 -31 126
-44 122 -25 -2 8 4 14 12 14 27 0 17 -39 -13 -49 -23 -9 -39 -4 -102 27 -42
20 -82 37 -90 37 -9 0 -18 6 -21 14 -4 12 -9 11 -25 -5 -14 -14 -33 -20 -62
-19 -23 0 -62 1 -86 0 -24 0 -45 1 -47 2 -1 2 -7 46 -13 98 -8 73 -8 96 2 102
7 4 -9 8 -35 8 l-48 0 4 -109z m57 82 c0 -10 2 -34 4 -53 13 -129 12 -135 -17
-138 l-28 -3 0 90 c0 49 -3 96 -6 105 -5 12 0 16 20 16 18 0 26 -5 27 -17z"/>
<path d="M3590 1430 c-9 -6 -10 -10 -3 -10 6 0 15 5 18 10 8 12 4 12 -15 0z"/>
<path d="M3203 1335 c0 -22 2 -30 4 -17 2 12 2 30 0 40 -3 9 -5 -1 -4 -23z"/>
<path d="M2405 1339 c6 -30 15 -37 15 -11 0 11 -4 23 -9 27 -6 3 -8 -4 -6 -16z"/>
<path d="M1114 1220 c0 -58 1 -81 3 -52 2 28 2 76 0 105 -2 28 -3 5 -3 -53z"/>
<path d="M2453 1313 c9 -2 23 -2 30 0 6 3 -1 5 -18 5 -16 0 -22 -2 -12 -5z"/>
<path d="M3077 1284 c-9 -9 11 -44 25 -44 7 0 6 5 -2 15 -6 8 -9 19 -5 25 7
11 -8 14 -18 4z"/>
<path d="M3128 1274 c12 -8 32 -13 45 -11 19 4 18 4 -5 6 -15 0 -30 6 -33 11
-3 6 -11 10 -18 10 -6 0 -1 -7 11 -16z"/>
<path d="M3390 1269 c-19 -11 -26 -17 -15 -13 11 4 35 9 54 12 23 3 29 7 20
13 -18 11 -18 11 -59 -12z"/>
<path d="M2548 1249 c-10 -5 -18 -20 -18 -32 0 -21 -4 -22 -128 -25 -70 -2
-149 -7 -177 -11 l-50 -9 52 -1 c28 0 54 -5 57 -9 3 -5 47 -4 98 2 109 13 128
11 128 -14 0 -10 5 -22 10 -25 6 -3 10 -1 10 6 0 8 7 6 19 -5 15 -14 24 -15
40 -6 25 13 28 55 7 105 -16 37 -21 40 -48 24z m41 -52 c16 -43 9 -67 -18 -67
-26 0 -34 15 -33 57 3 65 28 70 51 10z"/>
<path d="M4760 1248 c-135 -28 -187 -42 -205 -54 -11 -8 -14 -14 -7 -14 8 0
12 -17 12 -50 0 -42 4 -52 25 -66 21 -14 40 -15 127 -8 l103 9 12 70 c6 39 12
82 12 98 1 30 -4 31 -79 15z m36 -80 l-11 -63 -65 -7 c-36 -3 -78 -11 -93 -17
-16 -6 -30 -11 -32 -11 -2 0 -5 25 -7 55 -3 54 -2 55 24 55 45 0 130 23 135
37 3 7 18 13 33 13 l27 0 -11 -62z"/>
<path d="M6100 1235 c0 -3 35 -23 78 -43 70 -34 84 -37 157 -36 92 1 183 25
210 54 27 30 14 33 -41 11 -27 -11 -42 -20 -34 -21 12 0 11 -3 -3 -11 -10 -6
-25 -8 -33 -5 -8 3 -14 1 -14 -4 0 -6 -37 -10 -86 -10 -84 0 -109 7 -206 56
-16 8 -28 12 -28 9z"/>
<path d="M5908 1207 c-17 -15 -28 -35 -30 -57 -3 -34 -4 -35 -53 -40 -48 -5
-96 -30 -126 -66 -13 -16 -12 -16 11 -4 14 7 37 22 51 32 14 11 48 22 75 26
48 7 49 8 52 44 4 43 29 69 80 78 l37 8 -35 1 c-23 1 -44 -7 -62 -22z"/>
<path d="M3180 1190 c-13 -24 -40 -25 -83 -5 l-32 16 24 -21 c23 -20 76 -27
96 -12 11 7 19 42 11 42 -3 0 -10 -9 -16 -20z"/>
<path d="M10 1173 c1 -41 67 -153 91 -153 14 0 3 32 -14 42 -20 10 -59 83 -50
91 3 3 -2 13 -11 22 -15 15 -16 15 -16 -2z"/>
<path d="M3590 1159 c-58 -11 -427 -42 -505 -43 l-60 -1 1 -35 c4 -82 26 -225
39 -249 l14 -26 -4 30 c-2 17 -7 65 -11 107 -3 43 -10 80 -15 84 -5 3 -9 18
-9 34 0 36 5 37 150 45 193 10 431 36 464 51 29 12 29 13 6 12 -14 0 -45 -4
-70 -9z"/>
<path d="M67 1115 c10 -13 25 -27 33 -30 8 -4 2 8 -14 24 -36 37 -43 40 -19 6z"/>
<path d="M175 1121 c-29 -7 -29 -7 14 -14 34 -6 48 -4 60 8 14 13 12 15 -14
14 -17 -1 -43 -4 -60 -8z"/>
<path d="M1121 1073 c-1 -18 8 -57 20 -88 25 -66 35 -70 13 -5 -9 25 -19 63
-24 85 -7 38 -8 39 -9 8z"/>
<path d="M322 1059 c-17 -13 -22 -27 -20 -46 3 -26 7 -28 58 -34 69 -7 81 2
78 57 l-3 43 -45 -1 c-29 0 -54 -7 -68 -19z"/>
<path d="M3078 1057 c-15 -12 -14 -14 13 -24 17 -7 31 -7 35 -2 3 5 15 10 27
10 17 1 18 2 5 6 -10 2 -18 9 -18 14 0 13 -42 10 -62 -4z"/>
<path d="M5825 1032 c-54 -26 -75 -41 -66 -46 8 -5 11 -19 7 -37 -3 -15 -1
-31 5 -34 5 -4 9 -3 8 2 -1 4 -1 25 0 47 l1 39 48 -6 c43 -6 45 -5 18 6 l-28
12 36 18 c34 16 39 16 91 -1 30 -9 55 -20 55 -23 0 -3 -15 -11 -32 -17 -33
-12 -33 -12 -3 -6 17 3 38 7 48 10 15 5 18 1 15 -17 -2 -18 -17 -27 -70 -45
l-68 -23 -1 22 c0 14 -2 17 -6 7 -2 -8 -9 -25 -16 -38 -8 -17 -8 -25 1 -34 9
-9 12 -8 12 5 0 9 10 19 23 21 12 3 34 7 48 10 29 6 94 47 91 59 -1 4 -2 22
-2 40 0 23 -3 28 -10 17 -8 -12 -11 -12 -28 3 -10 9 -26 17 -34 17 -9 0 -21 7
-28 15 -17 21 -24 19 -115 -23z"/>
<path d="M6552 1035 c-7 -8 -24 -15 -38 -15 -14 0 -36 -12 -51 -26 -22 -22
-29 -24 -56 -15 -47 17 -85 14 -97 -8 -16 -31 -12 -41 15 -41 22 0 29 -9 27
-31 -1 -4 12 -9 28 -13 34 -6 70 -56 70 -95 0 -13 -10 -41 -22 -62 -19 -34
-32 -43 -117 -76 -76 -30 -97 -42 -99 -60 -3 -19 -7 -20 -35 -12 -41 12 -97
12 -97 0 0 -5 -8 -11 -17 -14 -10 -2 -25 -8 -33 -11 -11 -5 -19 3 -28 27 -15
43 -10 58 29 81 36 21 33 42 -7 39 -30 -2 -318 90 -341 109 -7 6 -13 14 -13
18 0 8 43 30 105 54 l40 16 -44 -5 c-51 -6 -130 -41 -138 -61 -21 -55 39 -97
239 -169 34 -12 45 -20 41 -31 -4 -10 2 -17 16 -21 17 -4 21 -13 21 -48 0 -36
-7 -52 -46 -100 -34 -42 -43 -60 -35 -68 7 -7 11 -64 12 -157 1 -80 5 -158 10
-175 5 -20 7 -3 4 50 -3 44 -6 128 -7 188 l-2 107 39 40 c22 22 48 40 58 40
10 0 21 9 24 19 3 11 18 25 34 31 15 7 34 18 40 26 15 18 53 18 90 -2 17 -8
48 -14 69 -13 25 2 45 -3 57 -13 10 -8 44 -19 75 -23 55 -6 58 -5 67 18 5 14
29 38 53 54 34 22 45 37 52 68 4 22 13 50 19 62 7 16 6 30 -6 55 -24 51 -39
118 -33 144 4 16 0 27 -16 38 -12 9 -20 17 -17 19 2 2 21 14 42 26 20 12 37
29 37 37 0 17 -2 17 -18 -1z m-172 -75 c0 -5 -7 -7 -15 -4 -8 4 -15 8 -15 10
0 2 7 4 15 4 8 0 15 -4 15 -10z"/>
<path d="M125 1020 c3 -5 8 -10 11 -10 2 0 4 5 4 10 0 6 -5 10 -11 10 -5 0 -7
-4 -4 -10z"/>
<path d="M5402 997 c-12 -13 -22 -27 -22 -31 0 -4 -14 -24 -31 -45 -17 -21
-36 -58 -43 -82 l-13 -44 -114 -16 c-146 -21 -401 -77 -414 -91 -10 -10 25 -9
160 8 l51 6 17 -73 c19 -82 22 -119 8 -119 -5 0 -15 15 -21 34 -12 36 -68 121
-76 113 -4 -4 68 -140 87 -164 11 -13 9 -65 -9 -238 -6 -60 -8 -156 -3 -210 1
-18 27 -20 37 -3 4 6 3 8 -3 5 -23 -14 -24 47 -4 263 16 177 16 258 -3 329 -9
35 -16 64 -14 65 2 2 48 11 103 20 55 10 110 22 123 27 29 11 69 12 76 0 10
-15 71 -22 104 -10 28 9 35 8 66 -17 23 -19 37 -40 41 -63 4 -20 11 -39 16
-42 6 -3 12 -32 14 -65 2 -32 11 -77 21 -99 10 -25 17 -67 17 -110 0 -50 2
-60 6 -35 l7 35 7 -29 c6 -22 11 -26 17 -16 7 11 11 10 25 -3 19 -19 41 -22
50 -7 4 6 -5 41 -19 78 -14 37 -39 114 -57 172 -41 137 -61 178 -100 215 -18
17 -29 23 -24 15 8 -13 6 -13 -8 -2 -12 10 -15 26 -12 66 3 39 -1 61 -15 84
-11 18 -24 32 -30 32 -5 0 -10 7 -10 15 0 20 9 19 32 -2 17 -15 18 -15 13 -1
-4 9 -13 19 -22 22 -8 4 -13 13 -9 21 7 21 3 19 -22 -8z"/>
<path d="M2164 840 c0 -74 1 -105 3 -67 2 37 2 97 0 135 -2 37 -3 6 -3 -68z"/>
<path d="M6192 949 c-13 -5 -35 -6 -49 -3 -17 5 -24 3 -19 -4 3 -6 0 -12 -6
-15 -7 -3 25 -2 72 1 47 2 87 6 89 8 15 13 -59 24 -87 13z"/>
<path d="M210 895 c0 -5 5 -17 10 -25 5 -8 10 -10 10 -5 0 6 -5 17 -10 25 -5
8 -10 11 -10 5z"/>
<path d="M2211 864 c0 -11 3 -14 6 -6 3 7 2 16 -1 19 -3 4 -6 -2 -5 -13z"/>
<path d="M235 833 c4 -10 8 -26 10 -36 2 -9 7 -22 10 -28 13 -20 -5 -59 -31
-65 -18 -5 -32 0 -49 16 -16 15 -31 21 -46 17 -12 -3 -29 -1 -38 5 -10 6 -29
7 -51 1 l-35 -9 -1 -70 c-1 -38 1 -54 3 -36 3 20 10 32 19 32 8 0 40 12 70 26
l56 26 14 -21 c20 -28 59 -27 89 3 20 20 24 31 18 58 -8 40 -31 98 -39 98 -3
0 -3 -8 1 -17z"/>
<path d="M2213 795 c0 -27 2 -38 4 -22 2 15 2 37 0 50 -2 12 -4 0 -4 -28z"/>
<path d="M183 803 c9 -2 23 -2 30 0 6 3 -1 5 -18 5 -16 0 -22 -2 -12 -5z"/>
<path d="M2081 794 c0 -11 3 -14 6 -6 3 7 2 16 -1 19 -3 4 -6 -2 -5 -13z"/>
<path d="M6375 803 c-33 -8 -328 -153 -322 -159 3 -3 18 1 34 9 15 8 73 33
128 55 132 52 195 82 195 93 0 9 -3 10 -35 2z"/>
<path d="M1755 781 c-31 -6 -16 -9 65 -10 58 -1 121 -4 141 -7 l36 -6 -1 -67
c-1 -95 13 -308 24 -361 24 -110 25 -104 -14 -138 -22 -19 -61 -39 -97 -49
-96 -27 -89 -60 17 -84 30 -7 54 -16 54 -22 0 -5 7 -6 16 -3 11 4 18 -1 21
-14 6 -21 18 -26 28 -10 4 6 13 5 25 -2 29 -19 38 1 10 24 -24 19 -24 20 -8
64 8 24 12 41 7 39 -4 -3 -13 -21 -19 -40 -6 -19 -18 -35 -26 -35 -8 0 -14 4
-14 8 0 5 -12 9 -27 9 -16 0 -48 6 -72 13 l-45 12 51 17 c97 33 141 83 128
145 -12 56 -24 189 -31 331 -6 127 -5 142 11 158 9 10 16 20 14 22 -9 8 -257
13 -294 6z"/>
<path d="M300 764 c0 -4 13 -21 29 -38 102 -108 121 -144 156 -305 2 -9 10
-38 17 -66 14 -52 16 -194 4 -232 -9 -29 -57 -39 -93 -19 -15 8 -64 27 -108
42 -44 15 -84 31 -90 35 -5 5 -14 9 -21 9 -9 0 -71 26 -136 58 -5 2 -8 0 -8
-5 0 -4 18 -18 40 -31 22 -12 40 -27 40 -31 0 -5 8 -7 19 -4 10 2 24 -1 32 -9
8 -7 23 -15 34 -16 35 -6 39 -19 21 -82 -10 -34 -15 -64 -13 -67 9 -9 25 31
32 80 8 52 8 52 55 36 30 -11 32 -14 27 -48 -3 -20 -8 -44 -12 -53 -4 -11 -3
-18 3 -18 6 0 14 20 18 45 7 51 18 63 40 44 16 -13 120 -17 131 -5 3 3 9 34
12 68 7 60 7 61 15 28 19 -82 55 -180 66 -180 4 0 -1 30 -12 68 -10 37 -21 74
-23 82 -10 45 -58 232 -71 277 -8 29 -15 55 -14 58 0 3 -6 18 -13 33 -8 15
-17 40 -21 55 -6 26 -5 27 13 18 40 -22 33 -10 -12 20 -25 17 -69 59 -97 95
-48 61 -60 72 -60 58z"/>
<path d="M930 730 c-36 -4 -77 -12 -92 -18 -15 -6 -70 -16 -123 -21 -53 -5
-103 -15 -111 -22 -15 -12 -19 -51 -6 -63 4 -4 8 -12 8 -17 1 -5 2 -13 3 -19
1 -11 86 -12 146 -2 22 4 39 12 37 17 -1 6 10 11 25 12 25 2 26 1 8 -7 -35
-18 73 -1 170 27 98 27 124 39 60 28 -33 -6 -38 -5 -27 6 19 20 15 67 -7 79
-11 5 -21 9 -23 9 -2 -1 -32 -5 -68 -9z"/>
<path d="M2092 700 c0 -19 2 -27 5 -17 2 9 2 25 0 35 -3 9 -5 1 -5 -18z"/>
<path d="M2353 685 c0 -27 2 -38 4 -22 2 15 2 37 0 50 -2 12 -4 0 -4 -28z"/>
<path d="M1135 673 c-23 -6 -45 -23 -28 -23 6 0 26 7 44 15 33 14 25 18 -16 8z"/>
<path d="M1570 671 c0 -4 -14 -12 -31 -18 -21 -8 -30 -17 -27 -30 3 -15 12
-17 47 -15 54 3 83 18 79 40 -3 15 -68 37 -68 23z"/>
<path d="M4793 653 c9 -2 25 -2 35 0 9 3 1 5 -18 5 -19 0 -27 -2 -17 -5z"/>
<path d="M2103 595 c0 -22 2 -30 4 -17 2 12 2 30 0 40 -3 9 -5 -1 -4 -23z"/>
<path d="M2335 520 c-4 -63 -5 -126 -3 -140 2 -14 8 32 12 102 5 69 6 132 4
140 -3 7 -9 -39 -13 -102z"/>
<path d="M2152 298 c1 -167 3 -283 5 -258 7 104 7 560 1 560 -5 0 -7 -136 -6
-302z"/>
<path d="M2215 588 c-7 -22 -10 -317 -3 -310 6 7 16 322 10 322 -1 0 -5 -6 -7
-12z"/>
<path d="M525 570 c19 -8 73 -14 64 -6 -2 2 -22 6 -44 9 -28 5 -34 4 -20 -3z"/>
<path d="M4862 398 c-7 -101 -12 -232 -11 -293 l2 -110 7 80 c10 99 24 505 18
505 -2 0 -10 -82 -16 -182z"/>
<path d="M5382 494 c-21 -151 -23 -171 -13 -197 10 -27 34 -38 30 -14 -2 6 1
67 5 134 10 149 -5 200 -22 77z"/>
<path d="M2110 502 c-3 -28 -2 -52 2 -52 4 0 9 -42 10 -92 l3 -93 5 107 c3 58
2 104 -2 102 -4 -3 -8 15 -10 38 l-3 43 -5 -53z"/>
<path d="M5142 462 c-2 -43 -7 -113 -12 -157 -13 -103 -13 -191 0 -215 8 -16
2 -24 -47 -54 -37 -23 -50 -36 -38 -36 11 0 58 25 105 56 49 33 95 56 109 55
17 -1 22 3 17 14 -3 9 4 95 15 192 19 166 19 259 -1 208 -6 -17 -21 -103 -44
-260 -2 -16 -5 -53 -5 -80 -1 -48 -3 -51 -46 -77 l-45 -27 7 223 c3 130 2 225
-3 228 -5 4 -10 -28 -12 -70z"/>
<path d="M5500 536 c0 -2 -7 -40 -15 -83 -19 -99 -19 -177 -1 -192 11 -9 14
-6 13 16 0 16 4 81 8 146 4 64 5 117 1 117 -3 0 -6 -2 -6 -4z"/>
<path d="M552 490 c37 -107 103 -307 128 -388 17 -56 33 -102 36 -102 17 0
-139 478 -163 499 -3 3 -4 -1 -1 -9z"/>
<path d="M4755 413 c-4 -48 -9 -96 -11 -106 -1 -10 1 -15 6 -12 9 6 26 193 17
201 -2 3 -8 -35 -12 -83z"/>
<path d="M5950 362 l5 -77 3 69 c2 38 -1 73 -5 77 -4 4 -6 -27 -3 -69z"/>
<path d="M1812 341 l-30 -30 39 -6 c40 -7 109 9 109 26 0 5 -6 9 -14 9 -7 0
-19 7 -26 15 -19 23 -44 18 -78 -14z"/>
<path d="M2432 340 c0 -14 2 -19 5 -12 2 6 2 18 0 25 -3 6 -5 1 -5 -13z"/>
<path d="M2323 280 c0 -41 2 -58 4 -37 2 20 2 54 0 75 -2 20 -4 3 -4 -38z"/>
<path d="M2424 295 c-3 -8 -4 -20 -2 -27 3 -7 7 -1 10 15 6 29 1 36 -8 12z"/>
<path d="M2978 303 c34 -2 90 -2 125 0 34 2 6 3 -63 3 -69 0 -97 -1 -62 -3z"/>
<path d="M6452 253 c-33 -33 -53 -66 -66 -104 -25 -73 -33 -84 -97 -119 l-54
-30 54 0 c47 0 57 4 86 33 18 18 42 60 55 95 17 46 35 73 67 101 46 41 52 55
27 65 -23 9 -21 10 -72 -41z"/>
<path d="M4743 240 c0 -25 2 -35 4 -22 2 12 2 32 0 45 -2 12 -4 2 -4 -23z"/>
<path d="M5618 245 c2 -19 6 -35 8 -35 2 0 4 16 4 35 0 19 -4 35 -8 35 -4 0
-6 -16 -4 -35z"/>
<path d="M30 222 c0 -29 4 -52 9 -52 9 0 7 87 -3 97 -3 4 -6 -17 -6 -45z"/>
<path d="M1180 254 c-14 -10 -28 -22 -31 -27 -3 -5 -26 -11 -50 -14 -29 -4
-56 -16 -78 -35 -35 -31 -40 -31 -116 -12 -25 6 -28 5 -22 -15 4 -16 -3 -26
-26 -43 -18 -12 -34 -23 -37 -25 -2 -2 8 -15 23 -29 15 -14 27 -31 27 -39 0
-8 5 -15 11 -15 15 0 1 42 -21 61 -18 16 -18 17 11 38 16 12 29 28 29 36 0 11
11 13 48 8 44 -5 52 -2 83 24 22 20 49 32 77 36 24 3 54 15 66 26 34 32 146
25 146 -9 0 -6 -25 -21 -55 -35 -30 -13 -55 -28 -55 -33 0 -17 26 -21 66 -11
57 13 62 12 91 -17 34 -34 40 -25 7 11 -24 26 -29 27 -80 21 -64 -7 -66 7 -3
24 22 6 43 18 46 26 18 47 -106 84 -157 48z"/>
<path d="M2203 185 c0 -44 2 -61 4 -37 2 23 2 59 0 80 -2 20 -4 1 -4 -43z"/>
<path d="M5944 160 c0 -58 1 -81 3 -53 2 29 2 77 0 106 -2 28 -3 5 -3 -53z"/>
<path d="M6556 247 c3 -10 9 -15 12 -12 3 3 0 11 -7 18 -10 9 -11 8 -5 -6z"/>
<path d="M2133 200 c0 -25 2 -35 4 -22 2 12 2 32 0 45 -2 12 -4 2 -4 -23z"/>
<path d="M3098 223 c6 -2 18 -2 25 0 6 3 1 5 -13 5 -14 0 -19 -2 -12 -5z"/>
<path d="M4761 117 c0 -77 3 -116 9 -112 11 7 11 81 0 170 -6 52 -7 45 -9 -58z"/>
<path d="M6283 209 c-33 -21 -40 -29 -25 -29 8 1 70 50 62 50 -3 0 -20 -10
-37 -21z"/>
<path d="M6520 210 c-9 -6 -10 -10 -3 -10 6 0 15 5 18 10 8 12 4 12 -15 0z"/>
<path d="M62 180 c0 -14 2 -19 5 -12 2 6 2 18 0 25 -3 6 -5 1 -5 -13z"/>
<path d="M5760 189 c0 -9 15 -36 32 -60 18 -24 43 -64 56 -89 12 -25 20 -34
16 -20 -3 14 -18 45 -33 68 -14 24 -36 60 -48 80 -13 21 -23 30 -23 21z"/>
<path d="M47 112 l1 -47 -7 40 c-6 35 -8 37 -14 18 -5 -13 -3 -31 2 -42 6 -11
11 -30 10 -43 0 -13 -3 -17 -6 -10 -4 10 -8 10 -19 1 -22 -18 -17 -29 14 -29
27 0 27 1 30 74 2 41 0 76 -5 79 -4 3 -7 -16 -6 -41z"/>
<path d="M5992 118 c-46 -28 -33 -34 18 -8 40 20 44 21 76 5 19 -9 42 -28 51
-42 17 -25 16 -26 -12 -49 -25 -20 -27 -24 -11 -24 11 0 30 10 43 22 l23 22
-50 48 c-57 54 -84 59 -138 26z"/>
<path d="M116 84 c-3 -26 -4 -49 -2 -52 3 -2 8 17 11 43 4 25 5 48 3 51 -3 2
-8 -17 -12 -42z"/>
<path d="M178 105 c-3 -14 -1 -25 3 -25 5 0 9 11 9 25 0 14 -2 25 -4 25 -2 0
-6 -11 -8 -25z"/>
<path d="M2197 93 c-4 -3 -7 -27 -7 -51 0 -58 11 -48 15 12 2 49 2 50 -8 39z"/>
<path d="M1460 63 c0 -42 9 -63 27 -63 12 0 14 7 9 32 -4 18 -13 39 -21 48
-13 13 -15 11 -15 -17z"/>
<path d="M5930 35 c24 -25 60 -34 60 -14 0 5 -4 7 -10 4 -5 -3 -20 3 -32 14
-31 30 -46 26 -18 -4z"/>
<path d="M424 25 c0 -14 4 -25 8 -25 4 0 8 11 8 25 0 14 -4 25 -8 25 -4 0 -8
-11 -8 -25z"/>
<path d="M6002 38 c2 -6 15 -18 29 -27 l24 -15 -24 27 c-26 29 -35 34 -29 15z"/>
<path d="M160 20 c0 -26 6 -26 13 0 3 11 1 20 -4 20 -5 0 -9 -9 -9 -20z"/>
<path d="M2132 20 c0 -14 2 -19 5 -12 2 6 2 18 0 25 -3 6 -5 1 -5 -13z"/>
</g>
</svg>
