<?xml version="1.0" standalone="no"?>
<!DOCTYPE svg PUBLIC "-//W3C//DTD SVG 20010904//EN"
 "http://www.w3.org/TR/2001/REC-SVG-20010904/DTD/svg10.dtd">
<svg version="1.0" xmlns="http://www.w3.org/2000/svg"
 width="658.000000pt" height="223.000000pt" viewBox="0 0 658.000000 223.000000"
 preserveAspectRatio="xMidYMid meet">

<g transform="translate(0.000000,223.000000) scale(0.100000,-0.100000)"
fill="#000000" stroke="none">
<path d="M915 2208 c2 -13 9 -72 14 -133 10 -105 13 -123 27 -187 l6 -28 -234
-1 c-333 -1 -715 -13 -724 -21 -12 -13 -2 -16 101 -32 125 -19 907 -30 924
-13 16 16 13 41 -7 58 -13 11 -21 36 -25 85 -4 38 -9 80 -12 93 -2 14 -8 64
-11 113 l-7 88 -28 0 c-23 0 -27 -4 -24 -22z"/>
<path d="M1024 2214 c-18 -15 -18 -15 2 -5 12 6 24 7 28 4 3 -3 6 -1 6 5 0 16
-12 15 -36 -4z"/>
<path d="M1070 2213 c0 -10 5 -25 10 -33 8 -12 10 -11 10 8 0 12 4 22 8 22 18
0 42 -38 43 -66 1 -28 1 -29 8 -4 l7 25 16 -30 c32 -62 38 -102 21 -163 -8
-31 -18 -67 -20 -79 -10 -43 99 -273 139 -294 27 -14 19 -29 -32 -59 -40 -23
-44 -30 -60 -95 -10 -39 -24 -84 -31 -101 -22 -54 -9 -64 65 -57 70 6 91 -2
106 -43 9 -22 65 -54 97 -54 10 0 29 7 41 16 32 22 29 70 -9 127 -42 63 -141
153 -185 167 l-37 12 36 21 35 20 6 166 c3 91 10 243 14 336 7 162 7 184 -2
174 -7 -7 -26 -357 -26 -489 0 -99 -3 -128 -12 -124 -19 7 -83 120 -103 179
-9 27 -21 55 -27 62 -8 9 -4 33 12 83 28 86 23 134 -19 202 -17 27 -32 59 -32
71 -1 17 -2 18 -6 5 -5 -22 -12 -22 -37 -3 -26 20 -36 19 -36 -2z m245 -742
c45 -20 143 -119 169 -169 33 -64 4 -100 -64 -78 -24 8 -39 21 -49 44 -18 39
-42 47 -118 39 -62 -7 -61 -11 -29 83 8 25 17 57 20 73 7 32 17 33 71 8z"/>
<path d="M1240 2138 c0 -50 2 -89 4 -87 9 11 15 179 6 179 -6 0 -10 -37 -10
-92z"/>
<path d="M1419 2170 c-1 -33 -2 -63 -3 -67 -1 -5 -6 -57 -11 -118 -5 -60 -10
-121 -11 -135 -8 -61 -6 -357 2 -377 6 -14 9 29 9 125 0 138 11 360 20 427 12
83 15 205 6 205 -7 0 -12 -25 -12 -60z"/>
<path d="M1550 2226 c0 -12 42 -99 52 -110 7 -6 44 -26 81 -44 l68 -32 24 24
c35 35 40 68 19 121 -11 25 -23 45 -27 45 -11 0 2 -41 19 -61 8 -8 14 -23 14
-33 0 -23 -27 -73 -42 -78 -19 -7 -145 59 -163 84 -8 12 -18 37 -21 55 -3 18
-10 33 -15 33 -5 0 -9 -2 -9 -4z"/>
<path d="M1800 2224 c0 -3 7 -27 16 -55 16 -49 38 -69 30 -26 -15 74 -20 87
-32 87 -8 0 -14 -3 -14 -6z"/>
<path d="M2077 2183 c-3 -26 0 -71 6 -100 15 -70 5 -81 -55 -64 -24 7 -59 23
-78 35 -19 12 -48 31 -63 41 l-28 18 21 -35 c27 -47 110 -91 171 -92 l47 -1 6
-50 c3 -27 6 -183 7 -345 1 -162 4 -308 8 -325 4 -16 10 79 15 213 4 133 5
246 2 250 -2 4 -7 82 -11 172 -11 280 -16 330 -30 330 -7 0 -14 -19 -18 -47z"/>
<path d="M2190 2220 c0 -5 5 -10 11 -10 5 0 7 5 4 10 -3 6 -8 10 -11 10 -2 0
-4 -4 -4 -10z"/>
<path d="M2300 2205 c31 -81 56 -111 139 -161 60 -36 66 -43 77 -87 15 -61 24
-70 24 -26 0 45 -19 79 -57 105 -18 12 -29 25 -25 28 3 4 -1 4 -10 1 -23 -9
-111 80 -127 128 -7 20 -17 37 -22 37 -5 0 -4 -11 1 -25z"/>
<path d="M2410 2204 c0 -35 21 -113 32 -120 5 -3 6 5 3 18 -10 41 -13 62 -14
96 -1 38 -21 44 -21 6z"/>
<path d="M2478 2205 c6 -36 19 -40 14 -4 -2 16 -8 29 -12 29 -4 0 -5 -11 -2
-25z"/>
<path d="M2831 2214 c0 -11 3 -14 6 -6 3 7 2 16 -1 19 -3 4 -6 -2 -5 -13z"/>
<path d="M2913 2155 c0 -44 2 -61 4 -37 2 23 2 59 0 80 -2 20 -4 1 -4 -43z"/>
<path d="M3011 2064 c0 -93 4 -189 9 -214 5 -26 6 42 3 165 -3 116 -7 212 -9
214 -2 2 -4 -72 -3 -165z"/>
<path d="M3169 2213 c-2 -28 -5 -94 -13 -274 -5 -92 -4 -169 0 -172 5 -3 10
45 12 106 2 62 6 165 10 230 4 65 4 121 0 123 -5 3 -9 -3 -9 -13z"/>
<path d="M3286 2178 c-3 -29 -8 -161 -10 -293 l-5 -240 14 245 c7 135 15 266
18 293 6 64 -9 60 -17 -5z"/>
<path d="M3407 2168 c-10 -104 -17 -607 -8 -563 17 81 38 625 24 625 -6 0 -13
-28 -16 -62z"/>
<path d="M3511 2113 c-7 -65 -19 -160 -26 -211 -6 -51 -12 -130 -13 -175 0
-79 0 -80 8 -27 4 30 15 114 24 185 9 72 21 159 26 195 21 150 21 150 7 150
-9 0 -17 -34 -26 -117z"/>
<path d="M3656 2214 c-3 -9 -8 -102 -10 -207 -5 -206 6 -153 19 96 7 121 5
147 -9 111z"/>
<path d="M3747 2188 c-9 -62 -21 -474 -14 -467 4 3 11 90 17 195 5 104 13 217
16 252 7 71 -10 88 -19 20z"/>
<path d="M3807 2118 c-4 -62 -6 -140 -6 -173 l2 -60 7 45 c15 81 24 300 13
300 -6 0 -13 -49 -16 -112z"/>
<path d="M3951 2173 c1 -48 3 -53 9 -28 11 45 11 85 0 85 -6 0 -9 -25 -9 -57z"/>
<path d="M4240 2226 c0 -4 16 -14 35 -22 l35 -14 -7 -90 -6 -90 44 -42 c24
-24 56 -52 70 -63 14 -11 34 -35 45 -53 26 -45 47 -48 110 -17 l54 26 26 -20
c15 -12 33 -21 40 -21 7 0 26 -16 41 -37 26 -34 28 -42 25 -117 -2 -74 0 -87
26 -136 21 -40 31 -76 36 -132 6 -72 5 -81 -24 -140 -41 -88 -46 -122 -25
-154 19 -30 71 -54 115 -54 38 0 93 28 145 74 46 41 59 44 77 18 20 -28 49
-40 85 -35 44 7 93 -4 122 -26 l23 -18 -43 -41 c-24 -23 -51 -42 -60 -42 -9 0
-43 -14 -77 -31 -78 -38 -146 -112 -158 -171 -8 -38 -17 -48 -84 -95 -41 -29
-80 -52 -85 -53 -6 0 -17 16 -24 35 -20 57 -42 61 -118 26 -83 -39 -110 -40
-123 -3 -6 15 -14 34 -20 44 -6 11 -5 18 5 22 18 7 40 59 50 117 9 52 17 59
72 59 78 0 99 61 40 118 -42 41 -65 40 -127 -4 -58 -42 -63 -64 -20 -96 30
-22 40 -60 20 -73 -6 -4 -8 -10 -5 -15 7 -11 -20 -74 -38 -88 -11 -9 -22 -9
-50 3 -71 30 -123 18 -249 -57 -79 -47 -95 -45 -139 18 -34 49 -39 50 -112 13
-44 -22 -67 -24 -68 -6 -5 55 -11 83 -22 106 -12 25 -16 26 -99 29 -72 2 -94
-1 -128 -18 -22 -11 -40 -24 -40 -29 0 -5 -30 -49 -66 -98 -96 -128 -101 -141
-79 -233 10 -41 24 -82 32 -90 8 -9 33 -15 66 -16 30 0 74 -10 104 -23 71 -31
94 -24 139 44 34 51 54 62 54 29 0 -8 5 -14 10 -14 14 0 12 32 -4 53 -17 23
-43 22 -51 -2 -3 -10 -19 -37 -35 -60 -35 -47 -56 -51 -121 -21 -24 11 -65 20
-91 20 -26 0 -50 4 -53 10 -10 16 -35 119 -35 144 0 12 23 54 50 92 28 38 64
89 81 114 16 25 41 51 55 58 25 13 165 19 183 7 5 -2 11 -24 14 -48 3 -23 9
-50 12 -59 5 -12 0 -18 -22 -21 -27 -4 -27 -4 5 -6 17 0 32 -5 32 -11 0 -5 11
-12 25 -16 21 -5 25 -12 25 -45 0 -26 5 -39 13 -39 9 0 13 13 11 43 -2 23 -3
47 -3 54 -1 6 -11 13 -23 15 -16 2 -5 9 39 24 61 21 62 21 68 3 4 -11 18 -33
32 -49 35 -42 81 -41 159 6 80 48 120 64 163 64 48 0 97 -31 105 -67 18 -70
63 -80 161 -32 35 17 69 28 74 24 6 -3 15 -23 21 -44 18 -67 40 -62 176 35 52
36 63 50 74 89 7 25 22 57 32 71 28 35 102 83 157 103 26 9 69 35 96 58 28 23
63 52 79 66 36 29 27 52 -16 43 -20 -4 -39 0 -57 12 -45 31 -80 42 -131 42
-40 0 -50 4 -55 20 -11 34 -75 38 -107 6 -7 -7 -35 -29 -61 -49 -37 -28 -58
-37 -88 -37 -87 0 -98 33 -49 138 17 35 31 76 32 91 1 64 -15 168 -31 191 -35
49 -48 86 -45 125 8 106 7 113 -22 150 -15 20 -45 45 -66 56 -22 11 -41 26
-45 34 -8 22 -38 18 -83 -10 -51 -32 -71 -31 -91 4 -9 16 -41 47 -70 68 -30
22 -60 47 -67 56 -16 19 -19 65 -8 134 7 47 6 53 -16 67 -26 17 -78 31 -78 22z
m455 -1187 c63 -56 43 -99 -45 -99 -47 0 -60 4 -80 25 -13 14 -22 27 -19 29
29 27 93 76 100 76 4 0 24 -14 44 -31z"/>
<path d="M2205 2100 c3 -58 6 -278 7 -490 1 -251 4 -335 8 -240 7 207 2 672
-9 760 -10 74 -10 74 -6 -30z"/>
<path d="M1507 1900 c3 -157 9 -332 14 -390 5 -65 6 11 2 200 -3 168 -9 343
-13 390 -4 48 -6 -39 -3 -200z"/>
<path d="M2242 2079 c-1 -20 0 -38 3 -41 3 -3 8 -74 11 -159 3 -85 8 -156 10
-158 2 -2 4 38 4 89 0 51 2 91 4 89 7 -7 35 -365 46 -584 6 -115 15 -257 22
-315 13 -124 31 -180 24 -75 -3 39 -12 192 -20 340 -27 475 -56 751 -81 771
-7 5 -15 26 -18 45 l-4 34 -1 -36z m25 -141 c-3 -8 -6 -5 -6 6 -1 11 2 17 5
13 3 -3 4 -12 1 -19z"/>
<path d="M2917 2018 c7 -44 13 -49 13 -10 0 17 -4 33 -9 36 -5 4 -7 -8 -4 -26z"/>
<path d="M2402 2018 c-13 -16 -42 -139 -42 -181 l-1 -32 -15 25 c-11 19 -14
20 -10 5 31 -124 70 -354 81 -475 3 -36 8 -85 10 -110 3 -25 7 -99 10 -165 8
-199 16 -304 26 -333 5 -17 7 9 4 73 -3 55 -7 156 -10 225 -3 69 -7 154 -10
190 -10 113 -16 174 -20 195 -2 11 -7 40 -10 65 -7 61 -22 148 -31 185 l-7 30
26 -26 c14 -14 42 -34 62 -45 22 -12 33 -24 30 -33 -3 -8 1 -37 9 -65 27 -97
39 -197 66 -576 10 -137 17 -180 29 -180 8 0 5 72 -10 320 -14 234 -40 407
-75 495 l-7 20 22 -20 c13 -11 40 -54 62 -95 42 -83 50 -81 18 5 -26 71 -56
106 -123 144 -82 46 -101 79 -100 171 1 41 9 101 19 133 17 59 16 78 -3 55z"/>
<path d="M1634 2008 c-4 -7 -10 -169 -12 -361 l-5 -349 -36 7 c-28 5 -33 4
-24 -5 7 -8 42 -12 92 -12 76 0 81 -1 82 -21 1 -20 2 -20 8 3 l7 24 22 -22
c12 -12 22 -28 22 -35 0 -8 9 -22 20 -32 19 -17 22 -17 63 -1 46 17 152 22
162 7 3 -6 -23 -23 -58 -40 -108 -52 -108 -62 3 -104 38 -14 66 -31 68 -40 2
-11 -17 -29 -54 -53 l-58 -37 39 -32 c33 -28 37 -36 31 -61 -4 -16 -27 -50
-52 -76 -24 -26 -44 -52 -44 -58 0 -6 -17 -27 -37 -48 l-38 -37 -5 29 c-3 16
-13 34 -23 40 -15 9 -23 6 -44 -18 -24 -28 -25 -34 -18 -100 4 -39 8 -117 10
-173 3 -127 9 -138 79 -128 44 5 52 4 69 -17 10 -13 16 -17 12 -10 -12 23 13
12 34 -15 12 -14 20 -27 18 -29 -1 -2 -32 -13 -67 -26 -84 -30 -89 -51 -25
-96 25 -17 50 -43 57 -57 13 -29 38 -33 38 -6 0 18 -58 77 -96 99 -25 14 -19
18 54 41 71 22 66 27 77 -81 4 -37 11 -70 16 -73 11 -8 11 5 -1 80 -14 82 -27
200 -45 385 -26 279 -27 258 7 289 16 15 38 46 48 68 16 36 16 44 4 61 -7 11
-10 22 -6 26 3 4 -1 4 -9 1 -9 -3 -21 0 -27 8 -9 11 -2 20 33 45 32 22 45 39
45 56 0 30 -10 37 -87 66 -35 12 -63 24 -63 26 0 2 26 17 58 33 66 33 90 57
75 72 -19 19 -106 22 -162 5 -72 -21 -70 -21 -87 19 -8 20 -26 41 -41 48 l-26
11 4 186 c5 243 1 440 -8 440 -5 0 -6 -142 -5 -315 l4 -315 -35 0 c-20 0 -43
-3 -52 -6 -16 -6 -16 16 -10 317 4 178 8 343 10 367 3 44 1 50 -11 30z m321
-1533 c3 -55 12 -130 19 -167 l13 -66 -39 31 -38 30 -1 116 c0 64 -4 138 -8
165 -7 41 -5 54 13 81 l21 32 6 -61 c4 -34 10 -106 14 -161z m-141 136 c8 -7
20 -6 38 3 25 13 26 13 32 -23 3 -20 6 -93 6 -163 l0 -128 -30 0 c-16 0 -30 5
-30 11 0 6 -5 66 -11 132 -12 127 -21 167 -39 167 -7 0 -7 -6 0 -17 6 -10 16
-80 23 -155 10 -113 10 -138 0 -138 -13 0 -16 27 -13 125 0 28 -6 77 -14 109
-16 59 -13 98 8 125 9 12 12 9 14 -12 2 -14 9 -30 16 -36z"/>
<path d="M1884 1918 c7 -48 12 -134 21 -411 4 -103 11 -200 16 -215 5 -17 7
71 3 228 -7 333 -16 440 -36 440 -6 0 -8 -15 -4 -42z"/>
<path d="M1828 1840 c-12 -132 -10 -576 2 -564 7 7 9 124 8 330 -2 225 -5 294
-10 234z"/>
<path d="M2011 1855 c-1 -65 28 -577 34 -583 16 -16 -5 481 -24 578 l-9 45 -1
-40z"/>
<path d="M4583 1802 c-3 -12 -36 -47 -74 -77 -78 -63 -85 -85 -45 -132 23 -26
25 -26 19 -5 -3 12 -9 25 -14 28 -22 13 -5 45 46 89 54 46 93 101 80 113 -3 3
-8 -4 -12 -16z"/>
<path d="M2271 1429 c1 -151 5 -303 9 -339 4 -36 5 86 2 270 -3 184 -6 337 -8
339 -2 2 -3 -119 -3 -270z"/>
<path d="M4467 1553 c-10 -9 -9 -41 2 -47 5 -3 11 8 13 24 4 29 -1 37 -15 23z"/>
<path d="M5900 1412 c-19 -10 -47 -26 -62 -36 l-28 -18 -1 33 -1 34 -12 -40
c-6 -22 -16 -40 -21 -41 -6 0 -18 -4 -28 -8 -9 -5 -28 -6 -42 -4 -20 4 -24 1
-22 -16 1 -13 -5 -22 -18 -24 -17 -4 -18 -2 -6 12 20 23 5 33 -18 12 -23 -21
-44 -106 -35 -144 26 -112 65 -181 119 -206 64 -31 127 -2 163 74 24 53 102
298 102 323 0 25 -30 67 -48 67 -4 0 -23 -8 -42 -18z m60 -53 c0 -16 -4 -29
-8 -29 -5 0 -9 -6 -9 -12 0 -23 -24 -102 -60 -201 -37 -103 -65 -137 -110
-137 -24 0 -25 2 -18 48 3 26 13 79 20 117 8 39 17 94 21 124 6 45 11 56 37
72 17 10 32 17 34 16 1 -2 -16 -75 -37 -162 -37 -151 -47 -205 -34 -193 3 3
23 82 45 174 51 216 46 201 77 212 35 12 42 7 42 -29z m-184 -91 c-6 -45 -34
-207 -42 -247 -5 -22 -6 -22 -24 -6 -13 12 -17 26 -14 48 10 79 11 117 3 117
-5 0 -9 5 -9 11 0 5 5 7 11 3 9 -5 10 7 5 45 -4 29 -3 51 1 48 5 -3 19 1 33 9
39 21 43 17 36 -28z m-90 -5 c-2 -10 -8 -54 -12 -98 -7 -79 -7 -80 -19 -44 -7
19 -16 58 -20 86 -6 44 -4 53 12 62 28 16 45 13 39 -6z m11 -45 c-3 -8 -6 -5
-6 6 -1 11 2 17 5 13 3 -3 4 -12 1 -19z"/>
<path d="M2647 1408 c-2 -7 -1 -20 3 -28 4 -8 11 -51 14 -95 4 -44 9 -91 11
-105 2 -14 7 -52 10 -85 13 -141 28 -246 36 -250 4 -3 6 5 4 17 -2 13 -6 73
-10 133 -9 149 -13 193 -30 309 -8 55 -15 103 -15 108 0 13 -18 9 -23 -4z"/>
<path d="M2169 1215 c-4 -28 2 -508 6 -560 3 -33 7 -89 10 -125 3 -36 10 -81
15 -100 9 -38 6 85 -6 210 -4 36 -6 175 -5 310 0 142 -4 251 -9 260 -5 8 -10
11 -11 5z"/>
<path d="M2806 1211 c-3 -5 2 -8 11 -7 10 0 19 -9 23 -24 5 -22 7 -23 13 -6
12 30 -31 64 -47 37z"/>
<path d="M2782 1165 c-1 -27 2 -68 6 -90 5 -27 2 -61 -10 -105 -10 -35 -18
-86 -18 -112 0 -41 5 -53 33 -81 17 -18 24 -24 15 -13 -34 43 -37 101 -12 215
4 20 7 22 15 10 6 -10 9 -5 9 20 0 23 9 44 30 68 30 34 41 85 20 98 -6 4 -9
-3 -6 -17 4 -26 -14 -68 -38 -87 -14 -12 -16 -10 -17 15 0 16 -7 52 -14 79
l-13 50 0 -50z"/>
<path d="M4332 1163 c-43 -24 -60 -38 -51 -44 15 -9 50 8 103 50 52 42 26 39
-52 -6z"/>
<path d="M3987 1160 c-3 -11 -1 -20 4 -20 5 0 9 9 9 20 0 11 -2 20 -4 20 -2 0
-6 -9 -9 -20z"/>
<path d="M1284 1145 c-13 -13 -24 -30 -25 -37 -2 -38 -11 -64 -26 -75 -23 -18
-33 -16 -34 5 0 13 -3 12 -11 -5 -6 -13 -19 -23 -30 -23 -14 0 -18 8 -19 38
-1 38 -3 37 -14 -11 -4 -19 -11 -27 -19 -24 -8 3 -31 -1 -52 -8 -57 -21 -84
-19 -84 5 0 11 -4 20 -9 20 -5 0 -7 -9 -4 -20 12 -45 -77 -9 -97 40 -18 43
-40 52 -92 40 -24 -5 -79 -10 -124 -10 -81 0 -81 0 -152 -50 -40 -28 -72 -54
-72 -58 -1 -4 -2 -29 -3 -57 -2 -34 -13 -70 -36 -114 l-33 -64 17 -64 c19 -70
14 -86 -30 -97 -31 -8 -35 -51 -6 -61 10 -3 26 -14 36 -25 20 -22 11 -36 -43
-64 -30 -16 -32 -16 -33 1 0 15 -2 14 -9 -3 -17 -42 -145 -65 -202 -37 -32 16
-44 12 -35 -11 10 -27 134 -33 212 -11 20 6 20 3 13 -132 -4 -76 -9 -159 -13
-186 -4 -36 -3 -47 8 -47 20 0 27 64 27 236 l0 144 49 25 c27 13 52 29 56 35
16 27 20 1 14 -107 -17 -300 -18 -333 -9 -333 6 0 10 10 11 23 0 12 2 45 4 72
6 104 13 419 8 403 -4 -15 -10 -14 -44 14 l-39 32 29 19 c41 25 45 47 25 111
l-17 55 28 63 c20 42 30 82 32 122 1 32 3 59 5 60 2 2 32 23 68 48 l65 45 122
6 122 5 6 -41 c12 -91 25 -477 25 -750 0 -227 3 -288 13 -285 26 9 19 796 -10
993 l-6 40 28 -27 c18 -18 38 -28 58 -28 l30 0 -6 -292 c-6 -310 6 -311 21 -3
l8 160 8 -90 c6 -55 4 -214 -4 -417 -12 -292 -11 -353 4 -337 3 3 8 164 11
359 5 252 3 380 -5 440 -6 47 -14 104 -17 128 l-5 42 37 0 c20 0 45 4 55 10
36 19 50 2 50 -60 0 -53 -2 -58 -25 -64 -40 -10 -75 -56 -75 -98 0 -33 3 -38
24 -38 23 0 25 -4 32 -77 7 -83 -3 -602 -12 -628 -4 -10 0 -15 14 -15 18 0 21
9 27 117 4 64 5 207 2 317 -4 136 -3 191 3 169 8 -24 17 -33 43 -38 52 -11
135 -66 184 -123 47 -55 89 -75 104 -51 7 11 9 11 10 -3 1 -10 3 -27 4 -38 1
-11 3 -94 4 -185 0 -91 5 -165 10 -165 18 0 21 88 10 255 -6 94 -12 186 -13
205 -2 54 24 49 59 -12 24 -44 29 -63 27 -113 -1 -33 6 -90 14 -127 l17 -67
-32 -63 c-17 -35 -31 -67 -31 -71 0 -4 11 -7 25 -7 18 0 25 5 25 20 0 12 9 39
21 62 21 41 22 74 3 138 -4 14 -8 61 -9 105 -1 61 -7 91 -24 125 -26 51 -59
90 -76 90 -23 0 -59 -51 -64 -92 l-6 -41 -76 75 c-61 61 -89 81 -138 98 -55
20 -62 26 -71 59 -13 49 -12 72 5 95 23 30 18 39 -19 34 -28 -3 -36 0 -40 17
-13 46 60 58 154 25 30 -11 59 -21 65 -23 5 -1 18 -12 28 -24 10 -12 35 -25
55 -29 44 -8 67 -19 93 -45 25 -25 64 -24 101 2 26 19 29 26 24 52 -4 17 -15
40 -25 52 -11 11 -21 35 -23 54 -2 29 -8 36 -33 43 -37 10 -55 33 -55 72 0 16
-7 37 -15 45 -19 21 -32 101 -16 101 6 0 11 7 11 15 0 11 -11 15 -39 15 -22 0
-42 4 -45 9 -13 21 -49 19 -72 -4z m72 -30 c15 -8 30 -22 33 -32 3 -10 6 -79
6 -153 2 -156 2 -160 14 -160 4 0 8 19 8 43 0 99 4 133 13 111 10 -25 57 -64
76 -64 9 0 14 -11 14 -29 0 -17 11 -43 26 -61 25 -30 26 -31 9 -50 -23 -26
-47 -25 -70 0 -10 11 -42 27 -71 36 -28 8 -65 27 -81 43 l-29 27 11 107 c15
148 1 156 -16 10 -12 -94 -18 -117 -29 -114 -8 2 -30 9 -48 15 l-33 11 7 65
c4 36 12 68 18 72 26 18 32 6 29 -64 l-2 -73 14 80 c7 44 18 98 23 120 19 81
27 87 78 60z m-176 -164 c0 -49 -12 -91 -26 -91 -10 0 -14 16 -14 60 0 53 2
60 20 60 15 0 20 -7 20 -29z m-110 -181 c0 -11 -4 -20 -10 -20 -5 0 -10 9 -10
20 0 11 5 20 10 20 6 0 10 -9 10 -20z"/>
<path d="M1360 1059 c0 -9 -5 -64 -11 -123 -6 -59 -7 -115 -3 -124 4 -10 13
36 20 113 7 75 8 134 3 140 -6 5 -9 3 -9 -6z"/>
<path d="M1472 820 c0 -19 2 -27 5 -17 2 9 2 25 0 35 -3 9 -5 1 -5 -18z"/>
<path d="M2093 1115 c0 -33 2 -45 4 -27 2 18 2 45 0 60 -2 15 -4 0 -4 -33z"/>
<path d="M2153 1075 c0 -33 2 -45 4 -27 2 18 2 45 0 60 -2 15 -4 0 -4 -33z"/>
<path d="M3886 1098 c-23 -33 -20 -55 10 -62 15 -4 29 -5 32 -1 3 3 -2 5 -10
5 -28 0 -39 24 -22 49 9 12 14 25 11 27 -3 3 -12 -5 -21 -18z"/>
<path d="M946 1057 c3 -10 9 -15 12 -12 3 3 0 11 -7 18 -10 9 -11 8 -5 -6z"/>
<path d="M3990 1050 c-8 -5 -10 -10 -5 -10 6 0 17 5 25 10 8 5 11 10 5 10 -5
0 -17 -5 -25 -10z"/>
<path d="M6073 1035 c-17 -7 -50 -32 -73 -55 -33 -33 -39 -44 -30 -55 6 -8 19
-11 27 -8 10 4 14 2 10 -4 -4 -6 0 -14 9 -17 24 -9 28 -7 14 9 -7 8 -9 15 -5
15 4 0 2 6 -4 13 -13 16 14 45 68 72 l34 17 -6 -47 c-4 -26 -7 -68 -7 -93 l0
-44 -21 23 -20 24 16 -27 c16 -26 16 -31 -3 -90 l-19 -63 -49 -8 c-75 -13 -94
-23 -94 -50 0 -13 4 -27 10 -33 7 -7 -5 -25 -35 -54 -45 -44 -58 -83 -35 -106
6 -6 10 -43 8 -85 l-3 -74 -40 -3 c-22 -1 -57 -7 -78 -14 -32 -10 -40 -9 -48
3 -7 11 -9 11 -9 -3 0 -25 -46 -23 -62 2 -7 11 -19 20 -26 20 -19 0 -110 -94
-117 -121 -3 -15 4 -49 20 -88 14 -35 24 -70 21 -77 -3 -8 1 -14 9 -14 21 0
19 40 -5 102 -11 29 -20 59 -20 66 0 16 88 102 105 102 7 0 18 -7 25 -15 7 -8
21 -15 31 -15 18 0 19 -9 19 -122 0 -67 3 -118 7 -114 4 3 7 59 8 122 1 134 1
134 93 137 l57 2 -4 -134 c-2 -87 0 -132 6 -128 6 4 12 61 15 127 3 66 7 122
9 124 2 2 29 1 60 -1 56 -5 57 -6 63 -42 3 -20 6 -75 6 -123 0 -58 4 -88 11
-88 8 0 10 42 6 148 -3 81 -7 149 -7 152 -4 11 2 180 9 272 7 85 11 99 33 120
29 26 44 83 62 238 l11 95 35 3 c50 3 80 -17 100 -67 12 -32 26 -49 49 -60 30
-14 32 -18 29 -58 -3 -40 -7 -46 -47 -70 l-44 -26 7 69 c3 38 2 83 -3 99 -10
32 -11 20 -15 -127 -1 -42 -5 -50 -36 -73 -67 -49 -74 -78 -40 -165 28 -72 26
-112 -10 -162 -16 -22 -30 -49 -30 -58 0 -10 -7 -33 -15 -51 -14 -33 -14 -33
-15 -7 0 14 5 93 10 175 7 88 7 159 2 173 -6 16 -11 -29 -17 -146 -11 -215
-14 -270 -21 -315 -8 -49 16 -73 65 -65 20 3 61 8 91 12 l55 6 55 -56 c35 -36
62 -56 78 -56 20 0 14 8 -39 58 -88 82 -102 88 -169 74 -31 -7 -68 -12 -83
-12 -23 0 -27 4 -27 30 0 17 6 43 14 58 8 15 23 55 34 89 12 35 32 78 46 96
31 41 33 75 5 147 -32 85 -31 104 5 138 38 37 136 105 136 95 0 -4 11 8 25 27
15 21 24 46 24 64 l-2 31 -4 -30 c-7 -46 -23 -55 -23 -12 0 30 5 39 30 52 16
8 37 15 48 15 30 0 69 -51 77 -100 4 -25 12 -54 18 -65 6 -11 12 -29 13 -40 2
-11 8 -39 15 -63 10 -38 8 -51 -19 -135 -16 -50 -33 -108 -37 -127 -3 -19 -13
-54 -22 -77 -19 -53 -13 -71 29 -75 l33 -3 0 -118 c0 -99 2 -117 15 -115 12 3
16 26 18 127 3 133 -3 151 -45 151 -20 0 -24 4 -18 17 9 23 23 71 29 103 2 14
12 48 20 75 21 66 21 206 0 276 -9 30 -18 65 -19 79 -2 14 -3 28 -4 32 -1 5
-17 26 -37 48 -40 44 -77 52 -125 27 -35 -19 -64 -6 -78 34 -22 64 -46 79
-125 79 -39 -1 -85 -7 -103 -15z m-47 -364 c-6 -10 -25 -202 -27 -288 -2 -60
-10 -76 -25 -52 -4 6 -8 25 -9 41 -2 16 -12 39 -24 52 -11 12 -21 32 -21 43 0
27 -27 37 -39 15 -10 -16 -10 -16 -11 1 0 11 20 38 45 63 47 46 51 54 35 84
-14 26 1 37 73 49 5 0 6 -3 3 -8z m-116 -211 c0 -5 -2 -10 -4 -10 -3 0 -8 5
-11 10 -3 6 -1 10 4 10 6 0 11 -4 11 -10z m1 -72 c1 -25 3 -27 6 -10 6 33 29
21 25 -14 -2 -21 5 -37 22 -53 32 -30 25 -41 -22 -41 -59 0 -64 8 -56 83 7 70
23 91 25 35z"/>
<path d="M2242 970 c0 -14 2 -19 5 -12 2 6 2 18 0 25 -3 6 -5 1 -5 -13z"/>
<path d="M6177 953 c-3 -16 -8 -57 -11 -93 -4 -48 -3 -58 4 -36 10 33 24 156
17 156 -2 0 -7 -12 -10 -27z"/>
<path d="M575 662 c0 -169 -4 -387 -8 -485 -6 -144 -5 -178 5 -175 9 3 15 41
21 119 10 143 3 784 -9 821 -6 17 -9 -90 -9 -280z"/>
<path d="M689 900 c0 -30 -2 -68 -4 -85 -1 -16 -6 -207 -9 -422 -7 -382 -7
-393 12 -393 18 0 19 13 25 255 7 280 -1 661 -14 685 -5 10 -9 -5 -10 -40z"/>
<path d="M2084 835 c3 -66 11 -210 16 -320 5 -110 14 -243 20 -295 6 -52 13
-123 17 -157 3 -35 10 -63 15 -63 5 0 7 19 4 43 -3 23 -8 78 -11 122 -3 44 -8
87 -10 95 -5 17 -23 330 -31 535 -3 77 -11 145 -16 150 -7 7 -9 -28 -4 -110z"/>
<path d="M2296 685 c3 -121 9 -276 15 -345 5 -69 12 -173 16 -232 3 -70 10
-108 17 -108 8 0 11 51 10 172 -1 139 0 155 5 78 l7 -95 2 135 c2 186 -32 524
-57 554 -5 6 -12 22 -15 36 -2 14 -3 -74 0 -195z m38 -65 c15 -135 14 -225 -4
-258 -4 -8 -10 51 -13 130 -8 164 -9 283 -3 277 3 -2 12 -69 20 -149z"/>
<path d="M2504 799 c7 -35 19 -176 36 -434 6 -83 17 -193 26 -245 18 -108 37
-154 31 -75 -5 55 -30 364 -47 575 -14 163 -21 202 -39 208 -11 4 -13 -3 -7
-29z"/>
<path d="M2122 795 c0 -16 2 -22 5 -12 2 9 2 23 0 30 -3 6 -5 -1 -5 -18z"/>
<path d="M2066 530 c5 -281 12 -368 28 -342 4 7 2 88 -4 180 -6 92 -15 230
-20 307 -7 110 -8 79 -4 -145z"/>
<path d="M2734 745 c4 -38 9 -212 12 -385 3 -173 7 -325 10 -337 2 -13 12 -23
20 -23 14 0 16 13 10 103 -3 56 -8 192 -11 302 -7 224 -21 385 -37 400 -7 7
-9 -11 -4 -60z"/>
<path d="M2612 755 c0 -16 2 -22 5 -12 2 9 2 23 0 30 -3 6 -5 -1 -5 -18z"/>
<path d="M2121 744 c0 -11 3 -14 6 -6 3 7 2 16 -1 19 -3 4 -6 -2 -5 -13z"/>
<path d="M502 670 c-3 -118 -30 -598 -37 -637 -4 -25 -2 -33 8 -33 11 0 16 21
21 87 15 206 23 475 16 568 l-7 100 -1 -85z"/>
<path d="M2624 655 c13 -123 35 -444 38 -547 2 -60 7 -108 12 -108 20 0 -30
690 -51 710 -3 3 -3 -22 1 -55z"/>
<path d="M3048 673 c7 -3 16 -2 19 1 4 3 -2 6 -13 5 -11 0 -14 -3 -6 -6z"/>
<path d="M2850 666 c0 -2 8 -10 18 -17 15 -13 16 -12 3 4 -13 16 -21 21 -21
13z"/>
<path d="M2980 655 c-14 -8 -20 -14 -15 -14 6 0 21 6 35 14 14 8 21 14 15 14
-5 0 -21 -6 -35 -14z"/>
<path d="M3080 666 c0 -2 7 -7 16 -10 8 -3 12 -2 9 4 -6 10 -25 14 -25 6z"/>
<path d="M2846 585 c3 -33 9 -98 14 -145 5 -47 14 -155 20 -240 15 -206 17
-219 18 -125 1 89 -15 396 -22 435 -3 14 -12 50 -20 80 l-14 55 4 -60z"/>
<path d="M2918 633 c7 -3 16 -2 19 1 4 3 -2 6 -13 5 -11 0 -14 -3 -6 -6z"/>
<path d="M3068 552 c-3 -11 -1 -23 6 -26 7 -3 7 -5 -1 -5 -7 -1 -13 -6 -13
-12 0 -5 5 -7 12 -3 8 5 9 2 4 -11 -7 -20 19 -338 34 -415 10 -46 8 17 -4 195
l-5 70 14 -65 13 -65 -5 75 c-5 78 -29 228 -42 263 -8 20 -8 20 -13 -1z m31
-171 c2 -54 -6 -32 -12 34 -4 39 -3 50 2 30 5 -16 9 -45 10 -64z"/>
<path d="M2421 544 c0 -11 3 -14 6 -6 3 7 2 16 -1 19 -3 4 -6 -2 -5 -13z"/>
<path d="M2939 533 c14 -27 29 -119 35 -208 14 -201 17 -243 23 -285 l6 -45 8
50 c5 30 3 111 -6 205 -19 209 -39 300 -66 300 -6 0 -6 -6 0 -17z"/>
<path d="M2421 494 c0 -11 3 -14 6 -6 3 7 2 16 -1 19 -3 4 -6 -2 -5 -13z"/>
<path d="M1218 494 c-4 -6 -10 -116 -14 -245 -3 -129 -8 -237 -11 -241 -2 -5
3 -8 11 -8 10 0 17 14 21 43 8 57 2 465 -7 451z"/>
<path d="M3907 482 c17 -11 43 -76 43 -107 0 -37 -39 -71 -106 -91 -32 -10
-67 -24 -76 -32 -24 -20 -23 -58 3 -90 18 -24 19 -27 4 -38 -9 -7 -37 -18 -62
-26 -25 -7 -55 -24 -67 -38 -11 -14 -32 -33 -46 -43 -24 -17 -24 -17 -2 -17
12 0 35 15 52 34 18 20 48 39 73 45 23 7 53 21 67 31 27 20 27 16 -12 80 -19
30 0 52 63 70 90 27 119 56 119 118 -1 36 -36 112 -52 112 -10 0 -10 -2 -1 -8z"/>
<path d="M2432 395 c0 -16 2 -22 5 -12 2 9 2 23 0 30 -3 6 -5 -1 -5 -18z"/>
<path d="M1395 205 c2 -72 4 -147 5 -168 0 -21 4 -36 8 -33 11 7 5 212 -8 281
-7 38 -8 19 -5 -80z"/>
<path d="M3179 325 c-23 -23 36 -85 81 -85 34 0 56 39 36 65 -13 18 -105 34
-117 20z m75 -16 c18 -8 24 -18 22 -33 -4 -29 -27 -31 -59 -6 -50 39 -23 66
37 39z"/>
<path d="M159 283 c4 -21 7 -93 6 -161 0 -67 3 -122 8 -122 13 0 4 297 -9 310
-9 9 -10 2 -5 -27z"/>
<path d="M2443 260 c0 -30 2 -43 4 -27 2 15 2 39 0 55 -2 15 -4 2 -4 -28z"/>
<path d="M46 254 c-10 -75 -7 -254 4 -254 6 0 10 57 10 150 0 83 -2 150 -4
150 -2 0 -6 -21 -10 -46z"/>
<path d="M5782 228 c-15 -19 -31 -85 -38 -163 -9 -104 10 -69 25 44 6 51 16
102 22 112 11 22 6 25 -9 7z"/>
<path d="M3340 172 c0 -45 -27 -122 -51 -148 -17 -18 -19 -24 -7 -24 29 0 58
46 69 108 6 34 15 62 20 62 14 0 66 -77 85 -126 9 -24 23 -44 30 -44 10 0 11
6 4 25 -49 130 -150 229 -150 147z"/>
<path d="M2453 140 c0 -25 2 -35 4 -22 2 12 2 32 0 45 -2 12 -4 2 -4 -23z"/>
<path d="M2459 32 c5 -34 6 -35 9 -8 2 16 0 32 -5 37 -5 5 -7 -7 -4 -29z"/>
<path d="M6189 48 c0 -7 -2 -21 -4 -30 -2 -10 3 -18 11 -18 9 0 14 11 14 30 0
28 -19 44 -21 18z"/>
</g>
</svg>
