<?xml version="1.0" standalone="no"?>
<!DOCTYPE svg PUBLIC "-//W3C//DTD SVG 20010904//EN"
 "http://www.w3.org/TR/2001/REC-SVG-20010904/DTD/svg10.dtd">
<svg version="1.0" xmlns="http://www.w3.org/2000/svg"
 width="658.000000pt" height="223.000000pt" viewBox="0 0 658.000000 223.000000"
 preserveAspectRatio="xMidYMid meet">

<g transform="translate(0.000000,223.000000) scale(0.100000,-0.100000)"
fill="#000000" stroke="none">
<path d="M504 2183 c13 -50 14 -169 3 -215 -6 -21 -15 -29 -42 -34 -21 -4 -41
-2 -48 5 -7 5 -63 28 -124 50 -61 21 -148 57 -194 80 -45 23 -84 39 -87 36 -3
-3 0 -5 6 -5 7 0 12 -17 12 -45 0 -25 5 -45 10 -45 7 0 8 13 4 36 l-7 37 43
-24 c23 -13 45 -30 47 -36 3 -7 9 -10 14 -7 5 2 19 -1 31 -8 13 -6 32 -13 43
-15 11 -2 24 -8 29 -13 8 -8 -29 -187 -43 -202 -13 -15 -92 13 -120 42 -27 28
-28 35 -25 98 2 51 1 59 -5 32 l-8 -35 -2 35 c-2 33 -3 34 -14 12 -8 -18 -8
-28 1 -43 7 -10 12 -29 11 -41 0 -13 -3 -17 -6 -10 -4 10 -8 10 -19 1 -17 -14
-19 -115 -2 -125 6 -4 17 1 24 11 7 10 19 15 27 12 8 -3 19 -1 25 5 7 7 30 5
74 -5 113 -27 145 -29 154 -9 4 9 9 24 10 32 9 59 28 137 35 144 5 6 17 2 28
-9 16 -14 32 -17 72 -13 28 3 55 12 60 19 5 8 9 39 10 69 l1 55 14 -50 c8 -27
24 -75 36 -105 12 -30 21 -71 21 -90 0 -31 -16 -150 -28 -212 -3 -13 -10 -51
-16 -86 -9 -51 -15 -63 -33 -66 -186 -37 -414 -51 -496 -32 -19 5 -32 5 -28 1
28 -29 297 -47 393 -26 22 5 66 12 98 16 48 5 57 4 57 -9 0 -21 3 -20 47 10
36 24 43 25 133 21 52 -3 108 -8 123 -12 24 -7 28 -5 25 10 -5 28 -81 47 -167
41 l-73 -5 5 27 c3 15 13 79 22 142 23 161 25 167 35 150 5 -8 12 -11 16 -8
13 14 -26 58 -52 58 -14 0 -22 -4 -19 -10 3 -5 13 -10 22 -10 11 0 14 -6 9
-22 -4 -13 -11 -57 -17 -98 -20 -158 -30 -197 -61 -220 l-29 -21 6 28 c5 29
24 138 31 183 15 92 16 172 2 217 -14 42 -26 86 -33 118 -15 64 -57 220 -61
226 -15 25 -21 3 -10 -38z m-195 -224 c34 -12 38 -27 21 -88 -5 -20 -14 -54
-20 -77 -9 -38 -12 -40 -42 -37 -59 8 -59 7 -38 67 10 30 22 76 25 101 8 50 8
50 54 34z m-227 -181 c-7 -7 -12 -8 -12 -2 0 14 12 26 19 19 2 -3 -1 -11 -7
-17z"/>
<path d="M591 2227 c-1 -5 12 -47 28 -95 16 -48 44 -135 62 -194 32 -105 49
-140 30 -62 -28 120 -117 379 -120 351z"/>
<path d="M2016 2188 c3 -24 12 -55 19 -69 24 -52 -30 -112 -127 -139 -49 -13
-63 -21 -63 -36 0 -14 13 -24 50 -36 28 -9 59 -20 70 -24 11 -4 27 -7 35 -8 8
-1 16 -10 18 -21 5 -27 22 -44 22 -23 0 29 19 30 33 1 l14 -27 8 24 c6 18 2
28 -15 42 -17 14 -21 25 -16 45 l5 28 -13 -28 c-11 -24 -15 -27 -27 -15 -8 7
-30 14 -49 15 -19 1 -48 7 -65 13 l-30 12 55 18 c68 23 120 77 120 126 0 18
-4 36 -10 39 -5 3 -10 28 -10 56 0 37 -4 49 -15 49 -12 0 -14 -8 -9 -42z"/>
<path d="M2122 2205 c0 -16 2 -22 5 -12 2 9 2 23 0 30 -3 6 -5 -1 -5 -18z"/>
<path d="M2154 2030 c0 -113 2 -159 3 -102 2 56 2 148 0 205 -1 56 -3 10 -3
-103z"/>
<path d="M2209 2203 c-1 -16 -2 -40 -3 -55 -2 -16 1 -28 6 -28 4 0 8 25 8 55
0 56 -9 78 -11 28z"/>
<path d="M2331 2214 c0 -11 3 -14 6 -6 3 7 2 16 -1 19 -3 4 -6 -2 -5 -13z"/>
<path d="M2380 2222 c0 -11 27 -42 37 -42 3 0 -1 7 -8 17 -8 9 -13 19 -11 22
2 3 -1 7 -7 9 -6 2 -11 -1 -11 -6z"/>
<path d="M2436 2213 c-6 -14 -5 -15 5 -6 7 7 10 15 7 18 -3 3 -9 -2 -12 -12z"/>
<path d="M4566 2183 c-9 -26 -16 -64 -16 -84 0 -36 4 -40 70 -83 39 -25 70
-49 70 -53 -1 -14 -34 -50 -52 -56 -10 -4 -36 -45 -57 -92 -79 -170 -198 -323
-243 -312 -11 3 -21 0 -24 -8 -3 -7 -22 -16 -42 -20 -40 -7 -92 -32 -92 -43 0
-4 -11 -20 -25 -35 -18 -19 -36 -27 -58 -27 -70 1 -157 79 -157 142 0 29 -7
37 -77 87 -32 23 -45 41 -54 73 -6 24 -13 49 -15 56 -2 6 -9 12 -15 12 -16 0
-3 -74 19 -113 9 -16 37 -42 61 -57 37 -24 46 -36 65 -91 27 -82 76 -120 163
-127 l57 -5 41 47 c33 39 48 48 83 53 l42 6 0 -91 c0 -50 4 -93 9 -96 10 -7
21 66 21 140 0 53 1 54 40 74 23 12 43 27 47 35 3 8 10 15 15 15 10 0 8 -49
-17 -322 -5 -51 -12 -78 -21 -82 -8 -3 -14 -12 -14 -20 0 -9 -12 -18 -27 -22
-79 -16 -105 -50 -123 -154 -13 -79 -4 -125 36 -183 l26 -39 -32 -59 c-41 -77
-39 -118 7 -138 l33 -15 -6 -81 c-8 -97 6 -132 66 -170 22 -14 56 -48 76 -75
42 -59 60 -62 129 -23 42 23 49 24 56 10 5 -8 25 -21 44 -27 41 -14 77 -60 79
-101 0 -21 6 -29 18 -29 10 0 18 5 18 11 0 5 5 7 10 4 6 -4 5 6 -2 22 -25 58
-60 104 -86 115 -15 7 -40 23 -55 37 l-28 26 -60 -33 -60 -33 -22 27 c-32 39
-59 65 -106 103 -55 44 -64 69 -51 142 12 68 4 93 -34 103 -46 11 -49 37 -14
106 17 35 38 65 47 67 26 7 68 70 97 145 21 55 39 83 85 127 48 48 60 66 69
108 6 28 18 59 25 69 13 17 14 14 15 -31 0 -27 5 -57 10 -65 5 -8 10 -13 10
-10 0 3 3 40 5 83 5 81 15 106 48 126 14 9 22 10 30 2 17 -17 24 -13 23 11 -1
15 7 23 29 30 25 7 44 1 115 -36 81 -42 85 -46 90 -83 3 -21 16 -52 28 -69 13
-17 29 -48 37 -70 7 -21 19 -42 27 -45 55 -26 93 -39 117 -39 34 0 71 37 70
71 l-1 24 -8 -25 c-4 -14 -8 -18 -9 -10 -2 34 -63 165 -93 199 -46 54 -98 86
-98 61 0 -5 9 -10 19 -10 19 0 76 -61 99 -106 15 -28 41 -101 51 -141 11 -42
-11 -48 -83 -19 -41 16 -56 27 -61 46 -4 14 -19 45 -35 70 -16 25 -30 61 -32
80 -4 32 -11 39 -89 83 -71 39 -91 47 -129 45 l-46 -3 4 211 c3 140 1 218 -7
230 -8 14 -11 -14 -12 -116 -1 -74 -2 -148 -4 -165 -1 -16 -3 -64 -4 -105 -2
-70 -4 -77 -31 -98 l-28 -22 4 272 c3 150 2 281 -2 291 -16 43 -24 -16 -24
-188 0 -247 -15 -413 -38 -445 -11 -14 -27 -50 -37 -80 -13 -39 -32 -69 -68
-105 -56 -56 -86 -101 -106 -160 -16 -45 -59 -115 -72 -115 -4 0 -20 21 -35
46 -34 57 -38 129 -12 213 20 64 31 75 90 86 25 5 38 14 43 28 7 20 8 20 14
-7 7 -36 25 -36 29 0 l4 26 34 -33 c44 -42 44 -28 1 20 -34 37 -34 37 -26 109
4 39 10 138 14 219 5 124 9 152 26 175 10 15 19 30 19 33 0 4 13 25 28 48 15
23 38 65 50 92 50 110 56 119 90 127 42 11 60 47 44 83 -7 14 -13 76 -14 138
l-2 112 -3 -108 c-2 -60 -7 -107 -11 -105 -4 2 -31 17 -60 33 l-53 30 4 50 c3
28 8 60 12 73 5 16 3 22 -8 22 -9 0 -21 -19 -31 -47z"/>
<path d="M4748 2185 c-2 -25 0 -45 4 -45 5 0 8 20 8 45 0 25 -2 45 -4 45 -2 0
-6 -20 -8 -45z"/>
<path d="M4857 2163 c-9 -94 -9 -361 1 -366 4 -3 8 74 9 172 2 97 5 195 9 219
3 23 1 42 -4 42 -5 0 -12 -30 -15 -67z"/>
<path d="M4992 2223 c1 -5 -3 -51 -7 -103 -8 -84 -10 -167 -6 -230 1 -21 25
-27 36 -10 4 6 1 9 -6 8 -10 -2 -13 11 -13 47 0 73 15 265 21 281 3 8 -1 14
-11 14 -9 0 -15 -3 -14 -7z"/>
<path d="M5133 2183 c-4 -27 -8 -100 -8 -163 0 -129 4 -121 -88 -171 -58 -31
-58 -31 -55 -72 2 -36 -1 -43 -22 -54 -14 -7 -45 -13 -69 -13 -65 0 -110 -19
-118 -50 -10 -37 -5 -56 29 -108 29 -45 29 -50 23 -129 -4 -56 -3 -83 4 -83 6
0 10 3 10 8 -1 4 -1 33 0 65 l1 58 33 -34 c17 -18 41 -38 51 -44 18 -10 19
-14 6 -52 -7 -23 -11 -44 -8 -47 3 -3 32 -7 64 -10 58 -4 58 -4 29 10 -16 9
-37 15 -46 16 -14 0 -16 8 -12 44 5 40 3 45 -31 71 -43 33 -139 187 -134 218
4 30 43 47 109 47 45 0 61 5 82 24 23 21 25 28 17 55 -10 35 -13 31 85 86 28
16 76 45 107 67 33 22 59 34 63 28 9 -15 27 -1 21 16 -3 7 1 69 9 136 8 68 15
124 15 126 0 1 -8 2 -19 2 -20 0 -26 -27 -37 -174 -4 -45 -9 -84 -13 -88 -3
-3 -23 -16 -45 -27 l-38 -22 7 156 c5 107 4 155 -3 155 -6 0 -14 -21 -19 -47z"/>
<path d="M5365 2200 c-10 -46 3 -90 26 -90 13 0 18 4 13 12 -4 7 -6 34 -5 60
2 37 -1 48 -12 48 -9 0 -18 -13 -22 -30z"/>
<path d="M5470 2176 c0 -106 27 -120 29 -16 1 57 -2 70 -14 70 -12 0 -15 -12
-15 -54z"/>
<path d="M5572 2176 c-2 -30 1 -57 6 -60 4 -3 7 9 5 27 l-4 32 15 -25 c8 -14
15 -20 16 -13 0 8 9 7 30 -5 44 -26 57 -7 35 52 -17 44 -19 46 -59 46 l-41 0
-3 -54z"/>
<path d="M5729 2190 c10 -22 21 -43 24 -47 19 -19 3 -45 -45 -74 -51 -30 -52
-31 -18 -25 21 4 46 18 62 35 l27 30 -27 60 c-15 34 -30 61 -34 61 -4 0 1 -18
11 -40z"/>
<path d="M5953 2180 c0 -30 2 -43 4 -27 2 15 2 39 0 55 -2 15 -4 2 -4 -28z"/>
<path d="M5881 2079 c1 -79 5 -157 9 -174 4 -16 5 47 2 140 -3 94 -6 172 -8
174 -2 2 -3 -61 -3 -140z"/>
<path d="M1824 2185 c-9 -14 -24 -25 -33 -26 -9 0 -2 -5 14 -10 39 -12 112 -2
119 16 3 10 -1 15 -13 15 -10 0 -21 7 -25 15 -9 23 -44 18 -62 -10z"/>
<path d="M2323 2120 c0 -41 2 -58 4 -37 2 20 2 54 0 75 -2 20 -4 3 -4 -38z"/>
<path d="M2432 2170 c0 -14 2 -19 5 -12 2 6 2 18 0 25 -3 6 -5 1 -5 -13z"/>
<path d="M2122 2140 c0 -19 2 -27 5 -17 2 9 2 25 0 35 -3 9 -5 1 -5 -18z"/>
<path d="M2917 2143 c-3 -5 48 -8 113 -8 65 0 122 3 126 8 4 4 -47 7 -114 7
-66 0 -123 -3 -125 -7z"/>
<path d="M2422 2120 c0 -14 2 -19 5 -12 2 6 2 18 0 25 -3 6 -5 1 -5 -13z"/>
<path d="M4743 2080 c0 -30 2 -43 4 -27 2 15 2 39 0 55 -2 15 -4 2 -4 -28z"/>
<path d="M6457 2100 c-22 -19 -46 -57 -65 -103 -37 -88 -54 -106 -138 -147
-100 -50 -138 -120 -97 -180 9 -14 37 -48 63 -75 26 -28 53 -68 59 -90 26 -85
34 -97 73 -115 l39 -17 -35 -22 c-57 -36 -99 -89 -94 -122 4 -23 0 -30 -24
-40 -40 -16 -68 -56 -68 -94 0 -38 31 -71 57 -60 16 6 16 8 -4 16 -33 12 -30
58 6 93 25 24 34 27 92 24 35 -2 70 -9 77 -16 18 -16 26 -15 46 7 16 18 16 20
-11 39 -24 17 -31 18 -46 7 -20 -15 -51 -10 -68 11 -21 25 6 60 78 103 88 53
97 60 116 98 34 64 10 84 -45 38 -51 -43 -111 -29 -123 27 -11 52 -39 98 -99
167 -31 36 -56 69 -56 74 0 24 47 70 96 93 81 38 109 66 139 141 27 68 77 133
103 133 7 0 12 8 10 18 -5 29 -43 26 -81 -8z"/>
<path d="M5618 2085 c2 -19 6 -35 8 -35 2 0 4 16 4 35 0 19 -4 35 -8 35 -4 0
-6 -16 -4 -35z"/>
<path d="M1205 2103 c-11 -3 -30 -14 -42 -25 -12 -12 -42 -23 -68 -26 -27 -3
-51 -12 -58 -22 -27 -39 -81 -47 -144 -23 -10 4 -14 0 -13 -13 4 -35 0 -41
-30 -54 -36 -15 -37 -20 -5 -48 30 -26 32 -61 9 -128 -25 -73 4 -256 50 -318
26 -34 56 -114 56 -149 0 -27 8 -38 41 -59 15 -9 30 -29 33 -44 4 -16 16 -34
27 -42 17 -12 19 -27 19 -181 0 -92 -3 -229 -7 -303 l-6 -136 -29 -6 c-15 -3
-28 -11 -28 -18 0 -9 3 -9 12 0 21 21 46 13 56 -15 11 -34 28 522 17 584 -6
40 -6 40 26 39 l32 -1 -6 -255 c-4 -140 -7 -277 -7 -303 0 -45 -2 -48 -21 -42
l-21 7 21 -21 c12 -12 21 -33 22 -48 0 -23 2 -24 8 -10 6 17 8 17 20 3 7 -8
19 -35 26 -60 12 -40 12 -53 -2 -103 -30 -110 -32 -94 30 -235 11 -27 24 -48
29 -48 5 0 2 10 -6 23 -8 12 -21 46 -30 76 -9 29 -21 60 -27 68 -10 11 -7 29
11 84 28 87 23 136 -20 198 l-32 45 8 170 c17 374 18 589 2 580 -13 -8 -25 51
-16 83 9 35 36 57 80 68 22 6 27 3 31 -17 4 -21 4 -21 6 -2 2 31 26 47 80 55
l46 6 -43 2 c-24 0 -56 -5 -70 -13 -15 -8 -47 -21 -72 -28 -37 -11 -48 -20
-64 -52 -16 -33 -18 -46 -9 -80 10 -35 9 -43 -10 -70 -29 -40 -45 -43 -59 -9
-6 16 -29 44 -50 64 -24 23 -38 46 -38 62 0 35 -26 106 -55 147 -13 19 -26 46
-29 60 -2 14 -9 45 -15 70 -15 63 -13 138 4 196 8 28 13 60 10 72 -5 26 -28
52 -47 52 -7 0 2 9 21 21 18 11 35 29 38 39 4 16 12 18 54 13 45 -5 53 -3 79
22 18 17 47 31 76 36 26 5 57 18 69 29 33 31 145 23 145 -10 0 -6 -25 -21 -55
-35 -30 -13 -55 -29 -55 -35 0 -18 31 -24 74 -12 44 11 67 4 99 -32 18 -21 18
-20 3 11 -19 38 -41 46 -103 37 -55 -8 -51 4 10 26 23 9 43 23 45 32 6 33 -79
65 -133 51z m-55 -928 c0 -34 -21 -57 -37 -41 -7 6 23 76 32 76 3 0 5 -16 5
-35z"/>
<path d="M5944 1995 c0 -60 1 -84 3 -52 2 32 2 81 0 110 -2 29 -3 3 -3 -58z"/>
<path d="M6550 2091 c0 -5 5 -13 10 -16 6 -3 10 -2 10 4 0 5 -4 13 -10 16 -5
3 -10 2 -10 -4z"/>
<path d="M2203 2015 c0 -44 2 -61 4 -37 2 23 2 59 0 80 -2 20 -4 1 -4 -43z"/>
<path d="M2133 2035 c0 -27 2 -38 4 -22 2 15 2 37 0 50 -2 12 -4 0 -4 -28z"/>
<path d="M3098 2063 c6 -2 18 -2 25 0 6 3 1 5 -13 5 -14 0 -19 -2 -12 -5z"/>
<path d="M4763 1890 c0 -180 0 -182 9 -81 5 62 5 137 0 185 -8 72 -9 59 -9
-104z"/>
<path d="M6283 2048 c-13 -6 -23 -15 -23 -20 0 -5 11 -1 25 8 37 24 35 30 -2
12z"/>
<path d="M6520 2050 c-9 -6 -10 -10 -3 -10 6 0 15 5 18 10 8 12 4 12 -15 0z"/>
<path d="M62 2020 c0 -14 2 -19 5 -12 2 6 2 18 0 25 -3 6 -5 1 -5 -13z"/>
<path d="M5760 2030 c0 -8 21 -45 46 -82 40 -58 47 -75 54 -139 7 -66 3 -114
-15 -189 -7 -26 -3 -32 65 -89 34 -29 35 -30 21 -63 -70 -170 -68 -196 20
-278 57 -53 59 -56 59 -107 0 -77 4 -83 62 -83 27 0 58 -5 69 -10 28 -15 148
-16 195 -1 35 11 46 10 82 -6 38 -16 42 -21 42 -53 0 -44 12 -63 36 -58 20 3
31 34 33 89 1 44 -6 51 -88 79 -56 20 -68 21 -102 10 -22 -8 -44 -19 -50 -27
-14 -15 -135 -18 -144 -3 -3 6 -28 10 -56 10 l-49 0 0 54 c0 60 -18 91 -73
125 -63 38 -73 104 -32 201 40 95 39 99 -63 182 -9 7 -11 18 -6 32 5 11 9 68
9 126 0 91 -3 110 -23 145 -50 87 -92 148 -92 135z"/>
<path d="M2075 1969 c-4 -6 -5 -12 -2 -15 2 -3 7 2 10 11 7 17 1 20 -8 4z"/>
<path d="M6002 1959 c-24 -12 -41 -24 -38 -26 2 -2 23 5 46 17 39 20 44 20 75
6 18 -9 40 -28 50 -43 18 -26 17 -27 -16 -54 -42 -35 -46 -35 -81 -2 -15 14
-30 24 -33 21 -4 -3 8 -16 24 -28 17 -12 31 -28 31 -36 0 -25 26 -15 74 27
l47 42 -51 48 c-28 27 -58 49 -68 49 -9 0 -36 -10 -60 -21z"/>
<path d="M118 1940 c-3 -16 -1 -30 4 -30 4 0 8 14 8 30 0 17 -2 30 -4 30 -2 0
-6 -13 -8 -30z"/>
<path d="M171 1904 c-7 -30 -11 -57 -8 -60 2 -2 9 21 16 52 7 30 11 57 8 60
-2 2 -9 -21 -16 -52z"/>
<path d="M1460 1904 c0 -16 11 -65 26 -109 14 -44 29 -116 34 -159 5 -44 15
-95 21 -114 7 -21 9 -55 4 -86 -3 -28 -8 -62 -9 -76 -4 -31 27 -115 55 -153
15 -21 18 -32 10 -40 -19 -19 -12 -71 15 -111 24 -35 25 -41 14 -81 -7 -24 -9
-53 -5 -65 6 -20 12 -22 50 -18 43 5 43 5 49 -32 4 -27 18 -48 56 -84 54 -49
56 -57 24 -116 -13 -24 -13 -24 -14 -3 0 12 -5 25 -10 28 -16 10 -23 -22 -12
-54 7 -20 7 -42 0 -70 -9 -35 -7 -45 11 -77 25 -42 21 -81 -10 -110 -20 -18
-22 -18 -51 -1 -17 10 -32 16 -34 14 -2 -2 11 -12 31 -22 34 -19 34 -19 59 5
33 30 43 81 22 112 -16 23 -23 90 -8 73 5 -6 17 -36 26 -68 19 -60 40 -79 31
-25 -3 17 -15 57 -25 89 l-20 58 24 55 c21 48 23 57 11 80 -13 25 -12 27 15
41 35 18 163 65 177 65 6 0 16 -12 22 -27 13 -32 81 -72 81 -49 0 7 -7 19 -16
27 -14 11 -15 38 -10 213 3 111 8 227 12 259 4 40 2 57 -6 57 -6 0 -9 -4 -6
-9 3 -4 -6 -68 -20 -141 -16 -83 -22 -135 -16 -139 6 -3 12 -51 13 -107 4
-100 4 -101 -13 -73 -13 21 -26 29 -46 29 -31 0 -155 -60 -189 -92 l-22 -21
-36 28 c-34 26 -36 30 -34 78 3 43 0 52 -15 55 -10 2 -23 -1 -29 -7 -11 -11
-47 -15 -47 -6 0 3 7 22 15 42 20 47 19 66 -4 87 -11 10 -25 31 -31 47 -11 25
-10 32 4 48 22 24 21 31 -14 77 -39 52 -56 128 -42 186 9 35 7 66 -9 163 -11
66 -30 152 -42 190 -11 39 -21 72 -22 75 -11 51 -19 71 -31 81 -12 9 -14 7
-14 -17z"/>
<path d="M2190 1831 c0 -55 3 -102 8 -104 4 -3 7 42 7 99 0 57 -3 104 -7 104
-5 0 -8 -45 -8 -99z"/>
<path d="M112 1880 c0 -14 2 -19 5 -12 2 6 2 18 0 25 -3 6 -5 1 -5 -13z"/>
<path d="M424 1762 c-1 -108 1 -131 9 -109 10 26 12 23 39 -59 16 -48 27 -89
24 -91 -2 -2 -115 -5 -250 -6 -243 -2 -306 -9 -183 -22 71 -7 454 -1 463 7 3
4 -4 27 -15 52 -34 74 -71 226 -71 293 0 34 -3 64 -7 66 -5 3 -9 -56 -9 -131z"/>
<path d="M5916 1885 c11 -28 74 -49 74 -24 0 5 -4 7 -10 4 -5 -3 -20 3 -32 14
-26 25 -40 27 -32 6z"/>
<path d="M2131 1862 c0 -13 -7 -29 -14 -37 -8 -7 -20 -54 -27 -104 -12 -88
-14 -90 -36 -85 -15 4 -34 0 -49 -10 -50 -33 -20 -100 61 -132 l45 -19 -3 -62
c-2 -33 -1 -60 2 -58 3 2 16 25 29 51 32 63 22 91 -44 123 -73 34 -87 61 -32
61 l33 0 13 103 c7 56 17 114 23 129 5 14 8 35 5 45 -4 14 -5 13 -6 -5z"/>
<path d="M101 1834 c0 -11 3 -14 6 -6 3 7 2 16 -1 19 -3 4 -6 -2 -5 -13z"/>
<path d="M151 1814 c0 -11 3 -14 6 -6 3 7 2 16 -1 19 -3 4 -6 -2 -5 -13z"/>
<path d="M2664 1742 c16 -50 22 -227 20 -607 -1 -333 0 -383 8 -265 5 80 8
297 6 482 l-3 337 23 -4 c12 -2 41 -18 64 -34 23 -17 52 -31 65 -31 22 0 23
-2 23 -97 0 -54 -7 -181 -15 -283 -27 -322 -35 -462 -34 -580 1 -157 17 -200
18 -50 1 114 5 178 35 625 9 127 17 270 19 319 l2 90 33 19 c18 11 35 17 37
15 3 -2 -7 -21 -21 -42 -14 -20 -28 -52 -31 -71 -5 -30 -2 -36 38 -65 46 -33
68 -63 69 -93 0 -13 -5 -16 -23 -12 -49 13 -63 12 -79 -3 -22 -18 -23 -52 -3
-78 11 -14 15 -54 17 -154 l2 -135 3 128 c4 127 4 128 24 113 16 -11 21 -26
23 -68 2 -72 25 -102 107 -143 38 -18 78 -43 91 -55 48 -44 111 -39 202 16
109 66 128 92 130 179 2 69 17 90 86 125 48 24 70 44 115 105 70 95 95 136 95
155 -1 8 -8 2 -17 -15 -15 -27 -42 -67 -83 -119 -50 -64 -79 -90 -121 -112
-71 -36 -89 -59 -89 -116 0 -91 -42 -146 -154 -201 -87 -43 -97 -43 -147 -3
-24 20 -70 49 -101 66 -72 38 -90 64 -89 132 0 50 -2 55 -34 77 -28 19 -35 30
-35 57 0 36 6 39 55 26 17 -5 36 -7 43 -5 35 13 -10 119 -63 147 -45 24 -46
53 -4 118 51 79 19 103 -62 48 -54 -37 -73 -37 -113 -3 -37 31 -93 56 -106 48
-6 -4 -10 1 -10 9 0 8 -5 18 -11 22 -7 4 -9 0 -5 -14z"/>
<path d="M4592 1628 c-7 -68 -22 -184 -33 -258 -10 -74 -18 -164 -18 -200 l1
-65 14 80 c28 160 45 303 51 433 3 72 4 132 2 132 -3 0 -10 -55 -17 -122z"/>
<path d="M2419 1628 c0 -40 -3 -122 -6 -183 -2 -60 -5 -294 -6 -520 -2 -422 3
-497 39 -541 14 -18 15 -18 5 3 -28 56 -33 224 -27 766 4 301 4 547 1 547 -3
0 -5 -33 -6 -72z"/>
<path d="M2588 1175 c3 -286 8 -538 13 -560 10 -45 0 861 -10 995 -4 47 -5
-149 -3 -435z"/>
<path d="M2501 1450 c-1 -129 -6 -298 -11 -375 -16 -234 -22 -508 -13 -550 7
-31 11 1 16 145 4 102 12 311 18 465 7 186 8 325 1 415 l-9 135 -2 -235z"/>
<path d="M2293 1615 c0 -27 2 -38 4 -22 2 15 2 37 0 50 -2 12 -4 0 -4 -28z"/>
<path d="M2752 1070 c0 -289 3 -534 8 -545 10 -25 11 941 0 1015 -4 30 -8
-181 -8 -470z"/>
<path d="M2292 1480 c0 -14 2 -19 5 -12 2 6 2 18 0 25 -3 6 -5 1 -5 -13z"/>
<path d="M3744 1410 c14 -76 17 -500 7 -755 -17 -391 -22 -650 -11 -555 29
250 50 1030 32 1214 -6 60 -16 114 -22 120 -10 8 -11 3 -6 -24z"/>
<path d="M1399 1380 c1 -28 0 -68 -4 -88 -7 -35 -8 -35 -15 -12 -3 14 -10
-110 -13 -275 -4 -165 -11 -376 -16 -470 -20 -346 -25 -538 -14 -532 6 4 13
93 16 219 4 117 13 371 22 563 8 193 12 369 9 393 l-6 43 36 -22 c20 -11 36
-26 36 -32 0 -5 -11 -25 -25 -43 -14 -18 -25 -39 -25 -46 0 -8 20 -24 45 -36
25 -12 45 -27 45 -33 0 -18 -33 -69 -45 -69 -7 0 -11 -40 -10 -117 1 -65 -2
-163 -6 -218 -4 -55 -10 -147 -14 -205 -4 -58 -9 -107 -10 -110 -2 -3 -6 -71
-9 -150 -3 -90 -2 -132 3 -112 5 19 12 89 16 155 3 67 8 131 10 142 2 11 6 61
9 110 3 50 8 140 12 202 l6 112 34 -49 c19 -27 43 -82 55 -122 11 -40 25 -88
30 -105 11 -35 70 -88 91 -80 8 3 3 9 -12 15 -42 17 -61 47 -90 148 -17 56
-41 115 -59 140 -37 50 -47 93 -32 123 10 17 9 27 -5 50 -16 27 -15 29 11 71
44 70 40 100 -20 121 -19 7 -35 16 -35 20 0 3 14 23 30 44 17 21 30 42 30 46
0 5 -18 21 -41 36 -35 23 -40 31 -35 52 16 66 17 136 4 154 -11 15 -13 11 -9
-33z m58 -557 c-3 -10 -5 -4 -5 12 0 17 2 24 5 18 2 -7 2 -21 0 -30z"/>
<path d="M890 1263 c0 -140 10 -420 25 -703 5 -97 22 -279 29 -315 2 -11 7
-32 11 -46 l7 -27 -309 -5 c-169 -3 -370 -6 -446 -6 -152 0 -207 -7 -207 -26
0 -21 219 -35 637 -39 l393 -5 6 26 c5 20 2 30 -15 43 -13 9 -22 25 -20 36 2
16 -5 84 -16 144 -8 48 -16 162 -25 375 -6 132 -13 269 -15 305 -17 230 -25
338 -29 355 -3 11 -5 26 -5 33 -1 6 -5 12 -11 12 -6 0 -10 -59 -10 -157z"/>
<path d="M2302 1390 c0 -19 2 -27 5 -17 2 9 2 25 0 35 -3 9 -5 1 -5 -18z"/>
<path d="M4882 1375 c0 -16 2 -22 5 -12 2 9 2 23 0 30 -3 6 -5 -1 -5 -18z"/>
<path d="M4239 1385 c0 -6 0 -70 1 -144 1 -139 12 -197 25 -129 11 58 2 255
-12 270 -7 6 -13 8 -14 3z"/>
<path d="M1362 1350 c0 -19 2 -27 5 -17 2 9 2 25 0 35 -3 9 -5 1 -5 -18z"/>
<path d="M2300 1303 c-3 -29 -1 -48 3 -44 5 5 7 28 5 52 l-3 44 -5 -52z"/>
<path d="M3834 1052 c-1 -152 -6 -335 -12 -407 -15 -173 -24 -480 -12 -405 24
149 54 724 47 918 -8 255 -22 191 -23 -106z"/>
<path d="M4155 1293 c4 -10 9 -88 10 -173 5 -209 20 -249 30 -78 7 115 2 219
-12 255 -3 7 -12 13 -20 13 -10 0 -13 -5 -8 -17z"/>
<path d="M1185 1290 c-3 -5 -1 -10 4 -10 6 0 11 5 11 10 0 6 -2 10 -4 10 -3 0
-8 -4 -11 -10z"/>
<path d="M1255 1032 c0 -141 -3 -351 -7 -467 -4 -124 -3 -181 2 -140 24 206
31 837 9 859 -2 3 -4 -111 -4 -252z"/>
<path d="M3676 990 c-8 -294 -12 -359 -26 -538 -6 -68 -9 -169 -9 -225 l2
-102 8 80 c4 44 10 138 14 210 4 72 9 132 10 135 2 3 6 89 9 190 4 102 8 223
11 270 2 47 1 121 -3 165 -6 66 -9 34 -16 -185z"/>
<path d="M2281 1214 c0 -11 3 -14 6 -6 3 7 2 16 -1 19 -3 4 -6 -2 -5 -13z"/>
<path d="M3947 1193 c5 -16 7 -194 7 -398 -1 -220 2 -358 7 -340 25 85 32 644
10 723 -6 23 -16 42 -22 42 -5 0 -6 -11 -2 -27z"/>
<path d="M2002 1163 c16 -27 22 -53 22 -102 1 -78 -22 -120 -82 -148 -34 -17
-35 -18 -13 -21 27 -4 64 20 95 62 16 21 21 42 21 94 0 74 -15 121 -45 140
-18 11 -18 9 2 -25z"/>
<path d="M2313 1054 c0 -73 4 -151 7 -175 10 -62 10 84 0 211 l-7 95 0 -131z"/>
<path d="M2236 1148 c-3 -7 -7 -38 -10 -68 -6 -61 -29 -139 -53 -183 -17 -32
-24 -126 -12 -172 20 -82 20 -114 -1 -135 -30 -30 -48 -25 -52 13 -2 17 -7 32
-13 32 -14 0 -24 -192 -12 -242 12 -52 5 -73 -25 -73 -29 0 -97 31 -155 70
-45 30 -46 28 -10 -23 26 -39 106 -77 160 -77 l44 0 7 -46 c3 -26 6 -91 6
-145 0 -84 2 -99 16 -99 13 0 15 7 10 38 -3 20 -9 107 -12 192 -4 85 -9 193
-11 239 -3 60 -1 81 7 76 6 -4 22 0 35 9 13 9 26 16 29 16 12 0 25 -196 25
-403 1 -93 5 -166 9 -163 9 5 7 292 -2 386 -3 30 -8 100 -11 155 -4 55 -13
136 -21 179 -17 89 -6 167 27 196 29 24 54 117 51 183 -4 52 -17 75 -26 45z"/>
<path d="M4028 1134 c12 -23 32 -239 33 -367 1 -120 13 -164 22 -87 15 121 0
385 -24 436 -8 15 -20 30 -27 32 -11 3 -12 0 -4 -14z"/>
<path d="M1047 975 c-4 -88 -6 -223 -5 -300 1 -105 3 -72 10 130 4 149 7 284
5 300 -1 17 -5 -42 -10 -130z"/>
<path d="M2270 940 c0 -40 4 -70 10 -70 6 0 10 30 10 70 0 40 -4 70 -10 70 -6
0 -10 -30 -10 -70z"/>
<path d="M3566 994 c-3 -9 -6 -41 -6 -72 0 -31 -7 -120 -15 -197 -8 -77 -19
-180 -25 -230 -5 -49 -16 -142 -25 -205 -19 -142 -29 -312 -15 -259 5 19 14
71 19 115 79 614 102 846 83 858 -5 3 -13 -1 -16 -10z"/>
<path d="M3012 605 c0 -220 3 -422 6 -450 4 -27 8 142 9 378 1 235 -2 437 -7
450 -5 13 -9 -132 -8 -378z"/>
<path d="M2925 958 c-7 -37 -11 -298 -4 -290 6 6 18 312 12 312 -2 0 -5 -10
-8 -22z"/>
<path d="M2126 955 c-3 -9 -6 -26 -5 -38 1 -14 4 -9 9 13 9 37 7 52 -4 25z"/>
<path d="M2112 850 c0 -19 2 -27 5 -17 2 9 2 25 0 35 -3 9 -5 1 -5 -18z"/>
<path d="M2270 737 c0 -59 3 -107 8 -107 8 0 6 200 -3 208 -3 3 -5 -43 -5
-101z"/>
<path d="M2332 765 c0 -38 3 -92 8 -120 l7 -50 0 50 c0 28 -3 82 -7 120 l-7
70 -1 -70z"/>
<path d="M3404 710 c4 -60 2 -243 -5 -405 -10 -263 -10 -319 5 -304 8 8 15
146 22 424 7 281 2 395 -18 395 -8 0 -9 -34 -4 -110z"/>
<path d="M3172 636 c-2 -66 -5 -148 -7 -181 -13 -231 -16 -373 -9 -378 5 -3
10 52 12 121 1 70 4 138 7 152 9 54 17 398 9 403 -5 3 -10 -50 -12 -117z"/>
<path d="M3297 630 c-5 -74 -13 -187 -18 -250 -5 -63 -8 -176 -7 -250 l1 -135
7 110 c18 251 32 554 29 605 -3 37 -7 12 -12 -80z"/>
<path d="M2914 510 c0 -69 1 -97 3 -62 2 34 2 90 0 125 -2 34 -3 6 -3 -63z"/>
<path d="M2281 598 c-1 -38 34 -128 69 -177 16 -22 49 -50 72 -62 63 -31 88
-58 95 -101 9 -58 28 -61 20 -3 -8 57 -18 70 -69 96 -89 45 -152 130 -177 238
-8 31 -9 32 -10 9z"/>
<path d="M1505 245 c4 -132 9 -242 11 -244 2 -2 6 -2 9 0 6 7 -15 472 -22 479
-3 3 -2 -103 2 -235z"/>
<path d="M2247 340 c3 -41 8 -131 12 -200 l8 -125 2 95 c3 112 8 108 19 -14 4
-53 12 -91 19 -93 13 -4 12 7 -13 207 -10 74 -21 129 -29 135 -7 6 -15 24 -18
40 -3 17 -3 -4 0 -45z m20 -102 c-3 -7 -5 -2 -5 12 0 14 2 19 5 13 2 -7 2 -19
0 -25z"/>
<path d="M2918 315 c2 -14 6 -25 8 -25 2 0 4 11 4 25 0 14 -4 25 -9 25 -4 0
-6 -11 -3 -25z"/>
<path d="M1636 322 c-2 -4 -8 -78 -12 -165 -5 -115 -4 -157 5 -157 7 0 11 39
12 128 1 70 2 144 3 165 2 38 1 43 -8 29z"/>
<path d="M2395 321 c-8 -14 -25 -99 -32 -160 l-6 -54 -14 29 c-7 16 -11 21 -8
11 2 -10 10 -47 17 -82 6 -36 15 -65 20 -65 4 0 8 5 8 12 0 9 3 9 12 0 26 -26
39 -12 16 19 -20 26 -23 42 -22 107 1 67 12 128 31 178 6 15 -12 20 -22 5z"/>
<path d="M1885 216 c6 -39 11 -110 14 -188 1 -16 6 -28 12 -28 11 0 5 186 -8
238 -10 41 -24 23 -18 -22z"/>
<path d="M1727 123 c3 -65 7 -120 9 -122 2 -2 4 50 4 117 0 68 -4 122 -9 122
-6 0 -7 -49 -4 -117z"/>
<path d="M1826 122 c-8 -103 -5 -135 9 -120 3 3 4 57 3 119 l-3 114 -9 -113z"/>
<path d="M2011 140 c-1 -78 8 -140 21 -140 9 0 3 87 -12 165 -7 37 -8 34 -9
-25z"/>
<path d="M4590 118 c0 -6 -26 -36 -57 -65 -33 -30 -51 -53 -43 -53 20 0 96 78
105 108 3 12 4 22 1 22 -3 0 -6 -5 -6 -12z"/>
</g>
</svg>
