<?xml version="1.0" standalone="no"?>
<!DOCTYPE svg PUBLIC "-//W3C//DTD SVG 20010904//EN"
 "http://www.w3.org/TR/2001/REC-SVG-20010904/DTD/svg10.dtd">
<svg version="1.0" xmlns="http://www.w3.org/2000/svg"
 width="658.000000pt" height="223.000000pt" viewBox="0 0 658.000000 223.000000"
 preserveAspectRatio="xMidYMid meet">

<g transform="translate(0.000000,223.000000) scale(0.100000,-0.100000)"
fill="#000000" stroke="none">
<path d="M48 2224 c-11 -10 -10 -222 2 -431 10 -174 27 -319 37 -310 2 3 -1
74 -8 159 -6 84 -14 251 -18 371 -3 120 -9 215 -13 211z"/>
<path d="M162 1962 c-2 -147 2 -451 9 -677 12 -403 14 -993 3 -1047 -3 -16 -1
-28 4 -28 17 0 24 609 10 920 l-7 155 19 -40 c27 -60 59 -99 117 -144 62 -49
90 -52 100 -13 11 39 10 44 -5 81 -18 45 -5 57 63 54 49 -2 57 0 71 22 12 18
15 36 10 68 -9 56 7 96 42 109 18 7 33 25 44 50 10 23 22 37 28 33 6 -3 7 -11
3 -18 -9 -14 -4 -110 7 -120 4 -5 7 5 5 22 -4 43 10 39 24 -8 6 -22 22 -48 36
-59 19 -15 25 -30 28 -78 l3 -59 2 58 c2 50 5 57 22 57 11 0 39 -20 62 -45 34
-36 49 -45 77 -45 l34 0 -7 -167 c-4 -93 -9 -183 -11 -202 -1 -19 -6 -82 -10
-140 -4 -58 -9 -115 -11 -125 -2 -12 0 -16 5 -10 5 5 12 56 16 114 17 250 24
276 20 70 -3 -113 -7 -245 -10 -295 -3 -70 -2 -80 5 -45 5 25 14 171 21 326 9
220 9 296 -1 353 -14 82 -9 98 14 49 21 -43 43 -55 86 -47 l35 6 -31 2 c-39 1
-67 25 -84 71 -19 51 -26 57 -59 52 -26 -3 -37 3 -72 41 -23 26 -54 49 -70 52
-16 4 -29 11 -29 16 0 5 -3 8 -7 8 -32 -5 -44 16 -62 103 -7 30 -18 64 -26 74
-14 18 -16 18 -40 -9 -14 -15 -25 -34 -25 -41 0 -8 -11 -17 -24 -20 -34 -8
-69 -83 -61 -129 12 -64 2 -77 -65 -77 -78 0 -96 -16 -75 -67 19 -45 19 -77 0
-93 -23 -19 -137 85 -176 161 -25 51 -29 69 -29 142 0 92 4 100 56 111 37 8
52 23 89 91 38 70 43 73 50 29 10 -61 13 -63 14 -6 1 28 5 52 10 52 5 0 16 3
25 6 12 5 16 -1 17 -22 l1 -29 7 27 c4 19 19 34 46 48 21 11 41 20 42 20 2 0
4 -35 4 -77 l2 -78 10 88 c9 85 10 88 56 134 l46 47 7 -128 c7 -120 11 -146
22 -135 3 3 7 62 9 132 2 69 6 130 10 133 15 15 58 -21 83 -70 15 -28 40 -69
56 -92 32 -44 32 -44 22 -155 -8 -90 -16 -70 123 -286 30 -46 67 -83 83 -83
10 0 9 39 -1 45 -5 3 -6 -2 -2 -11 4 -11 2 -15 -6 -13 -7 3 -11 8 -9 12 2 5
-5 13 -14 18 -9 5 -38 44 -64 87 -26 42 -58 94 -72 114 -26 41 -30 77 -17 180
7 54 6 59 -27 105 -19 26 -47 72 -63 100 -21 39 -37 56 -62 65 l-33 12 0 188
c0 181 -1 188 -20 188 -19 0 -20 -7 -21 -192 l-1 -193 -50 -45 c-44 -40 -49
-42 -44 -20 3 14 8 93 11 175 3 83 8 178 12 213 5 51 3 62 -9 62 -16 0 -19
-32 -34 -355 l-6 -141 -34 -22 c-19 -12 -37 -22 -42 -22 -4 0 -5 37 -1 83 31
338 36 457 21 457 -9 0 -29 -214 -38 -405 -7 -142 -7 -145 -35 -145 -22 0 -22
2 -15 118 16 293 18 432 7 432 -7 0 -11 -29 -12 -80 -1 -44 -2 -92 -3 -107 -1
-16 -6 -108 -10 -206 -6 -120 -12 -180 -21 -185 -6 -4 -25 -31 -40 -60 -33
-61 -67 -92 -101 -92 -12 0 -26 -6 -30 -12 -18 -29 -21 53 -16 390 3 209 2
352 -4 352 -5 0 -10 -115 -12 -268z"/>
<path d="M266 2178 c-11 -99 -19 -552 -9 -588 7 -27 11 12 16 165 4 110 10
262 13 338 5 91 4 137 -3 137 -6 0 -13 -24 -17 -52z"/>
<path d="M851 2083 c0 -82 3 -166 8 -188 6 -34 8 -25 14 60 12 175 9 275 -8
275 -13 0 -15 -23 -14 -147z"/>
<path d="M988 2217 c-5 -10 -8 -51 -8 -90 0 -40 -5 -189 -11 -332 -8 -178 -8
-279 -1 -320 9 -58 10 -56 11 59 0 65 6 216 12 335 11 227 9 379 -3 348z"/>
<path d="M1076 2208 c-7 -35 -31 -608 -30 -731 1 -141 20 -165 28 -35 12 186
25 447 31 616 5 151 4 172 -9 172 -9 0 -18 -10 -20 -22z"/>
<path d="M1203 2213 c1 -10 -2 -97 -6 -193 -5 -96 -10 -237 -13 -314 -3 -99
-9 -144 -19 -159 -20 -29 -19 -60 3 -80 12 -11 19 -33 21 -63 1 -25 6 -57 12
-71 7 -20 6 -30 -6 -43 -34 -38 -12 -67 57 -76 44 -6 48 -4 84 32 20 22 42 38
46 36 5 -1 7 2 3 8 -3 5 -1 19 5 30 13 25 -4 27 -22 3 -10 -14 -29 -18 -79
-19 l-67 -1 -6 45 c-12 87 -12 87 52 100 32 7 67 19 78 27 17 13 15 13 -18 0
-21 -8 -56 -15 -78 -15 l-40 0 0 54 c0 52 1 55 30 61 44 10 84 -18 77 -53 -5
-25 -4 -25 9 -8 28 39 -29 84 -89 70 l-30 -6 6 143 c20 445 21 509 5 509 -9 0
-15 -8 -15 -17z m-19 -742 c-7 -10 -24 13 -24 33 0 37 15 40 20 4 3 -18 5 -35
4 -37z m146 -181 c12 -7 8 -11 -19 -16 l-34 -7 22 -19 23 -18 -40 0 c-98 0
-118 42 -29 58 29 5 54 10 57 11 3 0 12 -4 20 -9z"/>
<path d="M1394 1842 c0 -279 2 -358 8 -282 16 200 16 670 0 670 -4 0 -7 -174
-8 -388z"/>
<path d="M1459 2058 c-1 -95 -3 -191 -4 -213 -2 -22 -4 -130 -5 -240 -1 -110
-5 -204 -8 -210 -3 -5 -7 -18 -7 -27 -1 -13 2 -15 11 -7 8 7 14 7 19 -1 9 -15
41 -12 59 6 35 35 10 103 -34 91 -19 -5 -20 0 -20 71 1 43 5 191 9 329 9 254
6 373 -10 373 -5 0 -9 -78 -10 -172z m61 -641 c0 -28 -17 -47 -43 -47 -14 0
-17 5 -11 23 15 49 54 66 54 24z"/>
<path d="M1568 2175 l15 -55 -36 -78 c-43 -91 -45 -111 -13 -149 22 -26 23
-39 30 -213 4 -102 11 -205 16 -230 5 -28 7 39 3 180 l-5 225 34 13 c19 6 41
23 48 37 7 14 16 25 20 25 17 0 52 -47 92 -121 29 -56 53 -88 75 -101 37 -22
41 -33 44 -108 1 -30 4 -61 7 -67 7 -20 24 -15 18 5 -2 9 -8 47 -11 83 -6 60
-5 68 12 73 16 5 61 58 96 114 6 9 -1 28 -19 55 -22 33 -28 54 -29 101 -1 61
-13 79 -85 128 -24 15 -24 16 -5 23 11 4 41 15 67 25 l47 19 5 -32 c21 -146
48 -293 54 -299 5 -5 2 29 -5 75 -6 45 -20 137 -29 204 -10 68 -21 118 -25
112 -5 -8 -8 -8 -13 0 -4 6 -17 11 -28 11 -21 0 -21 0 1 -24 l23 -25 -37 -15
c-21 -9 -41 -16 -46 -16 -23 0 -59 -25 -59 -41 0 -10 20 -32 45 -49 55 -38 66
-57 59 -102 -6 -35 12 -84 42 -119 13 -14 9 -22 -28 -67 -23 -29 -49 -52 -59
-52 -24 0 -64 50 -104 131 -19 37 -48 77 -64 88 -31 22 -71 28 -71 11 0 -20
-48 -60 -64 -54 -24 9 -21 109 4 157 23 43 25 69 8 132 -8 30 -18 45 -29 45
-15 0 -15 -4 -1 -55z m-8 -241 c0 -8 -4 -12 -10 -9 -5 3 -10 13 -10 21 0 8 5
12 10 9 6 -3 10 -13 10 -21z"/>
<path d="M2074 2214 c3 -9 6 -25 6 -35 0 -11 5 -17 10 -14 17 11 12 65 -6 65
-11 0 -14 -5 -10 -16z"/>
<path d="M2120 2193 c0 -21 4 -65 9 -98 6 -33 12 -116 16 -185 3 -69 8 -145
10 -170 2 -25 7 -83 11 -130 3 -47 9 -89 13 -95 9 -13 7 -338 -4 -535 -4 -85
-9 -172 -10 -192 -1 -21 2 -35 7 -32 4 3 8 26 8 52 0 35 3 43 12 34 8 -8 11
-113 11 -389 l0 -378 9 230 c8 214 5 497 -7 555 -3 14 -8 26 -13 28 -4 1 -4
37 0 80 9 79 16 596 10 735 -5 119 -17 91 -15 -35 l1 -113 -8 85 c-15 156 -15
282 0 190 l8 -45 -1 53 c0 39 -4 51 -14 48 -16 -7 -17 6 -1 22 10 10 10 15 1
20 -6 4 -14 48 -18 97 -5 50 -9 101 -11 115 -1 14 -2 40 -3 58 -1 45 -21 40
-21 -5z"/>
<path d="M2326 2103 c2 -71 6 -238 9 -373 3 -135 9 -382 15 -550 5 -168 9
-468 9 -666 0 -345 6 -514 20 -514 11 0 13 1058 2 1065 -7 4 -11 44 -10 98 0
65 3 86 10 72 7 -15 8 -11 4 15 -4 19 -10 177 -15 350 -13 495 -21 630 -36
630 -10 0 -12 -29 -8 -127z"/>
<path d="M2363 2180 c0 -30 2 -43 4 -27 2 15 2 39 0 55 -2 15 -4 2 -4 -28z"/>
<path d="M2442 2210 c0 -14 2 -19 5 -12 2 6 2 18 0 25 -3 6 -5 1 -5 -13z"/>
<path d="M2550 2213 c0 -10 11 -90 25 -178 17 -107 28 -226 33 -360 l7 -200 3
150 c1 87 -4 221 -14 320 -9 93 -19 196 -21 228 -3 40 -9 57 -19 57 -8 0 -14
-8 -14 -17z"/>
<path d="M2666 2060 c2 -96 4 -346 4 -554 0 -368 5 -487 12 -258 2 61 6 112
11 112 4 0 5 10 3 23 -3 12 -8 186 -12 387 -3 201 -10 388 -14 415 -5 31 -7
-15 -4 -125z"/>
<path d="M2753 2088 c3 -79 11 -159 17 -178 8 -24 10 -128 7 -345 -3 -170 -1
-274 3 -230 7 82 5 -770 -4 -1065 l-4 -165 9 155 c5 85 12 254 16 375 7 204 8
214 16 135 4 -47 9 -234 10 -417 1 -212 6 -336 12 -342 7 -7 10 51 8 187 -1
108 1 184 5 168 4 -16 7 146 7 360 0 214 4 420 9 457 l8 68 31 -8 c18 -4 70
-8 117 -7 76 0 94 4 167 38 99 44 152 55 216 42 38 -8 57 -7 93 7 26 9 50 14
55 11 5 -3 9 -21 9 -41 0 -56 28 -103 74 -124 23 -10 51 -19 63 -19 13 0 37
-13 55 -30 l33 -29 -35 9 c-55 16 -121 11 -170 -11 -43 -20 -55 -24 -107 -36
-22 -5 -23 -3 -23 68 0 90 -11 85 -13 -7 l-2 -67 -48 -12 -48 -12 7 93 c5 68
4 94 -5 94 -6 0 -11 -17 -11 -43 0 -23 -3 -98 -7 -167 -10 -162 -5 -303 11
-350 7 -20 9 -45 5 -56 -4 -10 -37 -52 -73 -92 -70 -77 -81 -99 -43 -87 54 18
80 11 103 -25 53 -82 57 -85 100 -72 21 7 113 52 204 100 184 98 194 108 210
213 32 205 32 206 42 174 5 -16 9 -205 10 -420 1 -234 4 -374 9 -350 9 44 15
658 6 672 -3 4 -8 51 -11 104 l-6 95 44 34 c25 18 47 39 51 47 7 20 -8 14 -57
-25 -24 -18 -67 -50 -95 -72 -29 -22 -53 -48 -53 -56 0 -12 12 -6 40 20 22 20
45 36 50 36 15 0 12 -27 -5 -53 -8 -12 -19 -56 -25 -97 -22 -143 -32 -180 -56
-209 -32 -38 -348 -210 -387 -211 -10 0 -25 14 -35 31 -44 81 -78 103 -123 79
-31 -17 -22 -2 37 63 90 99 90 98 69 166 -19 64 -16 125 10 224 18 69 18 77 4
77 -5 0 -8 -4 -5 -9 3 -5 -1 -26 -8 -47 l-15 -39 0 53 c-1 28 4 52 9 52 6 0
10 9 10 20 0 21 4 24 52 34 27 6 27 6 31 -56 l3 -63 2 62 2 61 43 10 c23 6 74
22 114 36 77 28 91 28 208 -9 64 -20 192 -45 229 -45 l29 0 -7 -222 c-3 -123
-11 -286 -16 -363 -5 -77 -12 -205 -14 -285 -4 -132 -4 -136 4 -45 20 238 32
456 39 675 5 201 8 235 21 232 11 -2 11 1 -2 11 -13 10 -18 28 -18 60 0 25 -3
48 -7 50 -5 3 -6 -19 -5 -49 l4 -54 -29 5 c-113 18 -163 28 -163 35 0 12 50
30 86 30 44 0 54 22 25 58 -51 64 -54 71 -40 88 7 9 52 35 100 59 l86 44 -4
-67 c-6 -81 3 -95 103 -164 58 -40 79 -49 130 -54 l61 -7 -3 -191 c-2 -165
-12 -324 -40 -656 -12 -137 4 -67 20 90 24 239 25 249 32 512 l7 247 69 7 c38
4 71 11 74 16 4 6 10 5 15 -3 6 -9 8 -2 8 21 -1 19 -3 28 -6 18 -3 -14 -10
-15 -41 -6 -52 14 -116 53 -136 82 -22 35 -21 89 4 111 15 14 31 17 71 13 46
-5 56 -11 109 -63 44 -43 62 -56 78 -51 18 6 93 81 149 149 13 15 26 27 30 26
12 -1 66 -80 87 -126 12 -27 26 -43 36 -43 27 0 31 -46 38 -452 4 -207 10
-380 15 -384 11 -11 8 635 -4 742 l-10 95 30 34 c28 33 51 89 51 128 0 27 25
31 78 14 38 -13 49 -14 60 -3 21 21 4 64 -49 123 -27 29 -49 60 -49 69 0 8 14
29 30 46 l31 30 108 -7 c90 -6 110 -5 117 8 5 8 20 16 34 19 14 3 33 9 42 13
15 6 17 1 14 -42 -3 -38 -2 -41 3 -13 6 28 9 14 15 -65 8 -93 6 -227 -10 -615
-4 -85 -4 -153 -1 -150 8 8 37 462 37 590 0 140 -15 277 -32 298 -19 23 -15
165 7 251 l19 73 -23 63 c-25 71 -21 90 28 132 25 22 25 23 5 23 -24 0 -84
-62 -84 -86 0 -8 11 -42 25 -76 25 -62 26 -80 6 -131 -14 -37 -23 -95 -25
-172 l-1 -60 -38 -6 c-21 -3 -44 -14 -51 -24 -12 -16 -18 -17 -59 -7 -106 27
-180 8 -213 -53 -23 -43 -14 -70 41 -129 47 -50 60 -84 28 -71 -70 27 -123 12
-123 -35 0 -31 -38 -120 -52 -120 -4 0 -8 4 -8 9 0 5 -5 22 -11 38 -10 25 -12
26 -18 8 -5 -11 -2 -30 5 -44 7 -14 11 -28 7 -31 -3 -3 -7 0 -9 5 -20 53 -104
175 -122 175 -9 0 -55 -42 -103 -92 l-87 -93 -49 46 c-65 61 -86 71 -144 71
-63 0 -95 -21 -111 -73 -11 -38 -10 -45 15 -93 18 -34 37 -56 59 -65 31 -14
31 -14 8 -23 -15 -6 -26 -5 -31 3 -5 8 -8 8 -11 -1 -8 -24 -102 4 -177 54 -75
50 -88 71 -77 129 16 88 18 105 8 111 -11 7 -213 -93 -244 -120 -27 -25 -22
-64 13 -107 30 -37 30 -37 7 -37 -13 -1 -34 -7 -48 -15 -39 -22 -65 -18 -110
20 -26 22 -58 38 -83 42 -28 4 -53 17 -74 39 -28 27 -33 40 -33 77 0 57 -17
72 -68 62 -20 -4 -84 -9 -142 -10 -98 -1 -111 -4 -188 -39 -115 -52 -177 -64
-244 -47 -29 7 -57 19 -63 26 -5 6 -14 13 -20 13 -5 1 -10 8 -10 15 0 6 36 26
80 42 103 39 105 40 102 78 -2 26 4 35 36 56 41 27 55 60 40 94 -14 30 -3 55
51 113 25 27 46 58 46 70 0 18 -30 68 -51 84 -3 3 -11 15 -18 28 -14 26 -11
27 58 35 72 9 143 90 155 180 4 26 11 47 16 47 22 0 64 -69 109 -182 8 -21 17
-28 38 -28 36 0 90 32 128 75 19 22 53 42 95 58 75 28 83 44 46 88 -27 31 -24
59 6 73 7 3 2 4 -12 3 -34 -3 -40 -49 -11 -88 24 -32 20 -38 -58 -65 -35 -12
-62 -30 -78 -51 -23 -30 -94 -73 -121 -73 -7 0 -12 7 -12 15 0 56 -113 222
-144 212 -6 -2 -14 -27 -19 -56 -10 -71 -31 -113 -78 -156 -32 -29 -47 -35
-83 -35 -75 0 -80 -27 -19 -111 18 -26 33 -49 33 -53 0 -3 -21 -28 -46 -57
-58 -65 -68 -92 -53 -137 10 -29 9 -36 -4 -44 -44 -24 -76 -61 -79 -90 -3 -28
-9 -32 -73 -55 -114 -42 -139 -68 -97 -106 16 -14 17 -26 11 -84 -4 -38 -11
-140 -15 -228 -13 -265 -26 -106 -25 300 1 313 -4 489 -25 853 -6 90 -10 112
-22 112 -13 0 -14 -20 -9 -142z"/>
<path d="M2887 1990 c5 -405 10 -531 19 -540 5 -5 6 68 3 178 -4 103 -8 268
-9 367 -1 99 -5 194 -9 210 -4 17 -6 -80 -4 -215z"/>
<path d="M2984 2173 c3 -32 11 -148 16 -258 6 -110 15 -216 20 -235 7 -26 8
-11 4 55 -2 50 -7 177 -9 283 -2 106 -7 197 -10 203 -4 5 -11 9 -17 9 -7 0 -8
-19 -4 -57z"/>
<path d="M3097 2158 c3 -40 9 -89 13 -108 l8 -35 1 40 c1 64 -11 175 -20 175
-4 0 -5 -33 -2 -72z"/>
<path d="M3121 2214 c0 -11 3 -14 6 -6 3 7 2 16 -1 19 -3 4 -6 -2 -5 -13z"/>
<path d="M3234 2219 c12 -8 25 -8 40 -1 18 9 16 11 -19 11 -33 0 -37 -1 -21
-10z"/>
<path d="M5646 2219 c3 -6 15 -8 27 -5 20 5 20 3 13 -237 -3 -132 -9 -257 -11
-276 -3 -20 -10 -103 -15 -186 -30 -429 -39 -597 -38 -660 l1 -70 8 85 c4 47
13 166 19 265 6 99 15 225 20 280 18 191 31 448 34 650 1 78 6 146 10 153 5 9
-4 12 -34 12 -27 0 -39 -4 -34 -11z"/>
<path d="M5856 2143 c-21 -310 -43 -580 -67 -803 -25 -236 -38 -422 -37 -500
l1 -85 8 90 c8 96 20 218 45 460 29 293 50 531 59 705 3 52 8 123 11 158 2 35
1 62 -5 62 -5 0 -12 -39 -15 -87z"/>
<path d="M6002 2193 c10 -36 5 -470 -6 -533 -4 -20 -10 -89 -21 -220 -3 -42
-17 -177 -20 -190 -2 -14 -9 -75 -20 -175 -3 -22 -9 -78 -15 -125 -17 -152
-24 -310 -13 -310 6 0 14 45 18 103 5 56 9 104 10 107 1 3 5 41 9 85 8 82 13
127 21 180 2 17 7 57 10 90 3 33 8 74 10 90 2 17 7 62 10 100 4 39 11 102 16
140 13 97 24 567 15 638 -5 37 -12 57 -21 57 -11 0 -11 -8 -3 -37z"/>
<path d="M6075 2162 c-6 -61 -5 -68 16 -85 13 -10 29 -15 38 -11 9 4 50 8 91
11 l75 4 85 -85 c92 -93 111 -104 145 -86 42 22 55 70 55 200 l0 120 -51 0
c-31 0 -48 -4 -44 -10 3 -6 17 -7 29 -4 31 8 34 -4 32 -127 -1 -83 -5 -110
-20 -132 -10 -15 -22 -26 -27 -25 -4 2 -51 43 -105 92 l-97 88 -66 -5 c-36 -4
-78 -9 -93 -13 -21 -5 -29 -2 -35 11 -6 17 4 66 21 106 6 13 1 17 -17 17 -23
0 -25 -5 -32 -66z"/>
<path d="M5772 2185 c-13 -28 -38 -212 -47 -340 -3 -44 -7 -111 -10 -150 -10
-141 -14 -203 -21 -325 -4 -69 -8 -145 -9 -170 -9 -157 -17 -474 -11 -469 4 4
9 53 11 110 2 57 7 149 10 204 3 55 8 136 10 180 3 44 7 116 10 160 3 44 7
121 10 170 3 50 7 117 10 150 2 33 7 101 10 150 7 99 31 297 41 333 9 30 0 28
-14 -3z"/>
<path d="M2453 2120 c0 -25 2 -35 4 -22 2 12 2 32 0 45 -2 12 -4 2 -4 -23z"/>
<path d="M2458 1985 c2 -36 7 -65 10 -65 9 0 3 113 -6 122 -4 4 -5 -22 -4 -57z"/>
<path d="M6189 2018 c-1 -13 -3 -59 -5 -103 -5 -134 -24 -346 -55 -625 -28
-242 -49 -592 -36 -580 3 3 12 84 21 180 9 96 21 209 26 250 29 245 41 350 46
423 3 45 7 88 10 95 2 7 7 96 10 197 5 136 4 185 -5 185 -6 0 -12 -10 -12 -22z"/>
<path d="M2473 1850 c0 -25 2 -35 4 -22 2 12 2 32 0 45 -2 12 -4 2 -4 -23z"/>
<path d="M6437 1844 c-4 -4 -7 -14 -7 -23 0 -14 2 -14 10 -1 5 8 10 11 11 5 0
-5 3 -21 7 -35 8 -35 8 -436 0 -675 -4 -126 -4 -174 2 -130 26 210 38 655 21
765 -11 71 -29 109 -44 94z"/>
<path d="M1620 1785 c0 -17 5 -73 10 -125 22 -222 22 -220 41 -220 6 0 8 3 5
8 -2 4 -7 45 -11 92 -10 141 -26 254 -36 265 -5 5 -9 -2 -9 -20z"/>
<path d="M2484 1655 c5 -69 11 -123 14 -121 7 7 -9 246 -17 246 -3 0 -2 -56 3
-125z"/>
<path d="M6329 1755 c0 -5 0 -113 1 -240 0 -126 -4 -273 -9 -325 -5 -52 -12
-162 -15 -245 -6 -168 1 -138 30 135 21 202 26 634 7 665 -7 11 -13 16 -14 10z"/>
<path d="M1713 1695 c3 -16 9 -68 12 -115 4 -47 13 -95 21 -107 12 -19 12 -23
-4 -32 -15 -10 -8 -19 53 -76 52 -48 76 -64 95 -62 21 2 25 7 23 35 -3 76 -47
122 -118 122 -32 0 -34 2 -39 43 -19 164 -26 201 -36 211 -9 8 -11 4 -7 -19z
m130 -266 c14 -6 30 -22 36 -36 13 -27 15 -73 4 -73 -5 0 -37 27 -73 60 l-65
60 37 0 c20 0 48 -5 61 -11z"/>
<path d="M1961 1648 c-1 -64 16 -158 31 -173 7 -7 8 0 4 20 -3 17 -8 62 -12
100 -9 96 -23 126 -23 53z"/>
<path d="M1795 1607 c5 -75 17 -117 34 -117 5 0 2 19 -5 43 -7 23 -17 67 -23
97 -10 54 -10 54 -6 -23z"/>
<path d="M44 1295 c0 -170 -5 -389 -12 -485 -6 -96 -13 -240 -16 -320 l-5
-145 14 175 c34 462 45 894 27 1035 -4 28 -7 -89 -8 -260z"/>
<path d="M2092 1580 c0 -14 2 -19 5 -12 2 6 2 18 0 25 -3 6 -5 1 -5 -13z"/>
<path d="M2524 1584 c5 -10 11 -108 14 -217 4 -166 3 -197 -9 -192 -12 4 -13
-42 -11 -292 2 -164 -1 -393 -7 -509 -6 -116 -8 -233 -4 -260 10 -65 17 93 32
781 12 525 9 689 -12 702 -7 4 -8 0 -3 -13z"/>
<path d="M2401 1483 c0 -35 2 -63 7 -63 4 0 6 21 4 48 -5 75 -10 82 -11 15z"/>
<path d="M2104 1410 c0 -63 1 -89 3 -57 2 31 2 83 0 115 -2 31 -3 5 -3 -58z"/>
<path d="M2463 1430 c0 -30 2 -43 4 -27 2 15 2 39 0 55 -2 15 -4 2 -4 -28z"/>
<path d="M2503 1410 c0 -41 2 -58 4 -37 2 20 2 54 0 75 -2 20 -4 3 -4 -38z"/>
<path d="M2622 1410 c0 -19 2 -27 5 -17 2 9 2 25 0 35 -3 9 -5 1 -5 -18z"/>
<path d="M5440 1394 c0 -22 4 -33 11 -29 12 8 11 -372 -2 -520 -12 -146 -19
-367 -9 -312 5 26 12 87 15 135 4 48 9 89 10 92 9 15 20 267 19 430 -1 179 -9
240 -34 240 -5 0 -10 -16 -10 -36z"/>
<path d="M2413 1310 c0 -47 2 -66 4 -42 2 23 2 61 0 85 -2 23 -4 4 -4 -43z"/>
<path d="M2463 1330 c0 -25 2 -35 4 -22 2 12 2 32 0 45 -2 12 -4 2 -4 -23z"/>
<path d="M5342 1135 c-7 -132 -21 -333 -32 -445 -11 -113 -19 -234 -19 -270 1
-64 9 -2 48 350 19 175 33 493 24 550 -7 46 -11 16 -21 -185z"/>
<path d="M1536 1319 c-37 -29 -50 -57 -36 -74 18 -21 76 -29 110 -15 27 11 33
10 61 -14 35 -30 55 -32 87 -10 l22 15 0 -98 c-1 -126 -17 -461 -25 -499 -4
-22 -3 -24 3 -9 26 57 43 598 22 680 l-8 30 -1 -27 c-2 -39 -21 -77 -44 -84
-27 -8 -92 53 -76 73 15 18 54 16 73 -3 17 -17 21 -8 7 15 -6 10 -22 12 -54 9
-38 -5 -46 -2 -50 13 -7 26 -57 25 -91 -2z m87 -26 c2 -21 2 -41 0 -45 -6 -11
-85 -10 -102 1 -18 12 1 46 37 65 45 25 59 20 65 -21z"/>
<path d="M685 971 c2 -200 7 -367 12 -372 6 -6 8 12 5 43 -2 29 -7 197 -12
373 l-8 320 3 -364z"/>
<path d="M4866 1314 c-4 -10 -2 -20 4 -24 18 -11 29 -240 31 -605 1 -201 5
-320 9 -280 12 120 5 752 -9 835 -14 80 -24 102 -35 74z"/>
<path d="M5146 1293 c10 -44 11 -374 2 -728 l-7 -250 15 215 c17 238 24 679
11 753 -5 26 -13 47 -19 47 -7 0 -7 -13 -2 -37z"/>
<path d="M604 1220 c0 -58 1 -81 3 -52 2 28 2 76 0 105 -2 28 -3 5 -3 -53z"/>
<path d="M2043 1169 c-1 -77 -6 -191 -12 -252 -16 -174 -21 -274 -12 -252 29
72 60 633 35 642 -7 2 -11 -43 -11 -138z"/>
<path d="M1877 931 c1 -195 5 -356 8 -359 3 -3 5 10 5 29 1 19 3 50 6 69 21
151 24 444 5 463 -6 6 -12 29 -12 52 -1 22 -4 53 -8 70 -3 16 -5 -130 -4 -324z"/>
<path d="M2087 1137 c-5 -82 -7 -151 -4 -153 7 -7 20 212 15 261 -2 22 -7 -27
-11 -108z"/>
<path d="M2511 1264 c0 -11 3 -14 6 -6 3 7 2 16 -1 19 -3 4 -6 -2 -5 -13z"/>
<path d="M2613 1207 c2 -31 -2 -199 -9 -374 -7 -175 -14 -345 -15 -378 l-2
-60 -7 60 c-4 34 -7 -41 -7 -170 1 -131 3 -198 7 -155 l6 75 5 -55 c3 -32 6 8
8 95 1 83 6 208 11 280 5 72 12 263 16 426 6 233 4 298 -5 304 -10 6 -12 -5
-8 -48z"/>
<path d="M1470 1214 c0 -5 11 -27 23 -49 29 -51 25 -65 -19 -65 -34 0 -114 33
-114 48 0 4 12 15 28 24 20 13 22 18 10 18 -10 0 -28 -10 -39 -21 l-21 -21 26
-26 c21 -21 37 -27 91 -30 61 -4 65 -3 74 19 5 13 5 26 1 29 -4 3 -19 23 -34
44 -14 21 -26 35 -26 30z"/>
<path d="M2452 1180 c0 -14 2 -19 5 -12 2 6 2 18 0 25 -3 6 -5 1 -5 -13z"/>
<path d="M1159 1158 c15 -43 2 -320 -29 -603 -5 -49 -9 -124 -9 -165 l2 -75 7
60 c4 33 10 98 14 145 6 89 14 181 21 240 2 19 7 101 11 181 7 147 1 239 -16
239 -6 0 -6 -10 -1 -22z"/>
<path d="M2757 983 c-4 -104 -9 -330 -11 -503 -3 -239 -2 -274 4 -145 11 256
24 835 18 835 -3 0 -8 -84 -11 -187z"/>
<path d="M237 915 c3 -132 7 -242 9 -244 7 -7 2 279 -6 384 -5 62 -6 10 -3
-140z"/>
<path d="M3512 1120 c0 -19 2 -27 5 -17 2 9 2 25 0 35 -3 9 -5 1 -5 -18z"/>
<path d="M821 1124 c0 -11 3 -14 6 -6 3 7 2 16 -1 19 -3 4 -6 -2 -5 -13z"/>
<path d="M4725 1005 c2 -77 5 -329 7 -560 1 -231 4 -366 8 -300 8 184 2 851
-9 930 -8 60 -9 51 -6 -70z"/>
<path d="M1337 1124 c-11 -12 -8 -26 4 -18 12 7 10 -112 -7 -572 -4 -96 -3
-174 2 -177 5 -3 10 29 12 71 1 43 7 165 13 272 17 291 7 455 -24 424z"/>
<path d="M3200 1081 c0 -95 -11 -380 -15 -401 -7 -37 -19 -346 -12 -340 2 3 8
61 12 130 3 69 8 132 10 140 2 8 6 65 9 125 3 61 8 167 12 236 4 88 3 128 -5
133 -7 5 -11 -3 -11 -23z"/>
<path d="M832 1070 c0 -19 3 -60 8 -90 l7 -55 1 50 c0 28 -3 68 -7 90 l-9 40
0 -35z"/>
<path d="M1550 1078 c-2 -68 -12 -163 -20 -184 -6 -14 -10 -42 -10 -62 0 -20
-9 -89 -19 -152 -11 -63 -22 -151 -25 -195 l-5 -80 11 58 c6 31 14 57 18 57 3
0 4 16 2 35 -3 21 0 35 7 35 6 0 11 18 11 43 0 23 9 103 19 177 29 203 35 280
22 280 -6 0 -11 -6 -11 -12z"/>
<path d="M772 1040 c0 -14 2 -19 5 -12 2 6 2 18 0 25 -3 6 -5 1 -5 -13z"/>
<path d="M1264 725 c0 -187 2 -262 3 -167 2 95 2 248 0 340 -1 92 -3 14 -3
-173z"/>
<path d="M1068 940 c2 -63 6 -117 8 -119 8 -8 3 155 -5 194 -6 25 -7 -3 -3
-75z"/>
<path d="M1706 962 c0 -81 -7 -193 -20 -317 -24 -211 -25 -231 -15 -246 6 -9
9 -1 10 26 0 22 2 47 3 55 2 8 6 40 10 70 32 261 44 448 30 484 -13 35 -19 12
-18 -72z"/>
<path d="M4604 800 c1 -140 -2 -374 -5 -520 -4 -162 -4 -216 1 -140 14 219 22
752 12 835 -7 63 -9 27 -8 -175z"/>
<path d="M592 958 c-1 -51 -6 -88 -12 -88 -5 0 -10 18 -10 40 0 22 -3 40 -7
40 -5 0 -8 -114 -8 -252 0 -139 -4 -334 -9 -433 -5 -99 -6 -178 -3 -175 3 3
12 131 21 285 9 154 21 348 27 430 6 83 9 170 7 195 -3 28 -5 13 -6 -42z"/>
<path d="M1527 1034 c-4 -4 -7 -19 -6 -33 l0 -26 10 24 c10 26 8 47 -4 35z"/>
<path d="M623 730 c0 -258 1 -280 9 -177 6 71 6 187 0 295 l-9 177 0 -295z"/>
<path d="M3007 945 c4 -44 7 -267 7 -495 0 -331 2 -387 8 -275 12 184 2 809
-12 833 -8 12 -9 -5 -3 -63z"/>
<path d="M313 960 c0 -30 2 -43 4 -27 2 15 2 39 0 55 -2 15 -4 2 -4 -28z"/>
<path d="M4176 973 c-3 -16 -8 -82 -11 -148 -10 -215 -26 -488 -36 -594 -10
-116 -12 -237 -3 -229 13 14 46 477 60 851 5 141 2 179 -10 120z"/>
<path d="M4309 812 c2 -103 -2 -279 -8 -392 -6 -113 -13 -254 -16 -315 -3 -97
-3 -102 5 -45 25 174 42 896 22 927 -4 6 -5 -73 -3 -175z"/>
<path d="M2072 920 c0 -14 2 -19 5 -12 2 6 2 18 0 25 -3 6 -5 1 -5 -13z"/>
<path d="M857 750 c3 -96 9 -213 13 -260 5 -54 6 -18 3 100 -3 102 -9 219 -13
260 -6 49 -7 15 -3 -100z"/>
<path d="M323 860 c0 -25 2 -35 4 -22 2 12 2 32 0 45 -2 12 -4 2 -4 -23z"/>
<path d="M761 884 c0 -11 3 -14 6 -6 3 7 2 16 -1 19 -3 4 -6 -2 -5 -13z"/>
<path d="M2572 870 c0 -14 2 -19 5 -12 2 6 2 18 0 25 -3 6 -5 1 -5 -13z"/>
<path d="M445 829 c-6 -8 -4 -10 5 -4 11 7 12 -45 7 -281 -4 -159 -9 -341 -13
-404 -7 -122 -1 -150 9 -40 38 413 33 796 -8 729z"/>
<path d="M1084 695 c0 -60 1 -84 3 -52 2 32 2 81 0 110 -2 29 -3 3 -3 -58z"/>
<path d="M2573 740 c0 -36 2 -50 4 -32 2 17 2 47 0 65 -2 17 -4 3 -4 -33z"/>
<path d="M337 700 c3 -52 7 -97 9 -99 7 -8 3 92 -6 144 -6 36 -7 23 -3 -45z"/>
<path d="M2048 515 c2 -99 6 -182 8 -184 7 -8 2 232 -6 299 -4 37 -5 -13 -2
-115z"/>
<path d="M1968 630 c4 -25 6 -123 6 -218 -1 -95 0 -171 2 -169 2 2 8 49 12
105 10 109 0 281 -17 309 -8 13 -9 6 -3 -27z"/>
<path d="M1833 560 c0 -52 3 -142 7 -200 l7 -105 0 125 c0 69 -3 159 -7 200
l-7 75 0 -95z"/>
<path d="M254 510 c0 -63 1 -89 3 -57 2 31 2 83 0 115 -2 31 -3 5 -3 -58z"/>
<path d="M1074 485 c0 -49 1 -71 3 -48 2 23 2 64 0 90 -2 26 -3 8 -3 -42z"/>
<path d="M354 395 c0 -93 2 -133 3 -88 2 45 2 122 0 170 -1 48 -3 12 -3 -82z"/>
<path d="M701 534 c0 -11 3 -14 6 -6 3 7 2 16 -1 19 -3 4 -6 -2 -5 -13z"/>
<path d="M933 505 c0 -27 2 -38 4 -22 2 15 2 37 0 50 -2 12 -4 0 -4 -28z"/>
<path d="M921 424 c0 -11 3 -14 6 -6 3 7 2 16 -1 19 -3 4 -6 -2 -5 -13z"/>
<path d="M612 400 c0 -14 2 -19 5 -12 2 6 2 18 0 25 -3 6 -5 1 -5 -13z"/>
<path d="M244 255 c0 -60 1 -84 3 -52 2 32 2 81 0 110 -2 29 -3 3 -3 -58z"/>
<path d="M2064 220 c0 -52 1 -74 3 -47 2 26 2 68 0 95 -2 26 -3 4 -3 -48z"/>
<path d="M342 115 c0 -16 2 -22 5 -12 2 9 2 23 0 30 -3 6 -5 -1 -5 -18z"/>
<path d="M2211 54 c0 -11 3 -14 6 -6 3 7 2 16 -1 19 -3 4 -6 -2 -5 -13z"/>
</g>
</svg>
