<?xml version="1.0" standalone="no"?>
<!DOCTYPE svg PUBLIC "-//W3C//DTD SVG 20010904//EN"
 "http://www.w3.org/TR/2001/REC-SVG-20010904/DTD/svg10.dtd">
<svg version="1.0" xmlns="http://www.w3.org/2000/svg"
 width="800.000000pt" height="960.000000pt" viewBox="0 0 800.000000 960.000000"
 preserveAspectRatio="xMidYMid meet">

<g transform="translate(0.000000,960.000000) scale(0.100000,-0.100000)"
fill="#000000" stroke="none">
<path d="M1090 9540 c0 -57 -1 -60 -19 -50 -31 16 -32 12 -9 -25 11 -20 19
-37 17 -38 -2 -2 -16 -8 -31 -15 -27 -11 -28 -14 -25 -77 1 -50 5 -61 13 -50
25 33 31 15 44 -128 10 -98 9 -113 -5 -123 -9 -7 -21 -39 -27 -71 -10 -56 -12
-59 -28 -43 -14 14 -46 18 -181 23 -90 3 -196 11 -234 16 -116 16 -183 21
-158 11 13 -5 68 -14 124 -20 55 -5 106 -13 112 -17 6 -4 81 -9 165 -12 l154
-6 19 -35 c10 -19 26 -53 34 -74 8 -22 18 -37 21 -34 7 7 -16 88 -30 108 -10
13 -9 13 7 1 16 -13 20 -13 28 0 6 9 9 -6 9 -46 0 -33 -4 -65 -8 -71 -7 -10
-104 -36 -147 -39 -11 -1 -51 -7 -90 -13 -38 -6 -134 -13 -212 -14 l-142 -3
-12 45 c-7 25 -21 64 -31 88 -11 23 -16 47 -13 52 3 6 2 10 -3 10 -6 0 -17 18
-26 40 -20 50 -20 51 0 43 14 -5 15 -3 5 15 -26 49 -50 11 -32 -50 7 -22 10
-43 6 -46 -3 -4 -34 4 -68 16 -34 12 -77 22 -96 22 l-34 0 7 46 c3 25 3 57 0
71 -5 20 -12 24 -37 21 l-31 -3 -17 -115 c-9 -65 -13 -124 -8 -136 11 -31 36
-37 59 -14 15 15 38 20 107 24 73 5 90 9 102 26 23 35 37 22 66 -62 34 -96 36
-108 24 -108 -18 0 -9 -22 11 -27 11 -3 20 -9 20 -14 0 -5 5 -9 11 -9 6 0 9 7
5 15 -7 20 12 23 194 29 85 2 178 10 205 15 114 25 191 37 207 33 22 -5 27
-29 35 -164 l6 -116 -137 5 c-142 6 -234 -6 -257 -34 -9 -10 -1 -9 32 3 35 12
79 15 221 12 l177 -3 10 -40 c5 -22 15 -65 21 -95 7 -30 14 -62 16 -71 4 -13
-7 -17 -54 -22 -32 -4 -65 -9 -74 -12 -12 -5 -16 6 -21 57 -7 81 -13 95 -42
100 -33 7 -39 -27 -20 -103 9 -34 15 -63 13 -64 -7 -8 -113 -22 -125 -18 -7 3
-16 17 -19 32 -3 14 -12 55 -19 91 -8 36 -17 78 -20 94 -3 15 -8 26 -11 23 -9
-9 24 -185 42 -222 l16 -34 96 5 c53 3 102 10 108 15 6 4 42 11 81 15 l70 7
-13 53 c-6 29 -10 55 -7 58 6 6 -23 102 -42 136 -7 14 -19 77 -25 140 -7 63
-14 124 -16 135 -1 11 -3 26 -3 33 -1 6 -10 12 -21 12 -19 0 -20 8 -21 203 -2
248 -2 291 3 490 3 123 1 157 -9 157 -9 0 -13 -18 -13 -60z"/>
<path d="M1410 9415 c0 -113 -6 -228 -16 -297 -13 -92 -14 -172 -10 -428 3
-173 10 -337 15 -365 7 -35 8 -1 3 110 -11 250 -8 519 7 645 18 151 26 520 12
520 -8 0 -11 -60 -11 -185z"/>
<path d="M7860 9473 c-48 -115 -65 -155 -117 -272 -9 -19 -32 -72 -53 -118
-20 -46 -40 -80 -43 -76 -4 3 -7 -7 -7 -23 0 -17 -4 -34 -10 -40 -13 -13 -58
-133 -81 -219 -11 -38 -25 -75 -32 -81 -13 -13 -130 -44 -166 -44 -12 0 -20
-4 -17 -9 7 -11 -127 -25 -169 -18 -82 14 -135 58 -149 122 -7 31 -6 31 74 60
44 16 80 33 80 37 0 4 4 8 10 8 5 0 24 9 42 20 29 18 30 20 8 16 -14 -3 -36
-8 -50 -10 -29 -5 -91 -26 -249 -85 -70 -27 -133 -44 -163 -45 -47 -1 -49 -2
-58 -36 -11 -42 -18 -79 -19 -103 -1 -13 -7 -16 -25 -11 -13 3 -41 1 -62 -5
-22 -5 -52 -12 -69 -15 -16 -3 -46 -10 -65 -16 -74 -21 -76 -19 -69 67 4 43
10 97 14 120 6 36 5 44 -10 49 -16 6 -85 -11 -153 -37 -13 -5 -40 -9 -61 -9
-21 0 -60 -4 -87 -9 -27 -5 -91 -12 -141 -16 -142 -10 -251 -30 -343 -65 -47
-17 -92 -33 -100 -35 -30 -7 -116 -27 -148 -35 -29 -8 -33 -6 -37 18 -9 44
-37 124 -57 164 -25 51 -23 75 6 82 13 3 28 17 34 33 20 55 51 260 33 217 -5
-11 -12 -47 -17 -80 -4 -32 -13 -73 -21 -91 -7 -18 -10 -33 -7 -33 4 0 1 -7
-6 -15 -7 -8 -16 -13 -20 -10 -3 2 -16 -3 -28 -11 -23 -16 -29 -43 -13 -59 18
-20 61 -163 61 -203 0 -59 27 -75 126 -73 86 2 222 34 259 61 20 15 141 39
193 39 30 0 86 4 125 10 40 5 103 13 140 16 68 7 116 33 102 55 -6 9 1 12 38
14 6 0 29 6 51 13 35 12 37 11 31 -5 -4 -9 -11 -51 -14 -92 -3 -41 -10 -81
-15 -88 -5 -8 -1 -21 10 -33 21 -23 80 -25 147 -5 26 8 47 13 47 11 0 -2 24 3
53 11 67 18 87 18 87 -1 0 -24 29 -17 34 8 3 12 10 56 16 97 6 41 12 75 13 76
1 1 31 -2 66 -6 36 -5 75 -4 88 1 21 8 22 7 14 -10 -9 -17 -59 -153 -64 -176
-3 -12 -26 -73 -38 -100 -14 -31 -61 -159 -63 -170 -1 -5 -6 -23 -12 -40 -20
-53 -35 -128 -38 -184 -3 -50 -3 -53 10 -30 11 20 13 21 14 6 0 -19 61 -205
100 -307 12 -30 22 -60 24 -66 1 -7 18 -45 37 -85 81 -170 81 -168 13 -199
-50 -23 -64 -40 -34 -40 27 0 70 22 94 49 19 20 18 22 -8 80 -14 32 -26 64
-26 71 0 6 -6 26 -14 43 -8 18 -21 52 -29 77 -8 25 -29 83 -47 130 -17 47 -33
92 -35 100 -4 17 -33 93 -59 155 -16 39 -16 44 5 105 11 36 25 79 29 95 5 17
23 68 40 115 17 47 33 92 36 100 2 8 24 75 49 149 25 73 45 139 45 147 0 17
28 44 46 44 8 0 14 -10 14 -26 0 -38 39 -101 74 -122 63 -37 120 -46 204 -32
42 7 89 19 103 26 14 7 39 12 55 12 17 -1 40 4 52 11 13 7 22 8 22 2 0 -6 18
9 39 32 39 41 47 74 10 41 -10 -9 -19 -15 -19 -11 0 5 21 56 55 132 7 16 23
56 36 88 20 50 25 56 43 50 64 -24 188 5 216 50 11 19 11 20 -1 11 -24 -19
-128 -54 -160 -54 -17 0 -39 4 -49 10 -18 9 -18 11 0 47 41 87 191 453 205
503 8 28 30 85 38 98 5 6 4 12 -1 12 -5 0 -33 -57 -62 -127z"/>
<path d="M5220 9518 c-7 -30 -11 -86 -9 -132 6 -127 1 -191 -16 -233 -9 -21
-18 -69 -21 -107 -4 -70 -15 -96 -40 -96 -15 0 -37 -39 -48 -84 -8 -32 1 -89
13 -82 4 3 6 -43 4 -102 -1 -59 -3 -121 -4 -139 0 -28 -4 -32 -32 -36 -18 -3
2 -4 43 -3 41 2 81 5 89 7 8 2 16 -3 18 -11 2 -9 -15 -26 -47 -43 -46 -26 -51
-27 -77 -13 -49 25 -67 53 -65 99 2 52 -13 99 -38 122 -18 16 -27 17 -67 8
l-46 -11 8 202 c10 245 12 377 5 436 l-5 45 38 3 c36 3 37 2 37 -30 0 -18 -7
-98 -15 -178 -16 -161 -18 -253 -8 -325 l6 -49 14 45 c9 28 18 135 25 289 6
135 15 248 21 251 14 10 20 130 8 162 -18 47 -31 31 -31 -42 0 -84 1 -83 -138
-81 -53 1 -119 -4 -147 -10 -27 -6 -117 -12 -200 -13 -121 -1 -155 1 -175 14
-56 35 -213 31 -411 -10 -53 -11 -123 -22 -155 -24 -33 -3 -98 -8 -146 -12
-64 -6 -91 -5 -102 4 -14 12 -138 17 -196 8 -34 -6 -95 -32 -130 -57 -21 -15
-31 -17 -36 -8 -5 8 -10 5 -15 -9 -8 -23 -84 -53 -133 -53 -17 0 -47 -4 -66
-9 -19 -5 -81 -17 -136 -26 -97 -17 -102 -17 -125 0 -24 18 -24 21 -21 159 3
145 -5 184 -38 194 -13 4 -13 3 -2 -11 12 -14 15 -63 12 -270 0 -37 -1 -38
-29 -32 -27 6 -68 -1 -112 -20 -15 -5 -18 8 -24 117 -4 68 -13 150 -20 183
-10 53 -11 35 -7 -145 2 -113 7 -208 11 -212 3 -4 30 4 58 19 63 30 99 26 114
-15 5 -15 14 -36 19 -47 8 -18 9 -18 7 5 -1 17 3 25 15 25 9 0 20 4 24 8 4 4
30 7 58 8 28 0 69 3 91 8 30 5 51 2 83 -12 28 -12 79 -20 148 -24 57 -3 107
-10 110 -15 3 -4 12 -8 21 -8 16 0 16 19 1 123 -3 19 63 62 113 73 22 5 183
15 234 15 207 -1 332 1 382 7 70 9 73 6 73 -55 0 -32 -2 -35 -22 -27 -36 13
-204 10 -303 -5 -153 -23 -313 -51 -329 -57 -12 -5 -16 0 -16 22 0 49 -11 74
-31 74 -16 0 -19 -8 -19 -59 0 -33 -4 -63 -10 -66 -5 -3 -10 -14 -10 -23 0
-13 2 -14 9 -4 6 10 10 9 14 -7 7 -28 26 -27 36 2 8 21 17 23 172 34 419 30
430 32 470 53 22 11 42 20 44 20 3 0 5 -27 5 -60 0 -55 10 -75 25 -50 4 6 15
6 30 0 28 -11 64 0 85 25 11 14 11 16 -1 13 -9 -2 -13 4 -11 17 2 11 6 22 8
24 2 2 131 6 286 8 156 2 301 9 322 15 22 5 55 21 73 35 l34 26 -6 -39 c-11
-79 -27 -293 -32 -436 l-5 -146 -36 -7 c-75 -14 -93 -39 -118 -162 -8 -43 -17
-85 -19 -93 -2 -8 -4 -18 -4 -22 -1 -4 -19 -27 -40 -52 -46 -53 -56 -78 -42
-105 14 -26 14 -31 -3 -31 -19 0 -23 15 -32 101 -3 41 -10 81 -15 89 -8 14 -7
0 6 -140 4 -45 2 -50 -16 -50 -11 0 -28 -4 -37 -9 -15 -8 -17 -3 -17 33 -1 22
-4 53 -8 68 l-7 27 -103 -3 c-56 -2 -156 -7 -222 -12 -101 -7 -112 -9 -70 -14
28 -4 86 -3 130 1 44 4 119 8 168 8 l87 1 0 -84 0 -84 -64 -66 -63 -66 -60 0
c-33 0 -80 -7 -103 -15 -47 -17 -96 -20 -104 -6 -3 4 17 19 44 32 58 28 64 44
15 36 -26 -4 -35 -2 -35 8 0 19 -77 42 -98 29 -44 -28 -40 -72 9 -85 13 -4 18
-7 10 -8 -7 -1 -40 -14 -72 -31 l-58 -29 -38 18 c-92 45 -115 51 -188 51 l-74
0 -41 49 c-91 107 -143 106 -377 -10 -248 -122 -270 -169 -120 -263 41 -27 57
-43 57 -59 0 -12 -25 -54 -55 -92 -78 -99 -89 -122 -76 -151 6 -13 19 -24 28
-23 11 0 13 3 6 6 -19 7 -16 44 7 78 l20 30 0 -30 c0 -16 -7 -70 -16 -119 -8
-48 -13 -90 -11 -93 6 -5 26 108 36 198 6 56 12 73 40 104 66 75 64 120 -7
161 -140 80 -126 118 83 222 66 33 123 61 128 61 4 0 20 7 37 16 16 8 53 15
82 15 53 0 55 -1 117 -64 l64 -65 69 4 c46 2 78 -1 96 -11 15 -8 33 -14 40
-14 8 0 25 -9 39 -20 34 -26 58 -25 116 5 43 23 54 25 121 19 49 -4 86 -2 112
6 21 7 62 12 92 11 78 -2 135 38 211 151 29 43 36 48 81 54 61 8 75 22 59 57
-11 23 -7 32 35 87 25 34 48 72 50 84 35 172 51 222 74 232 31 12 174 15 188
3 11 -9 14 -8 14 5 0 9 -4 16 -10 16 -5 0 -10 5 -10 10 0 6 15 10 34 10 48 0
66 -28 66 -103 0 -71 23 -110 75 -127 38 -13 66 -7 107 21 34 25 35 24 30 -11
-5 -36 9 -56 46 -63 15 -3 50 -25 77 -49 26 -24 65 -48 84 -54 37 -10 38 -13
25 -66 -6 -28 -1 -33 60 -53 17 -5 15 -10 -19 -45 -21 -22 -40 -49 -42 -61 -4
-25 21 -57 55 -70 21 -8 23 -15 20 -52 l-3 -42 35 1 35 1 -37 -37 c-52 -52
-51 -84 3 -130 l40 -35 -12 -70 c-7 -39 -22 -86 -34 -105 -38 -63 -67 -199
-48 -225 5 -6 40 -32 80 -58 82 -53 88 -60 68 -77 -8 -7 -15 -19 -15 -26 0 -8
-6 -14 -13 -14 -24 0 -52 -42 -114 -170 -34 -69 -71 -136 -84 -151 -13 -14
-31 -38 -39 -53 -8 -16 -39 -50 -69 -78 -43 -39 -59 -48 -78 -44 -16 5 -23 2
-23 -9 0 -8 -7 -15 -17 -15 -9 0 -41 -8 -71 -17 -43 -14 -60 -26 -83 -59 -16
-24 -38 -46 -49 -49 -56 -18 -155 17 -193 66 -10 15 -24 53 -30 85 -11 55 -15
61 -62 91 -80 51 -98 75 -110 146 -5 34 -28 58 -41 44 -10 -9 29 -121 54 -154
12 -17 38 -38 56 -47 46 -21 62 -43 76 -103 6 -29 20 -64 31 -77 29 -37 104
-76 157 -83 60 -7 99 11 133 62 18 26 37 39 73 50 77 23 79 23 71 -36 -4 -27
-4 -92 1 -142 l8 -92 12 70 c7 39 13 104 13 145 1 74 1 75 32 89 17 8 47 28
67 45 l35 30 -8 -99 c-20 -281 -32 -372 -51 -393 -11 -11 -25 -28 -32 -36 -7
-9 -23 -16 -35 -16 -45 0 -83 -35 -105 -96 -44 -125 -38 -213 21 -301 l32 -48
-37 -69 c-56 -102 -49 -147 26 -175 27 -11 28 -13 20 -59 -5 -26 -9 -75 -9
-110 l0 -63 52 -47 c91 -83 117 -109 146 -146 16 -20 36 -36 44 -36 8 0 44 14
79 32 61 30 65 31 77 13 8 -10 29 -23 47 -29 18 -6 47 -28 64 -49 31 -38 31
-41 31 -151 0 -108 1 -114 29 -154 22 -32 30 -59 36 -114 4 -40 11 -81 15 -91
7 -16 -4 -48 -57 -167 -31 -69 -29 -114 8 -151 75 -74 197 -55 304 48 19 18
41 33 48 33 8 0 27 -14 41 -31 26 -29 32 -31 107 -33 95 -3 104 -6 133 -33
l22 -21 -48 -45 c-26 -26 -61 -49 -78 -53 -16 -3 -50 -17 -75 -29 -110 -56
-183 -133 -195 -206 -7 -43 -38 -74 -150 -150 l-59 -40 -22 50 c-31 69 -51 72
-152 27 -97 -44 -117 -45 -136 -7 -9 16 -13 31 -10 33 2 3 -2 11 -11 18 -18
15 -20 41 -3 37 19 -3 56 81 64 145 5 44 11 58 23 59 12 0 11 2 -4 9 -30 12
-80 69 -69 78 92 78 104 84 135 72 38 -16 79 -65 79 -95 0 -13 -10 -31 -22
-39 -18 -13 -19 -16 -6 -16 35 0 51 77 23 113 -22 31 -77 67 -99 67 -12 -1
-49 -23 -83 -50 -70 -56 -73 -77 -17 -113 21 -14 34 -30 34 -44 0 -27 -10 -54
-19 -49 -3 2 -6 -11 -7 -30 -1 -38 -32 -87 -58 -92 -10 -2 -33 4 -53 13 -59
28 -146 13 -236 -43 -89 -54 -129 -73 -150 -70 -14 2 -36 24 -60 61 -44 65
-40 65 -142 17 -33 -16 -64 -25 -68 -21 -4 4 -13 36 -19 72 -16 92 -35 109
-119 109 -38 0 -91 -5 -119 -11 -48 -10 -110 -50 -110 -70 0 -6 -26 -44 -57
-86 -97 -128 -118 -164 -117 -208 0 -45 36 -181 52 -197 6 -6 42 -12 81 -14
51 -2 84 -9 121 -28 29 -14 62 -26 74 -26 26 0 84 58 111 112 11 21 22 38 25
38 11 0 30 -41 24 -52 -4 -7 -3 -8 4 -4 31 19 -6 104 -39 91 -9 -3 -25 -25
-35 -48 -23 -51 -71 -107 -91 -107 -8 0 -38 11 -66 25 -31 16 -77 29 -121 33
l-70 7 -13 50 c-8 28 -18 66 -24 86 -14 46 0 79 82 188 35 46 69 93 76 105 37
66 90 85 219 78 60 -3 63 -5 73 -34 6 -17 11 -44 11 -60 0 -16 5 -39 11 -50
10 -19 9 -20 -24 -16 -20 2 -33 0 -31 -4 3 -4 18 -8 33 -8 16 0 34 -7 41 -15
7 -8 21 -15 31 -15 15 0 19 -7 19 -34 0 -43 9 -66 24 -66 9 0 12 18 11 57 -1
32 -3 61 -4 66 0 4 -16 7 -33 8 -33 0 -33 1 -8 11 116 48 131 50 147 16 7 -14
26 -40 42 -57 44 -47 83 -43 188 19 122 72 170 87 223 71 52 -15 88 -50 97
-91 3 -17 17 -40 32 -51 32 -26 60 -21 159 28 l75 37 18 -23 c11 -13 19 -34
19 -46 0 -33 27 -57 54 -49 39 12 218 138 226 159 4 11 13 38 20 60 22 73 136
169 230 196 25 7 63 29 85 49 22 20 64 54 93 75 64 45 66 70 6 70 -22 0 -51 8
-65 17 -50 32 -102 48 -159 48 -50 0 -58 3 -68 24 -22 49 -99 46 -148 -5 -57
-61 -109 -89 -161 -89 -89 0 -115 46 -74 127 55 108 63 136 56 182 -3 25 -10
73 -14 106 -5 43 -18 77 -44 119 -39 64 -45 103 -28 180 6 24 6 48 0 64 -17
44 -70 102 -108 118 -20 8 -45 27 -57 41 -16 21 -26 25 -47 20 -14 -4 -32 -13
-39 -21 -18 -18 -73 -46 -91 -46 -7 0 -20 15 -29 33 -9 18 -32 46 -52 63 -122
98 -136 114 -136 162 0 24 5 62 11 82 17 57 6 83 -43 106 -36 16 -43 24 -43
49 -1 43 58 151 86 158 24 6 85 93 100 142 22 71 59 128 125 195 37 38 64 74
64 86 0 31 29 111 46 125 12 10 14 1 14 -60 0 -105 17 -86 25 29 l7 100 40 32
c32 25 42 28 49 17 5 -8 9 -18 9 -22 0 -5 4 -6 9 -3 4 3 6 16 4 30 -11 56 72
57 165 2 34 -20 76 -42 92 -48 27 -9 30 -14 30 -51 0 -30 10 -58 37 -101 20
-32 39 -73 42 -89 7 -32 11 -35 86 -63 68 -24 109 -23 140 6 26 24 37 62 12
42 -10 -9 -12 -3 -12 23 1 19 -2 32 -5 30 -6 -4 -42 73 -45 95 -4 29 -95 142
-128 158 -12 6 -55 23 -94 38 -71 27 -83 36 -63 49 6 3 10 19 10 35 0 22 -11
38 -46 67 -25 21 -57 58 -72 83 -14 25 -31 52 -38 60 -7 8 -24 37 -38 64 -20
38 -23 52 -15 68 15 28 70 48 132 48 92 0 143 41 119 95 -7 14 -12 30 -12 34
0 5 30 24 68 44 37 19 105 60 152 90 60 40 88 53 96 46 17 -14 29 8 25 46 -1
17 5 87 13 155 12 103 20 238 17 298 -2 29 -19 8 -24 -30 -4 -24 -16 -104 -27
-178 -11 -74 -21 -165 -22 -201 -1 -65 -2 -67 -37 -85 -20 -10 -45 -25 -55
-34 -18 -15 -19 -12 -12 110 18 346 18 395 5 412 -12 16 -14 11 -16 -40 -2
-31 -10 -135 -19 -230 -12 -132 -13 -185 -5 -224 13 -59 15 -57 -98 -114 -40
-21 -75 -44 -78 -52 -3 -7 -1 -29 4 -47 16 -50 -9 -68 -95 -72 -97 -5 -138
-20 -156 -56 -13 -27 -13 -35 0 -66 8 -19 18 -39 23 -45 5 -6 18 -28 30 -48
18 -34 20 -48 14 -133 -4 -63 -3 -95 4 -95 6 0 11 6 10 13 0 6 1 43 1 80 l2
69 25 -30 c17 -21 25 -43 26 -73 l2 -44 6 37 6 38 30 -24 29 -23 -19 -42 c-11
-25 -15 -45 -9 -50 12 -11 96 -31 128 -31 14 0 26 -4 26 -10 0 -5 7 -7 16 -3
25 9 108 -87 134 -154 12 -32 28 -73 36 -91 8 -18 14 -44 14 -57 0 -14 6 -25
13 -26 6 0 -3 -5 -20 -10 -25 -7 -40 -6 -65 7 -18 10 -46 20 -62 23 -24 5 -31
14 -42 50 -7 23 -19 50 -27 59 -26 30 -41 66 -47 112 -5 44 -6 45 -80 83 -41
21 -82 44 -90 52 -22 19 -90 29 -122 16 l-26 -10 5 257 c3 154 1 267 -5 282
-7 18 -12 -59 -17 -260 l-7 -286 -38 -31 -37 -32 5 333 c3 224 1 339 -6 352
-9 16 -11 14 -16 -16 -3 -19 -7 -152 -11 -295 -8 -390 -10 -408 -43 -458 -15
-23 -38 -73 -50 -112 -19 -59 -29 -74 -62 -97 -50 -35 -105 -109 -127 -173 -9
-27 -18 -52 -18 -55 -3 -17 -37 -68 -58 -88 l-24 -23 -31 46 c-36 55 -47 112
-38 196 13 113 52 169 119 169 30 0 44 11 56 40 l10 25 0 -23 c1 -13 6 -33 12
-44 9 -17 13 -18 20 -7 5 8 9 24 9 37 0 29 11 28 44 -7 17 -18 25 -34 21 -41
-5 -8 -3 -11 6 -8 23 8 16 25 -25 68 l-39 41 11 132 c6 73 14 193 18 267 5
117 9 140 29 170 54 84 101 169 131 237 36 83 59 113 86 113 46 0 86 78 56
109 -10 9 -13 64 -12 214 2 201 2 201 -6 62 -4 -77 -8 -164 -9 -194 l-1 -53
-22 16 c-13 9 -36 23 -53 31 -75 36 -82 69 -41 195 30 93 50 202 42 227 -3 10
-22 28 -41 41 -47 30 -46 60 4 105 22 20 51 43 65 52 14 10 26 24 26 31 0 18
-3 17 -48 -2 -69 -29 -78 -28 -74 10 3 27 -1 37 -25 54 -66 51 -66 48 -11 108
47 51 45 75 -8 84 -24 5 -28 10 -25 30 9 62 8 64 -42 81 -28 9 -61 30 -81 52
-18 20 -46 41 -62 47 -20 8 -25 13 -15 19 10 6 9 10 -4 14 -12 5 -14 11 -5 26
15 29 12 41 -9 41 -11 0 -21 9 -24 21 -5 19 -12 21 -64 17 -46 -2 -58 0 -59
12 -1 11 0 12 4 1 12 -39 17 23 12 177 -3 94 -1 168 4 165 4 -3 5 4 2 15 -5
15 -2 22 14 27 11 4 28 17 36 30 22 34 39 206 36 366 -1 75 1 146 6 159 7 20
13 8 40 -75 18 -53 32 -104 32 -113 0 -19 27 -115 48 -167 16 -41 50 -96 39
-63 -7 20 37 38 94 38 21 0 60 4 86 9 107 20 189 35 203 36 17 2 114 22 180
37 25 6 59 12 75 14 17 2 36 6 43 9 7 3 43 10 79 15 37 6 71 14 77 18 6 3 16
7 21 8 6 1 66 14 135 29 129 29 181 33 287 23 36 -4 65 -2 69 3 3 6 24 9 47 9
77 -3 151 12 171 33 19 20 19 20 -20 12 -38 -7 -56 -9 -159 -24 -31 -4 -76 -1
-120 8 -65 13 -78 13 -150 -4 -44 -10 -111 -28 -150 -41 -38 -12 -115 -27
-170 -34 -55 -6 -127 -17 -160 -25 -33 -8 -89 -19 -125 -25 -36 -7 -90 -18
-120 -25 -30 -7 -80 -18 -110 -25 -87 -18 -191 -42 -242 -56 -27 -7 -48 -11
-48 -8 0 7 -60 237 -72 274 -19 60 -61 150 -70 150 -5 0 -4 9 2 19 5 11 6 22
2 25 -5 3 -14 -18 -22 -46z m-876 -183 c14 -6 17 -5 12 3 -9 16 0 15 76 -4 49
-13 89 -15 178 -11 63 4 127 9 143 13 26 6 27 5 27 -30 l0 -36 -129 0 c-70 0
-186 -5 -257 -11 -71 -6 -142 -12 -159 -13 -16 -1 -47 -6 -67 -10 l-38 -8 6
44 c5 32 2 47 -9 56 -13 11 -17 8 -26 -20 -13 -38 -17 -140 -7 -157 5 -7 -4
-11 -27 -11 l-34 0 -6 63 c-5 56 -8 71 -19 116 -2 8 8 17 22 22 32 9 289 4
314 -6z m507 -20 c-3 -28 -15 -44 -33 -45 -5 0 -8 18 -8 41 0 36 2 40 23 37
18 -2 21 -8 18 -33z m-1707 -156 c-2 -4 -19 -3 -37 2 -17 5 -54 9 -81 9 -61 0
-51 17 14 24 25 2 56 9 70 14 22 8 26 6 32 -16 4 -14 5 -29 2 -33z m2126 -683
c0 -3 -4 -8 -10 -11 -5 -3 -10 -1 -10 4 0 6 5 11 10 11 6 0 10 -2 10 -4z"/>
<path d="M6989 9478 c-1 -37 -2 -39 -9 -18 -12 37 -11 -72 1 -135 5 -27 10
-56 11 -63 3 -30 21 10 24 55 2 41 2 44 -6 18 -6 -19 -7 8 -3 78 4 75 2 107
-6 107 -6 0 -11 -18 -12 -42z"/>
<path d="M7023 9445 c0 -44 2 -61 4 -37 2 23 2 59 0 80 -2 20 -4 1 -4 -43z"/>
<path d="M6970 9229 c-8 -5 -40 -9 -70 -9 -80 0 -212 -28 -231 -48 -21 -21
-70 -110 -74 -134 -2 -11 2 -18 11 -18 8 0 14 5 14 10 0 6 15 11 33 11 29 2
29 2 5 6 l-27 4 20 45 c10 25 19 52 19 59 0 22 59 36 170 42 100 5 176 22 154
35 -5 4 -16 3 -24 -3z"/>
<path d="M2526 8848 c4 -173 10 -278 19 -308 17 -56 29 -370 15 -370 -5 0 -10
-6 -10 -14 0 -22 -35 -25 -138 -14 -85 10 -101 15 -131 41 -31 27 -39 29 -87
24 -49 -5 -96 -17 -149 -38 -62 -24 -88 -29 -101 -18 -16 13 -64 9 -84 -7 -8
-7 -39 -15 -69 -19 -30 -4 -84 -23 -120 -41 -36 -19 -72 -34 -80 -34 -8 0 -38
-14 -68 -30 l-53 -30 0 59 c0 77 -15 87 -16 12 -1 -32 -7 -81 -14 -110 -11
-46 -10 -55 4 -69 12 -13 19 -13 28 -4 9 9 9 12 0 12 -19 0 -14 55 6 73 10 10
45 22 78 28 32 6 66 17 75 25 8 8 18 14 22 14 3 0 29 14 57 32 57 35 70 30 70
-25 0 -32 26 -98 42 -108 6 -4 -15 -10 -48 -13 -32 -4 -92 -16 -132 -28 l-74
-20 -46 43 -47 44 45 -47 c24 -27 39 -49 32 -49 -15 -2 -23 -4 -42 -12 -21 -9
-125 -42 -189 -61 l-54 -16 21 23 c26 27 29 69 6 88 -21 17 -142 13 -202 -8
-61 -20 -72 -22 -191 -33 -57 -5 -109 -15 -117 -21 -18 -15 -18 -48 1 -93 l16
-37 -48 7 c-109 16 -172 55 -259 163 -26 33 -65 70 -86 83 -21 13 -41 34 -45
48 -10 40 -34 93 -39 88 -2 -3 3 -21 11 -41 19 -47 19 -57 -2 -57 -13 -1 -11
-4 7 -13 50 -24 31 -117 -23 -117 -10 0 -32 14 -47 30 -25 27 -31 29 -55 20
-20 -7 -31 -7 -41 1 -16 13 -90 5 -110 -12 -8 -6 -14 -19 -14 -28 0 -9 -7 -25
-15 -35 -20 -26 -20 -112 0 -119 19 -8 28 8 35 58 4 31 10 40 25 42 29 3 94
28 107 41 18 18 37 15 68 -12 20 -16 36 -22 55 -18 35 6 67 57 63 98 -4 30 -3
31 18 17 12 -8 54 -50 94 -94 67 -73 100 -134 114 -204 4 -20 39 -158 56 -226
13 -48 13 -184 0 -231 -15 -53 -57 -60 -143 -24 -34 15 -71 28 -82 31 -39 8
-225 83 -242 97 -7 6 -13 8 -13 4 0 -3 -22 8 -50 25 -27 17 -56 28 -62 26 -8
-3 -6 -6 5 -6 16 -1 17 -12 12 -136 -4 -126 -6 -137 -28 -158 -38 -35 -25
-137 17 -137 6 0 26 16 45 35 19 20 36 33 39 30 3 -3 0 -11 -6 -17 -7 -7 -12
-16 -12 -22 0 -5 6 -2 13 8 13 18 16 18 93 -2 43 -11 100 -23 126 -26 42 -6
48 -5 59 16 7 13 14 30 15 38 1 8 9 51 18 95 9 44 16 81 16 83 0 8 21 -1 35
-15 13 -12 34 -16 82 -15 36 0 69 4 74 9 5 5 11 41 15 81 7 76 10 82 17 42 11
-58 51 -186 64 -201 17 -20 17 -61 -2 -151 -8 -40 -21 -118 -30 -173 -19 -127
-28 -157 -46 -166 -68 -34 -501 -65 -581 -42 -21 6 -40 8 -43 3 -3 -5 3 -11
12 -14 126 -36 381 -35 590 4 34 6 40 5 36 -7 -12 -30 20 -32 53 -3 28 24 43
29 122 35 50 4 98 4 109 1 10 -3 33 -8 52 -11 19 -3 38 -8 42 -10 3 -3 11 1
17 8 29 35 -44 58 -177 56 -56 -1 -104 1 -107 4 -3 3 -1 14 4 24 9 17 19 76
43 253 11 81 28 139 29 98 0 -10 5 -18 10 -18 19 0 10 37 -14 59 -20 19 -30
22 -53 15 l-28 -8 28 -4 c26 -3 28 -6 24 -35 -3 -18 -11 -75 -17 -127 -16
-135 -42 -249 -55 -243 -7 2 -18 -3 -25 -12 -21 -25 -28 -17 -20 23 38 174 67
406 53 424 -6 7 -13 24 -16 38 -3 14 -19 79 -37 145 -17 66 -33 127 -35 135
-2 8 -13 51 -25 95 -12 44 -23 85 -24 90 -11 45 -40 132 -48 143 -6 6 -8 12
-4 12 4 0 0 14 -9 30 -17 34 -14 36 18 15 33 -22 116 -45 160 -45 60 0 229 23
218 29 -18 11 23 28 49 20 23 -6 23 -7 3 -8 -12 -1 -24 -5 -27 -10 -4 -5 2 -7
11 -5 10 2 54 11 97 19 44 9 82 18 86 20 3 2 18 6 33 9 15 2 41 9 59 15 394
130 437 139 623 141 122 0 145 -2 180 -20 41 -21 80 -26 89 -11 3 4 -7 8 -22
8 -15 1 -52 10 -82 22 -37 14 -79 21 -130 21 l-75 1 31 27 c40 34 60 92 44
122 -12 22 -4 33 43 61 14 8 17 6 17 -11 0 -11 4 -20 10 -20 5 0 7 -12 4 -28
-7 -36 19 -60 69 -64 34 -2 42 3 77 42 25 28 38 52 36 64 -5 17 -4 17 17 -1
12 -11 29 -24 37 -29 23 -13 221 -31 257 -23 25 5 33 3 36 -10 4 -12 5 -11 6
4 1 11 8 29 16 39 12 16 14 53 10 205 -5 182 -5 185 12 139 20 -59 45 -75 31
-20 -5 20 -14 60 -20 87 -5 28 -13 61 -16 75 l-6 25 -4 -27 c-2 -16 -8 -28
-14 -28 -6 0 -7 8 -3 18 14 38 17 183 5 282 -7 58 -13 135 -14 172 -1 67 -7
77 -48 78 -4 0 -5 -118 -2 -262z m-666 -748 c-19 -13 -30 -13 -30 0 0 6 10 10
23 10 18 0 19 -2 7 -10z m44 -41 c-3 -5 -10 -7 -15 -3 -5 3 -7 10 -3 15 3 5
10 7 15 3 5 -3 7 -10 3 -15z m-1079 -348 c3 -5 2 -12 -3 -15 -5 -3 -9 1 -9 9
0 17 3 19 12 6z m-609 -486 c-4 -17 -3 -18 7 -4 13 17 33 15 57 -7 8 -7 19
-12 23 -12 4 0 20 -5 35 -11 l28 -12 -30 -119 c-32 -133 -29 -130 -112 -109
-49 13 -48 12 -34 40 7 13 7 19 0 19 -5 0 -10 -8 -10 -17 0 -14 -6 -11 -30 12
-29 30 -29 31 -20 100 18 142 19 159 9 144 -5 -7 -9 -27 -10 -44 -1 -27 -2
-26 -10 10 -4 22 -8 52 -8 67 l-1 27 55 -32 c44 -25 54 -36 51 -52z m-109 -27
c-3 -7 -5 -2 -5 12 0 14 2 19 5 13 2 -7 2 -19 0 -25z m359 -97 c-9 -75 -34
-155 -53 -170 -17 -13 -17 -13 0 -8 9 4 17 2 17 -3 0 -12 2 -12 -60 1 -27 6
-50 13 -50 16 0 3 9 37 21 76 11 38 22 79 25 91 2 12 6 33 9 47 l6 26 45 -15
45 -15 -5 -46z m-356 -48 c-9 -14 -10 -7 -6 31 3 27 7 58 8 70 1 12 3 -3 5
-31 2 -29 -1 -61 -7 -70z"/>
<path d="M201 7102 c-8 -39 -12 -74 -9 -77 7 -8 31 108 26 131 -2 10 -10 -14
-17 -54z"/>
<path d="M267 7093 c-10 -43 -20 -89 -23 -103 -4 -21 -4 -22 5 -8 6 9 16 38
21 65 5 26 14 65 19 86 5 20 6 37 2 37 -4 0 -15 -35 -24 -77z"/>
<path d="M7045 9026 c-31 -74 -57 -97 -128 -111 -22 -4 -28 -10 -25 -28 2 -18
9 -22 35 -20 84 7 149 79 161 178 7 67 -10 59 -43 -19z"/>
<path d="M6725 9060 c-34 -6 -29 -7 32 -9 39 0 74 2 76 7 6 9 -57 11 -108 2z"/>
<path d="M5626 9034 c-64 -23 -67 -28 -60 -108 4 -39 8 -72 9 -74 1 -2 35 4
74 13 72 17 86 30 56 55 -10 8 -15 31 -15 65 0 61 -9 68 -64 49z"/>
<path d="M6795 9005 c-151 -33 -179 -40 -201 -53 -17 -10 -15 -11 11 -7 97 13
187 28 240 40 33 8 72 17 88 20 15 3 27 10 27 15 0 15 -44 11 -165 -15z"/>
<path d="M4322 8872 c-36 -2 -60 -7 -57 -12 3 -6 3 -37 -1 -69 -5 -44 -11 -61
-23 -64 -9 -1 12 -6 46 -10 47 -6 69 -4 91 7 27 14 31 14 47 -4 19 -21 41 -28
30 -10 -8 13 11 13 37 -1 15 -8 19 -8 14 0 -4 6 -2 11 3 11 6 0 11 -5 11 -12
0 -8 3 -8 9 -2 5 5 11 45 13 90 l3 80 -30 1 c-21 0 -23 -1 -7 -4 18 -4 22 -11
22 -42 0 -60 -11 -99 -29 -103 -26 -6 -76 7 -73 20 3 16 -2 15 -50 -9 -25 -13
-49 -18 -64 -15 -21 6 -24 12 -24 56 0 28 5 50 10 50 6 0 10 -4 10 -10 0 -11
52 -13 87 -4 11 3 23 14 26 25 3 11 14 19 25 19 12 0 23 3 25 8 5 7 -47 9
-151 4z"/>
<path d="M6795 8874 c-42 -9 -141 -36 -170 -46 -69 -24 -176 -70 -172 -74 1
-2 34 6 72 17 39 11 95 27 125 35 30 9 62 17 70 19 76 18 147 39 155 46 9 9
-41 11 -80 3z"/>
<path d="M7650 8876 c0 -8 85 -46 115 -52 11 -2 31 -6 45 -9 14 -2 41 -1 60 4
32 8 31 8 -20 8 -47 1 -112 17 -182 48 -10 4 -18 4 -18 1z"/>
<path d="M3707 8843 c-11 -10 -8 -51 3 -58 6 -4 8 -9 6 -13 -5 -9 80 -15 105
-7 10 4 19 11 19 18 0 8 -3 8 -12 -1 -21 -21 -108 -13 -108 10 0 6 6 8 14 5 8
-3 30 3 50 14 33 18 36 18 45 1 7 -11 11 -12 11 -4 0 26 -28 42 -78 42 -27 0
-52 -3 -55 -7z"/>
<path d="M2953 8803 c9 -2 25 -2 35 0 9 3 1 5 -18 5 -19 0 -27 -2 -17 -5z"/>
<path d="M2910 8791 c0 -6 4 -13 10 -16 6 -3 7 1 4 9 -7 18 -14 21 -14 7z"/>
<path d="M3085 8790 c4 -6 2 -17 -4 -24 -14 -16 1 -102 17 -98 7 1 12 -3 12
-9 0 -6 12 -9 28 -7 18 2 26 8 23 18 -2 8 -7 36 -12 62 -10 61 -15 68 -45 68
-15 0 -23 -4 -19 -10z"/>
<path d="M3181 8793 c29 -4 32 -13 45 -145 4 -38 11 -68 17 -68 12 0 0 156
-15 184 -7 13 -6 21 3 27 9 6 -3 8 -31 7 -27 0 -34 -3 -19 -5z"/>
<path d="M2921 8750 c-1 -8 5 -47 13 -87 7 -40 11 -75 7 -79 -3 -4 -1 -4 5 -1
6 3 34 3 62 -2 43 -7 50 -6 41 5 -6 8 -30 14 -54 14 l-42 0 -6 58 c-6 56 -25
123 -26 92z"/>
<path d="M3044 8741 c4 -5 8 -31 11 -57 6 -55 16 -73 14 -23 -2 55 -10 89 -20
89 -6 0 -8 -4 -5 -9z"/>
<path d="M3547 8728 c5 -7 10 -53 11 -103 2 -49 5 -102 8 -116 5 -24 2 -27
-40 -32 -25 -4 -59 -4 -76 -1 -18 4 -36 1 -45 -6 -9 -8 -31 -10 -62 -6 -26 3
-64 2 -83 -3 -31 -8 -26 -9 40 -12 41 -1 84 -2 95 -1 11 1 111 2 222 2 163 1
204 4 213 15 10 12 8 16 -11 24 -14 4 -37 4 -54 0 -16 -5 -46 -9 -66 -9 l-37
0 -7 78 c-10 106 -12 128 -20 152 -5 15 -3 18 9 14 9 -3 16 -1 16 5 0 7 -23
11 -61 11 -47 0 -59 -3 -52 -12z m80 -58 c7 -30 12 -85 13 -121 0 -67 0 -67
-30 -71 l-30 -5 0 61 c0 34 -3 91 -6 127 -6 65 -6 66 17 65 21 -1 26 -9 36
-56z"/>
<path d="M3893 8615 c0 -22 2 -30 4 -17 2 12 2 30 0 40 -3 9 -5 -1 -4 -23z"/>
<path d="M4365 8619 c-16 -10 -37 -19 -46 -19 -9 0 -36 -13 -60 -30 -36 -24
-51 -28 -82 -23 -30 4 -45 0 -79 -22 -39 -26 -42 -27 -69 -11 -28 17 -80 21
-93 9 -4 -5 -11 -8 -14 -8 -16 -1 -73 -37 -68 -43 4 -3 19 4 35 16 24 18 30
19 35 7 3 -8 17 -15 30 -15 14 0 59 -18 101 -40 83 -44 106 -47 148 -25 20 10
35 12 53 5 14 -6 30 -8 35 -4 5 3 69 12 143 19 138 15 166 21 166 36 0 30
-166 39 -277 15 -58 -12 -63 -12 -63 4 0 11 14 21 40 29 46 14 110 72 110 101
0 24 -6 24 -45 -1z m25 -19 c-15 -29 -88 -72 -129 -77 -42 -6 -91 -29 -91 -43
0 -6 -5 -10 -11 -10 -5 0 -8 4 -5 8 3 5 -8 6 -24 4 -15 -2 -36 0 -46 6 -29 16
58 56 103 47 27 -5 40 -1 64 19 17 15 40 26 52 26 12 1 38 9 57 20 44 24 43
24 30 0z m-378 -96 c39 -20 138 -53 159 -54 10 0 16 7 15 16 -2 27 23 28 33 2
7 -18 4 -25 -13 -35 -37 -21 -80 -14 -159 27 -42 22 -84 40 -94 40 -15 0 -16
2 -3 10 20 13 26 13 62 -6z"/>
<path d="M3744 8545 c-7 -17 12 -45 30 -45 6 0 3 7 -6 14 -10 7 -18 18 -18 25
0 16 45 14 60 -4 13 -16 120 -17 120 -1 0 5 -24 6 -54 2 -41 -4 -57 -2 -66 9
-16 19 -59 19 -66 0z"/>
<path d="M5158 8543 c6 -2 18 -2 25 0 6 3 1 5 -13 5 -14 0 -19 -2 -12 -5z"/>
<path d="M5790 8514 c-25 -7 -59 -13 -77 -13 -17 -1 -42 -5 -56 -10 -13 -5
-41 -12 -62 -15 -45 -7 -113 -38 -97 -44 7 -2 12 -26 12 -61 0 -90 13 -97 163
-93 67 2 129 8 138 13 13 7 18 22 18 57 0 26 5 63 11 82 12 40 13 101 3 99 -5
-1 -28 -7 -53 -15z m16 -41 c-2 -10 -7 -38 -11 -63 -12 -80 -11 -80 -68 -80
-29 0 -79 -7 -112 -14 -33 -8 -60 -14 -61 -13 -1 1 -4 30 -6 65 l-4 62 37 0
c51 0 142 21 154 35 12 14 34 23 58 24 13 1 17 -4 13 -16z"/>
<path d="M3103 8510 c-16 -7 -23 -18 -23 -37 l0 -28 -108 -2 c-172 -2 -316
-14 -301 -24 8 -5 40 -9 71 -9 31 0 58 -3 60 -8 2 -4 50 -3 108 3 85 8 104 13
102 25 -3 12 -1 13 9 3 7 -7 21 -13 31 -13 13 0 18 -8 18 -29 0 -17 5 -33 10
-36 7 -4 9 3 5 22 l-6 28 16 -27 c19 -34 54 -37 80 -8 17 19 18 26 6 68 -11
43 -36 83 -50 81 -3 0 -16 -4 -28 -9z m55 -62 c16 -50 12 -75 -14 -85 -28 -10
-49 22 -46 74 2 44 15 66 36 60 5 -2 16 -24 24 -49z"/>
<path d="M7346 8498 c3 -5 47 -30 97 -55 l92 -47 101 1 c76 0 118 6 167 22 58
20 118 63 105 76 -3 3 -31 -4 -63 -16 -33 -12 -53 -24 -46 -28 22 -14 -38 -31
-134 -37 -103 -8 -154 5 -271 66 -30 15 -51 23 -48 18z"/>
<path d="M7117 8452 c-19 -20 -27 -39 -27 -65 0 -36 -1 -37 -39 -37 -22 0 -52
-5 -67 -10 -40 -15 -129 -83 -116 -88 7 -2 35 13 63 34 39 28 63 38 107 43
l57 6 7 49 c9 63 26 79 91 87 l52 6 -51 2 c-43 1 -54 -3 -77 -27z"/>
<path d="M3868 8440 c-15 -24 -75 -27 -104 -5 -33 25 -41 16 -9 -10 48 -40
125 -32 132 14 4 26 -3 27 -19 1z"/>
<path d="M7750 8440 c-9 -6 -10 -10 -3 -10 6 0 15 5 18 10 8 12 4 12 -15 0z"/>
<path d="M80 8415 c0 -15 13 -56 29 -90 29 -62 64 -95 99 -95 19 0 68 -61 90
-114 7 -16 15 -26 18 -23 13 13 -85 156 -104 149 -14 -4 -64 33 -55 42 3 3 2
6 -4 6 -9 0 -19 19 -51 99 -4 10 -1 12 9 6 8 -5 5 2 -6 16 -11 13 -21 26 -22
28 -2 2 -3 -8 -3 -24z"/>
<path d="M4420 8410 c-57 -12 -231 -33 -264 -32 -17 1 -98 -5 -181 -14 -82 -8
-183 -16 -222 -16 -85 -1 -79 13 -63 -153 11 -107 33 -200 52 -211 6 -4 8 -3
5 3 -8 13 -13 47 -22 166 -4 48 -11 90 -16 93 -5 3 -9 21 -9 39 0 41 2 41 135
49 325 21 409 27 485 40 47 7 101 20 120 29 38 17 33 19 -20 7z"/>
<path d="M140 8354 c24 -30 59 -59 64 -52 1 2 -18 21 -43 43 -40 35 -42 36
-21 9z"/>
<path d="M253 8353 c-98 -8 -54 -18 76 -18 71 0 124 3 117 7 -17 10 -130 16
-193 11z m90 -10 c-7 -2 -19 -2 -25 0 -7 3 -2 5 12 5 14 0 19 -2 13 -5z"/>
<path d="M2830 8345 c0 -5 5 -17 10 -25 5 -8 10 -10 10 -5 0 6 -5 17 -10 25
-5 8 -10 11 -10 5z"/>
<path d="M506 8303 c-22 -3 -49 -11 -59 -18 -15 -10 -26 -11 -41 -4 -20 10
-20 9 -2 -5 11 -9 17 -23 13 -35 -9 -34 25 -53 98 -56 74 -2 80 4 72 80 -4 44
-9 46 -81 38z"/>
<path d="M3753 8285 c-61 -26 -35 -42 57 -36 50 4 57 16 19 35 -38 19 -35 19
-76 1z"/>
<path d="M7045 8259 c-124 -56 -116 -50 -99 -67 9 -9 13 -23 10 -36 -4 -12 -9
-33 -12 -47 -5 -21 -15 -28 -56 -38 -27 -7 -47 -16 -43 -19 3 -3 -8 -11 -25
-18 -44 -19 -41 -56 8 -101 49 -45 76 -59 202 -102 95 -33 105 -38 102 -58 -3
-18 2 -23 17 -23 13 0 21 -7 22 -17 4 -64 0 -116 -10 -126 -6 -6 -11 -7 -11
-3 0 5 -18 -14 -40 -42 -38 -48 -49 -72 -32 -72 4 0 34 27 67 60 33 33 67 60
77 60 9 0 19 8 23 18 7 21 110 82 139 82 12 -1 32 -7 46 -15 14 -8 52 -14 88
-15 36 0 62 -4 62 -11 0 -19 70 -40 123 -37 44 3 52 6 55 24 2 12 22 33 48 49
62 39 84 70 84 116 0 21 5 41 10 44 12 8 13 58 1 70 -16 17 -41 122 -41 169 0
35 -5 49 -19 58 -15 9 -17 15 -9 25 6 7 15 13 20 13 6 0 23 9 39 21 28 20 39
49 18 49 -5 0 -8 -4 -5 -9 7 -10 -35 -27 -75 -30 -9 0 -29 -13 -44 -27 -21
-20 -34 -24 -54 -19 -92 24 -120 17 -135 -32 -6 -19 -3 -22 26 -25 25 -2 34
-8 36 -25 2 -15 10 -23 23 -23 10 0 33 -13 50 -28 25 -23 32 -38 36 -78 4 -41
0 -56 -23 -90 -23 -35 -40 -47 -108 -74 -146 -57 -146 -57 -146 -86 0 -20 -4
-25 -16 -20 -9 3 -40 9 -70 12 -44 6 -58 3 -74 -11 -11 -10 -20 -15 -20 -12 0
3 -16 -1 -35 -9 l-35 -14 0 28 c0 15 -4 32 -10 38 -17 17 0 49 38 69 54 29 49
50 -13 52 -45 2 -243 60 -287 84 -10 5 -23 9 -28 9 -23 0 -100 41 -100 53 0
14 39 35 120 67 43 16 48 20 23 17 -26 -3 -33 0 -33 14 0 10 5 21 10 24 6 3
10 24 10 46 0 38 1 39 38 40 29 0 33 2 17 9 -18 7 -17 9 10 19 17 6 42 18 57
26 32 18 39 19 36 3 -2 -6 13 -15 32 -18 19 -4 45 -10 58 -14 13 -4 22 -3 22
2 0 6 -23 16 -50 23 -32 8 -46 16 -38 21 35 21 -45 4 -107 -23z m645 -89 c13
-9 13 -10 0 -9 -8 0 -24 4 -35 9 l-20 9 20 0 c11 0 27 -4 35 -9z m167 -222
c-3 -7 -5 -2 -5 12 0 14 2 19 5 13 2 -7 2 -19 0 -25z m-17 -167 c0 -5 -7 -12
-16 -15 -14 -5 -15 -4 -4 9 14 17 20 19 20 6z"/>
<path d="M180 8276 c0 -2 8 -10 18 -17 15 -13 16 -12 3 4 -13 16 -21 21 -21
13z"/>
<path d="M1415 8242 c2 -18 14 -52 25 -75 24 -50 19 -24 -10 53 -15 39 -19 46
-15 22z"/>
<path d="M7262 8234 c-7 -7 -38 -21 -70 -30 -31 -9 -61 -20 -67 -25 -5 -5 13
-3 40 5 103 29 104 29 102 -1 -2 -23 -9 -28 -63 -43 -33 -10 -71 -23 -83 -30
-23 -12 -23 -11 -17 32 5 43 5 43 -5 8 -6 -19 -15 -39 -20 -44 -12 -13 -12
-53 1 -61 6 -3 10 3 10 13 0 22 17 31 75 38 22 3 47 12 56 20 8 8 20 14 26 14
21 0 43 38 43 73 0 41 -9 51 -28 31z"/>
<path d="M6518 8208 c-16 -16 -28 -35 -28 -42 0 -8 -7 -19 -16 -26 -25 -22
-67 -100 -73 -139 l-6 -36 -70 -7 c-91 -10 -202 -28 -240 -39 -16 -5 -43 -11
-60 -13 -32 -4 -228 -44 -259 -53 -12 -3 -15 -8 -7 -16 7 -7 46 -6 131 3 66 7
122 11 124 9 2 -2 6 -23 10 -47 3 -23 9 -50 14 -60 12 -22 15 -122 5 -121 -4
0 -23 31 -40 68 -39 80 -71 124 -85 115 -6 -4 -6 -9 -1 -13 5 -3 27 -37 48
-76 21 -38 47 -82 58 -97 20 -27 20 -29 3 -195 -17 -170 -21 -328 -10 -357 7
-18 30 -21 39 -6 4 6 1 9 -7 8 -20 -4 -21 54 -4 254 9 99 16 218 16 265 0 46
4 82 8 79 5 -3 -2 34 -14 82 -13 48 -23 92 -24 98 0 11 22 16 190 50 47 9 100
21 118 26 26 8 37 7 50 -5 26 -23 96 -31 128 -14 25 13 30 12 75 -22 42 -31
49 -41 49 -70 0 -19 7 -42 16 -52 10 -11 17 -40 19 -76 1 -32 12 -83 25 -113
16 -40 22 -78 24 -139 0 -54 5 -86 13 -88 8 -3 9 6 2 34 -14 60 -9 72 9 23 10
-29 17 -39 20 -27 5 23 22 12 22 -14 0 -14 -4 -18 -12 -13 -10 6 -10 5 -1 -7
6 -8 13 -27 16 -44 3 -21 4 -16 6 18 1 44 2 47 24 42 34 -9 53 16 36 47 -7 13
-14 28 -15 33 -2 6 -14 42 -29 80 -14 39 -25 70 -24 70 4 0 -69 218 -85 255
-16 39 -86 112 -86 90 0 -9 -5 -8 -20 5 -13 12 -17 23 -11 34 14 28 11 119 -5
132 -8 6 -14 18 -14 25 0 8 -11 19 -25 24 -16 6 -23 14 -19 25 8 20 13 19 42
-7 24 -22 24 -23 14 -2 -6 12 -19 24 -27 28 -13 4 -14 10 -5 26 15 28 0 23
-32 -12z"/>
<path d="M7058 8203 c7 -3 16 -2 19 1 4 3 -2 6 -13 5 -11 0 -14 -3 -6 -6z"/>
<path d="M2647 7993 c-4 -104 -7 -236 -7 -295 0 -76 -4 -108 -12 -111 -7 -3
-8 -6 -3 -6 6 -1 9 -79 7 -218 -2 -120 1 -265 5 -323 7 -81 9 -32 9 218 0 269
3 325 15 333 11 7 11 9 1 9 -12 0 -13 50 -7 290 4 160 6 290 3 290 -3 0 -8
-84 -11 -187z"/>
<path d="M2692 8160 c0 -14 2 -19 5 -12 2 6 2 18 0 25 -3 6 -5 1 -5 -13z"/>
<path d="M7375 8147 c14 -7 15 -11 4 -17 -7 -5 32 -6 87 -3 96 6 112 8 103 17
-9 9 -94 10 -128 2 -18 -5 -31 -4 -28 0 3 5 -9 10 -25 10 -25 1 -27 -1 -13 -9z"/>
<path d="M2901 8124 c0 -11 3 -14 6 -6 3 7 2 16 -1 19 -3 4 -6 -2 -5 -13z"/>
<path d="M2703 8075 c0 -27 2 -38 4 -22 2 15 2 37 0 50 -2 12 -4 0 -4 -28z"/>
<path d="M2540 8020 c0 -19 3 -21 12 -12 9 9 9 15 0 24 -9 9 -12 7 -12 -12z"/>
<path d="M2581 8004 c0 -11 3 -14 6 -6 3 7 2 16 -1 19 -3 4 -6 -2 -5 -13z"/>
<path d="M2712 7818 c-2 -187 -4 -207 -19 -211 -16 -4 -16 -5 1 -6 16 -1 18
-7 13 -63 -4 -35 -12 -187 -18 -339 -10 -210 -10 -285 -1 -310 10 -29 11 -30
6 -5 -3 16 2 182 11 370 9 188 15 438 13 556 l-3 215 -3 -207z"/>
<path d="M2553 7945 c0 -22 2 -30 4 -17 2 12 2 30 0 40 -3 9 -5 -1 -4 -23z"/>
<path d="M7605 7944 c-132 -57 -282 -134 -299 -153 -15 -17 -12 -16 26 3 51
25 106 48 168 71 108 41 220 94 220 106 0 16 -32 8 -115 -27z"/>
<path d="M2127 7940 c-22 -18 -21 -18 23 -10 25 5 104 6 175 3 l130 -6 -3
-111 c-2 -61 2 -167 8 -236 7 -69 14 -141 15 -161 1 -20 10 -51 18 -69 32 -63
-28 -129 -147 -162 -45 -12 -80 -27 -84 -36 -8 -23 31 -49 96 -63 34 -7 64
-20 74 -33 15 -18 18 -19 18 -4 0 11 5 15 15 12 9 -4 15 -19 15 -35 0 -33 16
-39 25 -10 10 33 35 13 36 -28 l0 -36 16 39 c16 39 16 39 -11 63 -20 17 -26
29 -22 46 l6 22 -11 -22 c-14 -27 -27 -29 -36 -7 -3 8 -12 13 -20 10 -16 -7
-143 25 -143 35 0 4 14 9 31 13 58 11 116 44 143 79 35 46 45 101 22 126 -14
16 -17 34 -14 95 2 42 0 76 -3 76 -7 0 -22 210 -22 300 0 58 10 90 29 90 8 0
14 7 14 15 0 10 -11 15 -32 16 -278 8 -339 6 -361 -11z"/>
<path d="M2592 7930 c0 -14 2 -19 5 -12 2 6 2 18 0 25 -3 6 -5 1 -5 -13z"/>
<path d="M200 7920 c-10 -6 -2 -7 25 -3 49 7 58 13 19 13 -16 0 -36 -5 -44
-10z"/>
<path d="M2563 7855 c0 -22 2 -30 4 -17 2 12 2 30 0 40 -3 9 -5 -1 -4 -23z"/>
<path d="M2876 7873 c-9 -30 -47 -578 -44 -630 2 -26 15 107 30 297 14 190 25
346 23 348 -2 2 -6 -5 -9 -15z"/>
<path d="M392 7850 c0 -14 2 -19 5 -12 2 6 2 18 0 25 -3 6 -5 1 -5 -13z"/>
<path d="M2603 7805 c0 -33 2 -45 4 -27 2 18 2 45 0 60 -2 15 -4 0 -4 -33z"/>
<path d="M1940 7821 c8 -6 13 -11 10 -12 -44 -7 -55 -11 -67 -20 -17 -15 -17
-34 1 -48 11 -10 26 -9 64 3 28 8 52 12 55 10 8 -9 29 26 24 40 -3 7 -18 16
-34 18 -15 3 -37 8 -48 13 -16 5 -17 5 -5 -4z"/>
<path d="M2573 7770 c0 -25 2 -35 4 -22 2 12 2 32 0 45 -2 12 -4 2 -4 -23z"/>
<path d="M5765 7800 c-13 -6 -2 -7 30 -3 28 3 52 7 54 9 9 8 -65 2 -84 -6z"/>
<path d="M5880 7635 c-2 -55 -5 -118 -7 -140 -1 -22 -5 -146 -8 -275 -6 -239
-2 -282 27 -251 8 9 8 11 1 7 -23 -12 -25 38 -13 278 6 132 10 295 8 361 l-4
120 -4 -100z"/>
<path d="M2583 7675 c0 -27 2 -38 4 -22 2 15 2 37 0 50 -2 12 -4 0 -4 -28z"/>
<path d="M5761 7680 c-1 -25 -5 -81 -10 -125 -20 -173 -22 -200 -12 -190 10
11 36 326 28 346 -3 8 -6 -6 -6 -31z"/>
<path d="M6511 7705 c-1 -5 -8 -53 -17 -105 -22 -135 -23 -235 -3 -255 14 -15
17 -15 30 1 12 15 12 16 0 9 -11 -6 -13 -3 -8 16 12 51 19 294 9 319 -6 14
-11 21 -11 15z"/>
<path d="M2976 7667 c3 -10 9 -15 12 -12 3 3 0 11 -7 18 -10 9 -11 8 -5 -6z"/>
<path d="M5711 7664 c0 -11 3 -14 6 -6 3 7 2 16 -1 19 -3 4 -6 -2 -5 -13z"/>
<path d="M717 7613 c9 -26 18 -43 20 -37 4 11 -24 84 -32 84 -2 0 3 -21 12
-47z"/>
<path d="M6638 7645 c-13 -37 -38 -199 -38 -247 0 -56 7 -78 27 -78 8 0 12 4
9 9 -3 5 -1 56 5 113 11 111 9 238 -3 203z"/>
<path d="M2591 7601 c-1 -13 -9 -30 -18 -37 -16 -12 -16 -13 -1 -8 12 4 17 -1
20 -23 3 -26 4 -26 9 8 2 19 2 46 -2 60 l-7 24 -1 -24z"/>
<path d="M740 7551 c0 -7 5 -21 11 -32 6 -11 12 -28 14 -37 3 -9 14 -44 25
-77 12 -33 23 -67 25 -75 3 -8 13 -42 24 -75 11 -33 34 -106 52 -163 17 -57
33 -101 35 -100 4 5 -31 146 -51 208 -8 25 -22 68 -30 95 -9 28 -32 95 -52
150 -35 97 -53 133 -53 106z"/>
<path d="M5824 7475 c0 -49 1 -71 3 -48 2 23 2 64 0 90 -2 26 -3 8 -3 -42z"/>
<path d="M7166 7529 c8 -14 6 -273 -3 -296 -4 -10 -2 -14 4 -10 13 8 29 264
18 296 -3 11 -11 21 -16 21 -6 0 -7 -5 -3 -11z"/>
<path d="M2602 7415 c1 -89 1 -90 8 -25 3 36 3 76 -1 90 -4 14 -7 -13 -7 -65z"/>
<path d="M7092 7305 c0 -182 6 -232 26 -228 6 2 23 -8 36 -22 25 -25 66 -34
66 -15 0 5 -6 7 -14 4 -9 -3 -17 6 -24 25 -12 35 -3 46 73 85 42 21 52 23 65
12 8 -8 24 -16 35 -20 11 -3 30 -21 42 -40 l21 -33 -31 -27 c-51 -42 -73 -43
-113 -5 -18 18 -36 31 -38 28 -7 -7 6 -23 37 -42 15 -10 27 -26 27 -37 0 -11
7 -20 15 -20 16 0 118 71 130 90 10 17 -109 127 -137 126 -29 -2 -91 -31 -108
-51 -20 -24 -29 -18 -33 28 -2 23 -3 12 -2 -24 2 -64 1 -65 -20 -55 -26 12
-34 65 -36 220 0 50 -4 111 -8 136 -6 30 -9 -13 -9 -135z"/>
<path d="M2237 7430 c-15 -16 -35 -31 -45 -31 -29 -2 60 -18 104 -18 27 -1 46
5 57 17 23 25 21 32 -7 32 -13 0 -26 7 -30 15 -9 25 -51 17 -79 -15z"/>
<path d="M2428 7393 c6 -2 18 -2 25 0 6 3 1 5 -13 5 -14 0 -19 -2 -12 -5z"/>
<path d="M3547 7382 c-5 -8 298 -10 306 -2 3 3 -64 6 -148 7 -85 2 -156 0
-158 -5z"/>
<path d="M7768 7309 c-32 -33 -58 -67 -58 -74 0 -27 -51 -130 -73 -148 -12
-10 -55 -34 -95 -54 -83 -41 -131 -93 -139 -151 -5 -40 -13 -28 115 -183 24
-29 47 -74 62 -119 25 -77 57 -110 109 -110 29 0 21 -10 -30 -37 -75 -39 -126
-113 -110 -156 8 -21 5 -25 -24 -36 -19 -6 -45 -26 -60 -42 -61 -74 -2 -198
61 -128 19 22 19 22 -3 8 -20 -12 -24 -11 -37 6 -23 30 -19 61 13 97 29 32 31
33 115 33 59 0 87 -4 91 -12 9 -25 75 -9 75 18 0 4 -14 18 -31 30 -26 18 -34
20 -54 9 -47 -25 -101 12 -84 58 5 12 29 34 55 50 164 97 194 127 194 192 0
40 -24 40 -67 -2 -57 -55 -133 -37 -149 36 -13 62 -46 118 -114 193 -39 42
-70 82 -70 88 0 14 36 63 60 82 8 7 48 29 88 49 82 42 110 76 144 175 19 55
64 109 124 146 19 12 19 12 0 28 -32 25 -47 18 -108 -46z"/>
<path d="M5733 7285 c0 -38 2 -53 4 -32 2 20 2 52 0 70 -2 17 -4 1 -4 -38z"/>
<path d="M1470 7317 c-63 -42 -75 -47 -108 -47 -25 0 -42 -8 -64 -32 -28 -30
-35 -33 -87 -31 -31 1 -65 4 -76 5 -13 2 -19 -2 -17 -11 5 -26 -9 -48 -43 -64
-41 -20 -44 -33 -11 -48 44 -21 52 -52 31 -122 -38 -127 -12 -337 54 -429 17
-24 33 -53 36 -63 3 -11 9 -38 15 -60 5 -22 12 -52 15 -67 3 -18 17 -33 36
-43 18 -10 37 -31 45 -52 8 -19 23 -44 33 -55 30 -31 33 -103 20 -438 -9 -226
-9 -324 -1 -345 l10 -30 1 28 c1 15 5 27 9 27 18 0 50 -47 58 -85 l8 -40 5 34
6 34 22 -39 c34 -61 44 -114 32 -158 -6 -21 -12 -46 -15 -55 -2 -9 -9 -34 -15
-57 -11 -36 -10 -46 9 -85 11 -24 24 -57 28 -74 14 -56 94 -189 124 -205 29
-16 25 -38 -11 -58 -53 -29 -89 -63 -89 -84 0 -27 -18 -90 -43 -155 -30 -77
-22 -87 66 -80 91 8 112 2 128 -34 18 -44 64 -72 119 -73 58 -1 80 16 80 61 0
48 -24 95 -81 158 -27 29 -47 54 -46 56 1 2 0 3 -2 2 -2 -2 -20 12 -39 29 -20
17 -59 41 -86 54 -28 13 -45 23 -38 23 8 1 27 10 42 21 l29 20 3 -32 c2 -18 6
98 11 257 4 160 14 412 22 560 8 149 18 399 22 556 l6 287 20 -19 c11 -10 29
-21 39 -25 28 -8 22 -34 -18 -75 -22 -23 -34 -44 -31 -53 3 -8 27 -25 54 -38
29 -15 49 -32 51 -44 3 -24 -35 -87 -48 -79 -6 3 -10 -4 -10 -17 0 -185 -13
-468 -28 -643 -11 -121 -21 -254 -23 -295 -8 -147 -3 -435 6 -452 7 -11 9 43
7 165 -2 127 3 256 18 427 12 135 24 352 27 482 3 137 10 235 15 232 5 -3 6
-32 2 -63 -6 -59 7 -104 44 -140 19 -19 48 -86 56 -126 25 -132 63 -196 135
-226 25 -10 58 -26 73 -34 38 -22 53 -19 81 15 37 44 43 83 18 124 -12 18 -21
48 -21 67 0 46 16 26 34 -43 16 -63 35 -103 43 -94 3 3 20 -14 37 -39 43 -60
72 -81 151 -106 53 -18 73 -20 95 -12 l27 10 6 -171 c4 -94 7 -286 8 -426 0
-362 14 -396 22 -57 6 245 0 445 -19 717 -6 77 -7 221 -1 226 2 2 13 5 25 7
11 2 30 11 40 20 19 17 20 16 26 -40 18 -173 28 -499 23 -783 -3 -173 -2 -349
2 -390 12 -117 13 867 1 1016 -28 340 -33 393 -45 442 -3 13 -3 51 1 85 6 48
13 66 34 86 26 24 35 44 58 131 10 35 12 -1 17 -360 2 -132 15 -198 56 -286
37 -81 67 -115 126 -144 76 -37 113 -77 113 -120 0 -20 7 -45 15 -56 13 -18
14 -16 14 21 1 44 -32 125 -49 125 -6 0 -23 12 -37 28 -15 15 -23 21 -19 15
12 -22 -7 -14 -54 21 -44 32 -107 122 -115 164 -2 11 -9 30 -15 42 -8 14 -10
49 -7 94 3 39 3 55 -1 36 -4 -19 -6 129 -4 330 2 201 7 369 11 373 10 10 22
-311 15 -383 -4 -35 -2 -50 4 -42 6 9 11 -28 15 -105 7 -129 28 -326 34 -320
2 2 -4 96 -12 208 -9 112 -24 348 -34 524 -11 188 -19 280 -20 223 0 -53 -5
-100 -11 -103 -6 -4 -11 -104 -12 -263 l-1 -257 -8 188 c-5 125 -11 193 -20
203 -19 23 -29 3 -34 -66 -7 -87 -29 -172 -62 -234 -28 -53 -27 -202 3 -323 7
-27 -35 -73 -66 -73 -17 0 -20 6 -20 40 0 27 -4 40 -14 40 -17 0 -28 -234 -13
-291 14 -56 3 -89 -30 -89 -36 0 -167 65 -212 105 -29 27 -41 47 -51 92 -8 32
-21 78 -30 103 -16 44 -16 46 13 114 l29 69 -22 29 -21 28 26 10 c14 5 44 18
68 29 54 24 168 64 170 59 1 -1 10 -19 20 -38 12 -23 31 -41 57 -52 48 -20 59
-10 25 22 -25 23 -25 24 -25 219 0 133 5 221 15 274 19 101 19 147 1 147 -9 0
-12 -7 -10 -18 3 -9 -6 -74 -20 -143 -27 -133 -32 -185 -17 -191 5 -1 10 -61
13 -133 2 -71 2 -121 0 -110 -7 33 -42 75 -63 75 -11 0 -27 -4 -37 -9 -9 -5
-44 -21 -77 -36 -33 -15 -82 -43 -109 -62 l-48 -35 -40 39 c-39 38 -40 38 -33
96 7 64 2 68 -62 45 -18 -6 -35 -9 -39 -5 -6 5 9 60 30 109 5 11 -3 28 -28 55
-45 51 -54 83 -27 107 27 25 26 35 -7 76 -66 80 -70 102 -59 285 2 33 -2 80
-9 105 -7 25 -17 81 -23 125 -13 103 -16 116 -40 181 -12 30 -23 69 -26 86 -3
18 -16 44 -29 56 l-23 24 4 -42 c2 -23 20 -92 39 -152 19 -60 34 -131 34 -157
0 -26 7 -72 17 -102 9 -32 15 -80 13 -119 -7 -188 -2 -216 52 -296 24 -36 26
-44 13 -54 -26 -21 -18 -74 19 -129 34 -50 34 -52 20 -86 -18 -44 -18 -89 1
-105 14 -12 53 -10 86 4 13 6 17 -2 23 -42 5 -43 13 -55 66 -105 33 -32 60
-62 60 -67 0 -14 -41 -100 -47 -100 -3 0 -3 9 0 19 7 28 -9 49 -24 34 -9 -9
-10 -24 -3 -55 6 -24 6 -59 2 -78 -10 -44 -2 -94 17 -110 29 -24 12 -109 -27
-133 -26 -17 -179 64 -200 106 -15 29 -46 128 -62 201 -4 15 -27 58 -51 93
-47 68 -54 102 -33 147 9 21 8 29 -5 44 -24 26 -21 45 13 100 17 28 30 63 30
81 0 30 -5 35 -50 54 -27 11 -50 24 -50 27 0 4 16 28 36 53 21 26 34 53 31 61
-3 8 -25 27 -48 41 -41 26 -41 27 -33 68 5 23 9 72 9 109 0 80 -15 97 -87 98
-55 0 -163 -44 -128 -53 11 -3 27 1 34 9 35 35 123 46 150 18 19 -19 21 -101
4 -159 l-12 -40 -8 70 c-5 39 -9 74 -11 78 -1 5 -1 -112 1 -260 3 -188 -2
-392 -18 -683 -12 -228 -22 -502 -23 -608 -2 -155 -5 -191 -15 -187 -8 3 -16
5 -18 5 -3 0 -9 10 -14 23 -6 12 -19 36 -30 52 -30 44 -70 133 -70 153 0 10
-7 28 -16 40 -17 25 -15 70 6 117 8 17 14 64 14 105 1 71 -1 78 -38 135 l-39
59 13 319 c7 174 10 345 6 379 -4 39 -2 66 5 74 8 10 8 26 0 60 -10 39 -9 50
4 70 19 30 9 32 -14 2 -20 -24 -21 -21 -22 61 0 45 25 84 66 101 l20 9 -20 0
c-23 0 -57 -26 -74 -56 -13 -25 -15 -107 -3 -131 6 -12 -1 -31 -25 -66 -32
-47 -33 -47 -34 -20 0 25 -2 26 -8 9 -8 -19 -8 -19 -19 2 -7 12 -12 39 -13 60
-1 29 -3 33 -7 16 -7 -22 -8 -22 -44 12 -21 18 -38 43 -38 54 0 34 -48 163
-70 186 -27 28 -70 201 -70 280 0 33 9 89 20 124 17 56 17 68 5 96 -7 18 -21
37 -30 42 -14 8 -11 13 19 37 21 15 36 36 36 48 0 15 4 18 18 12 9 -4 35 -9
58 -12 36 -3 46 1 88 37 38 33 55 41 86 41 27 0 48 8 71 28 28 23 42 27 91 27
46 0 62 -4 80 -22 l22 -22 -30 -11 c-64 -24 -114 -52 -114 -65 0 -20 20 -23
75 -14 78 12 84 11 115 -23 40 -44 49 -29 10 16 -35 39 -69 46 -128 25 -17 -6
-37 -9 -44 -6 -15 4 52 41 95 51 20 5 27 12 27 31 0 34 -36 55 -102 60 -44 3
-61 -1 -88 -18z m-34 -1133 c-7 -18 -46 -18 -46 0 0 13 15 45 35 76 8 11 11 6
13 -24 2 -21 1 -44 -2 -52z m1 -279 c-4 -137 -10 -302 -13 -366 l-7 -116 -29
16 -30 16 6 89 c3 49 6 207 6 350 l0 261 37 0 36 0 -6 -250z m185 -1344 c27
-11 72 -48 113 -90 106 -109 126 -144 116 -204 -2 -16 -46 -24 -80 -15 -27 7
-43 21 -66 56 l-30 47 -93 -2 c-84 -1 -93 1 -86 15 12 29 52 156 58 185 7 32
11 33 68 8z"/>
<path d="M7890 7321 c0 -5 7 -14 15 -21 16 -14 18 -10 9 14 -6 17 -24 22 -24
7z"/>
<path d="M5753 7070 c0 -155 3 -223 7 -185 10 81 10 329 1 385 -5 28 -8 -47
-8 -200z"/>
<path d="M7590 7279 c-25 -16 -47 -34 -49 -40 -2 -6 20 6 48 26 28 20 51 39
51 41 0 6 0 6 -50 -27z"/>
<path d="M2614 7155 c0 -82 2 -115 3 -72 2 43 2 110 0 150 -1 40 -3 5 -3 -78z"/>
<path d="M3775 7290 l-40 -7 37 -2 c20 0 40 4 43 9 3 6 5 9 3 9 -2 -1 -21 -5
-43 -9z"/>
<path d="M2942 7255 c0 -16 2 -22 5 -12 2 9 2 23 0 30 -3 6 -5 -1 -5 -18z"/>
<path d="M5813 7235 c0 -27 2 -38 4 -22 2 15 2 37 0 50 -2 12 -4 0 -4 -28z"/>
<path d="M6945 7255 c6 -28 53 -111 79 -138 6 -7 19 -29 29 -50 25 -54 27
-239 3 -285 -9 -17 -16 -37 -16 -45 0 -14 37 -50 82 -79 39 -26 43 -51 17
-116 -12 -31 -26 -62 -31 -68 -5 -7 -11 -34 -15 -61 -8 -68 21 -133 74 -166
67 -43 77 -61 81 -143 5 -86 18 -100 85 -91 25 3 48 0 61 -8 28 -18 171 -30
199 -17 74 33 76 34 138 6 l59 -27 0 -48 c0 -53 9 -64 46 -55 24 6 25 9 22 83
-2 55 -7 78 -18 83 -65 33 -111 45 -168 44 -54 -1 -66 -5 -92 -29 -28 -27 -32
-28 -97 -21 -37 4 -73 11 -79 17 -7 6 -33 7 -63 3 l-51 -7 0 59 c-1 80 -23
121 -90 166 -30 20 -58 47 -61 60 -16 55 -9 120 21 190 17 38 30 80 30 92 0
24 -60 91 -89 101 -26 8 -34 36 -21 69 14 38 12 213 -3 261 -16 52 -41 98 -63
116 -10 8 -30 41 -46 74 -18 37 -27 49 -23 30z"/>
<path d="M7860 7270 c-13 -8 -13 -10 2 -10 9 0 20 5 23 10 8 13 -5 13 -25 0z"/>
<path d="M2544 7165 c-9 -14 -14 -28 -10 -32 3 -3 6 -1 6 5 0 7 9 21 20 32 11
11 16 20 10 20 -5 0 -17 -11 -26 -25z"/>
<path d="M5803 7095 c0 -22 2 -30 4 -17 2 12 2 30 0 40 -3 9 -5 -1 -4 -23z"/>
<path d="M568 6925 c-2 -134 -1 -162 10 -148 6 9 12 26 13 37 0 12 8 -6 18
-39 10 -33 27 -83 38 -112 l20 -51 -136 -3 c-297 -6 -448 -3 -510 13 -24 6
-23 -19 1 -27 13 -4 168 -9 346 -10 308 -1 322 -1 322 17 0 11 -6 31 -14 46
-27 52 -68 189 -70 235 0 9 -4 17 -8 17 -4 0 -8 40 -8 89 0 50 -4 92 -10 96
-5 3 -10 -58 -12 -160z"/>
<path d="M2581 6988 c-4 -13 -14 -67 -21 -121 l-14 -97 -31 6 c-22 4 -38 0
-58 -16 -52 -41 -25 -101 67 -152 l61 -34 -3 -74 -3 -75 30 52 c31 53 39 100
21 132 -5 10 -31 26 -57 36 -55 20 -83 42 -83 63 0 11 9 13 38 10 l38 -6 20
145 c19 133 17 188 -5 131z"/>
<path d="M3042 6920 c0 -19 2 -27 5 -17 2 9 2 25 0 35 -3 9 -5 1 -5 -18z"/>
<path d="M3244 6908 c20 -65 25 -213 27 -728 2 -510 3 -543 11 -340 10 263 5
966 -7 994 -5 12 -5 17 2 13 5 -3 21 -8 36 -11 15 -3 34 -12 43 -20 32 -33
103 -68 124 -61 13 4 20 2 20 -7 0 -15 -17 -319 -25 -453 -3 -49 -13 -178 -22
-285 -18 -226 -22 -541 -6 -585 9 -24 12 2 13 130 2 203 6 277 30 615 11 151
21 349 23 440 l2 164 40 28 c47 32 77 38 53 11 -30 -35 -68 -110 -68 -135 0
-27 28 -57 76 -81 29 -15 43 -37 59 -95 6 -20 4 -22 -17 -17 -66 15 -99 12
-113 -9 -20 -28 -19 -52 7 -97 l21 -38 -17 -498 c-12 -344 -14 -526 -8 -588 8
-81 9 -68 10 130 2 212 22 947 28 953 1 2 11 -3 23 -10 17 -10 20 -19 15 -46
-8 -39 10 -108 35 -139 10 -12 49 -37 87 -56 38 -18 91 -50 117 -70 27 -20 59
-40 72 -43 28 -7 83 9 143 42 150 83 182 123 182 224 0 84 17 109 107 156 67
34 81 48 130 116 30 43 60 84 67 91 16 16 56 92 56 107 0 5 -4 10 -10 10 -5 0
-9 -3 -8 -7 5 -17 -37 -83 -110 -172 -60 -73 -89 -101 -130 -121 -104 -51
-122 -76 -122 -171 0 -81 -24 -119 -110 -175 -60 -39 -157 -84 -179 -84 -5 0
-35 20 -68 44 -32 24 -83 56 -113 71 -76 39 -97 61 -106 109 -4 22 -7 43 -7
46 0 3 4 19 8 37 6 28 3 34 -23 47 -48 25 -62 44 -62 87 0 33 3 39 20 39 12 0
34 -7 50 -15 26 -13 30 -13 44 1 22 21 20 42 -9 100 -18 34 -39 57 -70 76 -52
31 -55 46 -20 103 49 82 56 97 51 112 -9 23 -69 10 -118 -26 -53 -39 -75 -39
-124 2 -45 37 -111 70 -125 62 -5 -4 -13 5 -19 19 -12 32 -25 35 -16 4z"/>
<path d="M5560 6828 c-6 -57 -23 -184 -36 -283 -45 -330 -53 -419 -35 -399 28
30 113 784 89 784 -3 0 -11 -46 -18 -102z"/>
<path d="M3051 6575 c-1 -170 -8 -427 -16 -570 -18 -329 -19 -534 -1 -600 13
-50 13 -50 8 40 -2 50 1 194 8 320 16 316 23 910 12 1025 -8 79 -10 42 -11
-215z"/>
<path d="M2653 6815 c0 -33 2 -45 4 -27 2 18 2 45 0 60 -2 15 -4 0 -4 -33z"/>
<path d="M2804 6847 c-2 -7 -3 -74 -2 -148 l3 -134 5 148 c3 81 4 147 2 147
-1 0 -5 -6 -8 -13z"/>
<path d="M2944 6523 c-5 -175 -9 -489 -9 -698 0 -390 8 -490 42 -532 13 -17
14 -17 9 2 -28 108 -31 180 -29 700 1 297 4 609 8 693 4 94 3 152 -3 152 -5 0
-13 -130 -18 -317z"/>
<path d="M3159 6225 c2 -430 7 -640 16 -685 11 -64 12 -63 8 60 -1 69 -6 334
-9 590 -3 256 -9 508 -13 560 -3 52 -5 -184 -2 -525z"/>
<path d="M3349 6345 c-5 -520 -2 -850 9 -905 12 -57 14 1124 3 1225 -6 47 -9
-58 -12 -320z"/>
<path d="M4534 6508 c3 -18 11 -118 17 -223 11 -189 9 -258 -21 -1055 -10
-252 -13 -446 -6 -439 2 2 7 60 10 129 4 69 14 233 22 365 30 496 29 1159 -3
1241 -10 28 -25 14 -19 -18z"/>
<path d="M5 6520 c3 -5 18 -10 32 -10 32 0 28 5 -10 14 -19 4 -26 3 -22 -4z"/>
<path d="M1133 6168 c6 -375 20 -695 38 -868 6 -58 12 -126 14 -151 3 -25 9
-58 15 -73 21 -56 38 -53 -347 -60 -587 -11 -800 -19 -815 -33 -6 -7 -10 -13
-8 -14 3 0 23 -2 45 -3 22 -2 83 -8 135 -15 52 -6 257 -13 455 -16 551 -7 616
-7 631 6 21 17 17 47 -10 64 -20 13 -25 26 -29 83 -3 37 -10 112 -16 167 -22
199 -31 322 -31 435 0 63 -5 162 -10 220 -6 58 -12 157 -15 220 -5 112 -20
291 -31 358 -3 17 -10 32 -16 32 -8 0 -9 -98 -5 -352z"/>
<path d="M1681 6494 c0 -11 3 -14 6 -6 3 7 2 16 -1 19 -3 4 -6 -2 -5 -13z"/>
<path d="M5130 6316 c0 -104 4 -175 12 -193 11 -27 12 -27 19 27 11 84 10 241
-1 282 -22 79 -30 49 -30 -116z"/>
<path d="M1520 6407 c-12 -21 -12 -21 6 -7 10 8 20 15 22 16 2 1 -1 4 -5 7 -5
3 -15 -4 -23 -16z"/>
<path d="M4625 6400 c-4 -6 -1 -9 7 -8 33 7 32 -284 -3 -810 -10 -162 -18
-357 -18 -435 l2 -142 22 280 c13 154 26 348 30 430 8 162 9 594 2 635 -2 14
-5 33 -6 43 -1 18 -26 23 -36 7z"/>
<path d="M5036 6343 c2 -27 5 -122 8 -213 6 -228 21 -261 31 -67 10 198 -3
327 -34 327 -4 0 -7 -21 -5 -47z"/>
<path d="M1489 6363 c-13 -16 -12 -17 4 -4 9 7 17 15 17 17 0 8 -8 3 -21 -13z"/>
<path d="M1301 6354 c0 -11 3 -14 6 -6 3 7 2 16 -1 19 -3 4 -6 -2 -5 -13z"/>
<path d="M1568 6124 c2 -148 -3 -368 -12 -542 -19 -342 -19 -345 -7 -338 26
17 49 974 25 1085 -6 31 -8 -32 -6 -205z"/>
<path d="M4457 6028 c-4 -156 -16 -422 -27 -593 -11 -170 -19 -375 -18 -455
l1 -145 8 130 c4 72 17 265 29 430 24 343 39 915 23 915 -6 0 -12 -106 -16
-282z"/>
<path d="M4776 6271 c-3 -4 0 -23 6 -42 8 -24 11 -177 11 -499 0 -291 3 -430
8 -370 37 468 39 700 4 885 -2 11 -4 23 -4 28 -1 10 -19 9 -25 -2z"/>
<path d="M2450 6223 c25 -35 35 -79 34 -155 -1 -92 -54 -152 -159 -181 -11 -3
5 -3 35 0 116 12 171 100 146 235 -14 74 -29 103 -57 119 -21 11 -21 10 1 -18z"/>
<path d="M4878 6173 c17 -33 22 -86 32 -308 5 -121 13 -238 17 -260 l7 -40 7
55 c19 153 0 492 -32 551 -13 25 -43 26 -31 2z"/>
<path d="M1317 5988 c-4 -99 -7 -261 -7 -359 0 -169 -1 -178 -20 -184 -11 -3
-20 -11 -20 -18 0 -8 3 -8 12 1 19 19 36 14 40 -10 2 -13 4 151 5 365 1 213 0
387 -1 387 -2 0 -6 -82 -9 -182z"/>
<path d="M3663 5505 c2 -286 7 -532 13 -547 6 -18 8 167 6 510 -2 329 -7 541
-13 547 -6 6 -8 -174 -6 -510z"/>
<path d="M4326 5998 c-3 -13 -8 -70 -11 -128 -3 -58 -15 -179 -25 -270 -10
-91 -22 -196 -25 -235 -3 -38 -17 -158 -30 -265 -14 -107 -24 -233 -23 -280 0
-47 3 -71 5 -55 2 17 15 113 28 215 13 102 26 208 29 235 3 28 16 140 30 250
44 351 57 555 36 555 -5 0 -12 -10 -14 -22z"/>
<path d="M1772 5990 c0 -14 2 -19 5 -12 2 6 2 18 0 25 -3 6 -5 1 -5 -13z"/>
<path d="M2605 5963 c-4 -10 -8 -54 -10 -98 l-4 -80 9 70 c5 39 11 82 14 98 6
31 2 36 -9 10z"/>
<path d="M2611 5804 c0 -11 3 -14 6 -6 3 7 2 16 -1 19 -3 4 -6 -2 -5 -13z"/>
<path d="M2813 5755 c0 -27 2 -38 4 -22 2 15 2 37 0 50 -2 12 -4 0 -4 -28z"/>
<path d="M4127 5238 c-4 -308 -6 -563 -4 -565 8 -7 29 424 34 697 6 284 0 430
-16 430 -4 0 -11 -253 -14 -562z"/>
<path d="M4005 5640 c-5 -74 -8 -138 -7 -142 1 -3 -5 -107 -13 -230 -14 -212
-20 -506 -11 -497 3 3 10 101 15 219 6 118 16 319 22 445 13 269 9 417 -6 205z"/>
<path d="M3858 5692 c2 -21 -4 -188 -13 -371 -10 -216 -13 -366 -8 -429 l8
-97 6 185 c18 508 22 750 13 750 -5 0 -8 -17 -6 -38z"/>
<path d="M3283 5530 c0 -30 2 -43 4 -27 2 15 2 39 0 55 -2 15 -4 2 -4 -28z"/>
<path d="M4936 5547 c3 -10 9 -15 12 -12 3 3 0 11 -7 18 -10 9 -11 8 -5 -6z"/>
<path d="M1850 5439 c0 -57 5 -174 10 -259 5 -85 10 -256 11 -380 1 -124 5
-247 9 -275 14 -92 11 283 -6 653 -8 196 -17 359 -20 361 -2 2 -4 -43 -4 -100z"/>
<path d="M2260 5530 c-9 -6 -10 -10 -3 -10 6 0 15 5 18 10 8 12 4 12 -15 0z"/>
<path d="M2746 5255 c2 -38 9 -131 14 -205 5 -74 12 -292 15 -485 6 -329 11
-462 21 -453 4 5 -13 809 -20 943 -4 76 -4 81 4 35 5 -30 11 -89 14 -130 4
-41 11 -129 16 -195 6 -66 17 -248 25 -404 17 -307 36 -485 60 -547 13 -33 14
-34 10 -9 -8 54 -34 357 -40 480 -16 321 -28 488 -51 695 -26 239 -30 263 -44
255 -9 -6 -13 6 -24 65 -3 14 -3 -6 0 -45z m21 -82 c-3 -10 -5 -4 -5 12 0 17
2 24 5 18 2 -7 2 -21 0 -30z"/>
<path d="M2016 5188 c-13 -125 -16 -241 -17 -531 l0 -309 -43 5 c-23 3 -48 2
-56 -3 -9 -6 -6 -8 11 -9 13 0 68 -3 122 -7 80 -5 97 -9 97 -23 0 -9 5 -23 10
-31 7 -11 8 -6 4 18 -5 24 -3 32 8 32 18 0 48 -32 48 -51 0 -8 7 -25 16 -38
14 -19 23 -22 53 -17 21 3 52 13 70 22 33 16 142 17 158 1 8 -8 -16 -27 -64
-51 -18 -9 -49 -24 -68 -33 -19 -10 -37 -23 -39 -30 -7 -17 29 -40 95 -59 30
-9 64 -22 77 -30 32 -21 16 -44 -59 -90 l-61 -38 46 -42 c25 -23 46 -45 46
-48 0 -23 -33 -76 -64 -104 -20 -18 -47 -55 -61 -83 -21 -40 -29 -48 -40 -39
-11 9 -12 7 -9 -8 4 -13 -2 -22 -20 -30 -25 -11 -26 -10 -26 17 0 15 -9 36
-19 45 -18 17 -21 16 -51 -11 -42 -38 -50 -103 -25 -206 13 -54 16 -93 12
-158 -8 -100 5 -129 54 -129 16 0 29 -5 29 -12 0 -7 5 -5 11 5 15 26 57 22 71
-8 13 -28 31 -35 21 -7 -4 11 5 7 25 -12 38 -35 40 -52 10 -61 -13 -4 -49 -16
-80 -27 -77 -27 -78 -51 -8 -102 65 -47 79 -70 78 -131 -1 -48 27 -125 52
-140 5 -3 10 -9 10 -13 0 -14 -103 -122 -116 -122 -28 0 -74 55 -118 139 -73
141 -141 179 -188 107 -24 -37 -47 -49 -68 -36 -20 12 -9 163 13 187 22 25 23
123 2 182 -9 26 -14 74 -13 129 2 76 -1 93 -24 137 -30 58 -71 105 -91 105
-31 0 -77 -71 -77 -119 0 -17 -3 -31 -8 -31 -4 0 -41 34 -82 75 -78 79 -136
118 -201 135 -36 10 -40 15 -55 67 -15 52 -15 59 0 90 9 18 16 40 16 48 0 17
-37 20 -60 5 -11 -7 -17 -4 -22 13 -5 20 -6 19 -7 -5 -1 -18 -6 -28 -17 -28
-23 0 -8 39 28 74 29 26 35 28 88 23 66 -7 173 -50 210 -83 14 -13 49 -29 78
-37 29 -7 67 -25 84 -40 16 -15 41 -30 53 -33 29 -7 80 19 101 52 19 27 13 45
-28 97 -14 17 -22 42 -23 64 0 37 -5 42 -62 63 -35 13 -47 37 -44 87 1 19 -4
35 -13 40 -23 13 -43 99 -28 123 20 32 14 40 -31 40 -24 0 -48 5 -54 11 -5 5
-25 11 -43 11 -43 1 -67 -28 -76 -93 -6 -41 -12 -52 -34 -64 -26 -13 -28 -13
-35 8 l-8 22 -4 -21 c-2 -13 -14 -24 -29 -27 -20 -4 -24 0 -25 22 0 14 -4 35
-9 46 -7 15 -9 9 -9 -26 -1 -45 -2 -45 -30 -41 -17 2 -39 -3 -53 -12 -12 -9
-42 -16 -65 -16 -39 0 -43 2 -43 25 0 14 -5 25 -11 25 -7 0 -9 -10 -5 -25 6
-22 3 -25 -23 -25 -30 0 -91 49 -91 74 0 7 -11 23 -25 36 -24 22 -27 23 -81
11 -31 -7 -100 -14 -153 -15 -96 -1 -96 -1 -156 -43 -112 -78 -109 -74 -110
-139 0 -48 -8 -73 -39 -133 -34 -68 -37 -79 -32 -130 15 -134 15 -134 -26
-153 -52 -25 -50 -50 7 -90 25 -18 45 -35 45 -38 0 -18 -74 -63 -105 -64 -5
-1 -14 -6 -20 -13 -26 -30 -205 -57 -220 -33 -3 6 -15 10 -26 10 -10 0 -19 5
-19 12 0 9 -3 9 -12 0 -9 -9 -9 -17 -1 -34 7 -13 14 -30 16 -38 3 -9 6 -6 6 8
1 18 4 21 19 13 27 -14 140 -10 189 6 24 9 45 14 47 12 1 -2 -6 -116 -15 -254
-22 -312 -24 -565 -5 -662 15 -78 10 -93 -31 -93 -13 0 -36 -12 -50 -26 l-26
-26 6 423 c3 233 3 454 -2 492 -7 69 -22 100 -36 76 -5 -7 -4 -10 3 -5 21 13
24 -64 21 -483 -2 -234 1 -529 6 -656 5 -126 10 -498 9 -825 0 -374 3 -563 9
-510 10 112 14 864 5 1100 -4 108 -4 174 1 158 22 -67 83 -149 141 -188 32
-22 62 -44 65 -50 11 -17 54 -11 65 9 15 29 12 78 -6 117 -25 52 -9 64 82 64
72 0 75 1 85 28 6 15 8 50 4 79 -5 44 -3 60 16 93 13 22 27 40 32 40 11 0 1
-589 -12 -720 l-8 -75 -2 100 c-2 99 -12 148 -24 128 -3 -5 -1 -41 5 -79 7
-44 8 -127 4 -229 -4 -88 -7 -174 -6 -191 0 -17 -6 -136 -15 -265 -8 -129 -14
-265 -14 -304 l2 -70 8 75 c15 144 29 357 40 585 5 127 14 262 19 300 5 39 12
224 16 412 5 237 10 341 18 340 6 -1 12 7 14 18 1 11 11 31 22 45 16 21 21 23
32 11 7 -8 8 -11 2 -8 -7 4 -15 0 -18 -9 -9 -24 -7 -31 4 -14 6 10 10 -45 10
-165 0 -252 20 -827 30 -905 8 -58 8 -55 5 35 -4 95 -10 351 -19 825 -3 130
-1 197 4 169 12 -67 39 -120 72 -138 26 -15 28 -21 30 -86 l2 -70 3 68 c2 37
9 67 14 67 21 0 55 -25 100 -72 37 -39 51 -48 80 -48 l34 0 -2 -62 c-3 -56 -8
-152 -29 -533 -3 -55 -9 -140 -14 -190 -6 -49 -9 -106 -9 -125 3 -75 18 81 38
380 12 168 22 325 24 350 11 145 4 -231 -8 -465 -8 -154 -14 -298 -14 -320 l1
-40 8 40 c14 77 33 603 27 771 -4 104 -2 163 3 154 6 -8 10 -22 10 -32 0 -9
14 -28 30 -41 17 -15 34 -42 40 -64 l10 -38 -5 37 c-4 36 -2 38 25 38 16 0 32
5 35 10 4 6 -9 10 -33 10 -28 0 -45 7 -62 25 -13 14 -21 25 -18 25 4 0 -4 20
-18 46 -34 63 -30 79 6 22 16 -26 38 -52 49 -57 27 -15 54 -14 48 2 -2 6 -11
11 -19 9 -9 -1 -22 5 -29 14 -13 16 -11 17 14 12 16 -3 25 -2 20 2 -4 5 -19
10 -32 12 -22 3 -60 49 -88 108 -4 8 -31 53 -61 100 -59 94 -56 72 -36 256 5
47 3 54 -41 120 -26 38 -52 83 -59 99 -18 43 -73 95 -100 95 l-23 0 5 518 c5
498 -2 772 -18 772 -15 0 -23 -206 -29 -744 -5 -476 -8 -550 -21 -554 -8 -3
-34 -26 -57 -51 -50 -54 -48 -67 -33 149 19 272 28 724 20 928 -8 184 -19 307
-25 300 -2 -2 -6 -244 -9 -538 -3 -294 -12 -620 -19 -725 l-12 -189 -43 -29
c-24 -16 -45 -27 -48 -24 -3 3 4 114 16 248 11 134 23 314 25 399 3 85 7 200
9 255 2 55 1 165 -2 245 l-7 145 -7 -250 c-4 -137 -19 -403 -33 -590 -14 -187
-25 -367 -25 -400 0 -60 0 -61 -30 -63 -36 -3 -35 -45 -15 408 19 448 22 559
13 553 -5 -2 -8 -10 -8 -18 0 -10 -6 -8 -22 6 -13 10 -34 27 -48 38 l-25 19
27 11 c15 5 35 22 44 37 17 25 17 30 1 93 -22 83 -22 82 7 144 36 79 47 121
45 171 -2 25 -1 47 2 49 55 48 158 117 173 118 12 0 48 0 81 0 33 0 89 3 125
8 36 5 66 7 67 6 17 -13 25 -193 33 -680 5 -319 12 -625 16 -680 8 -99 8 -99
16 -45 15 113 21 742 9 962 -12 216 -32 383 -52 419 -5 10 -7 19 -5 19 3 0 15
-18 26 -40 23 -44 71 -80 109 -80 l24 0 -6 -337 c-6 -360 3 -371 23 -28 6 110
13 202 16 204 10 10 3 -548 -11 -829 -22 -471 -26 -674 -18 -815 l8 -130 8
260 c4 143 14 424 23 625 17 398 14 846 -6 915 -7 22 -15 61 -17 88 l-5 47 54
0 c29 0 59 4 66 9 7 4 24 6 38 3 20 -4 24 -10 24 -41 0 -80 -11 -110 -41 -116
-15 -4 -41 -20 -57 -36 -24 -25 -29 -38 -28 -77 1 -43 3 -47 28 -50 25 -3 27
-6 34 -80 8 -87 0 -549 -16 -907 -17 -362 -18 -591 -2 -606 10 -11 12 -10 12
2 0 7 7 115 15 239 35 552 43 1071 18 1235 -6 44 5 44 13 0 9 -48 23 -64 62
-70 63 -11 102 -36 203 -132 102 -97 120 -104 137 -55 17 50 25 -199 16 -488
-4 -151 -9 -365 -10 -475 -2 -241 -1 -225 -16 -221 -7 1 -10 1 -5 -1 4 -3 7
-14 7 -26 0 -16 3 -18 9 -8 6 9 11 10 15 2 11 -18 71 -13 89 7 46 50 -14 145
-62 100 -11 -11 -12 31 -5 242 13 371 10 760 -5 850 -16 89 -16 107 0 126 15
19 31 6 63 -53 36 -63 45 -104 36 -154 -7 -33 -3 -65 12 -128 15 -64 18 -91
10 -115 -9 -29 -10 -28 -12 24 -3 53 -3 52 -9 -22 -5 -55 -12 -83 -26 -98 -29
-32 -27 -121 3 -153 22 -23 23 -35 32 -238 9 -198 26 -357 37 -346 2 3 -1 110
-6 238 -16 341 -18 315 25 323 26 5 41 16 56 42 11 19 23 34 26 34 21 0 66
-55 102 -125 53 -101 85 -143 115 -151 26 -7 34 -28 36 -99 2 -65 11 -107 25
-112 8 -3 7 25 -2 93 -8 54 -13 98 -11 98 1 1 17 11 35 24 l32 23 0 -43 c0
-68 19 -202 34 -245 9 -22 15 -30 15 -18 1 38 -28 250 -38 285 -10 32 -8 37
23 70 44 46 51 71 28 101 -39 49 -52 87 -49 143 2 52 0 57 -37 95 -21 22 -52
45 -67 52 -36 15 -37 27 -1 35 15 3 51 14 80 24 l52 18 4 -21 c2 -12 14 -87
27 -167 18 -122 46 -238 48 -206 1 5 -12 95 -28 200 -47 309 -74 540 -87 741
-3 55 -7 102 -9 105 -2 3 14 23 36 45 42 41 82 117 73 138 -2 7 -23 25 -44 41
-28 21 -36 32 -27 38 20 13 35 9 41 -9 3 -11 4 -9 3 6 -1 16 10 36 31 57 35
35 40 55 18 77 -8 7 -16 25 -19 38 -4 23 -4 23 -6 1 -1 -22 -2 -22 -38 -6 -21
9 -42 17 -48 18 -65 14 -64 28 4 60 56 26 111 64 111 77 0 17 -66 39 -115 39
-24 0 -68 -9 -97 -20 -29 -11 -59 -20 -66 -20 -7 0 -21 20 -32 45 -15 34 -28
49 -51 57 l-32 11 4 226 c5 285 1 536 -8 527 -4 -3 -6 -175 -4 -380 l2 -374
-58 -4 c-32 -2 -60 -3 -62 -1 -2 1 1 202 7 445 5 244 9 445 7 446 -2 2 -6 -20
-9 -50z m-337 -1059 c50 -26 55 -50 56 -258 0 -124 3 -155 14 -159 10 -3 12 0
7 13 -4 10 -3 70 1 134 6 108 7 113 16 66 4 -27 17 -59 27 -70 14 -15 20 -39
23 -90 l3 -70 2 71 c2 71 2 71 28 66 26 -5 26 -6 20 -65 -3 -33 -6 -78 -6
-100 l0 -41 -27 26 c-30 27 -101 58 -133 58 -11 0 -29 14 -42 30 -12 17 -28
30 -36 30 -11 0 -13 11 -8 53 18 143 24 223 16 231 -10 10 -15 -17 -30 -164
-7 -58 -13 -107 -15 -109 -3 -2 -20 4 -39 13 -19 9 -40 16 -48 16 -8 0 -17 2
-19 5 -5 4 8 156 14 161 1 1 13 5 26 9 l23 7 -3 -81 c-2 -44 0 -81 4 -81 4 0
10 39 13 86 2 47 10 98 18 112 7 15 16 42 20 61 5 30 22 61 32 61 2 0 21 -9
43 -21z m-204 -168 c-3 -5 -6 -39 -6 -75 -1 -63 -2 -66 -25 -66 -22 0 -24 4
-24 44 0 78 10 106 37 106 13 0 22 -4 18 -9z m455 -288 c0 -11 -11 -25 -25
-31 l-25 -12 0 61 0 61 25 -30 c14 -17 25 -39 25 -49z m458 -91 c12 -267 27
-414 48 -489 4 -16 -4 -12 -39 21 l-45 41 -7 167 c-4 92 -10 182 -14 200 -6
27 -1 41 23 76 16 23 30 42 30 42 1 0 2 -26 4 -58z m-156 -59 c10 -13 34 -7
59 14 14 12 17 9 23 -33 3 -26 6 -114 6 -195 l0 -149 -34 0 -34 0 -7 83 c-17
210 -30 277 -57 277 -7 0 -6 -5 2 -15 7 -8 18 -84 26 -172 8 -87 16 -164 19
-170 2 -8 -4 -13 -15 -13 -19 0 -20 7 -20 114 0 63 -5 127 -11 143 -17 43 -17
147 1 168 13 16 15 15 23 -11 6 -16 14 -34 19 -41z m-1683 -323 c-4 -74 -13
-279 -20 -455 -9 -248 -14 -322 -25 -328 -7 -4 -29 -36 -49 -71 -70 -125 -69
-128 -62 204 4 162 10 386 14 497 l6 202 53 27 c30 15 61 35 70 46 10 10 18
17 19 16 2 -2 -1 -64 -6 -138z m1368 -462 c-2 -13 -4 -5 -4 17 -1 22 1 32 4
23 2 -10 2 -28 0 -40z m-945 -145 c15 -16 37 -48 50 -73 13 -25 41 -71 62
-102 l39 -58 -13 -80 c-16 -100 -10 -149 24 -193 14 -19 26 -37 26 -41 0 -4
11 -22 25 -40 14 -18 25 -38 25 -44 0 -7 5 -12 10 -12 6 0 10 -11 10 -25 0
-22 -4 -25 -37 -25 -45 0 -49 3 -86 52 -18 25 -41 41 -67 49 -22 7 -40 16 -40
21 0 5 -5 6 -11 3 -27 -17 -56 41 -90 177 -6 26 -18 49 -27 53 -18 7 -46 -17
-62 -53 -6 -15 -25 -36 -43 -47 -47 -30 -62 -68 -60 -147 3 -85 -10 -102 -73
-92 -48 7 -99 -8 -108 -32 -3 -7 1 -29 9 -48 20 -48 19 -103 -2 -114 -13 -8
-27 -1 -62 27 -82 67 -118 109 -150 173 -28 59 -31 73 -31 165 0 111 4 118 61
130 42 8 75 41 113 113 48 90 50 91 62 24 l12 -59 1 58 c1 52 3 58 27 67 35
14 34 15 35 -32 l2 -43 6 42 c4 24 9 44 12 46 2 1 25 12 52 25 l47 22 1 -93
c1 -109 16 -83 18 30 1 71 2 73 48 125 25 29 52 56 58 60 14 8 25 -71 25 -176
0 -74 10 -137 20 -131 4 3 11 77 15 165 6 142 9 160 24 160 10 0 29 -12 43
-27z m906 -467 c2 -15 -2 -34 -9 -42 -13 -16 -55 -19 -64 -4 -3 6 -1 10 4 10
6 0 11 8 11 17 0 21 30 55 44 50 6 -2 12 -16 14 -31z"/>
<path d="M1681 3970 c-6 -56 -11 -128 -11 -161 0 -90 20 -69 24 26 2 44 7 115
11 158 5 49 4 77 -2 77 -6 0 -15 -45 -22 -100z"/>
<path d="M538 2265 c2 -14 8 -27 12 -30 4 -2 5 7 2 20 -2 14 -8 27 -12 30 -4
2 -5 -7 -2 -20z"/>
<path d="M2933 5208 c-13 -17 -30 -86 -44 -182 -12 -76 -12 -77 -25 -50 -8 16
-12 20 -9 9 68 -292 106 -590 120 -950 8 -185 23 -344 36 -365 6 -10 8 3 4 40
-3 30 -10 159 -15 285 -6 127 -15 280 -21 340 -9 102 -53 428 -65 485 -6 25
-6 25 13 4 22 -24 82 -69 103 -76 9 -3 16 -19 17 -39 1 -19 11 -80 22 -137 25
-126 47 -328 61 -574 7 -102 18 -206 25 -230 16 -52 18 -38 16 102 -7 355 -55
749 -103 845 -8 14 -2 12 20 -9 17 -16 52 -71 78 -123 26 -51 48 -93 49 -93 6
0 -43 147 -58 176 -21 40 -75 88 -136 119 -89 45 -118 108 -106 235 4 41 16
102 26 135 10 33 19 61 19 63 0 7 -19 0 -27 -10z"/>
<path d="M3561 5134 c0 -11 3 -14 6 -6 3 7 2 16 -1 19 -3 4 -6 -2 -5 -13z"/>
<path d="M2317 5133 c-3 -5 -2 -52 3 -104 5 -52 14 -222 19 -379 6 -161 14
-296 21 -310 8 -18 9 49 5 257 -7 371 -25 573 -48 536z"/>
<path d="M2247 4992 c-10 -142 -8 -680 1 -686 11 -6 22 286 22 565 0 219 -13
285 -23 121z"/>
<path d="M2463 4985 c4 -44 11 -168 17 -275 22 -408 22 -405 32 -385 12 20 -4
439 -23 617 -13 126 -34 161 -26 43z"/>
<path d="M5540 4950 c-7 -18 -44 -56 -81 -86 -98 -78 -110 -108 -63 -164 32
-37 41 -33 20 9 -26 50 -20 65 53 130 45 40 74 74 81 97 15 45 7 55 -10 14z"/>
<path d="M4122 4640 c0 -14 2 -19 5 -12 2 6 2 18 0 25 -3 6 -5 1 -5 -13z"/>
<path d="M5407 4653 c-4 -3 -7 -20 -7 -37 0 -35 14 -25 24 17 6 25 -2 35 -17
20z"/>
<path d="M3227 4479 c-3 -12 -2 -29 3 -38 4 -9 22 -144 39 -301 35 -321 54
-417 45 -225 -11 238 -55 585 -74 585 -4 0 -10 -10 -13 -21z"/>
<path d="M7095 4473 c-27 -14 -51 -30 -53 -34 -9 -23 -32 -7 -32 22 0 17 -4
28 -10 24 -5 -3 -10 -21 -10 -39 0 -31 -15 -56 -33 -56 -4 0 -5 5 -2 10 3 6 1
10 -4 10 -6 0 -11 -7 -11 -15 0 -11 -11 -15 -41 -15 -32 0 -40 3 -35 15 3 8
-13 1 -37 -16 -23 -17 -42 -33 -42 -37 0 -4 -4 -13 -9 -21 -5 -7 -9 -48 -8
-90 1 -196 134 -347 252 -286 26 13 83 84 90 110 7 26 36 112 74 219 41 114
47 183 18 209 -25 23 -48 21 -107 -10z m93 -53 c2 -28 0 -32 -8 -20 -9 12 -11
10 -7 -12 2 -15 1 -25 -3 -23 -4 3 -11 -14 -14 -38 -7 -44 -60 -210 -76 -239
-6 -10 -10 -23 -10 -29 0 -16 -48 -79 -61 -79 -15 0 -11 35 20 158 17 64 33
133 36 152 22 129 46 172 95 167 21 -2 25 -8 28 -37z m-113 -17 c-3 -16 -8
-38 -10 -49 -3 -12 -21 -83 -40 -158 -19 -75 -35 -157 -35 -181 0 -41 -2 -45
-24 -45 -14 0 -27 4 -30 8 -3 5 12 98 33 207 36 196 38 200 66 215 17 8 32 18
33 23 8 17 12 5 7 -20z m-208 -40 c4 -12 -35 -38 -44 -30 -2 3 2 15 9 26 13
22 29 23 35 4z m88 -123 c-13 -69 -26 -156 -30 -193 l-7 -68 -25 23 c-24 22
-25 27 -19 103 15 182 15 201 7 170 l-9 -30 -1 30 c0 17 4 37 9 45 5 8 10 11
10 5 0 -5 4 -5 8 2 7 11 74 44 79 40 1 -1 -9 -58 -22 -127z m-100 37 c-4 -24
-10 -77 -14 -118 -6 -60 -9 -68 -15 -44 -4 17 -11 45 -15 63 -6 21 -6 32 1 32
6 0 4 8 -5 18 -19 21 -22 63 -7 78 5 5 21 11 35 12 25 2 26 0 20 -41z m12 -99
c-2 -13 -4 -5 -4 17 -1 22 1 32 4 23 2 -10 2 -28 0 -40z m-10 -110 c-2 -13 -4
-3 -4 22 0 25 2 35 4 23 2 -13 2 -33 0 -45z"/>
<path d="M2754 4170 c0 -85 2 -120 3 -77 2 42 2 112 0 155 -1 42 -3 7 -3 -78z"/>
<path d="M2568 4216 c-5 -27 -7 -76 -7 -110 l2 -61 9 75 c4 41 7 91 6 110 -3
32 -4 31 -10 -14z"/>
<path d="M2659 4080 c-5 -319 6 -648 26 -740 l14 -65 -5 110 c-3 61 -9 187
-13 280 -5 94 -6 251 -4 350 3 108 1 194 -5 215 -8 28 -11 -4 -13 -150z"/>
<path d="M3387 4215 c-2 -16 0 -64 5 -105 7 -60 6 -88 -8 -145 -10 -38 -17
-103 -17 -143 0 -71 1 -74 38 -112 21 -22 41 -37 44 -35 2 3 -8 18 -22 33 -33
35 -49 85 -42 132 3 19 7 51 9 70 5 37 24 94 25 73 1 -7 5 -13 11 -13 5 0 7
13 4 30 -5 24 0 37 25 65 36 41 46 72 37 119 -8 43 -34 66 -73 63 -27 -2 -32
-7 -36 -32z m68 3 c2 -13 6 -34 8 -48 3 -19 5 -17 6 10 2 29 4 32 11 15 16
-36 10 -60 -22 -99 l-32 -40 -13 84 c-11 67 -11 85 -1 92 22 14 37 9 43 -14z"/>
<path d="M2644 4120 c0 -63 1 -89 3 -57 2 31 2 83 0 115 -2 31 -3 5 -3 -58z"/>
<path d="M5274 4204 c-21 -15 -54 -33 -71 -41 -37 -15 -44 -33 -12 -33 21 0
117 59 139 85 21 25 -13 18 -56 -11z"/>
<path d="M4836 4205 c-3 -9 -6 -26 -5 -38 1 -14 4 -9 9 13 9 37 7 52 -4 25z"/>
<path d="M2511 4154 c0 -11 3 -14 6 -6 3 7 2 16 -1 19 -3 4 -6 -2 -5 -13z"/>
<path d="M4717 4123 c-25 -29 -38 -70 -24 -81 20 -15 100 -14 142 3 22 8 29
13 15 10 -63 -14 -91 -17 -114 -11 -30 7 -33 26 -10 62 20 30 14 41 -9 17z"/>
<path d="M2793 4065 c0 -22 2 -30 4 -17 2 12 2 30 0 40 -3 9 -5 -1 -4 -23z"/>
<path d="M1197 4059 c4 -13 8 -18 11 -10 2 7 -1 18 -6 23 -8 8 -9 4 -5 -13z"/>
<path d="M7330 4034 c-63 -29 -135 -97 -124 -116 6 -9 3 -9 -9 1 -9 7 -17 9
-17 3 0 -5 12 -17 26 -27 15 -9 23 -12 20 -6 -4 6 0 11 9 11 10 0 15 -5 12
-13 -3 -9 9 -20 34 -31 53 -24 73 -56 64 -102 -5 -29 -29 -92 -42 -113 -1 -2
-37 -12 -79 -22 -43 -10 -81 -24 -85 -31 -4 -6 -2 -26 5 -42 13 -30 12 -33
-40 -88 -57 -60 -64 -80 -38 -116 12 -18 14 -41 11 -110 l-5 -87 -69 -6 c-37
-3 -77 -10 -89 -17 -16 -8 -24 -8 -32 0 -9 9 -12 9 -12 0 0 -17 -65 -15 -80 3
-6 8 -9 19 -5 26 14 22 -39 -3 -74 -35 -87 -80 -92 -88 -88 -137 2 -25 14 -67
26 -93 25 -50 24 -61 -4 -156 -9 -30 -19 -101 -22 -157 -6 -110 -8 -112 -71
-113 -15 0 -26 -7 -29 -20 -6 -24 -38 -26 -107 -5 -27 8 -65 15 -85 15 -75 -1
-164 -80 -159 -142 2 -20 23 -53 65 -101 68 -77 76 -93 41 -82 -13 3 -44 9
-71 12 -55 6 -92 -16 -83 -50 6 -23 -19 -90 -48 -130 l-20 -28 -11 42 c-13 56
-35 63 -36 12 0 -34 -1 -35 -10 -15 -5 13 -23 40 -39 60 -17 20 -30 40 -30 45
0 4 -11 20 -25 35 -24 26 -27 26 -52 12 -14 -8 -61 -55 -102 -104 -42 -49 -83
-93 -92 -99 -13 -8 -25 0 -58 36 -50 54 -114 94 -156 98 -75 6 -97 -1 -131
-37 -29 -30 -34 -43 -34 -83 0 -35 7 -58 25 -85 14 -20 25 -41 25 -46 0 -6 3
-9 8 -8 4 1 22 -7 40 -19 l33 -20 -28 -6 c-16 -3 -31 0 -35 6 -6 9 -8 8 -8 -1
0 -19 -115 -6 -151 16 -73 46 -135 90 -148 105 -13 17 -11 118 5 195 6 31 5
32 -24 32 -17 0 -34 -5 -37 -10 -3 -6 -50 -31 -103 -57 -118 -56 -166 -100
-156 -140 4 -16 22 -47 41 -70 l34 -43 -26 0 c-14 0 -42 -7 -62 -15 -56 -24
-83 -19 -124 21 -27 26 -56 41 -105 55 -93 26 -119 53 -128 131 -3 34 -11 67
-17 74 -15 18 -58 18 -114 -1 -35 -12 -54 -14 -83 -5 -20 5 -54 10 -74 10 -37
0 -165 -41 -203 -65 -34 -22 -160 -55 -206 -55 -66 1 -142 24 -149 45 -5 13
-9 15 -14 7 -9 -15 -26 -6 -26 13 0 17 55 47 127 68 83 25 91 32 95 79 3 36 9
45 47 72 54 38 62 59 45 109 -17 48 -11 61 62 139 63 66 67 89 23 144 -40 50
-61 92 -54 104 3 6 30 10 60 10 49 0 56 3 105 48 63 57 77 83 93 168 l12 66
27 -21 c24 -19 98 -154 98 -179 0 -6 5 -23 12 -37 9 -20 18 -25 45 -25 41 0
130 54 161 98 12 16 34 34 49 40 154 57 157 61 111 126 -30 43 -31 47 -15 64
14 16 91 47 99 41 2 -1 22 8 46 20 55 28 85 74 79 122 -6 47 -43 129 -58 129
-9 0 -8 -5 3 -17 24 -30 38 -72 38 -117 0 -61 -34 -88 -152 -121 -88 -25 -111
-73 -63 -129 14 -16 25 -33 25 -38 0 -8 -57 -37 -77 -39 -22 -3 -82 -41 -108
-69 -69 -74 -155 -103 -163 -55 -5 28 -48 120 -76 162 -32 47 -86 86 -101 73
-7 -6 -16 -42 -19 -80 -6 -61 -12 -76 -46 -118 -60 -77 -85 -92 -146 -92 -42
0 -55 -4 -64 -19 -14 -26 2 -64 45 -113 19 -21 35 -47 35 -59 0 -12 -26 -50
-59 -85 -66 -72 -76 -102 -53 -151 l16 -34 -34 -27 c-70 -54 -83 -71 -76 -103
3 -16 4 -29 3 -29 -1 0 -26 -9 -55 -19 -35 -13 -52 -16 -52 -8 0 8 -3 7 -9 -1
-4 -7 -31 -24 -58 -37 -60 -27 -73 -56 -40 -89 21 -21 22 -28 16 -107 -4 -46
-11 -181 -15 -299 l-8 -215 -13 115 c-8 63 -11 130 -9 148 3 18 2 31 -2 28 -4
-2 -7 228 -8 512 0 319 -5 565 -13 642 -6 69 -16 262 -20 430 -10 339 -25 517
-47 539 -12 13 -13 10 -9 -20 3 -19 8 -146 11 -284 9 -408 22 -688 34 -725 8
-23 11 -122 10 -297 -2 -145 -2 -309 -1 -365 2 -57 3 -418 3 -803 l1 -700 13
345 c7 190 13 390 15 445 l2 100 9 -65 c4 -36 12 -261 16 -500 7 -382 10 -439
25 -470 9 -19 14 -26 11 -15 -4 11 -8 130 -10 265 -1 154 1 230 6 205 7 -30 8
-20 4 39 -8 125 -4 625 6 816 5 96 10 181 10 188 0 13 38 10 85 -8 68 -26 189
-6 315 52 103 48 168 62 216 49 52 -15 91 -14 139 4 64 23 71 20 73 -27 6
-104 50 -156 151 -179 45 -10 69 -22 92 -46 l32 -32 -48 15 c-69 20 -131 17
-200 -11 -33 -14 -64 -25 -68 -25 -5 0 -7 27 -5 60 1 32 -1 55 -5 51 -5 -5 -7
-34 -5 -64 3 -60 -3 -67 -58 -67 -19 0 -20 4 -16 85 3 47 1 85 -4 85 -5 0 -9
-15 -9 -32 -2 -137 -4 -148 -27 -148 -13 -1 -39 -7 -58 -13 l-35 -13 3 114 c2
86 0 112 -9 107 -7 -5 -9 -23 -6 -50 4 -23 3 -45 0 -49 -9 -8 -18 -263 -15
-406 1 -76 8 -130 18 -158 9 -24 13 -53 10 -65 -3 -12 -44 -64 -91 -116 -50
-55 -82 -98 -77 -103 5 -5 30 -1 58 11 27 11 43 20 36 20 -7 1 -29 -6 -50 -14
l-37 -16 26 28 c170 188 168 184 142 252 -29 77 -16 229 32 352 4 10 0 16 -9
16 -8 0 -13 -3 -11 -7 2 -3 -5 -33 -15 -66 -20 -63 -25 -48 -14 43 4 29 10 51
14 48 3 -2 6 6 6 17 -1 25 35 48 74 48 25 0 26 -1 24 -72 l-2 -73 10 78 c9 59
15 77 27 77 9 0 26 3 38 6 19 5 22 1 26 -28 l4 -33 2 35 c1 33 5 36 69 64 59
25 75 28 137 23 38 -4 106 -18 150 -32 44 -15 128 -34 188 -43 l107 -17 0 -90
c0 -109 -15 -410 -34 -715 -8 -124 -17 -281 -20 -350 -7 -209 11 -35 34 320
25 382 30 501 30 693 0 126 2 147 16 147 9 0 12 -5 8 -12 -4 -7 -3 -8 5 -4 14
9 5 26 -15 26 -10 0 -14 14 -14 58 0 31 -4 63 -9 71 -5 8 -7 -13 -3 -54 l5
-68 -59 7 c-75 8 -218 43 -183 45 14 1 34 8 45 16 10 8 38 15 60 15 24 0 47 6
54 15 14 16 10 23 -41 80 -34 38 -44 69 -26 83 7 6 62 36 121 65 l108 55 -6
-32 c-26 -129 -16 -153 98 -233 44 -32 83 -58 86 -58 3 -1 23 -7 45 -13 22 -7
58 -12 79 -12 l39 0 -7 -287 c-3 -159 -15 -391 -26 -518 -22 -259 -24 -350 -4
-200 23 174 44 548 44 779 l0 224 77 7 c43 4 87 11 100 16 20 7 24 5 30 -19 9
-35 10 -673 1 -997 l-7 -250 14 210 c23 359 29 684 16 875 -11 153 -27 277
-30 228 -1 -15 -6 -15 -58 -1 -100 26 -173 92 -173 157 0 72 52 107 129 88 36
-10 59 -26 108 -77 42 -44 71 -65 86 -65 22 0 74 49 196 185 l34 37 31 -47
c17 -26 45 -72 62 -103 16 -32 40 -61 51 -67 14 -6 23 -22 27 -45 3 -19 10
-241 15 -493 5 -252 11 -460 14 -463 20 -20 19 768 -2 944 -5 48 -4 66 7 75
28 22 72 113 78 160 7 47 7 47 44 47 21 0 53 -7 73 -15 32 -13 36 -13 52 5 25
28 5 78 -62 151 -52 55 -55 62 -47 91 20 68 66 81 235 63 59 -6 69 -5 86 12
11 11 37 23 58 26 57 9 70 26 57 77 -8 33 -6 63 9 143 10 56 24 121 31 145 10
34 10 49 -1 75 -7 17 -20 53 -28 78 -15 45 -15 48 6 77 12 17 40 45 62 63 l40
32 24 -23 c16 -15 32 -21 49 -18 23 5 26 2 26 -26 0 -110 -23 -563 -40 -786
-29 -395 -29 -391 -34 -590 -2 -102 -2 -162 0 -135 65 817 84 1128 84 1371 l0
172 48 13 c50 14 109 19 129 12 7 -3 12 -15 12 -26 -4 -127 -48 -669 -84
-1025 -25 -245 -47 -507 -50 -581 -5 -164 5 -112 30 144 9 94 27 274 40 400
24 226 64 666 63 695 -1 35 13 279 18 327 l6 51 68 -1 69 -2 8 -50 c12 -77 5
-467 -12 -658 -9 -95 -18 -203 -21 -242 -3 -38 -14 -146 -25 -240 -45 -384
-59 -536 -57 -650 1 -147 3 -134 48 300 17 165 40 379 51 475 10 97 26 254 34
350 16 190 19 617 5 690 -5 26 -4 50 1 56 5 6 4 15 -2 21 -6 6 -6 69 1 194 14
250 16 263 42 274 12 6 25 17 29 25 22 46 58 254 59 338 l0 42 44 0 c75 0 99
-14 121 -73 16 -40 29 -57 58 -72 35 -19 37 -22 37 -71 0 -50 -1 -51 -50 -82
l-50 -31 0 109 c0 62 -4 111 -10 115 -6 4 -10 -36 -10 -114 l0 -120 -43 -30
c-24 -16 -49 -37 -57 -46 -21 -26 -20 -82 5 -146 35 -88 35 -142 2 -184 -30
-38 -38 -55 -62 -138 -10 -32 -19 -56 -22 -53 -2 2 0 61 6 131 11 128 15 352
6 343 -5 -4 -22 -254 -31 -438 -2 -52 -9 -109 -15 -127 -19 -60 22 -100 88
-85 21 5 70 10 109 11 l70 2 41 -43 c70 -74 191 -178 206 -178 29 0 66 42 87
98 20 51 22 70 17 174 -7 139 -14 158 -63 158 -30 0 -33 2 -26 18 5 9 22 67
37 127 15 61 31 117 36 126 8 15 14 40 25 104 3 18 -5 69 -21 125 -15 52 -30
116 -34 142 -4 35 -17 63 -49 103 -39 49 -47 55 -81 55 -21 0 -52 -7 -69 -16
-46 -22 -82 -3 -102 56 -22 63 -65 90 -144 90 -44 0 -76 -7 -116 -26z m40 -78
c0 -29 -3 -74 -6 -100 -7 -46 -7 -47 -26 -26 -10 11 -31 26 -47 35 -29 14 -50
61 -34 75 16 16 98 69 106 70 4 0 7 -24 7 -54z m442 -95 c26 -28 37 -51 42
-87 4 -27 13 -65 20 -84 41 -108 45 -183 13 -266 -13 -32 -29 -86 -36 -119 -8
-33 -22 -88 -33 -121 -27 -84 -23 -99 27 -99 l40 0 2 -130 c1 -115 -1 -135
-20 -173 -11 -23 -27 -41 -33 -40 -7 2 -59 46 -116 99 -114 105 -148 124 -205
115 -21 -4 -66 -9 -100 -12 l-63 -6 0 26 c0 15 14 59 30 99 17 39 32 83 34 97
3 30 20 63 54 108 34 44 33 96 -4 198 -34 97 -29 116 38 163 24 17 48 34 53
38 49 38 94 61 98 50 3 -7 6 -4 6 6 1 10 10 30 22 46 14 19 19 38 16 62 l-4
34 -1 -36 c-1 -20 -8 -41 -14 -47 -10 -8 -13 0 -13 34 0 42 2 45 40 64 56 27
68 25 107 -19z m-553 -288 c-4 -21 -14 -120 -20 -221 -12 -176 -13 -182 -31
-166 -11 11 -18 31 -18 55 0 27 -6 42 -23 56 -26 20 -27 23 -27 57 0 31 -28
42 -46 19 -13 -17 -13 -17 -14 1 0 10 25 43 55 72 30 30 55 58 55 64 0 6 -7
22 -16 35 -17 27 -16 28 66 58 27 10 28 8 19 -30z m-133 -240 c-11 -11 -19 6
-11 24 8 17 8 17 12 0 3 -10 2 -21 -1 -24z m6 -117 l2 -71 3 68 c5 80 26 89
31 14 2 -37 8 -51 27 -63 48 -31 39 -43 -30 -41 -35 1 -66 4 -69 7 -3 4 -3 45
1 93 5 72 8 85 19 76 9 -7 15 -37 16 -83z m-3735 -1238 c-2 -29 -3 -6 -3 52 0
58 1 81 3 53 2 -29 2 -77 0 -105z m2630 -55 c-3 -10 -5 -2 -5 17 0 19 2 27 5
18 2 -10 2 -26 0 -35z"/>
<path d="M7641 3654 c0 -11 3 -14 6 -6 3 7 2 16 -1 19 -3 4 -6 -2 -5 -13z"/>
<path d="M2791 4004 c0 -11 3 -14 6 -6 3 7 2 16 -1 19 -3 4 -6 -2 -5 -13z"/>
<path d="M2802 3950 c0 -19 2 -27 5 -17 2 9 2 25 0 35 -3 9 -5 1 -5 -18z"/>
<path d="M7442 3891 c-7 -48 -12 -104 -11 -122 l1 -34 9 35 c10 42 24 210 17
210 -2 0 -10 -40 -16 -89z"/>
<path d="M2743 3910 c0 -36 2 -50 4 -32 2 17 2 47 0 65 -2 17 -4 3 -4 -33z"/>
<path d="M2544 3912 c2 -9 7 -78 11 -152 16 -340 36 -666 50 -780 8 -69 19
-201 25 -295 16 -274 33 -443 41 -415 7 24 7 24 8 -6 1 -17 -1 -33 -3 -35 -3
-2 -7 -171 -10 -374 -3 -204 -8 -428 -12 -500 -4 -71 -4 -128 -2 -125 5 4 8
40 20 208 1 9 4 10 12 2 7 -7 10 -152 8 -454 -1 -244 1 -454 6 -466 4 -12 8
197 8 465 -1 430 -3 488 -17 498 -13 10 -14 25 -6 112 21 212 12 1065 -11
1065 -4 0 -4 -39 0 -87 7 -101 10 -278 4 -272 -2 2 -7 58 -10 124 -3 66 -9
152 -12 191 -4 48 -2 74 5 78 15 10 14 73 -2 83 -9 5 -17 54 -26 153 -7 80
-16 188 -21 240 -5 52 -13 210 -20 350 -16 365 -19 397 -36 404 -11 4 -14 1
-10 -12z m113 -1179 c-3 -10 -5 -4 -5 12 0 17 2 24 5 18 2 -7 2 -21 0 -30z"/>
<path d="M2803 3618 c8 -280 21 -505 37 -603 5 -33 12 -222 14 -420 2 -198 10
-520 18 -715 7 -200 12 -538 10 -775 -3 -390 6 -630 25 -683 5 -11 9 271 11
628 2 436 -1 651 -8 655 -6 4 -10 50 -9 113 0 74 3 101 10 87 7 -15 8 -9 4 20
-3 22 -9 193 -15 380 -5 187 -14 421 -19 520 -6 99 -10 243 -9 320 2 149 4
131 17 -115 l8 -155 2 168 c2 288 -38 699 -75 754 -9 15 -14 38 -12 54 3 16 0
29 -5 29 -7 0 -8 -92 -4 -262z m52 -106 c12 -119 14 -169 5 -228 -5 -42 -11
-96 -12 -122 -2 -67 -15 170 -21 393 -7 212 2 199 28 -43z m22 -984 c-2 -13
-4 -5 -4 17 -1 22 1 32 4 23 2 -10 2 -28 0 -40z"/>
<path d="M2593 3835 c0 -22 2 -30 4 -17 2 12 2 30 0 40 -3 9 -5 -1 -4 -23z"/>
<path d="M2526 3775 c4 -8 8 -15 10 -15 2 0 4 7 4 15 0 8 -4 15 -10 15 -5 0
-7 -7 -4 -15z"/>
<path d="M3066 3683 c3 -60 14 -210 23 -335 11 -152 13 -229 6 -232 -5 -3 -4
-5 3 -5 7 -1 12 -15 12 -35 0 -19 13 -103 29 -188 21 -110 31 -200 35 -318 12
-306 19 -430 25 -430 9 0 -6 483 -19 620 -6 63 -17 165 -25 225 -8 61 -21 220
-30 355 -21 321 -37 450 -56 450 -7 0 -8 -39 -3 -107z"/>
<path d="M2603 3715 c0 -33 2 -45 4 -27 2 18 2 45 0 60 -2 15 -4 0 -4 -33z"/>
<path d="M3182 3730 c-1 -41 13 -116 19 -105 3 6 0 37 -7 70 -6 33 -12 49 -12
35z"/>
<path d="M2937 3640 c3 -47 7 -87 9 -89 7 -8 3 94 -6 134 -6 28 -6 14 -3 -45z"/>
<path d="M2524 3545 c14 -418 19 -513 27 -526 6 -11 9 -10 14 3 8 19 -31 668
-40 676 -3 4 -3 -66 -1 -153z"/>
<path d="M2613 3585 c0 -22 2 -30 4 -17 2 12 2 30 0 40 -3 9 -5 -1 -4 -23z"/>
<path d="M3199 3602 c-2 -8 1 -62 7 -120 33 -289 54 -859 51 -1359 -1 -189 2
-330 6 -315 13 43 12 944 -2 1187 -16 305 -50 638 -62 607z"/>
<path d="M3652 3589 c-69 -27 -62 -35 8 -10 55 20 95 15 112 -12 5 -8 8 -9 8
-1 0 37 -62 48 -128 23z"/>
<path d="M3470 3586 c0 -2 8 -10 18 -17 15 -13 16 -12 3 4 -13 16 -21 21 -21
13z"/>
<path d="M3454 3562 c4 -7 11 -60 16 -119 5 -60 16 -184 25 -278 8 -93 20
-354 25 -580 4 -225 13 -423 18 -440 8 -23 9 -9 6 55 -3 47 -9 294 -14 550
-11 515 -18 643 -33 633 -6 -4 -7 7 -3 31 4 20 3 36 -2 36 -6 0 -13 25 -17 55
-3 30 -11 58 -17 61 -7 4 -8 2 -4 -4z"/>
<path d="M3548 3553 c7 -3 16 -2 19 1 4 3 -2 6 -13 5 -11 0 -14 -3 -6 -6z"/>
<path d="M2953 3475 c0 -27 2 -38 4 -22 2 15 2 37 0 50 -2 12 -4 0 -4 -28z"/>
<path d="M3723 3457 c-2 -32 0 -38 8 -27 8 11 9 3 5 -30 -6 -43 38 -538 49
-548 11 -11 4 110 -15 273 -30 260 -31 279 -10 155 37 -216 40 -226 34 -125
-5 92 -46 321 -61 336 -4 4 -9 -11 -10 -34z"/>
<path d="M3585 3410 c20 -57 34 -208 61 -655 19 -331 36 -428 26 -155 -3 107
-6 220 -6 250 2 164 -34 490 -63 562 -20 51 -36 49 -18 -2z"/>
<path d="M2963 3355 c0 -33 2 -45 4 -27 2 18 2 45 0 60 -2 15 -4 0 -4 -33z"/>
<path d="M1515 3368 c-2 -13 -9 -147 -15 -298 -27 -711 -31 -774 -44 -790 -28
-32 -29 -60 -3 -88 18 -21 26 -42 31 -90 3 -34 12 -75 20 -89 12 -24 11 -28
-13 -49 -32 -28 -22 -51 30 -70 45 -16 79 -16 109 0 23 13 21 14 -22 9 -79 -9
-143 24 -105 54 18 15 144 26 152 13 4 -6 -7 -13 -24 -16 -48 -10 -40 -29 14
-35 19 -3 29 0 28 8 -2 7 9 21 23 32 14 11 24 21 23 23 -1 2 1 13 5 26 11 33
0 39 -22 12 -15 -19 -29 -22 -99 -25 l-81 -2 -6 51 c-12 103 -10 114 27 119
l32 4 -32 1 -33 2 0 70 0 69 37 7 c48 9 87 -12 91 -49 3 -21 -2 -29 -20 -36
-21 -9 -21 -10 -2 -10 45 -2 60 52 23 85 -16 14 -36 19 -77 18 l-55 0 7 145
c10 233 20 921 13 921 -4 0 -9 -10 -12 -22z m-42 -1140 c6 -40 -7 -53 -18 -18
-6 18 2 67 9 58 2 -2 6 -20 9 -40z"/>
<path d="M2973 3235 c0 -33 2 -45 4 -27 2 18 2 45 0 60 -2 15 -4 0 -4 -33z"/>
<path d="M2702 3245 c0 -16 2 -22 5 -12 2 9 2 23 0 30 -3 6 -5 -1 -5 -18z"/>
<path d="M1726 3122 c6 -119 6 -677 -1 -802 -5 -78 -3 -90 6 -70 17 36 18 857
2 920 -11 41 -12 37 -7 -48z"/>
<path d="M3867 3183 c-14 -13 -6 -43 16 -64 49 -47 105 -48 125 -4 16 34 17
33 -20 55 -32 19 -107 27 -121 13z m117 -33 c13 -13 4 -21 -36 -31 l-33 -8 30
1 c46 0 52 -2 33 -13 -32 -18 -108 29 -108 67 0 10 102 -4 114 -16z"/>
<path d="M125 2815 c4 -389 7 -447 26 -560 21 -115 22 -46 4 179 -10 116 -21
333 -25 481 -8 267 -8 266 -5 -100z"/>
<path d="M2981 3144 c0 -18 11 -175 25 -350 14 -176 24 -344 21 -374 -2 -30
-2 -46 2 -35 3 11 11 -47 18 -130 l12 -150 -4 130 c-4 115 -60 868 -69 920 -2
11 -4 6 -5 -11z"/>
<path d="M6969 3059 c-6 -12 -15 -36 -20 -53 -28 -95 -95 -1051 -104 -1476 -6
-286 9 -224 24 100 6 129 22 404 35 610 14 206 28 422 31 480 8 143 33 310 51
338 8 12 10 22 5 22 -6 0 -15 -10 -22 -21z"/>
<path d="M3803 3015 c0 -27 2 -38 4 -22 2 15 2 37 0 50 -2 12 -4 0 -4 -28z"/>
<path d="M3672 2850 c0 -14 2 -19 5 -12 2 6 2 18 0 25 -3 6 -5 1 -5 -13z"/>
<path d="M7459 2828 c-4 -217 -27 -490 -75 -900 -37 -316 -53 -598 -37 -658 8
-28 11 -8 16 105 3 77 26 316 52 530 25 215 50 460 55 545 13 211 13 420 0
420 -5 0 -10 -19 -11 -42z"/>
<path d="M3792 2805 c0 -16 2 -22 5 -12 2 9 2 23 0 30 -3 6 -5 -1 -5 -18z"/>
<path d="M7754 2625 c-4 -9 -4 -19 0 -22 3 -4 6 2 7 13 0 15 2 14 10 -6 24
-59 32 -296 19 -547 -11 -233 -22 -681 -14 -583 2 25 12 135 21 245 23 263 25
797 2 864 -15 47 -35 63 -45 36z"/>
<path d="M2000 2562 c0 -67 31 -362 40 -388 5 -13 17 -24 26 -24 12 0 14 3 6
13 -5 6 -17 91 -26 187 -15 161 -30 250 -41 250 -3 0 -5 -17 -5 -38z"/>
<path d="M2521 2574 c0 -11 3 -14 6 -6 3 7 2 16 -1 19 -3 4 -6 -2 -5 -13z"/>
<path d="M7743 2550 c0 -25 2 -35 4 -22 2 12 2 32 0 45 -2 12 -4 2 -4 -23z"/>
<path d="M7629 2535 c0 -5 0 -118 1 -250 1 -140 -5 -321 -14 -435 -18 -234
-29 -446 -21 -438 13 13 58 481 70 743 6 130 -8 344 -24 372 -6 10 -11 14 -12
8z"/>
<path d="M7741 2484 c0 -11 3 -14 6 -6 3 7 2 16 -1 19 -3 4 -6 -2 -5 -13z"/>
<path d="M2113 2455 c4 -22 9 -76 12 -120 8 -104 14 -138 26 -150 14 -14 11
-25 -6 -25 -25 0 -17 -25 18 -55 17 -16 56 -50 85 -77 33 -29 63 -48 78 -48
22 0 24 4 24 43 0 51 -31 121 -58 136 -12 6 -43 11 -71 11 -59 0 -54 -10 -72
155 -14 137 -16 146 -30 159 -8 8 -10 0 -6 -29z m169 -322 c28 -32 49 -84 46
-110 l-3 -26 -50 43 c-27 24 -49 47 -47 52 1 4 -2 8 -6 8 -4 0 -23 11 -42 25
l-34 25 61 0 c45 0 64 -4 75 -17z"/>
<path d="M7925 2438 c-4 -29 -5 -78 -3 -108 4 -50 4 -48 6 20 1 41 6 81 11 88
16 26 24 -95 30 -483 6 -384 6 -387 13 -200 19 463 3 735 -42 735 -5 0 -11
-24 -15 -52z"/>
<path d="M2201 2422 c-1 -44 19 -173 30 -194 6 -10 14 -18 20 -18 6 0 6 6 0
18 -5 9 -14 51 -20 93 -7 42 -16 89 -21 105 l-8 29 -1 -33z"/>
<path d="M6660 2441 c0 -5 -3 -18 -6 -28 -4 -13 -3 -14 4 -5 21 29 28 -330 13
-633 -3 -71 -4 -164 -1 -205 l5 -75 10 120 c12 143 13 744 2 798 -4 20 -12 37
-17 37 -6 0 -10 -4 -10 -9z"/>
<path d="M6652 2360 c0 -19 2 -27 5 -17 2 9 2 25 0 35 -3 9 -5 1 -5 -18z"/>
<path d="M3682 2355 c0 -16 2 -22 5 -12 2 9 2 23 0 30 -3 6 -5 -1 -5 -18z"/>
<path d="M111 2334 c0 -16 4 -38 9 -49 6 -13 7 -5 3 25 -7 53 -13 66 -12 24z"/>
<path d="M2564 2113 c0 -131 -6 -318 -13 -416 -7 -98 -11 -180 -9 -183 19 -19
48 723 31 799 -5 24 -8 -49 -9 -200z"/>
<path d="M2932 2270 c0 -47 5 -200 12 -340 12 -226 13 -239 14 -115 0 77 -6
230 -13 340 -7 121 -12 166 -13 115z"/>
<path d="M3081 2308 c9 -46 11 -492 2 -470 -13 33 -20 -7 -14 -90 7 -123 7
-424 -1 -858 -3 -212 -3 -305 2 -230 14 218 31 710 30 855 -3 214 1 322 9 301
4 -10 6 21 4 70 -1 49 -5 161 -7 249 -3 88 -8 172 -12 188 -10 44 -22 31 -13
-15z m-4 -555 c-3 -10 -5 -2 -5 17 0 19 2 27 5 18 2 -10 2 -26 0 -35z"/>
<path d="M3014 2190 c0 -58 1 -81 3 -52 2 28 2 76 0 105 -2 28 -3 5 -3 -53z"/>
<path d="M123 2205 c0 -33 2 -45 4 -27 2 18 2 45 0 60 -2 15 -4 0 -4 -33z"/>
<path d="M1676 2213 c-4 -5 -26 -16 -49 -26 l-42 -18 35 6 c19 3 44 14 55 25
11 11 17 20 14 20 -3 0 -9 -3 -13 -7z"/>
<path d="M6570 2104 c0 -27 4 -43 10 -39 15 9 12 -386 -4 -615 -24 -326 -29
-425 -20 -417 12 12 51 400 64 647 14 262 -3 470 -40 470 -5 0 -10 -21 -10
-46z"/>
<path d="M126 1918 c-3 -101 -15 -343 -27 -538 -11 -195 -19 -393 -17 -440 3
-74 22 202 43 610 8 156 17 550 13 550 -3 0 -8 -82 -12 -182z"/>
<path d="M3064 1980 c0 -69 1 -97 3 -62 2 34 2 90 0 125 -2 34 -3 6 -3 -63z"/>
<path d="M3200 2047 c4 -41 5 -41 8 -8 2 18 0 37 -5 42 -5 5 -6 -11 -3 -34z"/>
<path d="M3283 2055 c0 -22 2 -30 4 -17 2 12 2 30 0 40 -3 9 -5 -1 -4 -23z"/>
<path d="M3004 1985 c0 -55 1 -76 3 -47 2 29 2 74 0 100 -2 26 -3 2 -3 -53z"/>
<path d="M2182 2012 c-3 -84 -29 -132 -72 -132 -15 0 -80 61 -80 75 0 16 22
25 60 25 31 0 57 -31 44 -53 -5 -9 -3 -8 7 1 12 11 11 17 -2 40 -14 25 -20 27
-72 26 -50 -1 -56 1 -59 20 -2 17 -10 21 -40 20 -74 -2 -147 -88 -103 -121 21
-15 122 -18 144 -4 11 7 25 1 49 -21 35 -30 67 -34 115 -13 16 7 17 -2 17
-111 0 -109 -12 -378 -24 -549 -4 -55 -4 -62 3 -30 27 124 41 652 21 825 l-7
65 -1 -63z m-180 -37 c2 -24 2 -49 0 -55 -7 -21 -122 -5 -130 18 -7 21 66 82
98 82 26 0 28 -3 32 -45z"/>
<path d="M6450 1918 c0 -160 -10 -333 -35 -578 -8 -80 -16 -206 -19 -280 l-5
-135 19 145 c47 357 77 775 65 917 -11 134 -25 96 -25 -69z"/>
<path d="M5876 2004 c-3 -9 -5 -39 -4 -67 l1 -52 6 60 6 60 8 -55 c21 -148 26
-303 27 -745 1 -264 3 -475 5 -470 2 6 9 170 14 365 13 421 -1 785 -35 903 -7
21 -20 22 -28 1z"/>
<path d="M6204 1996 c-3 -14 -4 -33 -1 -43 3 -10 6 -3 7 17 2 34 3 34 11 -10
13 -76 10 -440 -7 -757 -12 -214 -13 -316 -6 -350 10 -48 10 -48 11 32 1 44 8
177 17 295 20 272 23 703 5 783 -13 60 -27 73 -37 33z"/>
<path d="M2509 1960 c0 -30 0 -84 1 -120 0 -36 -8 -170 -20 -299 -11 -129 -20
-271 -19 -315 1 -67 6 -39 30 164 30 263 41 592 20 613 -8 8 -11 -4 -12 -43z"/>
<path d="M2302 1898 c4 -35 7 -224 6 -420 -1 -197 1 -360 4 -363 10 -10 29
224 35 432 5 186 4 215 -11 237 -9 14 -16 38 -16 54 0 47 -12 122 -20 122 -3
0 -3 -28 2 -62z"/>
<path d="M3191 1920 c-1 -19 -3 -123 -5 -230 -1 -107 -9 -325 -17 -485 l-14
-290 -5 240 c-4 160 -6 71 -6 -265 0 -278 3 -442 6 -365 4 109 6 127 11 80 4
-50 6 -42 7 45 1 58 8 242 16 410 20 407 27 795 17 850 -8 44 -9 44 -10 10z"/>
<path d="M4272 1880 c0 -14 2 -19 5 -12 2 6 2 18 0 25 -3 6 -5 1 -5 -13z"/>
<path d="M1820 1883 c0 -3 13 -29 28 -57 16 -28 27 -57 25 -63 -6 -18 -82 -16
-125 1 -40 17 -69 47 -52 53 6 2 20 10 30 18 18 14 18 14 -3 15 -24 0 -53 -24
-53 -44 0 -49 176 -102 208 -63 12 14 28 75 17 65 -10 -9 -28 10 -49 50 -16
30 -26 40 -26 25z"/>
<path d="M2921 1864 c0 -11 3 -14 6 -6 3 7 2 16 -1 19 -3 4 -6 -2 -5 -13z"/>
<path d="M1760 1860 c-8 -5 -10 -10 -5 -10 6 0 17 5 25 10 8 5 11 10 5 10 -5
0 -17 -5 -25 -10z"/>
<path d="M2993 1810 c0 -30 2 -43 4 -27 2 15 2 39 0 55 -2 15 -4 2 -4 -28z"/>
<path d="M1453 1805 c12 -40 -2 -329 -28 -603 -18 -194 -28 -416 -15 -352 8
40 21 178 50 540 11 137 14 408 5 433 -13 32 -23 17 -12 -18z"/>
<path d="M3367 1833 c-2 -4 -7 -114 -11 -243 -3 -129 -11 -386 -17 -570 -8
-237 -8 -361 -1 -425 l11 -90 -4 85 c-3 47 0 182 5 300 11 229 30 943 25 948
-2 2 -5 0 -8 -5z"/>
<path d="M1041 1804 c0 -11 3 -14 6 -6 3 7 2 16 -1 19 -3 4 -6 -2 -5 -13z"/>
<path d="M348 1590 c3 -118 6 -412 7 -652 0 -241 5 -441 9 -445 10 -10 -2
1056 -14 1207 -5 71 -6 35 -2 -110z"/>
<path d="M5706 1725 c4 -49 10 -382 13 -740 4 -357 8 -560 10 -450 10 697 2
1209 -20 1259 -6 14 -7 -9 -3 -69z"/>
<path d="M1191 1754 c-6 -21 -9 -40 -6 -42 2 -2 8 13 14 34 6 21 9 40 6 42 -2
2 -8 -13 -14 -34z"/>
<path d="M1057 1720 c3 -36 7 -67 9 -69 8 -8 2 84 -6 109 -6 16 -7 1 -3 -40z"/>
<path d="M1421 1764 c0 -11 3 -14 6 -6 3 7 2 16 -1 19 -3 4 -6 -2 -5 -13z"/>
<path d="M1656 1759 c-9 -13 -16 -28 -16 -34 1 -5 7 1 15 15 l13 25 8 -29 c7
-31 -1 -319 -16 -538 -12 -167 -12 -319 -1 -336 12 -19 36 438 36 685 0 223
-6 258 -39 212z"/>
<path d="M3885 1730 c-4 -16 -4 -42 -1 -58 4 -15 -1 -155 -9 -312 -26 -472
-28 -527 -19 -532 5 -3 10 40 11 96 1 55 9 191 17 301 23 297 30 535 18 535
-6 0 -13 -13 -17 -30z"/>
<path d="M1919 1738 c0 -2 -3 -32 -5 -68 -2 -36 -9 -87 -14 -115 -8 -48 -9
-47 -7 27 1 42 -1 80 -5 83 -3 3 -8 -70 -11 -162 -3 -92 -8 -184 -11 -203 -31
-192 -47 -316 -44 -352 3 -38 5 -33 20 47 l16 90 -3 -75 c-4 -75 -4 -75 5 -20
6 30 8 82 6 115 -4 43 -3 51 3 30 7 -24 9 -17 9 35 0 36 12 146 25 245 36 257
41 311 28 319 -6 4 -11 6 -12 4z"/>
<path d="M3123 1700 c0 -25 2 -35 4 -22 2 12 2 32 0 45 -2 12 -4 2 -4 -23z"/>
<path d="M1412 1710 c0 -14 2 -19 5 -12 2 6 2 18 0 25 -3 6 -5 1 -5 -13z"/>
<path d="M1576 1704 c-3 -9 -5 -194 -5 -412 2 -302 4 -372 10 -292 7 82 9 720
3 720 -1 0 -5 -7 -8 -16z"/>
<path d="M805 1315 c0 -220 3 -373 6 -340 9 78 8 499 0 635 -4 59 -6 -72 -6
-295z"/>
<path d="M983 1625 c0 -44 2 -61 4 -37 2 23 2 59 0 80 -2 20 -4 1 -4 -43z"/>
<path d="M1901 1684 c0 -11 3 -14 6 -6 3 7 2 16 -1 19 -3 4 -6 -2 -5 -13z"/>
<path d="M2983 1665 c0 -22 2 -30 4 -17 2 12 2 30 0 40 -3 9 -5 -1 -4 -23z"/>
<path d="M2106 1658 c7 -42 -10 -289 -37 -530 -14 -132 -17 -196 -10 -220 l9
-33 1 39 c1 21 10 106 21 190 34 258 50 529 34 570 -11 28 -23 17 -18 -16z"/>
<path d="M1621 1664 c0 -11 3 -14 6 -6 3 7 2 16 -1 19 -3 4 -6 -2 -5 -13z"/>
<path d="M442 1580 c-1 -47 5 -143 14 -215 9 -74 19 -264 23 -440 l7 -310 2
265 c1 187 -3 305 -14 400 -9 74 -19 191 -23 260 -7 117 -8 120 -9 40z"/>
<path d="M3645 1616 c-6 -36 -4 -50 6 -57 12 -7 14 -100 15 -536 0 -290 2
-550 4 -578 9 -113 15 641 8 897 -9 285 -19 368 -33 274z"/>
<path d="M1337 1595 c4 -33 8 -202 7 -375 0 -227 3 -293 9 -235 11 108 2 613
-12 645 -9 20 -9 12 -4 -35z"/>
<path d="M1075 1535 c13 -324 27 -601 32 -605 10 -9 -8 448 -22 585 l-14 130
4 -110z"/>
<path d="M3872 1610 c0 -14 2 -19 5 -12 2 6 2 18 0 25 -3 6 -5 1 -5 -13z"/>
<path d="M4780 1604 c-14 -14 -52 -44 -85 -66 -74 -50 -115 -88 -115 -105 0
-17 19 -17 26 1 3 8 23 26 45 40 33 22 40 24 45 11 3 -8 -3 -34 -14 -57 -12
-24 -26 -81 -32 -128 -32 -233 -30 -230 -225 -338 -278 -154 -313 -165 -343
-111 -31 58 -57 92 -71 97 -7 2 -4 -5 7 -16 12 -12 33 -43 46 -70 14 -27 34
-52 44 -54 21 -6 111 22 146 46 12 7 89 48 171 91 89 45 161 90 178 108 33 38
53 105 62 202 3 39 11 95 17 125 l12 55 9 -40 c5 -22 10 -282 11 -582 0 -298
4 -544 7 -548 14 -13 22 826 9 999 -6 94 -14 175 -17 179 -3 5 10 25 28 45
l34 37 -32 -29 -33 -30 0 27 c0 15 3 27 8 27 11 0 112 90 112 101 0 17 -25 8
-50 -17z"/>
<path d="M5056 1604 c-3 -16 -13 -166 -21 -334 -9 -168 -24 -422 -35 -565 -19
-243 -25 -424 -16 -414 15 15 70 775 82 1124 3 99 7 182 9 185 2 3 0 12 -5 19
-5 10 -10 5 -14 -15z"/>
<path d="M5203 1247 c-1 -210 -3 -411 -6 -447 -8 -116 -20 -615 -15 -610 3 3
8 104 12 225 4 121 11 276 16 345 23 300 24 870 2 870 -4 0 -8 -172 -9 -383z"/>
<path d="M3133 1525 c0 -38 2 -53 4 -32 2 20 2 52 0 70 -2 17 -4 1 -4 -38z"/>
<path d="M2973 1545 c0 -22 2 -30 4 -17 2 12 2 30 0 40 -3 9 -5 -1 -4 -23z"/>
<path d="M711 1494 c0 -11 3 -14 6 -6 3 7 2 16 -1 19 -3 4 -6 -2 -5 -13z"/>
<path d="M973 1450 c0 -30 2 -43 4 -27 2 15 2 39 0 55 -2 15 -4 2 -4 -28z"/>
<path d="M2536 1478 c-3 -13 -5 -41 -5 -63 1 -33 3 -29 9 20 8 63 7 81 -4 43z"/>
<path d="M6655 1345 c-3 -81 -5 -149 -2 -151 3 -3 8 61 12 141 4 80 5 148 3
151 -3 2 -9 -61 -13 -141z"/>
<path d="M6794 1375 c0 -60 1 -84 3 -52 2 32 2 81 0 110 -2 29 -3 3 -3 -58z"/>
<path d="M4626 1430 c-20 -22 -36 -43 -36 -47 0 -4 3 -3 8 3 4 5 23 26 41 47
19 20 32 37 29 37 -3 0 -22 -18 -42 -40z"/>
<path d="M595 1429 c-4 -6 -4 -13 -1 -16 3 -4 6 0 7 8 1 8 5 3 9 -11 11 -35
11 -253 0 -460 -15 -280 -20 -502 -11 -442 26 160 46 808 28 895 -8 37 -20 47
-32 26z"/>
<path d="M7593 1365 c0 -22 2 -30 4 -17 2 12 2 30 0 40 -3 9 -5 -1 -4 -23z"/>
<path d="M963 1320 c0 -25 2 -35 4 -22 2 12 2 32 0 45 -2 12 -4 2 -4 -23z"/>
<path d="M6933 1285 c0 -33 2 -45 4 -27 2 18 2 45 0 60 -2 15 -4 0 -4 -33z"/>
<path d="M2507 1185 c3 -60 9 -202 13 -315 8 -204 8 -204 4 55 -3 143 -9 285
-14 315 -6 40 -7 25 -3 -55z"/>
<path d="M4541 1254 c0 -11 3 -14 6 -6 3 7 2 16 -1 19 -3 4 -6 -2 -5 -13z"/>
<path d="M2400 1231 c13 -9 15 -52 15 -283 0 -246 1 -266 13 -208 6 36 12 139
12 230 1 173 -12 260 -40 267 -13 4 -13 3 0 -6z"/>
<path d="M953 1190 c0 -25 2 -35 4 -22 2 12 2 32 0 45 -2 12 -4 2 -4 -23z"/>
<path d="M2252 1135 c0 -44 6 -161 13 -260 l14 -180 -6 200 c-3 110 -8 227
-13 260 l-7 60 -1 -80z"/>
<path d="M2152 1115 c0 -16 2 -22 5 -12 2 9 2 23 0 30 -3 6 -5 -1 -5 -18z"/>
<path d="M942 1028 c-1 -36 -5 -75 -8 -85 -5 -17 -5 -17 6 -1 6 11 9 46 7 85
l-3 68 -2 -67z"/>
<path d="M7132 1065 c0 -16 2 -22 5 -12 2 9 2 23 0 30 -3 6 -5 -1 -5 -18z"/>
<path d="M912 990 c0 -19 2 -27 5 -17 2 9 2 25 0 35 -3 9 -5 1 -5 -18z"/>
<path d="M6392 895 c0 -16 2 -22 5 -12 2 9 2 23 0 30 -3 6 -5 -1 -5 -18z"/>
<path d="M796 888 c-11 -35 -13 -58 -6 -53 4 3 10 18 12 35 5 30 1 41 -6 18z"/>
<path d="M1336 878 c-9 -43 -13 -131 -6 -117 7 14 19 139 13 139 -1 0 -5 -10
-7 -22z"/>
<path d="M1162 850 c0 -19 2 -27 5 -17 2 9 2 25 0 35 -3 9 -5 1 -5 -18z"/>
<path d="M1562 810 c0 -14 2 -19 5 -12 2 6 2 18 0 25 -3 6 -5 1 -5 -13z"/>
<path d="M1221 804 c0 -11 3 -14 6 -6 3 7 2 16 -1 19 -3 4 -6 -2 -5 -13z"/>
<path d="M3482 780 c0 -19 2 -27 5 -17 2 9 2 25 0 35 -3 9 -5 1 -5 -18z"/>
<path d="M6212 780 c0 -14 2 -19 5 -12 2 6 2 18 0 25 -3 6 -5 1 -5 -13z"/>
<path d="M72 685 c0 -16 2 -22 5 -12 2 9 2 23 0 30 -3 6 -5 -1 -5 -18z"/>
<path d="M3492 685 c0 -16 2 -22 5 -12 2 9 2 23 0 30 -3 6 -5 -1 -5 -18z"/>
<path d="M473 535 c0 -38 2 -53 4 -32 2 20 2 52 0 70 -2 17 -4 1 -4 -38z"/>
<path d="M2532 560 c0 -19 2 -27 5 -17 2 9 2 25 0 35 -3 9 -5 1 -5 -18z"/>
<path d="M5283 525 c0 -22 2 -30 4 -17 2 12 2 30 0 40 -3 9 -5 -1 -4 -23z"/>
<path d="M3070 510 c6 -11 13 -20 16 -20 2 0 0 9 -6 20 -6 11 -13 20 -16 20
-2 0 0 -9 6 -20z"/>
<path d="M3172 480 c0 -14 2 -19 5 -12 2 6 2 18 0 25 -3 6 -5 1 -5 -13z"/>
<path d="M5552 400 c0 -19 2 -27 5 -17 2 9 2 25 0 35 -3 9 -5 1 -5 -18z"/>
<path d="M4863 300 c0 -36 2 -50 4 -32 2 17 2 47 0 65 -2 17 -4 3 -4 -33z"/>
<path d="M3152 305 c0 -16 2 -22 5 -12 2 9 2 23 0 30 -3 6 -5 -1 -5 -18z"/>
<path d="M4732 205 c0 -16 2 -22 5 -12 2 9 2 23 0 30 -3 6 -5 -1 -5 -18z"/>
</g>
</svg>
