<?xml version="1.0" standalone="no"?>
<!DOCTYPE svg PUBLIC "-//W3C//DTD SVG 20010904//EN"
 "http://www.w3.org/TR/2001/REC-SVG-20010904/DTD/svg10.dtd">
<svg version="1.0" xmlns="http://www.w3.org/2000/svg"
 width="1000.000000pt" height="759.000000pt" viewBox="0 0 1000.000000 759.000000"
 preserveAspectRatio="xMidYMid meet">

<g transform="translate(0.000000,759.000000) scale(0.100000,-0.100000)"
fill="#000000" stroke="none">
<path d="M5 4553 c4 -1671 6 -3379 6 -3795 -1 -752 -1 -758 19 -758 20 0 20 7
20 755 l0 755 38 0 c20 0 82 -7 136 -15 128 -19 311 -19 401 1 140 30 339 28
570 -6 33 -5 103 -14 155 -20 52 -5 139 -20 192 -31 78 -18 104 -20 130 -11
l33 11 -35 -5 c-20 -3 -67 2 -105 11 -65 15 -189 34 -475 71 -172 22 -334 20
-463 -5 -127 -25 -246 -27 -372 -6 -50 8 -116 15 -147 15 l-58 0 0 395 0 395
38 -19 c20 -10 84 -28 141 -40 167 -34 201 -68 201 -202 0 -90 18 -122 85
-154 72 -34 138 -40 237 -20 46 10 90 21 98 27 12 7 11 8 -5 4 -152 -40 -241
-42 -320 -7 -68 30 -79 50 -85 156 -8 141 -37 170 -204 205 -54 11 -118 29
-142 39 l-44 20 0 1069 0 1070 73 -72 c101 -101 168 -142 276 -170 116 -30
135 -43 156 -107 58 -174 129 -209 431 -209 174 0 264 -24 317 -84 103 -116
137 -137 227 -139 45 -1 73 6 143 37 l88 39 197 -22 c115 -13 247 -35 317 -53
239 -61 338 -76 393 -62 26 7 52 51 52 89 0 74 -109 194 -208 229 -48 17 -211
23 -344 11 -128 -10 -174 5 -205 68 -12 24 -35 50 -54 61 -28 16 -31 17 -21 3
8 -9 22 -19 31 -22 10 -3 27 -24 37 -47 32 -71 133 -95 285 -68 72 13 243 -1
290 -24 53 -25 118 -83 151 -135 36 -58 37 -103 2 -138 -24 -24 -30 -25 -98
-20 -40 4 -144 25 -231 47 -96 25 -223 49 -319 61 -297 36 -272 37 -362 -6
-64 -31 -90 -38 -139 -38 -83 1 -122 20 -186 92 -98 112 -143 126 -433 135
-160 5 -173 7 -225 33 -64 32 -104 83 -122 156 -15 64 -47 92 -128 112 -112
29 -127 35 -177 68 -75 48 -129 96 -186 164 l-28 33 0 385 0 385 77 39 c43 21
116 51 163 66 79 26 98 28 260 29 114 0 196 -4 235 -13 70 -15 170 -56 203
-81 25 -20 53 -16 135 19 51 22 61 17 151 -71 87 -85 106 -95 223 -108 108
-12 171 -27 245 -60 62 -27 76 -45 54 -68 -9 -10 -16 -22 -16 -27 0 -4 9 2 20
15 11 13 20 26 20 30 0 18 -31 41 -85 63 -84 35 -125 45 -238 57 -58 7 -110
18 -127 28 -34 21 -183 162 -178 168 15 14 173 44 265 50 135 8 291 -14 448
-64 71 -22 132 -35 171 -36 58 -1 66 2 130 46 80 54 100 63 181 78 52 9 71 7
154 -14 53 -13 158 -49 235 -80 76 -31 144 -56 151 -56 20 0 15 17 -8 33 -20
14 -18 16 28 30 97 32 170 46 263 53 87 6 112 3 292 -35 108 -22 227 -52 265
-66 81 -31 93 -30 258 28 l120 42 145 -1 c80 0 161 -3 181 -7 20 -4 69 -32
110 -63 92 -70 91 -68 49 -60 -21 4 -31 3 -25 -3 17 -15 125 -19 133 -5 4 6
54 27 112 46 l105 33 250 0 c211 0 259 -3 308 -18 43 -13 57 -22 53 -33 -4
-11 0 -13 17 -9 13 4 36 1 51 -5 32 -12 36 -10 40 16 2 12 24 28 62 44 53 22
72 25 174 24 161 -2 245 -18 369 -68 154 -63 206 -79 228 -68 10 5 61 23 113
41 52 18 147 51 210 74 109 39 121 42 220 41 133 -1 251 -29 379 -89 88 -42
93 -46 75 -60 -18 -14 -16 -14 16 -9 19 4 67 15 105 26 39 10 108 22 155 25
76 5 102 1 238 -32 134 -33 158 -41 190 -71 40 -37 55 -39 60 -6 5 32 151 82
240 82 147 0 452 -86 452 -127 0 -11 8 -13 33 -8 17 4 37 11 43 16 6 5 29 11
50 14 22 2 89 20 149 39 168 53 219 59 388 47 161 -12 230 -24 294 -52 l43
-18 0 -505 0 -505 -94 -44 c-140 -67 -198 -107 -277 -193 -33 -37 -97 -137
-112 -176 -13 -37 2 -16 38 50 20 37 53 86 72 109 60 75 182 158 316 217 l57
26 0 -1205 0 -1204 -52 26 c-29 15 -58 32 -63 40 -7 9 -21 11 -43 7 -37 -7
-42 -19 -9 -21 33 -3 117 -45 110 -56 -3 -5 -24 -7 -47 -4 -29 4 -36 3 -24 -4
10 -5 41 -8 69 -7 38 2 53 -1 57 -11 4 -12 -8 -13 -69 -6 -89 9 -314 9 -387 0
-52 -6 -53 -6 -43 14 14 26 23 31 101 58 51 17 60 18 41 5 -14 -9 -34 -25 -45
-35 -16 -14 -11 -13 19 4 22 12 51 30 64 40 24 16 27 16 70 -3 25 -11 49 -24
52 -30 4 -7 9 -7 13 1 4 6 -12 19 -39 32 -55 26 -59 33 -46 87 5 23 5 42 1 42
-5 0 -11 -18 -15 -41 -7 -43 -33 -78 -53 -71 -27 9 -144 -41 -180 -77 -35 -34
-37 -40 -40 -107 -4 -75 9 -102 38 -84 13 8 12 10 -2 10 -15 0 -18 10 -18 64
0 63 0 64 31 70 58 11 62 9 56 -30 -5 -29 -3 -35 9 -30 11 4 14 1 9 -13 -8
-26 13 -37 33 -17 12 12 13 16 3 16 -10 0 -12 10 -8 35 4 26 2 35 -8 35 -7 0
-16 -6 -18 -12 -3 -8 -6 -6 -6 4 -1 23 52 32 149 25 42 -3 81 -2 86 3 5 4 41
0 84 -11 41 -11 85 -18 98 -16 l22 4 0 -803 c0 -797 0 -804 20 -804 20 0 20 7
20 3795 l0 3795 -5000 0 -5001 0 6 -3037z m9832 -2819 c-3 -3 -12 -4 -19 -1
-8 3 -5 6 6 6 11 1 17 -2 13 -5z"/>
<path d="M4397 5060 c-83 -14 -119 -45 -177 -153 -68 -126 -83 -133 -335 -147
-238 -14 -318 -33 -401 -97 -70 -53 -87 -122 -59 -238 24 -101 22 -111 -41
-173 -63 -63 -87 -109 -78 -150 6 -24 82 -152 91 -152 6 0 -17 41 -48 87 -22
31 -29 53 -29 88 0 43 4 50 65 111 73 74 78 91 50 194 -29 107 -17 160 49 218
77 67 157 88 401 102 253 14 280 26 342 148 43 84 96 136 151 147 20 5 80 11
132 15 l95 7 -80 0 c-44 0 -102 -3 -128 -7z"/>
<path d="M1740 4946 c0 -3 38 -16 85 -31 109 -33 174 -61 205 -88 l24 -22 -16
25 c-16 26 -89 60 -194 90 -34 10 -71 21 -83 25 -12 3 -21 4 -21 1z"/>
<path d="M1935 4774 c-50 -19 -59 -27 -50 -53 11 -37 52 -69 110 -85 127 -38
105 -133 -43 -181 -29 -9 -52 -19 -49 -21 2 -2 31 5 65 17 68 23 122 73 122
113 0 32 -47 70 -103 84 -29 8 -54 23 -71 43 -37 44 -33 52 44 83 46 19 27 19
-25 0z"/>
<path d="M1605 4773 c37 -6 54 -19 67 -53 11 -29 50 -221 45 -226 -1 -2 -35
20 -74 49 -70 51 -97 88 -106 147 l-4 25 -2 -26 c-2 -45 27 -98 70 -127 22
-15 58 -42 80 -59 23 -18 44 -33 48 -33 17 0 -41 250 -66 285 -14 18 -26 24
-53 23 -34 -1 -34 -1 -5 -5z"/>
<path d="M1937 4363 c12 -11 50 -26 85 -32 75 -15 124 -36 134 -59 14 -34 21
-118 12 -151 -10 -33 -10 -34 -57 -28 -49 6 -179 53 -265 96 -5 2 -6 -1 -2 -7
13 -21 220 -95 271 -96 48 -1 50 0 61 34 8 23 9 55 3 95 -10 78 -33 98 -136
121 -43 9 -89 24 -103 32 l-25 14 22 -19z"/>
<path d="M7707 4359 c-38 -9 -128 -51 -154 -72 -68 -55 -143 -146 -143 -173 0
-14 22 11 34 39 16 37 36 59 98 110 66 54 146 87 225 93 59 5 74 3 113 -18 56
-30 113 -104 135 -174 16 -51 16 -56 -2 -91 -12 -25 -32 -45 -58 -58 -46 -23
-133 -25 -379 -9 l-148 10 -27 31 c-14 17 -34 42 -44 55 -18 23 -18 23 -3 -7
8 -16 28 -43 46 -60 30 -29 35 -30 158 -37 70 -4 170 -10 223 -14 113 -8 179
9 224 56 94 98 -60 333 -216 329 -24 -1 -61 -5 -82 -10z"/>
<path d="M955 4286 c-109 -25 -185 -69 -185 -105 0 -26 25 -83 33 -75 3 3 19
-3 36 -15 36 -26 119 -45 266 -62 225 -25 235 -25 318 15 74 36 76 36 163 30
81 -7 88 -6 76 9 -26 31 -195 106 -267 118 -39 6 -109 29 -159 51 -103 47
-182 57 -281 34z m268 -40 c44 -21 112 -44 151 -51 85 -16 156 -43 229 -86
l52 -30 -78 6 c-75 7 -80 6 -154 -30 -85 -41 -107 -42 -303 -16 -47 6 -112 14
-145 18 -56 6 -58 7 -25 14 35 6 35 6 -10 8 -64 2 -145 42 -154 75 -3 14 -1
34 6 45 29 48 179 93 288 87 49 -3 84 -12 143 -40z"/>
<path d="M3985 3510 c-12 -5 1 -6 36 -3 48 5 59 2 84 -19 25 -22 29 -33 29
-75 0 -57 -22 -99 -60 -113 -13 -5 -24 -12 -24 -15 0 -8 50 14 65 28 26 26 39
94 27 135 -18 60 -92 89 -157 62z"/>
<path d="M1250 3504 c-63 -12 -195 -50 -305 -89 -131 -46 -312 -87 -415 -92
-88 -5 -235 33 -351 92 -50 24 -88 41 -85 36 13 -21 185 -94 274 -117 112 -29
180 -28 332 4 52 11 131 24 175 28 62 6 72 9 46 13 -31 5 -22 10 90 48 68 23
162 49 208 59 111 22 158 12 302 -66 179 -97 225 -110 396 -110 152 0 165 -3
221 -51 28 -25 41 -29 93 -29 73 0 260 41 233 50 -31 11 93 29 135 19 48 -11
96 -64 116 -131 13 -45 14 -63 4 -119 -14 -78 -7 -129 22 -155 l21 -19 -21 35
c-23 39 -26 76 -10 149 22 103 -41 226 -127 250 -48 13 -204 -16 -204 -38 0
-12 -105 -31 -171 -31 -48 0 -62 4 -82 24 -50 50 -76 56 -230 56 -171 0 -190
5 -393 109 -140 72 -200 88 -274 75z"/>
<path d="M3950 3444 c-38 -10 -82 -12 -141 -8 -73 5 -93 3 -132 -14 -29 -13
-51 -31 -61 -51 -23 -44 -20 -49 7 -10 38 57 78 71 178 64 82 -5 174 6 209 26
20 11 6 10 -60 -7z"/>
<path d="M3568 3285 c-89 -66 -118 -109 -103 -155 10 -31 82 -97 170 -155 53
-34 87 -65 100 -88 10 -20 22 -34 27 -31 4 3 6 -1 3 -8 -11 -31 62 -77 153
-97 68 -14 184 -14 216 0 31 14 59 79 58 135 0 51 -19 88 -88 179 -73 96 -82
125 -54 167 l22 33 -26 -28 c-42 -45 -34 -71 59 -193 36 -47 68 -97 71 -112 3
-15 7 -32 9 -39 8 -24 -26 -112 -48 -128 -44 -31 -221 -15 -307 28 -40 19 -46
27 -53 65 -8 41 -13 46 -108 108 -164 106 -210 158 -190 215 12 36 19 42 103
102 58 41 87 67 76 67 -2 0 -42 -29 -90 -65z m190 -410 c-3 -3 -9 2 -12 12 -6
14 -5 15 5 6 7 -7 10 -15 7 -18z"/>
<path d="M7867 3052 c-21 -23 -21 -32 -1 -81 29 -74 107 -89 343 -66 97 9 212
14 280 11 l116 -5 -105 10 c-81 8 -148 6 -290 -6 -252 -22 -314 -8 -339 74
-10 35 -10 44 4 57 14 15 19 24 12 24 -2 0 -11 -8 -20 -18z"/>
<path d="M2700 2873 c0 -26 -7 -37 -37 -58 -47 -32 -96 -32 -212 -3 -105 26
-243 27 -441 4 -217 -26 -271 -49 -256 -111 7 -28 63 -71 117 -90 66 -24 70
-17 5 10 -64 26 -116 69 -116 95 0 44 55 63 251 86 201 23 337 22 436 -4 95
-25 162 -28 201 -8 49 25 78 71 61 97 -6 10 -9 5 -9 -18z"/>
<path d="M1975 2585 c57 -18 111 -29 103 -20 -6 7 -116 35 -133 34 -5 -1 8 -7
30 -14z"/>
<path d="M2245 2549 c-72 -5 -55 -5 61 -3 93 3 173 0 188 -6 30 -11 35 -44 9
-59 -10 -6 -13 -11 -6 -11 12 0 43 27 43 38 -1 16 -17 31 -43 41 -30 12 -86
12 -252 0z"/>
<path d="M8935 2410 c17 -5 66 -13 110 -19 113 -16 125 -26 125 -104 0 -94 14
-104 215 -161 72 -21 159 -52 195 -71 36 -18 83 -36 105 -40 22 -3 51 -8 65
-11 18 -3 21 -2 10 5 -8 4 -37 11 -64 15 -27 3 -73 20 -103 36 -29 17 -120 50
-202 74 -82 24 -163 53 -180 65 -29 21 -31 27 -31 84 0 34 -4 67 -8 74 -13 20
-73 41 -137 47 -33 4 -76 9 -95 11 -34 4 -34 4 -5 -5z"/>
<path d="M8600 2137 c-16 -17 -30 -36 -30 -42 0 -6 -29 -41 -65 -78 -69 -71
-74 -91 -25 -102 32 -7 41 -23 33 -57 -6 -22 -5 -22 16 5 24 29 57 35 75 13 6
-7 29 -16 51 -19 38 -6 39 -5 16 7 -24 13 -23 14 34 26 33 7 94 18 137 25 43
7 82 16 86 20 4 4 -4 4 -17 0 -14 -4 -21 -3 -18 2 7 10 -17 8 -143 -13 -106
-17 -120 -17 -120 0 0 7 -11 16 -25 18 -13 3 -22 2 -20 -3 3 -4 -4 -10 -15
-14 -11 -4 -18 -10 -15 -15 3 -4 -1 -13 -9 -19 -10 -9 -15 -8 -20 4 -3 9 -19
21 -36 26 -16 6 -30 17 -30 24 0 7 25 37 55 66 30 29 58 62 61 73 3 12 17 33
31 48 23 24 31 26 94 24 38 -2 75 -8 83 -15 7 -6 38 -14 67 -18 30 -3 73 -16
96 -29 23 -13 48 -24 57 -24 31 0 29 -24 -5 -52 -28 -23 -32 -31 -23 -46 17
-27 49 -26 111 6 64 32 97 30 137 -7 22 -20 76 -45 83 -37 2 2 -9 8 -25 14
-17 6 -42 21 -57 34 -42 37 -73 38 -137 6 -32 -15 -67 -28 -78 -28 -22 0 -41
31 -23 37 6 2 24 15 40 29 27 24 27 25 9 39 -11 8 -27 15 -35 15 -9 0 -34 12
-56 25 -22 14 -55 25 -73 25 -18 0 -49 7 -70 16 -20 9 -67 18 -104 19 -64 3
-69 2 -98 -28z m20 -217 c0 -13 -28 -25 -38 -16 -3 4 0 11 8 16 20 13 30 12
30 0z m157 -6 c-3 -3 -12 -4 -19 -1 -8 3 -5 6 6 6 11 1 17 -2 13 -5z m-54 -11
c-7 -2 -19 -2 -25 0 -7 3 -2 5 12 5 14 0 19 -2 13 -5z m-44 -7 c-11 -9 -69
-15 -64 -6 3 6 20 10 37 10 17 0 29 -2 27 -4z"/>
<path d="M1812 2135 c-41 -18 -46 -33 -34 -92 8 -35 7 -55 -1 -73 -29 -59
-170 -117 -264 -108 -27 3 -85 22 -134 46 -80 38 -203 72 -215 59 -3 -3 14 -8
38 -12 63 -9 104 -23 188 -63 122 -58 233 -51 348 22 55 34 67 65 53 130 -10
45 -10 52 8 69 10 11 38 21 64 24 54 6 196 -21 249 -48 21 -11 38 -17 38 -14
0 12 -83 45 -153 59 -93 19 -142 20 -185 1z"/>
<path d="M8620 2086 c0 -4 10 -11 23 -16 19 -9 16 -10 -15 -7 -21 2 -38 -1
-38 -5 0 -10 58 -10 141 -1 l64 8 -70 6 c-38 3 -78 9 -87 13 -10 5 -18 5 -18
2z"/>
<path d="M8795 2018 c-27 -5 -88 -15 -135 -23 -47 -7 -69 -13 -50 -13 19 0 96
10 170 23 74 12 119 23 100 23 -19 0 -57 -5 -85 -10z"/>
<path d="M9895 1971 c-3 -6 -38 -20 -76 -32 -63 -19 -72 -20 -87 -6 -36 33
-68 37 -127 17 -39 -13 -70 -18 -99 -14 -23 4 -68 1 -99 -6 -49 -10 -58 -15
-64 -38 -10 -40 -9 -170 2 -181 7 -7 9 18 7 71 -5 116 -2 124 59 138 28 7 71
10 94 6 28 -3 59 0 86 9 57 20 96 19 126 -5 32 -25 36 -25 114 0 64 21 88 35
77 45 -3 4 -9 2 -13 -4z"/>
<path d="M8850 1896 c-79 -24 -150 -52 -150 -60 0 -2 24 5 53 16 28 12 90 31
137 44 47 13 74 23 60 23 -14 0 -59 -10 -100 -23z"/>
<path d="M9091 1888 c0 -9 -9 -19 -18 -21 -17 -4 -17 -5 0 -6 44 -3 0 -44 -64
-59 -56 -14 -268 -91 -252 -91 6 -1 60 16 120 38 168 60 166 60 184 9 11 -29
22 -44 37 -46 65 -10 184 64 167 104 -4 10 -7 24 -6 30 2 14 -95 34 -131 27
-20 -4 -27 0 -31 14 -4 15 -5 15 -6 1z m69 -48 c0 -5 -2 -10 -4 -10 -3 0 -8 5
-11 10 -3 6 -1 10 4 10 6 0 11 -4 11 -10z m45 -10 c-3 -5 -10 -10 -16 -10 -5
0 -9 5 -9 10 0 6 7 10 16 10 8 0 12 -4 9 -10z m-70 -20 c3 -5 1 -10 -4 -10 -6
0 -11 5 -11 10 0 6 2 10 4 10 3 0 8 -4 11 -10z"/>
<path d="M9304 1833 c3 -38 10 -81 15 -98 8 -22 8 -16 3 25 -4 30 -7 74 -7 98
0 23 -4 42 -9 42 -5 0 -6 -30 -2 -67z"/>
<path d="M8855 1843 c-44 -14 -84 -29 -89 -33 -5 -5 36 5 90 22 55 16 101 32
103 34 10 10 -30 1 -104 -23z"/>
<path d="M9464 1861 c3 -4 -6 -6 -19 -3 -31 5 -33 -13 -3 -21 19 -5 78 16 78
28 0 3 -14 5 -31 5 -16 0 -28 -4 -25 -9z"/>
<path d="M8238 1841 c-21 -10 -51 -29 -66 -43 -31 -27 -107 -45 -118 -27 -4 7
-30 9 -78 4 -75 -7 -96 -20 -96 -61 0 -16 -13 -29 -47 -47 l-48 -25 -35 24
c-19 13 -41 24 -50 24 -23 1 31 29 56 30 12 0 27 -7 34 -15 7 -9 27 -15 49
-14 l36 1 -38 8 c-21 4 -43 12 -50 19 -6 6 -21 11 -33 11 -23 0 -87 -33 -112
-57 -7 -7 -29 -13 -48 -13 -27 0 -34 -4 -34 -20 0 -17 7 -20 40 -20 21 0 43
-6 47 -12 4 -7 24 -22 43 -32 l35 -19 -24 26 c-23 25 -23 26 -2 20 17 -4 24 0
28 15 5 20 7 20 32 8 29 -16 48 -10 89 27 l22 20 0 -44 c0 -24 3 -62 6 -84 3
-22 2 -35 -3 -29 -5 7 -82 18 -193 27 -199 16 -225 13 -250 -33 -9 -17 -19
-19 -104 -16 -52 2 -99 7 -105 10 -6 4 -11 3 -11 -3 0 -14 54 -23 103 -17 29
4 35 3 17 -3 -20 -7 -22 -10 -9 -15 9 -4 20 -6 25 -5 21 4 24 -2 9 -17 -11
-11 -15 -30 -13 -58 l3 -41 -43 -6 c-23 -3 -44 -8 -48 -11 -14 -15 10 -28 54
-29 l47 -1 -37 -10 c-21 -5 -40 -17 -43 -26 -2 -10 -25 -28 -49 -40 -24 -13
-54 -33 -66 -44 l-22 -21 27 -23 27 -23 -44 -11 c-68 -17 -70 -19 -66 -42 2
-19 9 -23 40 -23 20 0 40 -3 44 -7 4 -5 21 -8 38 -8 l30 0 -22 -20 c-12 -11
-26 -20 -31 -20 -5 0 -12 -4 -15 -8 -3 -5 5 -8 17 -8 18 1 23 -6 27 -41 4 -24
8 -44 11 -45 35 -22 47 -25 63 -16 12 7 72 8 167 3 156 -7 233 -1 226 18 -4
13 -11 13 -275 7 -87 -2 -156 0 -161 6 -5 5 -12 20 -16 33 -7 22 -5 23 21 18
16 -3 69 1 118 10 89 15 153 14 191 -2 18 -8 19 -7 6 8 -12 15 -10 17 20 17
50 0 80 -20 94 -63 15 -44 34 -69 46 -61 5 3 7 -1 4 -8 -3 -8 8 -19 27 -27 30
-14 31 -15 9 -22 -12 -5 -29 -22 -39 -38 -9 -17 -34 -38 -55 -47 -20 -9 -36
-19 -34 -21 11 -10 93 37 102 58 7 17 19 25 43 27 l32 3 0 -80 c0 -58 -4 -81
-12 -81 -9 0 -10 -3 -2 -8 6 -4 16 -16 23 -27 12 -20 12 -20 8 1 -2 11 1 21 7
22 69 9 217 32 237 37 21 5 27 2 32 -14 3 -12 2 -21 -1 -21 -11 0 -82 -65 -82
-74 0 -5 18 8 40 28 42 38 50 42 50 26 0 -20 -62 -69 -88 -69 -15 0 -53 -5
-84 -12 -51 -11 -60 -10 -76 5 -22 19 -52 12 -103 -26 -37 -28 -103 -28 -206
0 -40 11 -73 18 -73 16 0 -12 67 -34 136 -45 62 -9 89 -9 114 0 33 11 55 7 34
-7 -8 -5 -8 -28 2 -82 7 -41 13 -91 14 -111 0 -50 11 -100 20 -94 8 5 4 75
-11 179 -10 73 -8 86 14 68 16 -14 167 -68 267 -96 l75 -22 -3 -35 -3 -36 148
-7 c168 -8 203 -1 203 42 0 21 2 22 15 12 8 -7 15 -27 15 -44 0 -67 13 -135
27 -140 10 -4 13 2 10 27 -2 18 -7 38 -11 45 -4 6 -6 32 -5 57 3 42 -1 49 -47
96 -27 27 -72 66 -101 85 -28 19 -72 58 -97 88 -46 53 -46 53 -89 45 -23 -4
-45 -8 -49 -9 -10 0 -10 74 -1 84 4 4 13 -8 19 -26 l12 -33 1 35 c1 19 3 69 5
110 2 43 0 67 -5 55 -4 -11 -8 -44 -8 -72 -1 -41 -5 -53 -17 -53 -16 0 -16 0
2 155 3 28 2 34 -5 20 -10 -23 -25 -184 -22 -235 2 -35 1 -36 -34 -37 -35 -1
-35 0 -19 19 10 10 24 16 31 14 10 -4 12 2 7 27 -3 18 -10 70 -14 117 -7 83
-7 84 -9 23 -1 -80 -16 -83 -16 -4 0 33 -5 65 -11 71 -8 8 -9 -2 -4 -35 11
-71 3 -94 -34 -100 -174 -29 -185 -29 -179 -7 4 16 -5 61 -22 117 -6 20 -2 21
96 23 145 4 138 12 -9 11 l-121 0 -35 32 c-20 18 -36 39 -36 48 0 14 -2 14
-10 1 -9 -15 -10 -14 -24 33 -4 15 75 17 86 2 5 -6 8 -5 8 4 0 7 6 11 14 8 15
-6 26 20 26 66 0 15 5 27 10 27 6 0 10 16 10 35 0 30 -3 35 -24 35 -23 0 -23
-2 -14 -42 10 -48 2 -120 -12 -98 -4 7 -4 27 1 44 11 38 11 38 0 32 -4 -3 -11
-18 -14 -34 -5 -26 -10 -29 -49 -30 l-44 -2 -2 51 c-2 42 2 54 20 68 l21 18
-22 22 -22 22 23 22 c23 22 28 22 153 14 188 -12 313 -13 370 -3 49 8 51 7 63
-19 13 -28 39 -29 34 -1 -2 9 4 16 14 16 13 0 15 -7 11 -37 -5 -43 10 -128 28
-158 7 -11 15 -65 17 -120 3 -55 3 -90 0 -77 -3 19 -6 21 -18 11 -17 -14 -18
-39 -1 -39 8 0 7 -3 -3 -9 -8 -6 -18 -7 -24 -4 -5 4 -7 0 -4 -8 3 -8 0 -23 -8
-34 -8 -10 -14 -24 -14 -29 1 -6 8 2 16 17 9 17 21 26 29 23 7 -2 19 2 25 9
14 16 67 45 84 45 6 0 -4 -14 -21 -31 -38 -34 -39 -39 -16 -39 9 0 13 3 10 7
-11 10 44 62 59 56 10 -4 4 -16 -21 -46 -38 -44 -41 -52 -23 -63 6 -4 8 -3 5
3 -8 12 18 49 77 111 22 23 35 42 29 42 -7 0 -19 -9 -27 -21 -8 -12 -19 -18
-26 -14 -8 5 -7 11 2 22 12 15 11 15 -11 2 -18 -11 -25 -11 -28 -1 -3 6 -9 10
-14 6 -5 -3 -9 5 -9 18 -1 106 -23 238 -40 238 -13 0 -51 38 -48 48 0 4 -1 14
-5 22 -3 8 -8 27 -11 41 -4 19 -19 34 -48 49 l-43 21 35 -6 c48 -9 139 -51
170 -78 l25 -22 -24 27 c-32 37 -91 63 -208 92 -143 37 -153 38 -98 16 36 -14
41 -18 18 -14 -17 3 -34 0 -38 -5 -3 -6 -23 -11 -43 -11 -33 1 -35 2 -19 14 9
7 17 22 17 32 0 10 13 42 28 69 l27 50 119 5 c100 5 120 9 132 24 12 18 24 19
150 12 139 -7 188 -17 146 -30 -23 -8 -28 -31 -13 -55 7 -11 14 -8 35 15 14
16 23 35 21 43 -4 10 3 12 32 6 37 -7 84 -12 168 -16 27 -2 16 -5 -35 -10 -48
-4 -18 -5 85 -3 142 3 157 2 129 -10 -18 -8 -35 -19 -38 -24 -4 -6 41 12 98
41 58 28 104 53 102 55 -2 2 -17 -3 -33 -11 -56 -28 -194 -41 -300 -28 -54 6
-125 14 -158 17 -33 2 -100 9 -150 14 -49 5 -125 10 -167 10 -43 0 -78 3 -78
8 0 10 83 136 107 161 32 35 141 46 302 32 114 -11 278 -8 334 5 4 1 12 2 19
3 6 0 9 4 6 7 -3 3 -51 0 -107 -6 -56 -6 -107 -8 -114 -3 -8 5 -2 10 18 14
l30 7 -25 8 -25 8 30 8 c17 4 5 4 -25 0 -30 -3 -71 -7 -90 -8 -55 -2 -62 -3
-56 -13 3 -4 31 -4 62 1 31 5 62 7 68 4 6 -2 1 -5 -11 -5 -15 -1 -21 -6 -17
-16 5 -12 -4 -13 -63 -7 -115 12 -323 6 -323 -9 0 -4 -9 -9 -20 -12 -11 -3
-19 -10 -18 -15 4 -13 -20 -50 -54 -83 -28 -27 -131 -60 -228 -74 -41 -6 -46
-10 -48 -33 -1 -15 -12 -46 -25 -69 l-22 -43 -106 0 -106 0 -6 68 c-4 37 -7
89 -7 116 l0 49 73 -7 c39 -4 78 -7 85 -8 6 -1 12 -5 12 -10 0 -12 128 -10
173 3 22 6 37 12 35 13 -1 2 -41 -1 -88 -6 -122 -13 -130 -8 -130 87 0 85 -14
76 123 79 57 1 80 5 87 16 8 13 -2 16 -63 21 -40 3 -85 2 -102 -3 -37 -10 -37
-10 -31 1 3 5 23 12 43 16 21 4 44 11 51 17 6 6 12 8 12 5 0 -3 26 10 57 29
31 19 63 34 70 34 7 0 13 5 13 10 0 15 -30 11 -72 -9z m-198 -100 c0 -20 -39
-31 -112 -31 -58 0 -44 34 17 43 73 10 95 8 95 -12z m-2 -115 l3 -69 -32 7
c-17 3 -49 6 -70 6 l-39 0 -1 43 c0 32 -2 37 -9 22 -8 -18 -9 -17 -9 6 -1 36
15 47 74 52 83 6 80 9 83 -67z m-504 -92 c12 -5 7 -11 -21 -25 -63 -32 -101
-21 -45 13 29 19 42 21 66 12z m223 -15 c94 -1 105 -3 88 -15 -10 -8 -22 -14
-27 -14 -8 0 -3 -36 17 -117 10 -42 10 -51 0 -47 -7 3 -15 14 -18 25 -3 13
-13 20 -24 18 -10 -1 -25 1 -34 5 -9 4 -54 -2 -100 -13 -113 -26 -139 -30
-145 -20 -3 5 -14 9 -24 9 -12 0 -26 15 -39 43 -26 54 -26 64 -1 77 11 6 20 9
20 6 0 -2 17 4 38 14 44 22 57 14 42 -25 -10 -25 -8 -31 16 -52 15 -13 36 -23
47 -23 25 0 77 38 77 56 0 13 -6 12 -34 -5 -36 -23 -56 -27 -56 -11 0 6 11 10
24 10 42 0 38 16 -9 41 -25 13 -45 27 -45 31 0 8 49 16 67 12 7 -2 61 -4 120
-5z m650 -42 c-12 -26 -14 -27 -107 -26 l-95 1 66 14 c36 8 84 20 105 28 21 7
40 13 41 12 2 -2 -3 -14 -10 -29z m-527 4 c0 -15 -16 -22 -35 -15 -13 5 -14 8
-3 15 18 12 38 11 38 0z m-431 -109 c28 -9 6 -22 -39 -22 -45 0 -50 2 -56 26
-8 33 10 72 38 83 21 7 24 4 34 -38 7 -25 17 -47 23 -49z m171 94 c0 -3 -4 -8
-10 -11 -5 -3 -10 -1 -10 4 0 6 5 11 10 11 6 0 10 -2 10 -4z m260 -183 c0 -10
5 -25 10 -33 7 -11 8 -6 4 18 l-6 32 106 0 c99 0 106 -1 97 -17 -11 -22 -125
-68 -141 -58 -6 4 -17 2 -24 -4 -8 -7 -38 -8 -80 -4 l-67 6 37 38 c41 42 64
50 64 22z m-490 -143 c19 -19 19 -20 1 -20 -10 0 -21 9 -24 20 -3 11 -3 20 -1
20 2 0 13 -9 24 -20z m280 -121 c0 -28 4 -38 12 -33 7 5 8 3 3 -6 -6 -10 -11
-9 -22 5 -15 22 -18 75 -3 75 6 0 10 -18 10 -41z m-25 -19 c3 -5 -1 -10 -9
-10 -9 0 -16 5 -16 10 0 6 4 10 9 10 6 0 13 -4 16 -10z m223 -507 c25 -15 36
-16 64 -6 18 6 73 14 122 18 69 6 90 4 97 -6 6 -10 9 -11 9 -1 0 7 13 12 32
12 24 0 41 -10 77 -47 25 -27 48 -48 52 -48 10 0 109 -95 109 -104 0 -5 -46
-12 -102 -16 -113 -8 -81 -15 -383 82 -82 26 -156 47 -162 47 -7 -1 -13 4 -13
12 0 8 4 14 10 14 5 0 7 7 4 15 -8 19 13 45 36 45 10 0 32 -8 48 -17z"/>
<path d="M8000 1650 c-8 -5 -11 -12 -8 -16 10 -9 38 3 38 16 0 12 -10 13 -30
0z"/>
<path d="M7915 1641 c-3 -6 3 -15 14 -20 16 -9 18 -8 14 9 -6 21 -18 26 -28
11z"/>
<path d="M7490 1470 c0 -5 5 -10 11 -10 5 0 7 5 4 10 -3 6 -8 10 -11 10 -2 0
-4 -4 -4 -10z"/>
<path d="M7735 1465 c-39 -14 -40 -14 -5 -8 41 7 82 22 60 22 -8 0 -33 -7 -55
-14z"/>
<path d="M8320 400 c0 -5 5 -10 11 -10 5 0 7 5 4 10 -3 6 -8 10 -11 10 -2 0
-4 -4 -4 -10z"/>
<path d="M9604 1835 c-9 -37 0 -40 13 -5 6 17 7 30 2 30 -5 0 -11 -11 -15 -25z"/>
<path d="M8891 1820 c-30 -11 -56 -22 -59 -25 -9 -9 19 -5 38 5 10 6 43 17 72
24 30 9 42 15 28 15 -14 0 -49 -8 -79 -19z"/>
<path d="M9433 1818 c2 -7 16 -12 31 -10 25 3 26 1 16 -18 -18 -34 -7 -32 13
2 l18 31 -36 -6 c-21 -3 -33 -2 -30 4 4 5 1 9 -5 9 -7 0 -10 -6 -7 -12z"/>
<path d="M8380 1803 c0 -7 -6 -13 -14 -13 -8 0 -18 -5 -22 -12 -5 -8 -2 -9 10
-5 13 5 17 3 13 -7 -3 -8 -9 -46 -13 -84 -5 -60 -11 -75 -35 -98 -16 -15 -29
-32 -29 -38 0 -5 13 2 28 17 16 15 31 24 35 20 4 -3 7 1 7 10 0 31 44 87 75
96 26 8 27 9 7 10 -14 1 -36 -12 -54 -29 l-30 -30 7 42 c16 104 18 110 41 120
18 8 26 7 39 -6 10 -9 25 -14 35 -11 15 5 177 -30 188 -40 2 -2 -43 -14 -100
-26 -57 -13 -96 -25 -88 -26 24 -4 192 41 192 52 1 12 -106 43 -174 52 -27 3
-48 9 -48 14 0 5 -16 8 -35 7 -22 -1 -35 -6 -35 -15z"/>
<path d="M7052 1675 c-6 -14 -16 -25 -22 -25 -18 0 -40 -27 -40 -49 0 -36 37
-25 66 19 28 43 66 60 93 43 12 -8 26 -6 52 7 22 12 40 15 49 10 8 -5 12 -10
10 -12 -19 -14 -120 -51 -140 -52 -44 -3 -64 -15 -93 -56 -16 -22 -32 -40 -37
-40 -5 0 -30 18 -55 40 -51 44 -71 48 -135 25 -56 -20 -65 -19 -89 6 -18 19
-39 27 -132 46 -17 3 -32 -1 -42 -12 -17 -17 -45 -14 -134 11 -17 5 -23 2 -23
-9 0 -10 -6 -13 -21 -10 -18 5 -21 2 -19 -28 2 -19 -3 -55 -11 -81 -11 -41
-17 -48 -39 -48 -28 0 -128 -28 -201 -56 -44 -17 -48 -17 -63 -1 -16 16 -20
14 -68 -26 -27 -23 -66 -57 -86 -76 -37 -34 -37 -34 10 3 25 20 51 36 56 36 5
0 22 16 37 36 26 34 28 35 47 17 19 -17 22 -17 81 6 101 38 190 58 195 43 2
-6 14 -12 27 -12 16 0 34 15 59 49 20 27 36 53 36 59 0 14 49 52 66 52 20 0
17 -11 -14 -46 -15 -18 -34 -42 -42 -54 -8 -12 -23 -33 -32 -45 -19 -25 -23
-40 -9 -31 12 8 19 -13 13 -36 -5 -20 -27 -24 -156 -33 -98 -6 -126 -20 -126
-62 0 -17 -7 -27 -20 -30 -19 -5 -19 -6 -3 -18 15 -11 10 -15 -40 -29 -31 -9
-59 -21 -62 -26 -9 -14 16 -12 64 5 26 9 41 10 41 4 0 -7 19 -9 53 -5 l52 7
-30 -17 c-19 -12 -63 -20 -125 -24 -85 -5 -90 -6 -53 -14 23 -4 60 -6 82 -5
22 2 43 0 47 -4 4 -4 51 -7 104 -7 90 0 98 2 120 25 18 19 21 28 12 37 -14 14
-95 26 -181 27 l-63 1 7 38 c11 62 26 70 160 80 120 10 157 8 96 -4 -25 -5
-29 -9 -20 -20 8 -10 8 -14 0 -14 -6 0 -11 -7 -11 -15 0 -18 19 -20 25 -2 3 6
16 13 29 13 14 1 39 9 57 18 27 14 34 14 41 3 4 -8 21 -14 38 -15 23 0 30 4
30 17 0 29 -21 40 -93 47 -37 4 -67 10 -67 14 0 10 156 3 177 -9 22 -11 243
-3 243 10 0 13 -142 15 -175 2 -25 -9 -37 -9 -63 4 -38 18 -33 33 11 34 18 0
41 5 52 10 16 7 12 8 -14 4 -18 -3 -46 -5 -62 -5 -15 0 -34 -7 -43 -15 -9 -9
-34 -16 -60 -17 -78 -1 -84 16 -29 88 91 120 130 158 151 148 9 -4 32 -9 50
-12 18 -2 34 -8 37 -12 3 -5 -8 -29 -25 -53 -16 -25 -30 -49 -30 -53 0 -5 10
7 22 26 30 47 46 62 57 55 6 -3 4 -20 -5 -43 -13 -33 -13 -35 1 -18 8 11 15
25 15 31 0 5 24 16 53 24 101 26 108 25 157 -18 25 -23 52 -41 60 -41 9 0 33
20 53 45 31 36 44 45 70 45 18 0 46 8 62 18 36 22 129 46 149 39 8 -3 17 -21
21 -39 8 -37 31 -68 51 -68 8 0 3 10 -11 25 -14 13 -25 32 -25 42 0 35 -29 61
-81 73 -44 11 -54 10 -84 -6 -27 -14 -36 -15 -49 -5 -11 9 -20 10 -35 2 -27
-15 -34 -14 -27 4 10 26 -20 17 -32 -10z m-31 -78 c-16 -16 -20 -5 -8 23 9 22
11 23 14 6 3 -10 0 -23 -6 -29z m-563 16 l33 -6 -31 -15 c-19 -9 -39 -31 -51
-56 -23 -50 -71 -104 -77 -87 -2 6 3 33 11 59 9 26 13 59 10 75 -6 30 7 36 27
12 18 -22 33 -19 20 4 -14 28 -13 34 8 26 9 -4 32 -9 50 -12z m-133 -435 c30
-13 31 -19 7 -34 -22 -14 -122 -6 -119 10 2 13 44 34 69 35 9 1 29 -4 43 -11z"/>
<path d="M8114 1655 c-9 -22 6 -47 29 -51 11 -1 14 2 10 9 -4 7 -8 18 -10 26
-3 25 -22 36 -29 16z"/>
<path d="M8272 1661 c-6 -4 -9 -17 -5 -29 4 -18 8 -20 19 -11 25 21 13 57 -14
40z"/>
<path d="M9137 1643 c-19 -34 -16 -189 4 -177 5 3 9 -2 9 -10 0 -25 15 -26 16
0 1 13 -3 22 -10 21 -7 -1 -11 25 -11 86 0 88 0 93 -8 80z"/>
<path d="M9600 1591 c-15 -29 -12 -78 5 -85 22 -8 30 20 15 49 -7 13 -10 31
-7 39 9 22 0 20 -13 -3z"/>
<path d="M6602 1578 c-19 -20 -22 -20 -22 -5 0 10 -5 15 -10 12 -18 -11 -90
-106 -90 -118 0 -7 6 -3 12 8 14 27 70 85 80 85 5 0 -3 -20 -17 -43 -14 -24
-25 -48 -25 -53 0 -5 12 11 27 36 15 25 29 47 32 50 13 11 44 50 40 50 -3 0
-15 -10 -27 -22z"/>
<path d="M9813 1593 c-12 -2 -27 -11 -34 -19 -7 -8 -8 -14 -3 -13 25 4 42 -3
47 -21 3 -11 13 -20 22 -20 9 0 19 9 22 20 3 11 9 20 14 20 18 0 8 17 -16 28
-14 7 -27 11 -28 11 -1 -1 -12 -4 -24 -6z"/>
<path d="M6756 1525 c-3 -9 -5 -29 -5 -43 1 -20 3 -17 9 13 8 43 7 57 -4 30z"/>
<path d="M6920 1499 c0 -5 5 -7 10 -4 6 3 10 8 10 11 0 2 -4 4 -10 4 -5 0 -10
-5 -10 -11z"/>
<path d="M9476 1500 c14 -13 162 -56 236 -69 44 -8 74 -8 92 -1 30 11 35 20 7
13 -20 -5 -195 26 -290 52 -30 7 -50 10 -45 5z"/>
<path d="M7000 1488 c-59 -13 -65 -20 -46 -55 15 -30 15 -30 -10 -25 -13 2
-24 0 -24 -6 0 -5 17 -13 38 -17 l37 -7 -38 -13 c-32 -11 -66 -33 -87 -55 -3
-3 -20 -16 -38 -29 -18 -12 -30 -26 -27 -31 3 -5 0 -12 -6 -16 -8 -4 -9 -3 -5
4 10 16 -7 15 -23 0 -11 -11 -13 -10 -8 4 4 12 -12 3 -45 -22 -28 -23 -52 -39
-54 -37 -2 2 15 24 38 49 41 42 145 111 184 121 18 4 18 5 1 6 -30 2 -200
-103 -214 -131 -4 -10 -41 -51 -82 -93 -40 -41 -69 -75 -63 -75 6 0 14 5 17
10 4 6 11 7 17 4 7 -5 9 -1 5 9 -4 10 -2 14 6 12 7 -3 26 0 42 5 29 10 29 10
3 6 -36 -4 -30 4 43 60 42 32 63 43 68 35 6 -9 11 -8 20 3 9 11 9 15 -1 19 -7
2 -1 4 14 3 25 -1 42 -16 19 -16 -5 0 -14 -13 -21 -29 -6 -16 -20 -38 -29 -48
-23 -25 -44 -63 -38 -70 3 -2 8 5 12 16 3 11 32 43 63 71 31 27 52 50 47 50
-5 0 -17 -8 -28 -17 -32 -29 -15 2 30 55 44 51 128 111 160 116 20 3 20 5 9
58 -9 40 7 68 38 68 8 0 18 5 21 10 3 6 5 10 3 9 -2 -1 -23 -6 -48 -11z m-26
-33 c-4 -8 -8 -15 -10 -15 -2 0 -4 7 -4 15 0 8 4 15 10 15 5 0 7 -7 4 -15z
m-314 -279 c0 -3 -4 -8 -10 -11 -5 -3 -10 -1 -10 4 0 6 5 11 10 11 6 0 10 -2
10 -4z"/>
<path d="M9460 1482 c0 -6 5 -14 12 -18 18 -12 88 -22 82 -13 -3 5 -17 9 -31
9 -15 0 -35 7 -45 17 -10 9 -18 11 -18 5z"/>
<path d="M6885 1455 c-7 -10 -37 -16 -104 -19 -90 -5 -136 -15 -75 -17 25 0
26 -2 9 -9 -31 -13 -5 -12 82 5 96 18 93 18 93 0 0 -8 5 -15 10 -15 6 0 10 9
10 19 0 11 6 22 13 24 7 4 6 6 -5 6 -9 1 -18 6 -20 11 -2 6 -8 3 -13 -5z
m-108 -31 c-3 -3 -12 -4 -19 -1 -8 3 -5 6 6 6 11 1 17 -2 13 -5z"/>
<path d="M3980 1446 c-58 -12 -60 -15 -68 -78 -3 -25 -8 -35 -17 -32 -18 7
-68 -20 -115 -62 -36 -33 -39 -34 -45 -14 -9 27 -39 26 -53 -2 -8 -18 -11 -19
-11 -5 -1 28 -28 19 -40 -13 -5 -17 -6 -28 -1 -25 5 3 14 -3 19 -12 10 -17 12
-17 30 5 11 12 22 28 25 35 3 8 8 7 16 -5 15 -24 23 -23 61 9 30 26 31 26 25
5 -3 -12 -8 -30 -11 -39 -7 -27 6 -40 48 -48 35 -7 38 -5 50 24 7 17 16 28 20
25 4 -4 12 -2 20 4 7 6 31 8 56 5 32 -4 45 -11 51 -29 5 -12 16 -26 25 -31 9
-5 19 -33 25 -69 16 -98 17 -98 -30 -74 -50 25 -81 25 -114 -1 -29 -23 -34
-47 -12 -55 12 -5 13 -11 5 -32 -6 -15 -8 -43 -5 -63 4 -23 1 -42 -9 -55 -8
-10 -14 -26 -15 -34 0 -8 9 0 20 18 11 17 24 32 30 32 5 0 19 18 30 39 l20 40
40 -16 c37 -15 41 -15 60 2 11 10 20 13 20 8 0 -22 29 -21 55 1 l27 24 -27 81
c-23 70 -27 102 -30 219 -2 75 -4 140 -4 143 -2 12 -60 31 -71 24 -7 -4 -18 2
-26 14 -19 27 -52 27 -62 1 -7 -19 -8 -19 -19 -1 -15 23 -5 28 73 37 45 6 54
4 54 -9 0 -27 30 -47 70 -47 27 0 45 -7 59 -21 l19 -21 57 26 c34 15 75 26
101 26 67 0 180 -27 221 -53 48 -30 103 -59 103 -53 0 2 -31 22 -69 45 -121
72 -263 90 -357 45 l-56 -26 -14 21 c-12 16 -26 21 -59 21 -39 0 -46 4 -60 30
-18 34 -38 36 -135 16z m70 -142 c0 -8 -6 -14 -14 -14 -9 0 -12 7 -9 20 6 22
23 18 23 -6z m-67 -394 c-3 -11 -10 -23 -16 -27 -7 -4 -8 0 -4 11 4 10 7 22 7
27 0 5 4 9 9 9 5 0 7 -9 4 -20z"/>
<path d="M3090 1427 c-131 -19 -157 -19 -280 -9 -173 16 -208 15 -330 -3 -72
-11 -119 -24 -163 -47 -54 -27 -72 -31 -134 -30 -40 0 -100 8 -133 16 -34 9
-83 16 -108 16 -26 0 -72 7 -102 15 -70 19 -150 19 -220 0 -30 -8 -95 -22
-145 -30 -140 -25 -295 -58 -291 -63 3 -2 49 5 103 16 54 12 127 26 163 32 36
6 107 20 158 32 99 22 159 21 275 -5 l58 -13 -63 -13 c-35 -8 -98 -24 -140
-36 -49 -14 -78 -19 -78 -12 0 6 -6 2 -14 -8 -8 -11 -29 -25 -47 -32 -28 -11
-29 -12 -6 -8 15 3 27 3 27 0 0 -2 -16 -21 -35 -41 -23 -23 -41 -34 -51 -30
-10 4 -37 -6 -64 -23 -26 -16 -61 -32 -76 -34 -16 -2 -1 -2 32 0 50 4 63 1 68
-12 3 -9 2 -14 -4 -10 -9 6 -140 -51 -140 -61 0 -5 39 10 86 35 46 24 73 19
75 -13 1 -19 2 -19 6 -1 3 10 13 30 22 44 9 15 11 22 4 18 -7 -5 -13 -4 -13 2
0 6 -3 10 -7 10 -5 -1 -21 -1 -38 0 l-30 1 34 21 c35 21 52 19 32 -5 -10 -12
-9 -14 6 -11 10 2 21 4 26 4 4 1 6 4 5 9 -6 16 97 122 128 132 18 6 93 26 167
44 130 32 137 33 194 20 83 -20 258 -31 249 -16 -5 9 13 12 67 12 103 0 172
-15 212 -46 19 -15 35 -22 35 -18 0 18 -68 54 -119 64 -30 5 -83 10 -120 10
l-66 1 37 19 c40 21 206 50 290 50 29 0 111 -5 181 -12 118 -11 142 -10 309
12 181 24 182 24 319 6 101 -13 167 -15 247 -10 124 8 162 2 162 -24 -1 -24
-22 -50 -51 -61 -18 -7 -20 -10 -6 -10 22 -1 67 46 67 70 0 34 -36 42 -164 35
-86 -5 -155 -2 -236 9 -143 19 -188 18 -370 -8z m-1566 -332 c-4 -8 -8 -15
-10 -15 -2 0 -4 7 -4 15 0 8 4 15 10 15 5 0 7 -7 4 -15z"/>
<path d="M7122 1438 c-16 -16 -16 -78 1 -78 6 0 22 11 35 25 22 23 22 25 5 44
-20 24 -25 25 -41 9z m18 -58 c0 -5 -2 -10 -4 -10 -3 0 -8 5 -11 10 -3 6 -1
10 4 10 6 0 11 -4 11 -10z"/>
<path d="M9280 1414 c-78 -51 -130 -94 -130 -107 0 -6 17 5 38 25 20 20 66 54
102 77 36 22 60 41 55 41 -6 0 -35 -16 -65 -36z"/>
<path d="M8484 1406 c-18 -46 44 -107 66 -65 13 23 9 31 -30 59 -26 18 -31 19
-36 6z"/>
<path d="M9605 1397 c-72 -32 -126 -67 -122 -81 5 -17 72 -47 117 -53 47 -7
50 -15 13 -38 -46 -29 -83 -68 -83 -86 0 -20 29 -33 80 -35 158 -5 226 -39
149 -73 -16 -7 -33 -11 -35 -8 -3 3 -24 -1 -46 -9 -22 -7 -44 -12 -48 -9 -7 4
-20 -17 -20 -31 0 -2 23 5 50 16 28 11 52 20 53 20 1 0 4 -118 5 -262 2 -144
5 -264 7 -267 3 -2 5 113 5 256 l0 260 25 13 c19 10 30 11 50 2 14 -7 28 -12
30 -12 1 0 -10 25 -27 55 -25 46 -33 54 -51 50 -12 -3 -49 1 -82 9 -33 8 -54
15 -46 15 8 1 12 3 9 6 -3 3 7 19 23 35 16 16 29 35 29 42 0 8 16 29 35 48 55
53 42 80 -25 52 -39 -16 -114 -11 -155 11 -26 13 -26 13 49 51 70 34 89 47 69
46 -5 -1 -31 -11 -58 -23z"/>
<path d="M3322 1386 c-11 -15 -23 -44 -27 -66 -11 -63 -14 -63 -212 -54 -245
12 -278 10 -358 -14 -61 -19 -72 -20 -84 -7 -12 11 -12 21 -4 50 6 19 8 37 3
40 -4 3 -11 -10 -14 -29 -4 -19 -13 -39 -21 -46 -8 -7 -15 -18 -15 -24 0 -6 6
-3 14 6 10 13 15 15 24 6 19 -19 14 -25 -23 -32 -19 -4 -35 -11 -35 -16 0 -5
17 -3 39 5 29 10 42 11 51 2 10 -9 11 -9 6 1 -7 12 11 22 67 36 18 4 26 3 23
-3 -4 -5 -1 -13 5 -17 8 -4 9 -3 5 4 -4 7 -1 12 8 12 8 0 17 -6 20 -12 5 -10
7 -10 12 0 4 8 15 -1 30 -24 23 -34 25 -42 20 -133 -4 -72 -3 -83 3 -46 9 53
21 212 14 183 -7 -28 -21 -21 -38 18 -8 20 -15 39 -15 42 0 2 25 2 55 -2 88
-10 363 -19 390 -12 20 5 28 18 41 63 9 31 23 63 31 71 18 18 63 10 102 -19
22 -16 38 -20 64 -16 23 3 62 -3 111 -19 89 -28 115 -30 142 -9 17 13 16 13
-13 3 -28 -10 -44 -9 -110 12 -44 13 -98 23 -124 22 -34 -2 -53 3 -72 18 -15
12 -42 24 -60 27 -28 4 -37 1 -55 -21z"/>
<path d="M8599 1389 c-17 -10 -3 -57 20 -64 30 -9 51 5 51 35 0 23 -5 28 -30
32 -16 3 -35 1 -41 -3z"/>
<path d="M9279 1348 c-40 -29 -75 -59 -77 -67 -3 -8 6 -4 19 8 13 12 50 38 82
57 31 20 57 40 57 45 0 14 -3 12 -81 -43z"/>
<path d="M8330 1373 c0 -13 5 -23 10 -23 13 0 13 11 0 30 -8 12 -10 11 -10 -7z"/>
<path d="M5420 1365 c-49 -13 -149 -54 -138 -54 4 -1 47 13 96 29 111 37 143
38 176 5 14 -14 35 -24 48 -24 21 1 21 2 3 6 -11 3 -33 16 -48 29 -32 27 -67
29 -137 9z"/>
<path d="M8250 1340 c0 -11 4 -20 9 -20 5 0 11 9 14 20 3 13 0 20 -9 20 -8 0
-14 -9 -14 -20z"/>
<path d="M4301 1326 c-27 -69 -45 -346 -23 -359 4 -3 8 59 8 137 1 90 7 160
16 194 16 54 14 70 -1 28z"/>
<path d="M4397 1298 c-9 -72 -8 -287 1 -318 4 -14 9 59 12 165 5 188 -1 256
-13 153z"/>
<path d="M9293 1294 c-68 -60 -76 -75 -40 -73 16 1 17 3 5 6 -13 3 -2 18 47
59 36 31 65 57 65 60 0 12 -21 -2 -77 -52z"/>
<path d="M4175 1305 c6 -48 41 -337 50 -418 11 -102 15 -55 5 59 -16 174 -42
368 -52 384 -6 10 -7 1 -3 -25z"/>
<path d="M4331 1203 c1 -76 5 -167 9 -203 4 -42 6 6 6 137 -1 112 -4 203 -8
203 -5 0 -7 -62 -7 -137z"/>
<path d="M3446 1314 c-3 -9 -8 -48 -11 -87 -4 -53 -3 -66 5 -49 5 13 10 45 11
72 1 27 6 55 11 62 6 9 8 1 5 -23 -3 -20 -2 -41 3 -45 5 -5 11 -20 13 -34 3
-14 3 2 2 35 -4 59 -3 60 10 25 8 -21 18 -33 26 -31 8 2 32 4 54 4 30 0 35 2
20 8 -11 4 -35 5 -52 2 -29 -4 -33 -2 -33 16 0 21 -32 61 -49 61 -5 0 -12 -7
-15 -16z"/>
<path d="M6698 1295 c-38 -26 -65 -62 -54 -73 3 -3 6 0 6 6 0 15 41 51 83 75
17 9 25 17 17 17 -9 0 -32 -11 -52 -25z"/>
<path d="M6271 1301 l-24 -7 27 -18 c27 -17 28 -17 47 3 10 11 19 23 19 26 0
7 -39 5 -69 -4z"/>
<path d="M4464 1120 c0 -136 2 -162 6 -100 4 47 4 130 0 185 -5 82 -6 66 -6
-85z"/>
<path d="M7046 1290 c-16 -5 -33 -7 -38 -4 -13 9 -48 -6 -48 -20 0 -8 -7 -19
-16 -27 -25 -21 -65 -107 -62 -135 2 -21 -4 -30 -32 -46 l-35 -20 76 6 c68 5
78 3 95 -15 15 -16 97 -76 140 -102 6 -3 11 1 11 9 0 8 -30 38 -66 67 -36 28
-72 57 -79 64 -7 7 -19 13 -25 13 -7 0 -6 -4 3 -10 12 -8 9 -10 -11 -10 -15 0
-42 -3 -60 -6 l-34 -7 23 25 c12 13 22 30 22 36 0 19 48 109 62 118 7 5 27 7
44 5 40 -3 186 18 205 29 26 17 -1 23 -61 13 -45 -7 -57 -7 -50 2 20 24 -10
31 -64 15z m-26 -260 c3 -3 25 -21 50 -40 56 -42 71 -56 45 -41 -50 27 -129
87 -134 101 -4 13 -2 13 15 0 10 -8 21 -17 24 -20z"/>
<path d="M1171 1243 c-73 -32 -105 -42 -110 -34 -6 9 -55 6 -197 -11 -104 -13
-179 -24 -168 -26 12 -2 75 4 140 12 139 19 237 21 214 6 -11 -8 -8 -9 12 -4
15 3 50 1 77 -6 48 -11 50 -11 150 40 55 28 103 55 107 61 3 5 -42 -16 -100
-46 -90 -48 -112 -55 -139 -50 -17 4 -36 10 -40 12 -9 6 66 43 126 62 20 7 37
17 37 22 0 5 -1 9 -2 8 -2 0 -50 -21 -107 -46z"/>
<path d="M2059 1255 c-40 -19 -79 -35 -85 -35 -18 0 -47 -37 -35 -45 6 -3 11
0 11 8 0 9 31 27 78 46 61 24 71 26 50 10 -30 -22 -36 -39 -15 -39 18 0 91 76
80 83 -5 3 -43 -10 -84 -28z"/>
<path d="M4803 1269 c-24 -11 -43 -23 -43 -28 0 -4 21 2 47 15 41 19 50 21 63
9 20 -18 73 -38 65 -25 -3 6 -13 10 -21 10 -8 0 -22 9 -31 20 -21 24 -26 24
-80 -1z"/>
<path d="M1115 1273 c-22 -2 -99 -12 -172 -23 -73 -11 -166 -20 -208 -20 -61
0 -79 -4 -95 -20 -16 -16 -24 -18 -50 -8 -31 10 -65 9 -240 -11 -100 -12 -293
-51 -286 -59 3 -2 47 5 98 17 173 39 381 56 457 37 27 -7 32 -6 26 4 -13 21
16 30 95 30 41 0 131 9 200 20 69 11 143 20 165 21 22 0 49 4 60 9 21 9 18 9
-50 3z"/>
<path d="M4540 1238 c0 -25 -2 -101 -5 -169 -3 -95 -2 -110 5 -64 11 77 16
263 7 272 -4 3 -7 -14 -7 -39z"/>
<path d="M4646 1249 c-6 -34 -36 -286 -36 -303 0 -5 3 -7 6 -3 7 6 44 330 39
336 -2 1 -6 -12 -9 -30z"/>
<path d="M9356 1263 c-3 -10 -9 -25 -12 -33 -4 -8 3 -3 15 12 23 28 26 38 12
38 -5 0 -11 -8 -15 -17z"/>
<path d="M5078 1252 c-73 -26 -68 -33 6 -9 54 17 70 19 86 9 16 -10 18 -9 14
3 -8 19 -46 18 -106 -3z"/>
<path d="M8570 1246 c-6 -6 -10 -16 -10 -23 0 -16 -26 -17 -36 -1 -5 8 -11 2
-16 -17 -4 -18 -4 -31 2 -33 6 -2 10 -10 10 -18 0 -8 10 -14 23 -14 22 0 26
-8 46 -107 30 -144 34 -158 51 -158 17 0 18 27 6 88 l-7 37 43 -6 c24 -4 97
-22 163 -41 141 -40 247 -64 240 -53 -2 4 -24 10 -47 14 -24 4 -105 25 -181
46 -77 22 -151 40 -165 40 -43 0 -13 16 71 39 85 23 177 65 177 81 0 6 -4 10
-10 10 -5 0 -10 -5 -10 -11 0 -5 -21 -20 -47 -31 -53 -24 -236 -79 -242 -73
-5 5 -40 156 -41 175 0 10 5 7 15 -7 19 -27 75 -37 138 -25 26 5 47 6 47 1 0
-5 9 -9 19 -9 24 0 39 54 21 75 -18 21 -241 40 -260 21z"/>
<path d="M1454 1235 c-24 -18 -48 -20 -38 -2 4 6 -1 5 -12 -5 -10 -9 -41 -28
-68 -42 -27 -14 -43 -26 -35 -26 8 0 25 7 37 16 12 8 44 22 71 30 27 8 54 21
61 29 16 19 9 19 -16 0z"/>
<path d="M5441 1135 l2 -90 9 79 c7 55 6 82 -1 89 -8 8 -11 -14 -10 -78z"/>
<path d="M2766 1188 c-15 -58 0 -145 18 -106 4 7 5 -9 2 -37 -2 -27 0 -61 4
-75 6 -17 8 -2 9 48 1 40 8 88 15 107 8 19 11 35 6 35 -4 0 -13 -12 -18 -27
-6 -16 -11 -23 -11 -16 -1 6 4 24 10 40 6 17 6 24 0 18 -5 -5 -14 -26 -20 -45
-10 -32 -10 -30 -6 23 5 59 2 73 -9 35z"/>
<path d="M6491 1199 c-40 -16 -101 -70 -101 -89 0 -10 -10 -20 -22 -24 -13 -3
-59 -26 -102 -51 -68 -39 -87 -45 -135 -45 -54 0 -58 2 -101 48 -25 26 -64 64
-87 84 l-43 36 -55 -56 -55 -57 -68 0 -68 0 18 30 c51 85 58 90 160 96 l93 5
-103 2 c-60 1 -101 -2 -98 -7 4 -5 2 -11 -2 -13 -5 -1 -27 -29 -49 -61 -38
-54 -39 -60 -30 -97 8 -27 16 -38 29 -37 15 1 15 4 4 17 -7 8 -16 23 -19 33
-6 15 0 17 42 17 27 0 62 -3 79 -6 27 -6 29 -8 17 -21 -8 -8 -15 -21 -15 -29
0 -21 21 -17 27 6 5 20 5 20 34 -1 23 -16 33 -18 49 -9 11 6 18 16 14 22 -4 5
0 14 7 19 21 12 5 20 -52 28 l-53 6 49 47 48 47 36 -29 c20 -15 52 -44 70 -64
l35 -36 -46 0 c-32 0 -48 -5 -52 -15 -5 -13 15 -15 145 -15 134 0 149 -2 135
-15 -8 -8 -19 -15 -25 -15 -6 0 -11 -4 -11 -8 0 -4 -16 -6 -35 -4 -51 6 -105
-6 -105 -24 0 -8 -11 -20 -25 -26 -14 -6 -25 -14 -25 -18 0 -14 -59 -32 -83
-26 -13 3 -37 2 -53 -3 -28 -8 -29 -7 -30 26 0 30 3 34 36 43 19 5 67 14 105
19 65 8 67 9 25 11 l-45 3 40 7 40 7 -35 1 c-19 0 -57 -3 -85 -8 l-50 -7 40
-3 40 -2 -55 -13 c-30 -7 -59 -10 -65 -6 -23 18 -260 20 -292 2 -18 -9 -21
-16 -14 -34 11 -29 27 -23 24 9 l-2 25 135 -3 c132 -2 135 -3 141 -26 3 -13 0
-29 -6 -35 -8 -8 -11 -8 -11 0 0 8 -12 8 -41 0 -31 -7 -47 -7 -61 2 -27 17
-40 4 -33 -32 6 -25 4 -29 -5 -21 -17 16 -92 -20 -84 -41 8 -21 84 -21 84 0 0
8 4 15 10 15 5 0 9 -5 7 -12 -1 -7 8 -13 20 -14 35 -2 62 -43 63 -91 0 -23 5
-45 10 -48 6 -4 10 18 10 59 0 36 -3 65 -7 65 -24 -4 -33 4 -31 27 2 22 4 23
14 9 11 -14 12 -14 18 1 6 17 -8 33 -29 34 -5 0 -3 5 5 10 23 15 60 12 60 -5
0 -8 5 -15 10 -15 6 0 10 5 10 12 0 6 10 2 23 -9 12 -11 31 -25 41 -30 15 -8
20 -24 22 -65 2 -30 8 -67 13 -81 14 -37 7 -39 -139 -35 l-121 3 2 -45 c3 -64
8 -73 26 -55 18 19 51 19 190 0 75 -9 119 -11 139 -5 l29 10 -30 -4 c-16 -2
-79 3 -140 11 -60 8 -130 13 -155 11 -44 -3 -45 -2 -48 30 l-3 32 128 1 c70 0
142 2 158 4 17 1 46 0 66 -2 l36 -5 -1 -108 c-1 -123 -1 -123 -91 -113 -33 4
-45 10 -49 27 -11 40 -8 46 17 37 28 -11 72 7 72 29 0 10 -9 14 -27 12 -14 -1
-29 2 -33 8 -18 30 -55 -10 -55 -61 0 -35 -3 -39 -24 -39 -19 0 -26 6 -29 28
-4 25 -4 25 -6 -5 0 -19 -6 -33 -13 -33 -10 0 -10 -2 0 -8 9 -6 10 -29 6 -86
-7 -72 -8 -77 -28 -72 -12 3 -31 6 -42 6 -17 0 -23 7 -26 35 -2 20 0 35 7 35
15 1 -35 40 -51 40 -25 0 -25 -20 0 -30 20 -7 26 -17 26 -40 l0 -30 -67 0
c-38 0 -84 -3 -103 -6 -32 -5 -37 -3 -48 20 -18 39 -16 42 22 38 18 -2 36 1
40 6 8 13 -111 27 -159 19 -33 -5 -35 -4 -45 31 -14 53 -15 52 36 52 38 0 45
-3 40 -16 -8 -20 11 -54 30 -54 20 0 28 24 14 49 -10 20 -8 21 34 21 48 0 57
-10 49 -55 -4 -19 -2 -26 6 -21 6 4 11 23 11 43 0 35 1 36 35 30 39 -6 53 4
30 23 -12 10 -53 11 -173 6 -154 -7 -157 -7 -170 15 -13 21 -13 21 15 14 15
-4 123 -8 239 -10 116 -1 216 -5 222 -9 7 -4 12 -3 12 2 0 13 -256 31 -457 32
l-72 0 -4 37 -4 38 -1 -36 c-2 -40 -16 -48 -82 -49 -25 0 -31 -3 -21 -9 11 -7
15 -34 17 -103 1 -51 3 -95 4 -98 4 -9 18 84 19 126 1 37 4 42 28 47 16 3 31
0 35 -6 8 -13 12 5 8 32 -1 13 1 13 14 2 13 -11 16 -34 16 -112 0 -124 18
-143 22 -23 2 59 7 89 16 92 8 2 12 -8 13 -30 2 -62 13 -83 42 -81 22 1 27 -2
27 -23 0 -21 -5 -24 -37 -25 -21 -1 -42 -1 -46 0 -5 1 -6 -3 -2 -9 4 -6 29
-10 56 -9 48 3 49 3 46 33 -2 27 1 31 27 34 17 2 26 0 22 -6 -3 -6 -2 -22 4
-36 6 -18 6 -26 -1 -26 -6 0 -9 -5 -7 -12 3 -8 44 -11 139 -10 73 1 150 -2
169 -7 28 -7 14 -9 -67 -10 -57 -1 -103 -5 -103 -10 0 -12 63 -41 90 -41 13 0
29 -8 37 -17 14 -17 14 -17 9 0 -4 14 1 17 27 17 61 1 71 18 75 134 l4 104 97
-5 c53 -2 102 -6 109 -8 8 -3 12 -26 13 -67 0 -35 4 -71 8 -81 4 -10 5 57 4
150 -4 177 0 218 19 207 8 -5 9 -2 5 10 -4 10 -7 31 -7 47 0 33 -19 39 -27 8
-5 -17 -11 -20 -36 -15 -16 3 -36 6 -43 6 -8 0 -14 4 -14 8 0 14 43 32 108 46
59 12 62 12 62 -6 0 -11 5 -16 10 -13 11 7 40 -18 40 -34 0 -6 5 -11 10 -11 6
0 10 26 10 59 0 33 5 72 10 86 9 24 8 26 -12 19 -19 -6 -21 -5 -11 8 11 13 20
12 66 -10 l54 -25 -4 -76 c-3 -51 -1 -71 5 -62 6 8 8 29 5 47 -3 18 -1 46 5
63 11 30 10 31 -49 64 -47 26 -71 34 -107 33 l-47 -1 1 -57 1 -56 -46 -7 c-25
-3 -54 -8 -63 -11 -16 -5 -18 2 -18 58 0 59 2 64 30 83 16 11 30 23 30 28 0 4
16 7 35 7 20 0 58 12 85 26 40 21 54 36 74 78 21 45 34 57 85 85 33 17 77 38
98 46 21 7 30 14 21 14 -9 1 -57 -19 -105 -44 -52 -27 -98 -44 -113 -43 -20 3
-7 12 63 47 57 28 87 49 87 60 0 9 9 23 21 31 11 8 30 23 41 33 12 9 27 17 34
17 7 0 16 5 19 10 7 12 7 12 -24 -1z m-738 -368 c-19 -10 -28 -22 -25 -33 4
-20 1 -21 -22 -12 -12 5 -13 10 -5 25 7 15 6 19 -5 19 -8 0 -17 3 -19 8 -3 4
19 7 50 8 l54 0 -28 -15z m433 -69 c0 -10 -8 -18 -18 -18 -11 0 -18 8 -18 18
0 11 7 18 18 18 10 0 18 -7 18 -18z m-937 -346 c-11 -10 -79 -16 -79 -7 0 5
17 11 38 13 37 3 49 1 41 -6z m268 8 c-3 -3 -12 -4 -19 -1 -8 3 -5 6 6 6 11 1
17 -2 13 -5z"/>
<path d="M9245 1193 c26 -67 54 -735 30 -740 -5 -2 -11 9 -12 25 -1 15 -6 72
-13 127 -6 55 -15 201 -20 325 l-8 225 3 -252 3 -253 -33 0 c-47 0 -81 -15
-100 -44 -15 -23 -15 -27 0 -61 22 -46 53 -54 101 -25 29 17 39 18 45 8 15
-23 10 -39 -30 -86 -60 -73 -210 -292 -238 -347 -28 -56 -20 -51 24 15 96 144
241 336 251 332 20 -6 14 -22 -45 -111 -56 -85 -149 -255 -119 -216 26 33 236
353 236 360 0 3 -3 4 -7 2 -5 -3 -9 81 -10 186 -2 250 -32 547 -55 547 -6 0
-7 -8 -3 -17z m-15 -574 c18 -32 4 -65 -36 -88 -48 -28 -61 -27 -84 12 -24 39
-24 39 -2 64 34 39 104 46 122 12z"/>
<path d="M9420 1170 c0 -11 2 -20 4 -20 2 0 6 9 9 20 3 11 1 20 -4 20 -5 0 -9
-9 -9 -20z"/>
<path d="M2956 1158 c-8 -33 -7 -156 2 -161 4 -3 6 28 4 68 -2 41 1 83 8 94 6
12 7 21 2 21 -6 0 -12 -10 -16 -22z"/>
<path d="M2272 1154 c-9 -10 -39 -14 -100 -15 -48 -1 -112 -5 -142 -9 -38 -6
-19 -7 65 -4 147 6 205 12 205 24 0 16 -15 18 -28 4z"/>
<path d="M3271 1166 c2 -2 36 -6 74 -8 40 -3 61 -2 50 3 -19 7 -132 13 -124 5z"/>
<path d="M5216 1155 c-3 -9 -5 -49 -4 -88 l1 -72 7 85 c7 89 7 101 -4 75z"/>
<path d="M5370 1100 c0 -40 2 -71 4 -69 7 7 10 129 3 136 -4 3 -7 -27 -7 -67z"/>
<path d="M3006 1138 c-3 -13 -5 -48 -4 -78 1 -52 1 -51 8 20 8 79 7 96 -4 58z"/>
<path d="M5143 1149 c-7 -7 -13 -17 -13 -22 0 -5 -7 -24 -16 -42 l-16 -33 -34
20 c-30 18 -37 19 -47 7 -7 -8 -8 -11 -3 -6 15 11 22 9 55 -19 l31 -26 10 24
c9 20 10 18 6 -14 -7 -54 10 -47 23 10 l10 47 -4 -65 c-3 -47 -2 -60 6 -48 5
10 9 54 7 98 -2 65 -5 79 -15 69z"/>
<path d="M8990 1154 c0 -3 35 -20 77 -40 42 -19 79 -37 82 -39 8 -8 18 -104
10 -99 -4 2 -9 -14 -11 -36 -5 -50 8 -52 21 -2 14 51 24 156 12 122 -6 -18 -9
-20 -10 -7 -1 10 -18 28 -38 40 -41 24 -143 67 -143 61z"/>
<path d="M9321 1135 c-1 -16 8 -104 19 -195 27 -225 51 -521 43 -534 -4 -6
-26 -36 -49 -66 -45 -60 -78 -120 -100 -183 -19 -53 -13 -46 29 35 53 101 128
209 141 201 6 -3 8 -2 3 2 -4 5 10 27 30 49 34 36 22 33 -17 -3 -13 -13 -16 0
-22 115 -8 137 -54 536 -68 582 l-8 27 -1 -30z"/>
<path d="M5270 1083 c0 -38 4 -73 8 -80 4 -6 7 24 7 68 0 43 -3 79 -7 79 -5 0
-8 -30 -8 -67z"/>
<path d="M2917 1112 c-3 -15 -8 -68 -11 -117 l-5 -90 13 106 c7 58 16 111 20
117 4 7 3 12 -2 12 -5 0 -12 -12 -15 -28z"/>
<path d="M3205 1125 c6 -2 33 -11 60 -19 43 -13 47 -13 31 -1 -11 8 -27 15
-35 15 -9 0 -27 3 -41 5 -14 3 -20 3 -15 0z"/>
<path d="M803 1093 c-61 -26 -84 -45 -27 -22 16 6 40 13 54 15 96 13 141 22
119 23 -15 0 -39 3 -55 6 -18 3 -52 -5 -91 -22z"/>
<path d="M1050 1085 c-35 -19 -67 -30 -70 -26 -3 4 -21 -4 -40 -17 -19 -14
-26 -21 -15 -17 47 18 55 18 49 1 -3 -9 -1 -16 6 -16 6 0 9 4 6 9 -8 13 49 47
104 61 25 7 39 15 31 18 -11 4 -11 6 0 13 35 22 -12 5 -71 -26z"/>
<path d="M2617 1109 c11 -11 65 -20 58 -10 -2 5 -18 11 -35 13 -17 3 -27 1
-23 -3z"/>
<path d="M3046 1089 c-7 -38 -8 -84 -1 -77 3 3 11 28 19 57 10 40 10 51 1 51
-7 0 -15 -14 -19 -31z"/>
<path d="M2335 1099 c-11 -17 1 -21 15 -4 8 9 8 15 2 15 -6 0 -14 -5 -17 -11z"/>
<path d="M3539 1106 c-6 -7 6 -314 13 -322 18 -18 28 14 28 91 0 46 5 87 10
90 12 8 13 45 1 45 -13 0 -21 -55 -23 -146 -1 -70 -2 -75 -10 -44 -6 19 -8 92
-6 163 4 113 2 137 -13 123z"/>
<path d="M4697 1103 c-4 -3 -6 -63 -5 -132 l1 -126 7 130 c3 72 6 131 5 133
-1 1 -5 -1 -8 -5z"/>
<path d="M6140 1096 c-25 -6 -51 -15 -58 -19 -16 -11 -6 -28 13 -21 8 4 12 11
8 17 -3 6 -1 7 5 3 6 -4 19 -2 29 3 10 5 29 14 43 19 32 13 17 13 -40 -2z"/>
<path d="M6193 1082 c-33 -9 -53 -20 -53 -29 0 -12 3 -12 16 1 8 9 23 16 32
15 11 0 12 -2 5 -6 -7 -2 -13 -9 -13 -13 0 -5 16 0 35 12 21 12 52 20 76 20
51 -1 47 5 -6 11 -22 3 -64 -2 -92 -11z"/>
<path d="M1328 1064 c-27 -13 -48 -27 -48 -29 0 -3 21 5 48 18 26 14 54 27 62
30 13 5 13 5 0 6 -8 0 -36 -11 -62 -25z"/>
<path d="M1556 1064 c-23 -23 -20 -30 4 -9 11 10 20 20 20 22 0 7 -9 2 -24
-13z"/>
<path d="M3231 1069 c-24 -5 -46 -11 -50 -14 -7 -8 78 6 104 16 26 10 3 9 -54
-2z"/>
<path d="M4910 1021 c0 -62 6 -91 20 -91 5 0 4 16 -2 37 -5 20 -8 53 -6 75 2
21 0 38 -4 38 -5 0 -8 -27 -8 -59z"/>
<path d="M9698 1073 c12 -2 32 -2 45 0 12 2 2 4 -23 4 -25 0 -35 -2 -22 -4z"/>
<path d="M2155 1056 c-11 -7 -36 -16 -56 -20 -21 -4 -43 -13 -49 -21 -11 -13
-9 -13 16 0 16 8 41 15 57 15 15 0 27 4 27 8 0 5 10 14 23 20 12 6 17 11 12
11 -6 1 -19 -5 -30 -13z"/>
<path d="M2429 1060 c-11 -7 -10 -10 4 -16 10 -4 23 -2 28 3 14 14 -13 24 -32
13z"/>
<path d="M3516 1053 c-11 -34 -25 -243 -18 -262 4 -11 8 21 10 72 1 51 6 117
11 147 9 56 8 77 -3 43z"/>
<path d="M2290 1045 c-19 -23 -8 -26 20 -5 19 15 21 20 9 20 -9 0 -22 -7 -29
-15z"/>
<path d="M4787 995 c-10 -106 10 -133 73 -100 37 19 46 49 25 82 -14 21 -22
24 -52 20 l-35 -6 6 34 c4 19 3 35 -2 35 -5 0 -12 -29 -15 -65z"/>
<path d="M3466 1028 c-7 -29 -6 -224 3 -262 3 -17 6 36 6 117 0 120 3 149 15
157 13 8 13 10 -1 10 -9 0 -19 -10 -23 -22z"/>
<path d="M6748 1043 c12 -2 32 -2 45 0 12 2 2 4 -23 4 -25 0 -35 -2 -22 -4z"/>
<path d="M9445 973 c16 -203 48 -519 52 -523 6 -6 -5 172 -23 355 -8 83 -14
171 -14 198 0 27 -5 47 -11 47 -7 0 -9 -25 -4 -77z"/>
<path d="M2543 1029 c-13 -4 -23 -11 -23 -15 0 -3 8 -3 18 1 9 4 35 7 57 6 45
-2 45 3 0 12 -16 2 -40 1 -52 -4z"/>
<path d="M3681 958 c-22 -46 -41 -88 -40 -93 0 -6 20 30 45 79 25 48 43 90 41
92 -3 3 -23 -33 -46 -78z"/>
<path d="M6566 1030 c5 -8 11 -37 15 -65 l6 -50 2 44 1 44 54 -52 c30 -28 60
-51 67 -51 10 0 1 9 -50 47 -2 2 -2 6 2 9 3 3 22 -6 41 -21 28 -21 34 -31 25
-41 -6 -7 -9 -28 -7 -46 l3 -33 70 -5 c39 -3 84 -3 102 -2 27 4 32 8 36 40 2
21 2 40 0 45 -2 4 -40 7 -84 7 l-81 0 -61 47 c-92 70 -93 71 -55 76 29 4 28 4
-4 3 -21 -1 -38 2 -38 6 0 5 -5 8 -12 8 -6 0 -1 -11 12 -25 32 -34 13 -32 -23
3 -17 15 -26 20 -21 12z m94 -62 c0 -13 -23 -5 -28 10 -2 7 2 10 12 6 9 -3 16
-11 16 -16z m260 -113 l0 -35 -89 0 c-84 0 -89 1 -95 23 -12 44 -10 45 89 46
l95 2 0 -36z"/>
<path d="M2467 1023 c-14 -14 -6 -23 21 -22 16 0 21 3 12 6 -8 3 -18 10 -21
15 -3 4 -8 5 -12 1z"/>
<path d="M2640 1023 c0 -13 29 -38 35 -31 3 3 -4 13 -15 23 -11 10 -20 13 -20
8z"/>
<path d="M3191 1021 c-17 -11 -5 -17 49 -25 31 -4 39 -3 25 3 -11 5 -31 10
-45 10 -20 1 -22 3 -10 11 8 5 11 10 5 10 -5 0 -16 -4 -24 -9z"/>
<path d="M1817 978 c-41 -52 -77 -121 -77 -148 0 -11 -4 -21 -10 -21 -19 -3
-25 -5 -57 -25 -18 -10 -33 -23 -33 -28 0 -5 7 -3 15 4 8 7 15 9 15 6 0 -4 7
0 16 8 14 15 114 24 114 11 0 -11 -63 -36 -112 -44 l-53 -9 50 1 c29 0 63 8
80 19 40 24 57 23 85 -7 l23 -25 -39 -1 c-21 -1 -52 -5 -69 -10 -19 -5 -4 -6
40 -2 39 3 72 7 74 9 2 2 5 15 7 28 4 34 -47 64 -99 58 -33 -4 -37 -2 -37 18
0 32 49 127 86 167 17 18 28 33 23 33 -4 0 -23 -19 -42 -42z m57 -216 c11 -19
-21 -7 -44 16 l-25 24 32 -16 c17 -9 34 -20 37 -24z"/>
<path d="M2165 1011 c-6 -11 13 -26 22 -17 10 9 64 -28 59 -41 -3 -7 1 -10 9
-7 22 9 27 34 6 34 -10 0 -26 9 -36 20 -19 21 -50 27 -60 11z"/>
<path d="M1339 997 c5 -5 21 -7 37 -5 27 3 26 4 -8 9 -22 3 -34 1 -29 -4z"/>
<path d="M2014 996 c-3 -9 -14 -16 -23 -16 -13 0 -13 -2 -2 -9 11 -7 5 -28
-28 -111 -23 -56 -40 -104 -38 -107 3 -2 24 46 48 106 24 61 49 111 55 111 17
0 37 -27 29 -40 -7 -11 34 -31 48 -23 12 7 8 23 -8 23 -8 0 -19 9 -25 20 -8
15 -8 18 3 14 21 -8 64 12 64 30 0 12 -8 15 -32 13 -18 -2 -37 -7 -44 -11 -6
-4 -18 -2 -26 4 -12 10 -16 9 -21 -4z m91 -6 c3 -6 -1 -7 -9 -4 -18 7 -21 14
-7 14 6 0 13 -4 16 -10z"/>
<path d="M3730 966 c-12 -44 -7 -88 8 -70 12 14 32 64 26 64 -3 0 -11 -15 -19
-32 -11 -26 -14 -28 -15 -12 0 12 5 35 11 53 6 18 9 34 7 37 -3 2 -11 -16 -18
-40z"/>
<path d="M6561 909 c0 -53 2 -137 6 -188 l6 -92 46 -24 46 -23 -80 -8 c-44 -5
-115 -8 -159 -7 -49 0 -73 -2 -65 -8 8 -5 49 -9 92 -9 l77 0 -6 -87 c-7 -95
-10 -105 -24 -83 -8 12 -16 114 -11 143 0 4 -3 7 -9 7 -6 0 -7 -31 -3 -80 l6
-80 -68 0 c-65 0 -67 1 -61 23 3 12 6 38 6 57 0 23 3 30 9 22 5 -8 17 -12 27
-10 24 4 33 58 10 58 -9 0 -16 -4 -16 -10 0 -14 -28 -12 -32 2 -3 7 -8 -23
-11 -66 -4 -44 -5 -81 -3 -83 2 -2 46 -5 98 -6 93 -2 94 -2 90 21 -2 12 -1 56
3 97 l7 75 67 0 68 0 7 -81 c4 -45 5 -83 3 -85 -2 -3 -31 -9 -63 -14 l-59 -9
63 4 c55 3 63 1 60 -13 -2 -13 -21 -20 -73 -27 l-70 -10 6 -50 6 -50 1 47 2
46 60 7 c33 4 63 5 67 3 14 -6 19 56 10 127 -4 39 -6 80 -4 93 2 12 0 22 -5
22 -5 0 -8 5 -6 12 2 6 -19 23 -46 37 l-51 26 0 52 c0 29 1 53 3 53 1 0 19 -7
39 -15 19 -8 48 -15 64 -15 27 0 28 -1 32 -62 l3 -63 2 63 c1 34 5 62 10 63 4
1 102 2 217 3 140 2 212 -1 217 -8 4 -6 8 -40 8 -75 l0 -64 -80 6 c-79 5 -80
5 -80 -19 0 -22 -4 -24 -47 -23 -27 0 -69 4 -95 8 -26 4 -45 4 -43 0 11 -16
132 -20 243 -8 l117 12 -8 156 c-10 194 -24 281 -23 139 1 -53 -2 -100 -6
-104 -5 -4 -90 -8 -190 -8 -136 -1 -210 4 -288 18 l-105 18 3 52 c2 28 -1 83
-6 121 l-9 70 -2 -96z"/>
<path d="M9514 890 c10 -174 28 -374 35 -382 3 -4 -1 103 -9 237 -8 134 -19
247 -24 252 -5 5 -6 -40 -2 -107z"/>
<path d="M1880 938 c-27 -62 -41 -118 -30 -118 4 0 10 17 14 38 3 20 17 58 30
85 13 26 20 47 16 47 -4 0 -18 -24 -30 -52z"/>
<path d="M1557 924 c-20 -31 -37 -66 -36 -78 0 -14 5 -9 14 17 8 21 28 56 46
78 17 21 27 39 22 39 -5 0 -25 -25 -46 -56z"/>
<path d="M1684 927 c-22 -23 -46 -52 -52 -64 -15 -26 -16 -53 -2 -53 5 0 7 7
4 15 -8 19 13 51 68 103 24 23 39 42 33 42 -5 0 -28 -19 -51 -43z"/>
<path d="M3088 943 c-34 -27 -73 -72 -66 -77 1 -1 26 22 55 51 29 29 51 53 49
53 -1 0 -18 -12 -38 -27z"/>
<path d="M8108 963 c-24 -4 -28 -9 -28 -36 0 -18 -3 -42 -6 -54 -6 -22 -4 -22
75 -19 45 1 87 8 92 13 8 8 7 24 -3 55 -14 42 -16 43 -59 44 -24 1 -56 -1 -71
-3z"/>
<path d="M8746 920 c4 -30 10 -118 13 -195 l6 -140 60 -6 c33 -3 83 -14 111
-24 l51 -19 -57 -42 c-78 -57 -290 -311 -290 -347 0 -6 12 8 26 29 84 124 301
355 314 334 5 -8 -26 -53 -86 -126 -93 -114 -189 -248 -201 -282 -3 -9 9 6 28
33 18 28 36 52 39 55 3 3 50 60 105 128 141 174 140 172 152 172 6 0 13 6 16
13 3 9 13 8 40 -5 21 -10 37 -15 37 -12 0 3 -38 23 -85 45 l-85 39 -1 47 c-1
27 -5 62 -10 78 -6 21 -7 8 -6 -47 1 -42 -1 -74 -6 -71 -4 2 -38 8 -75 11
l-67 7 -7 165 c-3 91 -11 176 -17 190 -9 20 -10 14 -5 -30z m274 -399 c0 -5
-7 -11 -15 -15 -9 -3 -15 0 -15 9 0 8 7 15 15 15 8 0 15 -4 15 -9z"/>
<path d="M1344 945 c-7 -17 3 -35 18 -35 7 0 6 5 -2 15 -6 8 -9 19 -5 25 3 5
4 10 0 10 -3 0 -8 -7 -11 -15z"/>
<path d="M2569 941 c26 -20 22 -42 -8 -34 -25 6 -37 -15 -18 -34 14 -14 18
-13 38 6 40 37 29 78 -21 80 -10 0 -7 -6 9 -18z"/>
<path d="M3191 951 c-21 -13 4 -24 39 -16 26 6 29 4 23 -11 -6 -15 -4 -16 8
-6 8 7 23 19 34 28 21 16 20 16 -75 -3 -20 -4 -22 -2 -10 6 18 13 1 15 -19 2z"/>
<path d="M7840 952 c0 -18 28 -45 38 -38 17 10 15 33 -4 40 -22 8 -34 8 -34
-2z"/>
<path d="M5207 944 c-4 -4 -4 -76 -1 -160 l6 -154 -22 0 c-21 0 -22 1 -6 25 9
14 14 25 11 25 -11 0 -56 -80 -50 -89 3 -6 26 -11 49 -11 41 0 43 -1 38 -25
-3 -20 -10 -25 -32 -25 -16 0 -35 -3 -44 -6 -13 -5 -16 1 -16 25 0 17 -5 31
-11 31 -6 0 -8 -7 -5 -16 3 -9 6 -24 6 -34 0 -16 8 -18 55 -18 52 1 55 2 57
27 2 43 -3 86 -12 91 -4 3 -10 73 -11 155 -4 149 -4 150 19 153 27 4 31 -24 5
-31 -10 -3 29 -5 86 -6 92 -1 102 -3 97 -18 -4 -9 -4 -49 0 -90 5 -55 10 -73
22 -73 12 0 13 11 8 61 l-7 61 45 -6 c29 -5 46 -3 46 3 0 6 -17 13 -37 16 -58
10 -63 13 -63 35 0 22 -1 22 -102 20 -63 -1 -68 0 -68 19 0 16 -6 21 -28 21
-16 0 -32 -3 -35 -6z m18 -334 c-3 -5 -22 -10 -41 -10 -21 0 -33 4 -29 10 3 6
22 10 41 10 21 0 33 -4 29 -10z"/>
<path d="M6284 905 c8 -48 3 -54 -25 -29 -11 9 -19 11 -23 5 -4 -5 2 -15 13
-20 11 -6 26 -18 34 -26 40 -39 66 35 27 77 -10 12 -17 25 -14 30 3 4 0 8 -7
8 -8 0 -9 -13 -5 -45z"/>
<path d="M9587 850 c3 -58 9 -152 13 -210 7 -87 8 -75 4 70 -3 96 -9 191 -14
210 -6 23 -7 0 -3 -70z"/>
<path d="M6382 928 c-17 -17 -15 -48 6 -71 9 -11 11 -17 5 -13 -7 4 -22 2 -33
-4 -16 -8 -20 -20 -18 -53 l1 -42 4 38 c4 34 7 37 36 39 64 3 83 6 117 22 19
8 31 15 26 16 -5 0 -1 9 9 20 24 27 16 25 -25 -5 -47 -35 -74 -34 -67 2 10 51
-29 83 -61 51z"/>
<path d="M3617 923 c-3 -5 -8 -34 -11 -64 l-6 -54 14 60 c14 57 14 77 3 58z"/>
<path d="M9655 713 c0 -120 3 -198 7 -173 8 57 8 337 0 368 -4 13 -7 -75 -7
-195z"/>
<path d="M9766 914 c-10 -26 -7 -382 4 -389 6 -3 10 72 12 200 3 190 0 229
-16 189z"/>
<path d="M490 885 c-41 -19 -70 -35 -64 -35 14 0 144 58 144 65 0 7 6 9 -80
-30z"/>
<path d="M3105 904 c-11 -8 -19 -20 -17 -25 1 -5 -4 -8 -10 -6 -7 1 -12 -4
-10 -11 1 -8 -2 -11 -7 -8 -5 4 -17 -8 -25 -25 -19 -37 -20 -42 -6 -34 16 10
12 -5 -10 -32 -21 -28 -25 -43 -11 -43 5 0 11 10 15 23 5 22 132 157 148 157
4 0 8 5 8 12 0 6 -10 2 -23 -10 -14 -14 -27 -18 -36 -13 -11 7 -10 11 5 20 11
6 15 10 9 10 -5 0 -19 -7 -30 -15z m-20 -64 c-21 -22 -41 -37 -44 -34 -5 5 68
74 78 74 3 0 -12 -18 -34 -40z"/>
<path d="M7808 888 c6 -6 18 -8 28 -6 14 3 12 5 -9 10 -19 3 -25 2 -19 -4z"/>
<path d="M8790 876 c0 -15 8 -30 19 -35 17 -9 18 -7 16 22 -3 40 -35 52 -35
13z"/>
<path d="M1205 844 c-15 -25 -24 -48 -22 -51 3 -3 17 18 31 46 33 63 27 67 -9
5z"/>
<path d="M3274 870 c1 -17 44 -26 57 -13 6 6 -2 8 -20 5 -19 -2 -31 1 -34 10
-3 9 -4 9 -3 -2z"/>
<path d="M6966 882 c-3 -5 -1 -22 4 -38 l10 -29 -5 33 -4 32 79 0 c77 0 80 -1
80 -24 0 -21 -6 -24 -47 -29 -26 -3 -57 -1 -70 4 -14 5 -23 5 -23 -1 0 -10 10
-12 97 -14 l53 -1 0 38 0 37 -84 0 c-47 0 -87 -4 -90 -8z"/>
<path d="M8924 865 c-8 -33 -2 -47 16 -35 11 7 12 12 3 21 -6 6 -9 18 -6 25 3
8 2 14 -1 14 -3 0 -8 -11 -12 -25z"/>
<path d="M9814 848 c11 -65 25 -235 27 -313 l1 -70 11 45 c10 42 -3 273 -20
353 -9 45 -26 32 -19 -15z"/>
<path d="M547 818 c-53 -34 -95 -63 -93 -65 4 -5 196 116 196 123 0 7 -2 5
-103 -58z"/>
<path d="M984 813 c-77 -87 -118 -143 -105 -143 6 0 11 4 11 9 0 5 6 16 13 23
7 7 23 27 36 43 12 17 37 46 54 65 43 47 60 70 55 70 -3 0 -32 -30 -64 -67z"/>
<path d="M511 850 c-24 -11 -42 -22 -39 -25 4 -5 88 34 88 41 0 6 -1 6 -49
-16z"/>
<path d="M3154 842 c-45 -33 -144 -139 -144 -154 0 -5 18 13 41 42 22 28 67
71 101 95 33 25 56 45 51 45 -6 0 -28 -13 -49 -28z"/>
<path d="M7751 866 c10 -8 89 -13 83 -5 -3 5 -24 9 -46 9 -23 0 -39 -2 -37 -4z"/>
<path d="M8630 850 c-13 -11 -21 -22 -18 -25 3 -3 13 4 23 15 16 18 45 28 45
15 0 -11 -24 -55 -31 -55 -4 0 -10 -7 -13 -16 -5 -14 -4 -15 9 -4 8 7 25 10
37 7 12 -4 28 -1 35 5 8 6 16 8 19 5 3 -3 -16 -20 -42 -38 -26 -18 -43 -34
-36 -37 7 -2 1 -17 -16 -40 -16 -20 -33 -49 -40 -63 -9 -24 -9 -26 9 -22 10 3
19 10 19 15 0 5 -6 6 -12 2 -8 -4 -10 -3 -5 2 5 5 12 9 16 9 5 0 27 17 50 38
22 20 37 37 31 37 -5 0 -23 -14 -41 -31 -44 -43 -49 -28 -5 18 20 21 36 41 36
45 0 4 11 19 26 33 32 32 24 45 -23 38 -33 -6 -36 -4 -29 13 19 45 19 54 -1
54 -11 0 -30 -9 -43 -20z"/>
<path d="M2053 853 c-7 -2 -13 -9 -13 -15 0 -7 5 -7 13 1 8 6 17 8 20 4 4 -3
7 -1 7 5 0 13 -7 14 -27 5z"/>
<path d="M3343 844 c-7 -18 13 -34 42 -33 16 1 15 2 -5 8 -15 4 -24 14 -24 24
2 21 -5 22 -13 1z"/>
<path d="M4390 846 c0 -8 -9 -87 -21 -176 -11 -89 -18 -169 -16 -178 2 -9 7
15 11 53 5 39 12 76 16 84 7 13 3 -227 -5 -265 -5 -25 -55 -41 -55 -18 0 16
-66 19 -90 4 -9 -6 -17 -5 -22 3 -5 8 -8 5 -8 -9 0 -20 -17 -44 -32 -44 -4 0
-8 14 -8 30 0 22 5 30 18 31 13 0 14 2 2 6 -23 9 -30 24 -29 63 1 19 3 27 6
18 6 -24 16 -23 28 4 6 12 21 26 35 30 19 5 16 6 -12 4 l-38 -4 0 72 c0 39 4
76 8 82 4 6 32 22 62 35 30 12 64 31 74 42 18 18 18 21 3 32 -9 7 -15 14 -12
17 3 2 -18 1 -45 -2 -28 -4 -56 -12 -62 -18 -9 -9 -9 -12 -1 -12 7 0 15 5 18
10 3 6 18 10 33 9 l27 -1 -30 -13 c-62 -26 -75 -28 -68 -8 4 14 3 15 -6 7 -7
-7 -13 -27 -14 -45 -2 -31 -7 -36 -77 -70 -69 -33 -197 -135 -186 -147 3 -2
13 4 23 13 9 10 31 24 48 31 16 7 23 13 15 14 -23 1 24 35 103 75 37 19 69 35
70 35 1 0 2 -38 2 -85 l0 -85 -40 -5 c-22 -3 -95 -4 -162 -3 -66 2 -116 0
-110 -4 7 -4 73 -8 148 -8 l137 0 4 -46 3 -46 -92 4 c-123 7 -139 -7 -18 -16
53 -3 100 -4 105 -1 6 3 9 -27 9 -72 0 -43 3 -86 6 -95 12 -32 23 -19 18 20
-5 35 -3 38 30 54 56 27 103 33 110 14 9 -22 22 -20 47 6 l20 22 0 -94 c0 -72
3 -91 12 -82 7 7 13 74 16 196 l5 184 41 15 c22 8 97 35 166 60 l125 45 6 -31
6 -32 4 35 c2 19 8 34 12 32 4 -1 15 4 23 13 25 25 34 17 34 -30 0 -25 3 -45
8 -45 4 0 5 22 4 50 -4 54 -6 55 -48 40 -26 -10 -26 -10 -20 21 3 17 6 36 6
41 0 5 5 6 10 3 6 -3 10 -15 10 -26 0 -10 5 -19 10 -19 6 0 10 5 10 10 0 6 16
10 36 10 21 0 33 4 29 10 -3 6 3 10 14 10 26 0 26 2 -4 -66 -14 -32 -24 -62
-22 -67 1 -5 16 23 32 62 26 65 31 71 57 71 15 0 28 -3 28 -6 0 -3 -16 -35
-36 -70 -20 -35 -33 -64 -31 -64 3 0 22 30 42 66 31 55 69 91 83 79 2 -2 -8
-26 -24 -54 -15 -28 -25 -53 -22 -56 2 -3 17 22 33 55 24 49 33 60 53 60 23 0
24 -2 10 -17 -17 -20 -65 -112 -52 -100 5 5 23 32 40 60 19 33 38 53 52 55 12
2 22 8 22 14 0 7 -21 8 -62 4 -84 -9 -142 -7 -146 4 -2 5 -13 3 -25 -4 -35
-23 -103 -30 -110 -13 -5 14 -25 17 -109 18 -16 0 -28 3 -28 7 0 4 -10 8 -22
9 -13 0 -45 8 -73 16 -50 14 -162 30 -153 22 2 -3 38 -11 79 -19 41 -8 101
-24 133 -35 40 -14 62 -18 66 -11 5 8 15 8 34 0 23 -8 27 -15 22 -33 -3 -12
-6 -33 -7 -47 0 -14 -3 -19 -6 -12 -2 6 -9 12 -14 12 -4 0 -6 -6 -3 -13 3 -9
-9 -18 -37 -26 -22 -7 -47 -15 -54 -17 -7 -3 -15 6 -19 22 -8 32 -25 21 -28
-18 -2 -22 -12 -29 -92 -56 -50 -17 -92 -30 -94 -27 -2 2 -4 80 -5 174 -1 94
-3 171 -4 171 -2 0 -3 -6 -3 -14z m-75 -116 c-2 -4 -22 -10 -44 -14 -22 -3
-43 -10 -46 -16 -3 -5 7 -5 24 1 60 21 49 3 -14 -23 l-65 -27 0 23 c0 18 12
27 63 47 58 23 93 27 82 9z m299 -135 c3 -9 0 -15 -9 -15 -9 0 -12 6 -9 15 4
8 7 15 9 15 2 0 5 -7 9 -15z m-227 -342 c-3 -10 -5 -2 -5 17 0 19 2 27 5 18 2
-10 2 -26 0 -35z"/>
<path d="M1120 815 c0 -14 2 -25 4 -25 2 0 6 11 8 25 3 14 1 25 -3 25 -5 0 -9
-11 -9 -25z"/>
<path d="M8325 828 c-2 -7 -15 -43 -28 -80 -14 -38 -21 -68 -17 -68 4 0 10 8
13 18 3 9 14 45 25 80 11 34 18 62 16 62 -3 0 -7 -6 -9 -12z"/>
<path d="M8276 822 c-8 -13 -28 -134 -23 -139 3 -2 10 22 17 54 6 32 14 66 16
76 5 17 -1 23 -10 9z"/>
<path d="M3165 802 c-51 -32 -135 -122 -135 -145 0 -19 2 -18 16 8 21 42 71
92 123 126 49 32 45 41 -4 11z"/>
<path d="M1003 768 c-40 -57 -56 -88 -44 -88 5 0 11 10 15 23 3 12 22 42 41
65 20 23 32 42 27 42 -5 0 -22 -19 -39 -42z"/>
<path d="M9884 658 c-1 -109 1 -146 9 -132 13 23 15 260 2 273 -7 6 -10 -44
-11 -141z"/>
<path d="M744 787 c-6 -7 -41 -41 -78 -76 -37 -35 -73 -80 -81 -99 -21 -48
-19 -63 3 -25 17 33 56 78 140 166 26 26 42 47 37 47 -6 -1 -15 -6 -21 -13z"/>
<path d="M3194 774 c-56 -37 -144 -126 -143 -144 0 -12 2 -13 6 -1 12 31 149
151 171 151 6 0 14 5 17 10 11 18 -11 11 -51 -16z"/>
<path d="M3220 753 c-109 -94 -170 -164 -169 -192 0 -10 4 -7 10 8 10 24 138
155 199 203 19 15 30 27 25 27 -6 1 -35 -20 -65 -46z"/>
<path d="M6365 790 c-3 -5 -1 -10 4 -10 6 0 11 5 11 10 0 6 -2 10 -4 10 -3 0
-8 -4 -11 -10z"/>
<path d="M8225 733 c-3 -37 -9 -80 -11 -95 -3 -16 -1 -28 4 -28 9 0 27 178 18
187 -2 3 -7 -26 -11 -64z"/>
<path d="M85 782 c14 -14 190 -72 212 -71 10 1 2 6 -17 11 -19 6 -73 24 -120
40 -47 16 -80 25 -75 20z"/>
<path d="M2096 774 c-9 -6 -11 -15 -7 -23 6 -9 10 -7 14 8 3 14 10 18 26 14
17 -4 19 -8 10 -19 -15 -19 0 -18 21 1 11 10 27 13 48 9 26 -5 32 -11 32 -32
0 -24 -1 -25 -20 -7 -11 10 -20 13 -20 7 0 -14 37 -35 49 -28 7 5 8 28 2 58
-3 19 -132 30 -155 12z"/>
<path d="M6065 780 c-9 -14 13 -50 31 -50 8 0 17 7 21 16 8 21 -17 36 -36 21
-12 -10 -14 -9 -8 6 7 18 2 23 -8 7z"/>
<path d="M525 750 c-21 -16 -33 -30 -28 -30 6 0 27 14 48 30 21 17 33 30 28
30 -6 0 -27 -13 -48 -30z"/>
<path d="M1256 768 c3 -4 21 -8 40 -8 24 0 34 -5 34 -15 0 -12 -14 -15 -66
-15 -42 0 -63 -4 -59 -10 4 -6 1 -26 -5 -46 -7 -19 -9 -38 -6 -41 3 -3 11 15
18 41 l12 47 63 -2 c35 -1 63 -6 63 -11 0 -12 -61 -37 -77 -31 -7 3 -13 0 -13
-6 0 -6 4 -11 10 -11 20 0 90 32 90 42 0 5 18 7 44 3 33 -5 50 -3 70 10 15 10
24 20 21 23 -3 3 -14 -3 -25 -13 -15 -13 -28 -16 -57 -10 -35 6 -37 8 -18 21
50 37 215 -6 188 -49 -3 -6 -1 -7 5 -3 7 4 10 17 8 28 -6 45 -177 67 -218 28
-23 -21 -40 -18 -36 8 2 13 -7 18 -44 22 -26 3 -44 2 -42 -2z"/>
<path d="M3259 729 c-119 -96 -200 -187 -199 -228 1 -9 8 -3 17 14 35 66 152
184 243 247 14 9 20 17 14 17 -5 1 -39 -22 -75 -50z"/>
<path d="M5516 771 c-3 -4 6 -6 19 -3 14 2 25 6 25 8 0 8 -39 4 -44 -5z"/>
<path d="M8641 745 c-17 -20 -31 -39 -31 -43 0 -4 -16 -24 -35 -44 -42 -44
-44 -51 -9 -34 14 8 24 17 24 21 -1 4 11 20 26 36 15 16 29 36 30 44 1 9 13
24 26 35 12 11 18 19 12 20 -7 0 -26 -16 -43 -35z"/>
<path d="M1183 743 c-16 -16 -45 -48 -64 -73 -18 -25 -38 -48 -43 -52 -6 -4
-8 -10 -5 -13 4 -3 19 11 34 32 15 21 49 59 74 86 50 52 52 62 4 20z"/>
<path d="M3970 759 c-76 -14 -90 -19 -90 -30 0 -6 4 -8 10 -4 5 3 55 8 112 10
73 3 105 1 110 -8 5 -8 8 -6 8 6 0 14 -9 17 -56 17 -34 0 -53 4 -49 10 3 6 5
10 3 9 -2 -1 -23 -5 -48 -10z m17 -15 c-3 -3 -12 -4 -19 -1 -8 3 -5 6 6 6 11
1 17 -2 13 -5z"/>
<path d="M6365 760 c5 -7 32 -14 103 -27 33 -5 42 -18 20 -26 -7 -2 -2 -2 12
0 14 3 30 6 37 7 26 4 25 16 0 16 -15 0 -35 4 -45 10 -22 12 -133 29 -127 20z"/>
<path d="M2488 753 c12 -2 32 -2 45 0 12 2 2 4 -23 4 -25 0 -35 -2 -22 -4z"/>
<path d="M5818 748 c-6 -18 3 -58 13 -58 12 0 12 57 0 64 -5 4 -11 1 -13 -6z"/>
<path d="M8577 732 c-15 -15 -27 -32 -27 -38 0 -5 14 6 30 25 28 32 34 41 27
41 -2 0 -15 -13 -30 -28z"/>
<path d="M558 732 c-16 -9 -28 -21 -28 -26 0 -5 8 -2 18 6 9 8 26 20 37 26 11
6 16 11 10 11 -5 0 -22 -7 -37 -17z"/>
<path d="M2473 733 c9 -2 25 -2 35 0 9 3 1 5 -18 5 -19 0 -27 -2 -17 -5z"/>
<path d="M610 709 c-88 -71 -111 -92 -106 -96 3 -3 18 6 33 20 15 14 46 42 68
61 43 38 46 49 5 15z"/>
<path d="M3390 723 c-8 -2 -23 -21 -33 -42 -13 -29 -22 -38 -35 -34 -21 5
-182 -144 -182 -168 0 -7 8 -2 17 11 19 29 107 114 141 137 51 35 31 -2 -37
-70 -79 -78 -100 -107 -80 -107 7 0 4 -9 -7 -21 l-19 -22 29 7 c25 6 28 5 22
-11 -4 -10 11 2 33 27 48 53 52 69 11 39 -16 -12 -27 -25 -25 -29 2 -3 -6 -6
-18 -7 -17 -1 -10 9 36 51 31 28 57 56 57 61 0 5 -25 -15 -55 -45 -30 -30 -55
-49 -55 -42 0 17 82 104 125 134 19 12 35 29 35 36 0 7 12 30 26 52 l27 40
119 -1 c65 -1 122 1 125 5 7 7 -233 6 -257 -1z"/>
<path d="M2468 713 c18 -2 45 -2 60 0 15 2 0 4 -33 4 -33 0 -45 -2 -27 -4z"/>
<path d="M3298 708 c-7 -7 -35 -30 -61 -52 -49 -39 -127 -130 -127 -147 0 -5
5 -9 10 -9 6 0 10 8 10 17 0 23 167 184 184 177 7 -3 16 2 19 10 8 19 -16 21
-35 4z"/>
<path d="M5156 676 c-36 -62 -33 -70 5 -12 17 26 29 49 26 52 -2 3 -16 -15
-31 -40z"/>
<path d="M5544 693 c3 -21 8 -27 22 -25 36 6 44 11 44 32 0 16 -6 20 -34 20
-32 0 -34 -2 -32 -27z"/>
<path d="M7515 710 c-11 -5 -33 -9 -48 -9 -16 -1 -26 -5 -22 -11 3 -6 -5 -10
-19 -10 -14 0 -48 -9 -76 -20 -28 -11 -68 -20 -90 -20 -21 0 -42 -4 -45 -10
-4 -6 20 -10 64 -10 41 0 71 4 71 10 0 6 9 10 20 10 11 0 20 4 20 9 0 5 10 11
21 14 19 5 21 2 16 -21 -7 -34 2 -84 14 -76 5 3 9 27 9 53 0 27 6 53 13 58 6
6 39 13 73 16 33 4 71 11 85 17 21 9 20 9 -11 4 -19 -3 -46 -8 -60 -11 -20 -4
-22 -2 -10 6 18 13 3 13 -25 1z"/>
<path d="M5091 642 c-39 -79 -28 -72 18 11 18 31 29 57 24 56 -4 0 -23 -30
-42 -67z"/>
<path d="M204 686 c-29 -22 -6 -38 58 -42 l53 -3 -53 8 c-64 11 -72 17 -46 36
10 8 16 15 13 15 -3 0 -14 -6 -25 -14z"/>
<path d="M1500 690 l-35 -7 42 -2 c23 0 45 4 48 9 7 11 -3 11 -55 0z"/>
<path d="M1621 678 c-1 -19 -9 -29 -28 -36 -24 -9 -25 -11 -7 -11 28 -1 47 22
41 51 -4 21 -4 21 -6 -4z"/>
<path d="M2488 693 c12 -2 32 -2 45 0 12 2 2 4 -23 4 -25 0 -35 -2 -22 -4z"/>
<path d="M8835 673 c8 -32 13 -39 21 -30 10 9 -5 57 -17 57 -7 0 -9 -10 -4
-27z"/>
<path d="M8983 689 c-13 -13 -6 -46 13 -53 15 -6 18 16 6 47 -6 13 -10 15 -19
6z"/>
<path d="M716 640 c-25 -27 -46 -57 -45 -67 0 -16 1 -16 8 2 5 11 28 41 51 68
55 62 45 61 -14 -3z"/>
<path d="M360 652 c0 -41 73 -185 108 -213 21 -17 35 -43 50 -94 36 -120 64
-249 63 -282 -1 -18 3 -33 8 -33 6 0 8 6 5 14 -6 16 32 88 67 124 11 13 19 25
16 28 -2 3 -21 -18 -42 -46 -20 -27 -38 -50 -40 -50 -2 0 -11 33 -20 73 -8 39
-24 99 -34 132 -11 33 -24 79 -31 103 -7 29 -16 42 -28 42 -28 0 -94 116 -109
193 -6 30 -5 31 13 17 18 -14 18 -14 5 3 -20 25 -31 21 -31 -11z"/>
<path d="M7059 678 c-9 -28 -2 -59 14 -64 22 -7 37 10 37 44 0 17 -6 22 -25
22 -14 0 -25 -1 -26 -2z"/>
<path d="M1716 643 c-29 -137 -56 -423 -40 -423 5 0 10 39 11 88 1 48 11 147
22 221 12 74 19 136 17 138 -2 3 -7 -8 -10 -24z"/>
<path d="M6830 641 c0 -24 4 -28 19 -24 12 3 19 14 19 29 0 17 -6 24 -19 24
-14 0 -19 -7 -19 -29z"/>
<path d="M1270 640 c-71 -18 -111 -33 -68 -25 14 3 28 1 30 -3 4 -12 88 -2 88
10 0 6 8 17 18 24 21 16 14 16 -68 -6z"/>
<path d="M1866 639 c-2 -13 -12 -71 -21 -129 -9 -58 -22 -135 -29 -173 -8 -37
-11 -69 -7 -71 4 -3 8 7 9 22 1 15 9 58 17 97 23 113 46 267 41 272 -3 3 -7
-5 -10 -18z"/>
<path d="M2118 649 c-34 -20 -17 -28 52 -26 43 1 69 -2 67 -8 -2 -5 -34 -10
-70 -10 -37 0 -67 -2 -67 -4 0 -2 7 -9 16 -15 14 -11 14 -23 -5 -137 -12 -68
-24 -136 -27 -152 -9 -44 13 -31 30 18 8 25 11 43 5 40 -5 -4 -9 -13 -9 -22 0
-9 -2 -14 -5 -11 -3 3 5 65 17 138 l23 132 55 -5 c55 -5 220 29 220 45 0 4 -6
6 -12 3 -48 -16 -152 -45 -160 -45 -17 0 21 32 50 41 22 7 19 8 -14 3 -30 -4
-44 -1 -54 10 -14 18 -85 21 -112 5z"/>
<path d="M747 601 c-35 -33 -51 -57 -53 -77 -1 -16 -5 -38 -9 -49 -6 -15 -3
-14 10 5 10 14 43 52 74 85 31 32 45 51 31 40 -14 -11 -42 -38 -62 -59 -27
-29 -38 -35 -38 -23 0 9 26 42 57 72 32 30 54 55 49 55 -4 0 -30 -22 -59 -49z"/>
<path d="M1916 629 c-6 -31 -35 -283 -38 -331 -2 -43 7 -57 25 -38 9 10 9 11
0 6 -18 -10 -17 40 7 223 11 85 18 156 16 159 -3 2 -7 -6 -10 -19z"/>
<path d="M8636 588 c-31 -34 -56 -69 -56 -77 0 -10 8 -4 19 14 10 17 39 51 65
78 25 26 42 47 37 47 -5 0 -34 -28 -65 -62z"/>
<path d="M9920 588 c-3 -37 -1 -63 3 -59 4 4 7 35 5 67 l-3 59 -5 -67z"/>
<path d="M1370 604 c-6 -15 -14 -72 -17 -126 -3 -54 -9 -98 -14 -98 -9 0 -49
-71 -72 -128 -9 -23 -12 -42 -7 -42 6 0 10 6 10 13 0 20 47 115 68 137 15 16
20 41 25 113 3 51 10 105 16 121 7 16 9 31 7 34 -3 3 -10 -8 -16 -24z"/>
<path d="M7979 620 c-53 -9 -80 -21 -100 -46 -10 -13 -5 -11 16 4 35 26 112
44 83 19 -32 -26 -19 -30 15 -4 18 14 44 27 58 30 l24 4 -25 0 c-14 1 -46 -3
-71 -7z"/>
<path d="M285 601 c-109 -51 -112 -121 -8 -188 17 -11 17 -12 -5 -28 -20 -14
-23 -23 -17 -51 l6 -34 -71 0 c-51 0 -71 -3 -68 -12 4 -11 122 -13 140 -2 5 3
8 24 8 48 0 34 4 45 21 52 20 9 19 12 -24 47 -78 64 -71 114 25 161 29 14 49
25 43 25 -5 0 -28 -8 -50 -18z"/>
<path d="M1475 483 c-10 -76 -23 -142 -29 -148 -17 -15 -36 -63 -35 -88 0 -13
6 -4 14 22 8 24 19 47 26 51 12 8 60 300 49 300 -4 0 -15 -62 -25 -137z"/>
<path d="M1650 583 c-6 -21 -20 -93 -32 -161 -17 -100 -18 -126 -8 -135 10 -9
11 -9 6 1 -9 15 8 129 35 240 21 84 20 128 -1 55z"/>
<path d="M1421 588 c-10 -28 -31 -186 -31 -240 0 -21 5 -38 11 -38 7 0 9 9 6
22 -8 28 10 209 24 245 5 14 7 28 5 31 -3 3 -10 -6 -15 -20z"/>
<path d="M1576 570 c-41 -199 -56 -317 -37 -306 4 3 6 16 4 29 -3 13 7 84 22
157 14 73 24 137 22 144 -2 6 -7 -5 -11 -24z"/>
<path d="M2400 572 c-69 -24 -100 -42 -100 -57 0 -3 21 6 47 20 27 14 55 25
63 24 8 0 0 -7 -17 -15 -58 -25 -35 -24 35 2 37 14 73 27 81 30 8 2 12 7 9 9
-3 3 -21 -2 -41 -10 -20 -8 -42 -15 -49 -15 -7 1 2 7 20 15 17 8 32 17 32 20
0 3 -1 5 -2 4 -2 -1 -37 -13 -78 -27z"/>
<path d="M1059 572 c-38 -48 -58 -82 -48 -82 8 0 8 -4 -1 -15 -7 -8 -15 -13
-19 -10 -13 7 -40 -33 -76 -111 -19 -42 -35 -77 -35 -79 0 -2 -18 -42 -41 -89
-22 -46 -42 -102 -45 -123 -4 -37 -4 -37 9 7 7 25 19 54 25 65 11 18 12 16 6
-14 -4 -20 -2 -31 4 -28 5 4 12 30 15 58 4 33 22 81 52 135 25 47 44 88 41 92
-2 4 2 18 10 32 7 14 13 21 14 17 0 -5 -5 -17 -10 -28 -20 -37 -3 -19 31 34
18 28 33 59 31 67 -2 11 0 11 8 -2 8 -13 3 -28 -20 -68 -43 -72 -37 -74 13 -4
24 32 68 81 97 107 29 26 51 49 49 52 -3 2 -30 -21 -62 -52 -34 -33 -57 -49
-57 -40 0 8 -5 17 -11 19 -7 2 0 17 16 36 15 18 26 35 23 37 -2 2 -11 -4 -19
-13z m-78 -135 c-10 -9 -11 -8 -5 6 3 10 9 15 12 12 3 -3 0 -11 -7 -18z"/>
<path d="M1746 473 c-25 -174 -25 -178 -15 -194 6 -9 9 3 9 36 0 56 24 231 35
258 4 9 3 17 -3 17 -5 0 -17 -53 -26 -117z"/>
<path d="M2002 542 c-2 -26 -12 -96 -22 -156 -11 -60 -18 -111 -16 -114 12
-11 25 12 20 33 -3 13 1 58 10 102 22 112 30 183 20 183 -5 0 -10 -21 -12 -48z"/>
<path d="M7620 570 c-47 -10 -112 -28 -145 -39 -33 -12 -62 -21 -65 -21 -8 2
-18 -41 -19 -77 -1 -39 1 -38 -120 -13 -113 24 -137 20 -157 -28 -13 -31 -13
-38 -1 -47 13 -9 19 -40 35 -182 4 -34 12 -67 18 -73 15 -15 39 -3 54 28 l12
27 14 -28 c8 -15 19 -25 25 -22 5 4 3 13 -6 21 -23 24 -18 33 18 28 l32 -4
-30 20 c-16 11 -43 25 -60 31 -50 20 -65 39 -65 81 0 46 17 56 61 38 25 -11
29 -17 24 -37 -6 -24 9 -53 26 -53 5 0 9 11 9 24 0 27 21 47 28 28 2 -7 7 -10
10 -8 4 2 8 -7 9 -21 2 -37 23 -55 23 -20 0 30 3 32 31 16 11 -5 28 -9 37 -7
26 6 -110 72 -211 103 l-87 26 15 30 c18 34 29 35 138 14 88 -17 160 -20 138
-6 -10 7 -12 21 -7 55 7 42 10 46 44 55 32 9 185 43 250 57 12 2 22 9 22 14 0
12 3 13 -100 -10z m-460 -244 c0 -3 -4 -8 -10 -11 -5 -3 -10 -1 -10 4 0 6 5
11 10 11 6 0 10 -2 10 -4z m70 -170 c0 -18 -48 -72 -56 -64 -4 4 -9 30 -12 58
l-5 51 37 -17 c20 -10 36 -22 36 -28z"/>
<path d="M8668 533 c-96 -100 -102 -148 -6 -53 28 27 54 47 59 45 4 -3 13 4
19 15 15 27 -10 27 -35 0 -10 -11 -21 -18 -24 -15 -3 3 10 19 29 35 19 17 30
30 25 30 -6 0 -36 -26 -67 -57z m12 -16 c0 -2 -16 -19 -37 -38 l-36 -34 28 38
c23 30 45 48 45 34z"/>
<path d="M763 528 c-56 -54 -87 -100 -80 -121 2 -7 -13 -32 -34 -56 -21 -24
-36 -48 -32 -54 4 -7 9 -5 12 5 8 22 48 66 96 105 21 18 37 35 34 37 -3 3 -17
-6 -33 -20 -15 -14 -30 -24 -33 -21 -12 13 13 51 74 112 78 78 75 87 -4 13z"/>
<path d="M2166 567 c2 -7 0 -53 -6 -103 -21 -172 -23 -224 -12 -224 10 0 25
36 51 118 6 19 6 32 0 32 -5 0 -9 -5 -9 -11 0 -20 -32 -121 -37 -116 -2 3 3
63 11 134 19 150 20 183 6 183 -5 0 -7 -6 -4 -13z"/>
<path d="M4783 528 c-11 -53 -43 -141 -81 -228 l-21 -45 0 67 c-1 36 3 68 8
70 9 3 14 52 12 118 -1 29 -3 32 -12 17 -14 -25 -25 -428 -12 -452 10 -17 13
-16 42 15 17 19 31 29 31 22 0 -7 5 -10 11 -6 7 4 8 9 1 13 -7 4 -7 44 1 126
12 132 14 134 27 19 l9 -79 -4 85 c-2 47 0 103 4 125 7 33 9 25 10 -50 2 -129
19 -314 32 -334 9 -13 9 -13 4 4 -4 11 -9 60 -11 110 -13 297 -24 455 -34 455
-4 0 -11 -24 -17 -52z m4 -140 c-2 -13 -4 -3 -4 22 0 25 2 35 4 23 2 -13 2
-33 0 -45z m-30 -106 c-12 -114 -18 -146 -36 -171 -12 -17 -27 -31 -32 -31 -5
0 -9 36 -9 79 0 60 5 88 19 113 10 18 29 61 42 95 13 34 25 61 27 59 1 -2 -4
-66 -11 -144z"/>
<path d="M2051 505 c-7 -38 -19 -111 -28 -161 -22 -123 -4 -164 32 -77 24 57
16 63 -10 8 -13 -27 -24 -44 -24 -36 -1 7 10 81 24 163 14 83 24 156 22 162
-2 6 -9 -20 -16 -59z"/>
<path d="M2515 540 c-38 -15 -72 -24 -73 -19 -5 12 -22 1 -22 -13 0 -6 10 -8
23 -5 33 8 145 52 153 60 12 12 -8 6 -81 -23z"/>
<path d="M2560 527 c-58 -22 -118 -45 -135 -53 -18 -8 -31 -9 -33 -4 -8 23
-38 4 -61 -39 -21 -39 -5 -34 19 5 17 30 23 35 31 23 10 -16 12 -121 3 -168
-6 -29 -9 -31 -49 -31 -37 0 -47 -5 -76 -37 -18 -21 -37 -37 -41 -36 -4 2 -19
-21 -33 -50 l-26 -52 26 28 c14 15 25 35 25 43 0 10 6 14 18 11 9 -3 38 -8 64
-12 30 -4 46 -10 43 -18 -12 -40 -14 -67 -5 -67 5 0 10 13 10 28 0 48 18 58
119 71 51 6 103 17 114 23 l21 11 -22 15 c-12 8 -22 23 -22 33 0 24 -37 33
-95 26 -39 -6 -43 -4 -38 11 12 32 16 36 24 16 7 -17 8 -17 8 -1 1 11 9 17 24
17 54 -1 306 -19 332 -25 29 -5 29 -5 5 6 -14 6 -100 16 -192 22 -148 9 -167
13 -171 29 -8 28 -23 21 -35 -14 -9 -30 -10 -26 -11 37 l0 70 77 31 c82 33
184 77 191 81 2 2 2 4 0 6 -2 2 -51 -14 -109 -36z m-123 -189 c-3 -8 -6 -5 -6
6 -1 11 2 17 5 13 3 -3 4 -12 1 -19z m93 -87 c0 -5 3 -16 6 -25 5 -13 -2 -16
-37 -16 -24 0 -68 -7 -97 -14 -32 -9 -69 -12 -96 -8 l-44 7 24 29 c25 28 27
28 105 24 44 -3 74 -1 67 3 -8 6 3 9 30 9 23 0 42 -4 42 -9z"/>
<path d="M6193 550 c9 -6 17 -23 17 -38 1 -30 22 -118 32 -127 3 -3 1 -26 -4
-50 -7 -31 -6 -54 1 -73 11 -26 11 -25 7 10 -3 21 -2 40 2 42 9 5 8 59 -1 73
-5 7 0 9 13 6 11 -3 26 0 34 6 12 10 15 8 19 -11 2 -13 2 7 -1 44 -3 43 -1 73
7 81 9 12 1 16 -50 26 -34 7 -68 15 -78 17 -13 5 -13 4 2 -6z m87 -24 c23 -5
25 -9 22 -46 -4 -36 -7 -40 -26 -34 -11 3 -28 13 -36 20 -13 13 -13 16 0 24
12 8 12 10 -3 16 -22 8 -22 33 1 29 9 -2 28 -6 42 -9z"/>
<path d="M8729 503 c-73 -78 -86 -95 -66 -87 9 3 17 9 17 14 0 13 84 100 97
100 7 0 13 5 13 10 0 19 -16 9 -61 -37z"/>
<path d="M8786 497 c-59 -62 -120 -150 -136 -193 -8 -25 -8 -26 3 -10 34 53
129 175 163 209 20 20 34 40 30 44 -3 4 -31 -19 -60 -50z"/>
<path d="M6127 523 c-4 -3 -7 -21 -7 -39 0 -40 -9 -66 -21 -58 -5 3 -9 1 -9
-5 0 -5 4 -11 9 -13 5 -1 11 -81 13 -176 2 -132 5 -167 14 -147 6 15 7 48 3
83 -9 74 -9 259 1 297 7 26 8 22 10 -25 1 -30 1 -107 0 -171 -1 -100 15 -247
27 -236 2 2 -1 44 -6 93 -13 114 -1 226 28 265 12 16 17 29 12 29 -6 0 -17
-12 -24 -26 -14 -26 -15 -24 -26 51 -12 83 -14 89 -24 78z"/>
<path d="M6756 522 c-7 -12 -29 -143 -24 -147 2 -3 11 31 19 75 14 79 15 88 5
72z"/>
<path d="M8860 522 c-18 -6 -29 -18 -58 -59 -35 -50 -26 -51 12 -1 36 47 61
64 71 48 4 -6 2 -10 -3 -10 -9 0 -126 -136 -156 -182 -32 -49 -10 -30 34 30
24 31 69 83 101 115 33 31 59 58 59 60 0 4 -46 4 -60 -1z"/>
<path d="M2696 513 c-4 -4 -21 -9 -39 -10 -18 -2 -48 -4 -68 -6 -20 -1 -47
-10 -60 -20 l-24 -18 32 4 c26 3 30 1 22 -10 -20 -23 12 -14 91 27 41 21 70
39 64 40 -6 0 -14 -3 -18 -7z m-56 -22 c-8 -5 -26 -11 -40 -15 -21 -5 -20 -3
5 9 32 15 60 20 35 6z"/>
<path d="M9760 474 c-45 -71 -150 -283 -150 -302 1 -9 7 -2 15 15 20 46 95
176 109 188 14 12 68 137 61 143 -2 2 -18 -18 -35 -44z"/>
<path d="M1124 458 c-62 -67 -103 -120 -138 -180 -43 -75 -24 -56 31 29 28 43
77 106 110 141 34 34 58 62 54 62 -4 0 -30 -24 -57 -52z"/>
<path d="M2216 488 c-9 -34 -7 -45 5 -28 8 12 9 10 5 -10 -3 -14 -9 -59 -12
-100 -5 -60 -4 -73 6 -63 7 6 18 38 26 70 l13 58 -1 -70 c-1 -85 0 -95 10 -95
4 0 6 52 4 116 -2 64 -6 113 -9 110 -3 -3 -14 -43 -24 -88 -19 -83 -19 -71 -2
70 6 53 -9 74 -21 30z"/>
<path d="M4585 500 c-3 -5 -14 -42 -24 -82 -13 -50 -24 -73 -34 -72 -11 1 -15
-24 -20 -134 -6 -143 1 -184 29 -161 16 13 20 34 5 24 -22 -13 -22 70 -1 192
29 167 47 226 66 219 8 -3 14 -1 14 3 0 13 -28 22 -35 11z m-58 -252 c-3 -8
-6 -5 -6 6 -1 11 2 17 5 13 3 -3 4 -12 1 -19z"/>
<path d="M2821 450 c-1 -46 -4 -56 -18 -56 -10 0 -29 -4 -43 -8 -24 -7 -24 -6
-6 8 11 9 16 16 10 16 -5 -1 -22 -12 -39 -25 -34 -28 -17 -35 31 -13 22 10 28
10 32 0 2 -7 8 -10 13 -6 5 3 9 0 9 -5 0 -6 -10 -10 -21 -8 -12 1 -24 -4 -27
-12 -3 -10 2 -12 21 -7 16 4 27 1 30 -7 6 -17 20 136 14 159 -2 10 -5 -6 -6
-36z"/>
<path d="M6599 491 c8 -5 15 -19 16 -32 2 -31 21 -35 36 -8 10 19 9 25 -7 36
-10 7 -27 13 -38 13 -16 0 -18 -2 -7 -9z"/>
<path d="M9566 492 c-4 -7 -11 -10 -16 -7 -16 10 -210 -265 -210 -296 0 -8 17
15 38 51 49 83 108 167 145 205 24 25 21 17 -18 -50 -71 -121 -142 -260 -104
-205 52 78 179 295 176 304 -2 6 -6 5 -11 -2z"/>
<path d="M1225 477 c-5 -7 -29 -34 -52 -61 -51 -58 -117 -155 -110 -162 2 -3
23 23 44 58 49 77 120 158 139 158 8 0 14 5 14 10 0 14 -23 12 -35 -3z"/>
<path d="M4493 482 c-15 -10 -41 -70 -59 -137 -15 -54 -19 -145 -6 -145 4 0 5
21 3 46 -2 31 6 73 24 130 31 94 46 114 72 93 14 -12 16 -12 11 1 -5 17 -28
23 -45 12z"/>
<path d="M6985 418 l7 -78 -76 1 c-74 1 -77 2 -71 22 4 17 2 15 -10 -5 -9 -16
-21 -28 -28 -28 -9 0 -9 -2 -1 -8 9 -5 8 -24 -2 -72 -7 -36 -14 -86 -14 -112
0 -39 3 -48 18 -48 14 0 14 2 3 9 -11 7 -13 23 -8 70 11 105 26 148 52 153 22
5 23 2 27 -84 3 -56 9 -93 18 -101 10 -10 12 -9 6 6 -13 39 -18 98 -12 141 l7
44 48 4 49 3 10 -42 c9 -41 7 -45 -24 -80 -29 -33 -33 -35 -34 -17 0 12 7 27
15 34 17 14 21 65 4 55 -6 -4 -8 -14 -5 -22 3 -8 2 -11 -4 -8 -10 6 -24 -53
-18 -81 2 -14 9 -11 39 19 20 20 39 33 43 30 3 -3 6 -29 6 -57 0 -33 3 -46 9
-37 5 7 11 9 13 5 3 -5 3 -3 1 4 -1 8 -3 43 -3 79 0 51 -3 64 -14 60 -19 -7
-31 53 -14 66 9 6 8 7 -4 3 -15 -5 -18 2 -20 42 -3 86 -4 91 -12 99 -4 4 -5
-27 -1 -69z m52 -180 c-3 -8 -6 -5 -6 6 -1 11 2 17 5 13 3 -3 4 -12 1 -19z"/>
<path d="M2691 454 c-42 -19 -56 -22 -63 -12 -7 12 -12 5 -10 -13 1 -4 -6 -6
-15 -5 -9 0 -18 -5 -20 -11 -8 -22 19 -15 102 26 88 44 92 54 6 15z"/>
<path d="M3350 475 c0 -6 4 -15 9 -20 6 -6 12 -37 14 -70 l3 -60 2 60 2 60 43
-1 c40 -1 40 -1 4 3 -24 3 -35 8 -31 15 5 8 1 9 -11 4 -11 -4 -22 -2 -27 6 -4
7 -8 8 -8 3z"/>
<path d="M4607 463 c-9 -8 -9 -215 -1 -277 7 -48 16 -55 40 -32 21 22 17 32
-5 12 -18 -17 -19 -15 -26 54 -4 39 -4 111 0 160 7 87 6 98 -8 83z"/>
<path d="M5655 461 l-150 -4 150 -11 c110 -8 149 -14 148 -23 -2 -7 3 -13 11
-13 16 0 19 47 2 52 -6 2 -78 1 -161 -1z"/>
<path d="M9654 382 c-92 -155 -154 -292 -134 -292 6 0 10 6 10 14 0 17 61 134
136 263 30 51 54 94 54 97 0 21 -22 -6 -66 -82z"/>
<path d="M1253 418 c-33 -47 -77 -130 -88 -165 -11 -39 3 -25 16 15 14 45 95
172 109 172 5 0 10 5 10 10 0 21 -18 9 -47 -32z"/>
<path d="M3760 450 c-8 -5 -10 -10 -5 -10 6 0 17 5 25 10 8 5 11 10 5 10 -5 0
-17 -5 -25 -10z"/>
<path d="M9618 428 c-13 -18 -37 -53 -53 -78 -16 -25 -47 -69 -69 -98 -21 -29
-37 -55 -34 -57 2 -3 22 20 44 51 21 31 55 77 75 103 36 46 74 111 65 111 -2
0 -14 -15 -28 -32z"/>
<path d="M9857 453 c-4 -3 -7 -13 -7 -22 0 -8 -20 -58 -44 -110 -25 -53 -48
-109 -51 -126 -9 -42 100 175 113 224 9 38 5 51 -11 34z"/>
<path d="M2680 415 c-30 -32 -11 -33 54 -5 57 26 60 34 5 15 -52 -19 -59 -18
-35 0 11 8 15 15 10 15 -6 0 -21 -11 -34 -25z"/>
<path d="M7637 310 c3 -74 8 -148 13 -165 4 -16 5 31 3 105 -3 74 -8 149 -13
165 -4 17 -5 -31 -3 -105z"/>
<path d="M8949 378 c-65 -78 -114 -154 -139 -216 -11 -26 -14 -38 -7 -28 84
132 139 208 174 243 41 40 54 63 33 63 -5 0 -33 -28 -61 -62z"/>
<path d="M9035 393 c-80 -80 -226 -286 -225 -317 1 -6 9 3 18 21 29 53 202
271 245 308 24 21 34 35 25 35 -8 0 -37 -21 -63 -47z"/>
<path d="M4000 415 c-10 -12 -7 -15 13 -20 14 -4 34 -5 44 -2 11 3 8 5 -11 6
-21 1 -27 5 -22 16 7 19 -8 19 -24 0z"/>
<path d="M9064 355 c-104 -116 -197 -245 -176 -245 5 0 13 10 19 23 15 32 198
243 228 263 28 18 33 34 11 34 -8 0 -45 -34 -82 -75z"/>
<path d="M3565 400 c-4 -6 -15 -8 -25 -5 -10 3 -27 2 -37 -3 -10 -5 -29 -15
-44 -21 -39 -19 -90 -71 -87 -90 5 -22 41 -17 100 13 l47 24 -8 -21 c-5 -12
-7 -38 -4 -57 l4 -35 -23 28 c-28 32 -58 36 -58 6 0 -26 18 -59 32 -59 6 0 16
-7 22 -16 12 -15 46 -10 46 7 0 5 12 9 28 10 l27 1 -25 7 -25 7 33 17 c17 10
32 20 32 23 0 2 -9 0 -20 -6 -19 -10 -19 -8 -14 33 4 28 2 47 -5 51 -12 8 -5
53 12 74 5 7 7 15 4 18 -3 3 -8 0 -12 -6z m-56 -54 c-2 -2 -24 -13 -49 -25
l-45 -22 30 26 c17 13 39 25 49 25 11 0 17 -2 15 -4z"/>
<path d="M2867 380 c-3 -11 -2 -20 3 -20 4 0 10 9 13 20 3 11 2 20 -3 20 -4 0
-10 -9 -13 -20z"/>
<path d="M7686 384 c-4 -9 -1 -32 6 -50 12 -35 28 -46 28 -20 0 9 7 12 20 9
17 -4 20 0 20 24 0 16 -5 34 -12 41 -17 17 -55 15 -62 -4z"/>
<path d="M9885 380 c-3 -11 -8 -31 -11 -44 -2 -13 -15 -48 -28 -77 -43 -97
-37 -106 9 -14 47 94 65 155 47 155 -6 0 -13 -9 -17 -20z"/>
<path d="M5207 373 c-8 -13 5 -123 14 -123 14 0 22 47 15 85 -7 34 -21 52 -29
38z"/>
<path d="M4945 362 c30 -6 35 -9 20 -13 -16 -5 -21 -16 -23 -48 -2 -35 0 -41
17 -41 11 0 31 4 46 10 22 8 24 14 19 37 -4 16 -12 31 -18 35 -6 4 2 8 18 8
28 0 28 -1 24 -44 -3 -24 -2 -50 3 -58 6 -9 9 -2 10 22 2 34 -1 83 -4 86 -1 1
-36 4 -77 7 -41 3 -57 2 -35 -1z"/>
<path d="M5680 350 c20 -13 50 -13 50 0 0 6 -15 10 -32 10 -25 0 -29 -3 -18
-10z"/>
<path d="M7400 348 c14 -6 44 -20 68 -31 23 -11 42 -23 42 -28 0 -12 -7 -11
-32 2 -15 8 -19 8 -14 0 10 -15 1 -14 -37 5 l-32 15 25 -20 c14 -11 32 -21 40
-22 8 -2 22 -3 30 -4 8 -1 29 -8 45 -14 17 -7 41 -14 55 -16 21 -2 22 -1 7 10
-9 7 -17 16 -17 22 0 10 -137 76 -180 87 l-25 6 25 -12z"/>
<path d="M664 287 c-61 -62 -89 -103 -76 -111 6 -3 12 4 16 17 3 12 33 50 67
85 35 34 59 62 53 62 -5 -1 -32 -24 -60 -53z"/>
<path d="M4866 245 c-4 -52 -4 -99 -1 -105 15 -24 25 -6 25 45 l0 54 68 4 67
3 -67 2 -68 2 0 45 c0 82 -17 47 -24 -50z"/>
<path d="M1348 299 c-25 -52 -58 -142 -54 -146 2 -2 16 27 31 64 15 37 31 73
37 80 5 7 8 18 6 24 -2 7 -11 -3 -20 -22z"/>
<path d="M1507 323 c-2 -5 0 -21 4 -38 7 -29 7 -29 8 8 1 35 -3 46 -12 30z"/>
<path d="M6050 328 c0 -3 -9 -65 -20 -138 -12 -73 -19 -135 -16 -137 5 -6 10
18 31 166 8 57 13 107 10 109 -3 3 -5 3 -5 0z"/>
<path d="M2886 313 c-3 -4 26 -20 65 -37 99 -43 112 -63 98 -146 -15 -93 2
-144 29 -84 9 19 9 23 1 18 -9 -5 -10 12 -5 65 9 86 -2 109 -66 142 -56 29
-115 49 -122 42z"/>
<path d="M3800 295 c-8 -20 -16 -25 -42 -24 -32 1 -32 1 -8 10 22 8 21 8 -7 4
-22 -3 -33 0 -33 8 0 8 -3 8 -9 -2 -8 -13 -33 -11 -96 6 -14 4 -17 2 -10 -5 9
-10 132 -34 176 -36 9 0 16 -6 16 -13 0 -9 -5 -9 -20 -1 -31 16 -50 -12 -55
-79 -3 -44 1 -63 13 -78 16 -19 16 -19 11 13 -4 23 -2 32 9 32 7 0 17 9 20 20
3 11 12 20 19 20 7 0 17 13 22 30 7 22 12 27 23 20 12 -7 13 -14 3 -37 l-12
-28 25 28 c31 35 34 72 5 64 -17 -4 -20 0 -20 34 0 44 -16 51 -30 14z"/>
<path d="M6362 306 c-3 -5 0 -6 6 -2 6 3 12 -3 15 -16 4 -20 4 -20 6 -3 1 18
7 20 61 17 60 -4 60 -4 60 -35 0 -39 7 -32 13 13 l4 35 -79 0 c-44 0 -82 -4
-86 -9z"/>
<path d="M6713 267 c-2 -29 1 -65 5 -81 6 -21 8 -8 7 47 -1 87 -9 110 -12 34z"/>
<path d="M9933 300 c-6 -14 -23 -51 -37 -84 -41 -92 -30 -100 15 -10 23 45 39
90 37 100 -4 17 -6 16 -15 -6z"/>
<path d="M5950 254 c-6 -14 -10 -32 -10 -39 0 -9 -6 -12 -16 -8 -18 7 -34 -13
-33 -42 0 -16 3 -14 16 10 21 39 25 24 14 -55 -5 -36 -7 -67 -5 -69 8 -9 24
53 24 92 0 49 17 117 30 117 4 0 12 -19 16 -42 4 -24 9 -35 12 -25 5 22 -17
87 -29 87 -5 0 -14 -12 -19 -26z"/>
<path d="M7700 236 c0 -14 5 -26 10 -26 6 0 10 7 10 15 0 8 4 14 9 13 5 -2 11
2 13 7 1 6 -7 11 -19 13 -19 3 -23 -1 -23 -22z"/>
<path d="M7820 215 c6 -5 39 -11 75 -13 l65 -4 0 -54 c0 -30 5 -54 10 -54 6 0
10 6 10 14 0 16 139 33 149 19 3 -5 16 -4 29 3 16 8 20 14 12 19 -11 7 -114 0
-172 -11 -26 -5 -28 -3 -28 30 0 32 3 36 25 36 14 0 25 4 25 9 0 6 -47 11
-105 13 -66 2 -101 0 -95 -7z"/>
<path d="M1999 200 c-25 -10 -61 -28 -80 -40 -40 -26 -30 -23 76 24 83 37 86
49 4 16z"/>
<path d="M9933 207 c0 -7 -3 -26 -7 -42 -5 -21 -4 -27 3 -20 15 15 26 75 14
75 -5 0 -10 -6 -10 -13z"/>
<path d="M3137 182 c-26 -16 -45 -48 -34 -58 8 -8 77 38 77 51 0 22 -14 24
-43 7z"/>
<path d="M928 183 c7 -3 16 -2 19 1 4 3 -2 6 -13 5 -11 0 -14 -3 -6 -6z"/>
<path d="M989 181 c46 -8 58 -30 45 -81 l-11 -40 61 2 61 2 -53 3 c-43 3 -53
7 -48 19 18 47 17 62 -5 83 -14 13 -35 20 -53 20 l-31 -2 34 -6z"/>
<path d="M1640 178 c-36 -5 -92 -7 -125 -5 -33 2 -51 2 -40 -1 13 -4 2 -9 -35
-18 -35 -7 -46 -13 -30 -14 24 -2 24 -3 -5 -10 -41 -11 92 -2 240 16 66 8 147
18 180 22 l60 6 -50 7 c-65 9 -115 9 -195 -3z m118 -5 c-10 -2 -28 -2 -40 0
-13 2 -5 4 17 4 22 1 32 -1 23 -4z m-158 -23 c-30 -5 -80 -8 -110 -7 l-55 0
55 7 c30 4 80 7 110 7 l55 0 -55 -7z"/>
<path d="M7685 180 c3 -5 11 -10 16 -10 6 0 42 -14 81 -31 88 -38 102 -31 16
9 -72 34 -123 48 -113 32z"/>
<path d="M2072 150 c-23 -17 -49 -30 -57 -30 -8 0 -15 -7 -15 -15 0 -11 11
-15 40 -15 22 0 40 -4 40 -10 0 -16 -70 -11 -144 10 -82 23 -103 19 -24 -5 82
-26 171 -31 187 -12 7 9 11 22 8 29 -2 7 4 28 15 46 25 41 8 42 -50 2z m31
-17 c-9 -16 -18 -29 -19 -31 -3 -6 -34 11 -34 19 0 8 48 38 63 39 4 0 0 -12
-10 -27z"/>
<path d="M1839 136 c-8 -8 -233 -38 -339 -46 -89 -6 -95 -7 -38 -9 36 0 122 6
190 15 126 16 249 41 212 43 -11 1 -23 -1 -25 -3z"/>
<path d="M2404 126 c-3 -8 -4 -23 -1 -33 3 -12 5 -9 6 9 1 26 3 27 64 31 l62
3 -63 2 c-47 2 -64 -2 -68 -12z"/>
<path d="M7275 130 c7 -11 50 -35 92 -51 40 -15 26 -5 -40 30 -32 17 -55 26
-52 21z"/>
<path d="M680 35 c0 -19 2 -35 4 -35 2 0 6 16 8 35 2 19 0 35 -4 35 -4 0 -8
-16 -8 -35z"/>
</g>
</svg>
