<?xml version="1.0" standalone="no"?>
<!DOCTYPE svg PUBLIC "-//W3C//DTD SVG 20010904//EN"
 "http://www.w3.org/TR/2001/REC-SVG-20010904/DTD/svg10.dtd">
<svg version="1.0" xmlns="http://www.w3.org/2000/svg"
 width="403.000000pt" height="53.000000pt" viewBox="0 0 403.000000 53.000000"
 preserveAspectRatio="xMidYMid meet">

<g transform="translate(0.000000,53.000000) scale(0.100000,-0.100000)"
fill="#000000" stroke="none">
<path d="M2850 515 c-10 -12 -28 -14 -91 -9 -103 9 -192 -9 -219 -44 -11 -13
-20 -28 -20 -33 0 -4 26 -20 57 -36 106 -52 124 -115 69 -235 -48 -104 -65
-153 -54 -157 15 -5 23 6 79 118 54 110 60 140 35 189 -15 30 -103 95 -144
107 -33 9 -24 36 18 57 27 14 60 18 143 18 65 0 107 -4 107 -10 0 -19 15 -10
32 20 18 31 10 41 -12 15z"/>
<path d="M3480 503 c-15 -20 -20 -35 -15 -53 20 -78 19 -89 -11 -95 -16 -4
-39 -11 -52 -16 -31 -12 -32 -12 -32 15 0 13 -9 34 -21 47 l-20 24 6 -30 c19
-92 14 -252 -11 -375 -4 -17 -2 -22 5 -15 10 10 27 114 40 237 4 37 10 70 13
73 4 4 26 11 49 16 71 16 82 37 57 105 -10 27 -8 35 11 63 27 38 11 42 -19 4z"/>
<path d="M3268 335 c-50 -36 -89 -106 -87 -154 1 -21 3 -19 10 12 16 70 54
120 125 164 10 6 15 12 9 12 -5 0 -31 -15 -57 -34z"/>
<path d="M3180 116 c0 -29 -8 -41 -47 -75 -27 -23 -41 -41 -33 -41 8 0 29 13
46 30 18 16 35 26 38 23 3 -4 6 17 6 45 0 29 -2 52 -5 52 -3 0 -5 -15 -5 -34z"/>
</g>
</svg>
