<?xml version="1.0" standalone="no"?>
<!DOCTYPE svg PUBLIC "-//W3C//DTD SVG 20010904//EN"
 "http://www.w3.org/TR/2001/REC-SVG-20010904/DTD/svg10.dtd">
<svg version="1.0" xmlns="http://www.w3.org/2000/svg"
 width="403.000000pt" height="65.000000pt" viewBox="0 0 403.000000 65.000000"
 preserveAspectRatio="xMidYMid meet">

<g transform="translate(0.000000,65.000000) scale(0.100000,-0.100000)"
fill="#000000" stroke="none">
<path d="M2575 638 c-48 -133 -163 -488 -175 -541 -7 -33 -6 -37 4 -26 7 8 37
91 66 184 61 199 117 356 130 369 6 6 10 14 10 18 0 13 -30 9 -35 -4z"/>
<path d="M3065 641 c-3 -6 -41 -31 -84 -57 -80 -47 -131 -88 -131 -103 0 -5 9
-11 19 -14 13 -3 21 1 24 13 2 10 26 30 53 46 27 15 52 33 56 40 4 6 30 26 58
44 27 18 50 34 50 36 0 8 -39 4 -45 -5z"/>
<path d="M3180 629 c0 -11 -9 -65 -21 -120 -16 -79 -18 -103 -9 -115 17 -20
25 -18 65 18 42 36 101 147 109 204 5 34 3 32 -12 -16 -34 -100 -79 -173 -124
-196 -37 -19 -41 -6 -23 73 19 80 30 173 21 173 -3 0 -6 -9 -6 -21z"/>
<path d="M2770 452 c-45 -22 -55 -62 -15 -62 l27 0 -39 -44 c-21 -24 -67 -68
-103 -97 -36 -29 -78 -67 -95 -85 -16 -17 -47 -44 -68 -59 -21 -16 -42 -37
-48 -47 -13 -24 -2 -58 18 -58 9 0 13 6 10 14 -9 23 84 135 174 211 44 37 99
90 121 117 34 39 44 46 56 36 12 -10 20 -6 43 20 16 18 29 38 29 45 0 6 -9 -3
-20 -20 -19 -32 -60 -46 -60 -22 0 7 -11 8 -31 4 -44 -10 -34 13 17 42 46 27
35 30 -16 5z"/>
<path d="M2348 53 c7 -3 16 -2 19 1 4 3 -2 6 -13 5 -11 0 -14 -3 -6 -6z"/>
<path d="M2138 43 c7 -3 16 -2 19 1 4 3 -2 6 -13 5 -11 0 -14 -3 -6 -6z"/>
<path d="M2273 43 c9 -2 25 -2 35 0 9 3 1 5 -18 5 -19 0 -27 -2 -17 -5z"/>
<path d="M2078 33 c7 -3 16 -2 19 1 4 3 -2 6 -13 5 -11 0 -14 -3 -6 -6z"/>
<path d="M1980 17 c-25 -6 -38 -12 -30 -14 8 -1 38 3 65 11 58 17 31 19 -35 3z"/>
</g>
</svg>
