<?xml version="1.0" standalone="no"?>
<!DOCTYPE svg PUBLIC "-//W3C//DTD SVG 20010904//EN"
 "http://www.w3.org/TR/2001/REC-SVG-20010904/DTD/svg10.dtd">
<svg version="1.0" xmlns="http://www.w3.org/2000/svg"
 width="403.000000pt" height="130.000000pt" viewBox="0 0 403.000000 130.000000"
 preserveAspectRatio="xMidYMid meet">

<g transform="translate(0.000000,130.000000) scale(0.100000,-0.100000)"
fill="#000000" stroke="none">
<path d="M1978 1293 c7 -3 16 -2 19 1 4 3 -2 6 -13 5 -11 0 -14 -3 -6 -6z"/>
<path d="M2444 1268 c8 -18 26 -58 40 -89 34 -74 46 -140 46 -264 0 -80 -3
-105 -15 -115 -9 -7 -17 -11 -18 -9 -9 12 -77 166 -78 174 -1 23 -96 151 -121
163 -29 14 -243 41 -324 42 -53 0 -149 24 -159 40 -3 5 20 23 52 40 61 32 35
31 -29 -1 -39 -20 -48 -39 -25 -56 19 -16 154 -43 210 -43 46 0 186 -15 246
-27 13 -2 37 -18 52 -34 25 -27 94 -159 145 -277 14 -33 23 -42 38 -40 34 5
46 45 46 153 0 117 -18 202 -60 285 -16 33 -30 66 -30 75 0 8 -7 15 -15 15
-13 0 -14 -4 -1 -32z"/>
<path d="M1938 1283 c7 -3 16 -2 19 1 4 3 -2 6 -13 5 -11 0 -14 -3 -6 -6z"/>
<path d="M1898 783 c17 -2 47 -2 65 0 17 2 3 4 -33 4 -36 0 -50 -2 -32 -4z"/>
<path d="M1838 773 c7 -3 16 -2 19 1 4 3 -2 6 -13 5 -11 0 -14 -3 -6 -6z"/>
<path d="M2018 773 c7 -3 16 -2 19 1 4 3 -2 6 -13 5 -11 0 -14 -3 -6 -6z"/>
<path d="M1739 740 c-30 -15 -62 -36 -70 -46 -10 -14 -6 -13 18 4 17 12 55 33
85 47 29 14 46 25 38 24 -8 0 -40 -13 -71 -29z"/>
<path d="M2085 748 c22 -11 51 -30 65 -42 l25 -21 -20 24 c-19 22 -85 62 -102
61 -4 -1 10 -10 32 -22z"/>
<path d="M2182 615 c0 -16 2 -22 5 -12 2 9 2 23 0 30 -3 6 -5 -1 -5 -18z"/>
<path d="M1581 566 c-6 -25 -11 -53 -10 -63 0 -10 7 9 15 41 8 33 13 61 10 63
-2 2 -9 -16 -15 -41z"/>
<path d="M1580 477 c-1 -33 72 -108 105 -107 6 1 -7 10 -27 21 -22 11 -46 35
-57 57 -11 20 -20 33 -21 29z"/>
<path d="M2075 424 c-33 -18 -56 -34 -52 -34 13 0 105 49 112 60 8 12 11 14
-60 -26z"/>
<path d="M1708 363 c7 -3 16 -2 19 1 4 3 -2 6 -13 5 -11 0 -14 -3 -6 -6z"/>
<path d="M1918 363 c6 -2 18 -2 25 0 6 3 1 5 -13 5 -14 0 -19 -2 -12 -5z"/>
<path d="M1778 353 c23 -2 59 -2 80 0 20 2 1 4 -43 4 -44 0 -61 -2 -37 -4z"/>
<path d="M1494 298 l-19 -23 25 20 c14 11 27 21 29 22 2 2 0 3 -6 3 -5 0 -18
-10 -29 -22z"/>
<path d="M1383 113 c9 -2 25 -2 35 0 9 3 1 5 -18 5 -19 0 -27 -2 -17 -5z"/>
<path d="M1468 63 c5 -21 7 -23 10 -9 2 10 0 22 -6 28 -6 6 -7 0 -4 -19z"/>
<path d="M1380 41 c14 -12 38 -20 55 -19 l30 1 -29 4 c-16 3 -41 12 -55 20
l-26 15 25 -21z"/>
</g>
</svg>
